<svg width="100" height="100" viewBox="0 0 100 100" fill="none" xmlns="http://www.w3.org/2000/svg">
<path d="M50 24.7479C48.7628 22.5157 46.384 21 43.6563 21C40.9623 21 38.494 22.5058 37.2452 24.8724C34.1079 25.7127 31.875 28.5872 31.875 31.875C31.875 31.8817 31.875 31.8878 31.875 31.8945C30.7448 32.7454 30.0625 34.0809 30.0625 35.5C30.0625 35.6491 30.0714 35.7987 30.089 35.9522C27.8208 37.4559 26.4375 40.0038 26.4375 42.75C26.4375 44.3439 26.8951 45.8701 27.7651 47.1976C27.488 47.7924 27.3438 48.4375 27.3438 49.0937C27.3438 49.4039 27.3756 49.7106 27.4376 50.0111C25.1543 51.281 23.7188 53.686 23.7188 56.3437C23.7188 59.5125 25.7924 62.2729 28.7155 63.2295C28.4084 63.9141 28.25 64.65 28.25 65.4062C28.25 67.7962 29.8139 69.8817 32.0494 70.5862C32.7689 73.8735 35.7071 76.2812 39.125 76.2812C39.648 76.2812 40.1703 76.2232 40.6845 76.1082C41.6163 77.8672 43.4457 79 45.4688 79C47.3591 79 49.0253 78.0295 50 76.5618V24.7479Z" fill="#FFD38F"/>
<path d="M50.9063 50C50.4054 50 50 49.5942 50 49.0937C50 46.5953 47.9672 44.5625 45.4688 44.5625C44.5616 44.5625 43.6864 44.8293 42.9385 45.3342C42.5961 45.5656 42.1393 45.5359 41.8287 45.2603C41.4712 44.9421 40.8684 44.5625 40.0313 44.5625C39.5304 44.5625 39.125 44.1567 39.125 43.6562C39.125 43.1558 39.5304 42.75 40.0313 42.75C40.9048 42.75 41.757 43.0098 42.4916 43.4907C43.404 43.0044 44.4218 42.75 45.4688 42.75C48.9663 42.75 51.8125 45.5957 51.8125 49.0937C51.8125 49.5942 51.4072 50 50.9063 50Z" fill="#EC8835"/>
<path d="M34.5938 34.5937C36.7435 34.5937 38.771 35.4221 40.3047 36.9267C40.6605 37.2767 41.234 37.2718 41.5862 36.9143C41.9366 36.5573 41.9313 35.9833 41.5738 35.6329C39.6993 33.7941 37.2204 32.7812 34.5938 32.7812C33.1159 32.7812 31.717 33.1132 30.4542 33.6927C30.2045 34.2561 30.0625 34.8682 30.0625 35.5C30.0625 35.6491 30.0714 35.7987 30.089 35.9522C30.0784 35.9592 30.0694 35.968 30.0588 35.9751C31.3565 35.1036 32.9164 34.5937 34.5938 34.5937Z" fill="#EC8835"/>
<path d="M45.4688 61.7812C45.4688 61.2807 45.0634 60.8749 44.5625 60.8749C44.0616 60.8749 43.6563 61.2807 43.6563 61.7812C43.6563 63.78 42.0305 65.4062 40.0313 65.4062C38.4214 65.4062 36.9931 64.3133 36.5576 62.748C36.478 62.4635 36.2656 62.2357 35.9868 62.1369C35.7089 62.0382 35.3991 62.0812 35.1593 62.2524C33.9247 63.1299 32.476 63.5937 30.9688 63.5937C30.1817 63.5937 29.4253 63.4635 28.7152 63.2304C28.4644 63.7899 28.3186 64.3847 28.2715 64.996C29.1239 65.2623 30.0298 65.4062 30.9688 65.4062C32.4751 65.4062 33.9353 65.0362 35.2477 64.3278C36.1762 66.0739 38.0082 67.2187 40.0313 67.2187C43.0297 67.2187 45.4688 64.7796 45.4688 61.7812Z" fill="#EC8835"/>
<path d="M76.2812 56.3437C76.2812 53.686 74.8457 51.2811 72.5624 50.0111C72.6244 49.7107 72.6562 49.404 72.6562 49.0937C72.6562 48.4375 72.512 47.7924 72.2349 47.1976C73.1049 45.8701 73.5625 44.3439 73.5625 42.75C73.5625 40.0038 72.1792 37.4559 69.911 35.9522C69.9287 35.7987 69.9375 35.6491 69.9375 35.5C69.9375 34.0809 69.2552 32.7454 68.125 31.8945C68.125 31.8878 68.125 31.8817 68.125 31.875C68.125 28.5872 65.8921 25.7127 62.7548 24.8724C61.506 22.5058 59.0377 21 56.3437 21C53.6159 21 51.2373 22.5157 50 24.7479V76.5617C50.9747 78.0295 52.6409 79 54.5312 79C56.5543 79 58.3837 77.8672 59.3156 76.1082C59.8298 76.2232 60.352 76.2812 60.875 76.2812C64.2929 76.2812 67.2311 73.8735 67.9507 70.5862C70.1861 69.8817 71.75 67.7961 71.75 65.4062C71.75 64.65 71.5916 63.9141 71.2845 63.2295C74.2076 62.2729 76.2812 59.5125 76.2812 56.3437Z" fill="#FFC164"/>
<path d="M51.8134 38.128C51.8125 38.1581 51.8125 38.1886 51.8125 38.2187C51.8125 41.2172 54.2516 43.6562 57.25 43.6562C60.2485 43.6562 62.6875 41.2172 62.6875 38.2187C62.6875 37.7183 62.2822 37.3125 61.7813 37.3125C61.2803 37.3125 60.875 37.7183 60.875 38.2187C60.875 40.2176 59.2492 41.8437 57.25 41.8437C55.2508 41.8437 53.625 40.2176 53.625 38.2187C53.625 37.9713 53.6498 37.725 53.6993 37.4864C53.7551 37.2151 53.6843 36.9332 53.5064 36.7213C53.3286 36.5093 53.0515 36.374 52.7869 36.3974C52.7355 36.3988 52.6859 36.4041 52.7187 36.4062C51.2195 36.4062 49.9999 35.1867 49.9999 33.6875V37.2913C50.5294 37.6918 51.1397 37.9908 51.8134 38.128Z" fill="#EC8835"/>
<path d="M54.5312 58.1562C55.5782 58.1562 56.5951 57.9018 57.5084 57.4155C58.2429 57.8965 59.0952 58.1562 59.9687 58.1562C60.4697 58.1562 60.875 57.7505 60.875 57.25C60.875 56.7495 60.4697 56.3437 59.9687 56.3437C59.1315 56.3437 58.5288 55.964 58.1713 55.6459C57.8607 55.3702 57.4049 55.3406 57.0615 55.5716C56.3127 56.0769 55.4375 56.3437 54.5312 56.3437C52.0328 56.3437 50 54.3109 50 51.8125V56.2436C51.1525 57.4218 52.7569 58.1562 54.5312 58.1562Z" fill="#EC8835"/>
<path d="M69.9109 35.9522C69.9286 35.7987 69.9374 35.6491 69.9374 35.5C69.9374 34.8682 69.7955 34.2561 69.5457 33.6927C68.283 33.1132 66.8841 32.7812 65.4063 32.7812C64.9053 32.7812 64.5 33.187 64.5 33.6875C64.5 34.188 64.9053 34.5937 65.4063 34.5937C67.0836 34.5937 68.6435 35.1036 69.9411 35.9751C69.9306 35.968 69.9215 35.9592 69.9109 35.9522Z" fill="#EC8835"/>
<path d="M71.7285 64.9961C71.6815 64.3849 71.5357 63.79 71.2849 63.2305C70.5746 63.4635 69.8183 63.5937 69.0313 63.5937C67.4931 63.5937 66.0187 63.1105 64.7673 62.1967C64.5328 62.0268 64.2327 61.9781 63.9592 62.0644C63.6839 62.1517 63.4671 62.3644 63.3742 62.6375C62.8122 64.2934 61.2618 65.4062 59.5156 65.4062C59.0147 65.4062 58.6094 65.812 58.6094 66.3125C58.6094 66.813 59.0147 67.2187 59.5156 67.2187C61.6538 67.2187 63.5894 66.0643 64.6239 64.2557C65.97 65.0111 67.4746 65.4062 69.0313 65.4062C69.9701 65.4062 70.8761 65.2624 71.7285 64.9961Z" fill="#EC8835"/>
</svg>
