<svg width="100" height="100" viewBox="0 0 100 100" fill="none" xmlns="http://www.w3.org/2000/svg">
<path d="M46.9424 36.9409H52.6697C52.7599 36.7889 52.8147 36.6184 52.8298 36.4423C52.845 36.2662 52.8202 36.0889 52.7573 35.9236L46.9439 28.8118L46.9424 36.9409Z" fill="#0D5ABD"/>
<path d="M42.1462 56.4657C42.069 55.9702 41.9651 55.4792 41.8348 54.9949C40.8977 51.6347 40.1117 50.2124 40.4472 46.6904C40.8856 44.2961 40.8599 39.4909 47.2235 40.2391C48.9044 40.4371 51.5209 41.6403 53.0188 41.6146C53.8759 41.5995 54.5002 39.8658 54.5561 39.2884C54.6332 38.4933 53.2486 37.1419 52.6697 36.9394C51.3251 36.5042 49.9741 36.0889 48.6172 35.6939C47.0467 35.2389 47.1283 33.1167 47.0285 32.3609C47.0066 32.1848 47.037 32.0061 47.1161 31.8472C47.1951 31.6883 47.3192 31.5563 47.4729 31.4676C47.7904 31.2801 48.0398 31.4555 48.3481 31.6565L49.6859 32.636C50.4371 33.2799 48.3648 34.5103 48.9256 34.7159C48.9256 34.7159 51.5783 35.712 52.715 35.9191C53.3378 36.0325 55.4872 33.6079 55.6127 32.1856C55.7109 31.067 50.4764 26.0139 46.7444 24.0519C45.4323 23.3626 44.663 22.962 43.7984 23.0028C42.766 23.0512 42.441 23.4593 41.1562 24.5597C35.3412 29.5343 29.697 40.292 28.8687 42.6727C25.4738 52.4389 24.9432 57.5842 24.8223 60.491C24.7473 61.3748 24.709 62.2613 24.7074 63.1483C24.8056 63.1483 23.1958 70.7061 24.7074 72.2176C26.219 73.7292 32.7579 73.7292 32.7579 73.7292C47.8735 79.7588 75.9431 78.1852 75.9431 62.7961C75.9431 44.3974 47.5062 46.8386 42.1462 56.4657Z" fill="#8CBDFD"/>
<path d="M53.9757 71.2804C49.1992 70.7786 45.4686 68.4372 45.2585 68.3027C44.9204 68.0872 44.6817 67.7462 44.5949 67.3547C44.5082 66.9633 44.5805 66.5534 44.796 66.2152C45.0115 65.8771 45.3525 65.6384 45.7439 65.5516C46.1354 65.4649 46.5453 65.5372 46.8835 65.7527C46.9439 65.7905 52.9342 69.5195 58.7431 67.9701C61.9552 67.1146 64.5883 64.7732 66.5685 61.0155C66.7553 60.6607 67.0754 60.3946 67.4583 60.2759C67.8413 60.1571 68.2558 60.1953 68.6106 60.3821C68.9654 60.5689 69.2314 60.889 69.3502 61.272C69.4689 61.655 69.4307 62.0695 69.2439 62.4242C66.8481 66.968 63.5695 69.8203 59.4989 70.898C57.5989 71.3999 55.717 71.4633 53.9757 71.2804Z" fill="#0D5ABD"/>
</svg>
