<svg width="220" height="83" viewBox="0 0 220 83" fill="none" xmlns="http://www.w3.org/2000/svg">
<path d="M52.3399 73.0573H56.018C56.5365 73.0573 56.9575 72.6363 56.9575 72.1179V45.3562H53.2793C52.2424 45.3562 51.4004 46.1981 51.4004 47.2351V72.1134C51.4004 72.6319 51.8214 73.0529 52.3399 73.0529V73.0573Z" fill="#1A3755"/>
<path d="M37.2462 56.5013C40.2995 56.5013 42.7811 58.983 42.7811 62.0362C42.7811 65.0895 40.2995 67.5712 37.2462 67.5712C34.1929 67.5712 31.7113 65.0895 31.7113 62.0362C31.7113 58.983 34.1929 56.5013 37.2462 56.5013ZM37.2462 51.0152C31.1618 51.0152 26.2251 55.9474 26.2251 62.0362C26.2251 68.1251 31.1573 73.0573 37.2462 73.0573C43.335 73.0573 48.2673 68.1251 48.2673 62.0362C48.2673 55.9474 43.335 51.0152 37.2462 51.0152Z" fill="#1A3755"/>
<path d="M71.1471 56.5013C74.2004 56.5013 76.682 58.983 76.682 62.0362C76.682 65.0895 74.2004 67.5712 71.1471 67.5712C68.0938 67.5712 65.6121 65.0895 65.6121 62.0362C65.6121 58.983 68.0938 56.5013 71.1471 56.5013ZM71.1471 51.0152C65.0626 51.0152 60.126 55.9474 60.126 62.0362C60.126 68.1251 65.0582 73.0573 71.1471 73.0573C77.2359 73.0573 82.1681 68.1251 82.1681 62.0362C82.1681 55.9474 77.2359 51.0152 71.1471 51.0152Z" fill="#1A3755"/>
<path d="M85.3499 60.4188V72.1179C85.3499 72.6363 85.7709 73.0573 86.2894 73.0573H89.9763C90.4948 73.0573 90.9158 72.6363 90.9158 72.1179V61.2031C90.9158 58.6063 93.0208 56.5013 95.6176 56.5013H99.1717C99.6901 56.5013 100.111 56.0803 100.111 55.5619V51.0196H94.7491C89.5554 51.0196 85.3455 55.2295 85.3455 60.4232L85.3499 60.4188Z" fill="#1A3755"/>
<path d="M121.675 50.9664H115.112C114.598 50.9664 114.106 51.1791 113.751 51.5514L108.744 56.8115V45.3562H105.065C104.029 45.3562 103.187 46.1981 103.187 47.2351V72.1134C103.187 72.6319 103.608 73.0529 104.126 73.0529H108.744V64.7749L110.565 62.8295L115.568 72.5699C115.728 72.8845 116.051 73.0795 116.406 73.0795H121.675L114.58 58.5442L121.675 50.9664Z" fill="#1A3755"/>
<path d="M24.4704 68.3024C24.6343 68.0941 24.692 67.8371 24.6388 67.5757C24.5856 67.3098 24.4172 67.0793 24.1823 66.9464L20.6815 65.001C20.2915 64.7794 19.7642 64.9079 19.4805 65.2846C18.9621 65.9803 18.3284 66.5564 17.5927 66.9951C16.4671 67.6687 15.1731 68.0099 13.7506 68.0099C11.4551 68.0099 9.56289 67.1946 8.13152 65.5859C6.71788 63.9995 5.99998 61.8635 5.99998 59.2445C5.99998 56.6255 6.71788 54.4939 8.13152 52.903C9.56289 51.2944 11.4551 50.479 13.7506 50.479C15.1731 50.479 16.4671 50.8202 17.5927 51.4938C18.3416 51.9414 18.9886 52.5352 19.516 53.2487C19.7819 53.6121 20.2915 53.745 20.6815 53.5456L24.2798 51.7198C24.5236 51.5957 24.7008 51.3742 24.7629 51.1039C24.8249 50.838 24.7717 50.5721 24.6078 50.3594C23.9209 49.4376 23.0878 48.6134 22.135 47.9043C19.8483 46.2115 17.0565 45.3518 13.8304 45.3518C11.1981 45.3518 8.80954 45.9456 6.74004 47.1155C4.67497 48.281 3.04418 49.9339 1.892 52.0212C0.735384 54.1217 0.145996 56.5501 0.145996 59.24C0.145996 61.93 0.730952 64.3495 1.892 66.4368C3.04418 68.5151 4.6794 70.1592 6.74447 71.3247C8.81397 72.4946 11.1981 73.0884 13.8348 73.0884C17.061 73.0884 19.8572 72.2376 22.1394 70.5536C23.0302 69.8978 23.8145 69.14 24.4704 68.298V68.3024Z" fill="#1A3755"/>
<path d="M177.444 66.149C177.085 65.954 176.651 66.0072 176.336 66.2686C175.379 67.0618 174.151 67.5404 172.813 67.5404C170.287 67.5404 168.151 65.8388 167.491 63.5167C167.491 63.5167 167.491 63.5122 167.491 63.5078H178.144C178.144 63.5078 178.144 63.5122 178.144 63.5167H182.89C183.382 63.5167 183.799 63.1356 183.83 62.6437C183.843 62.4309 183.847 62.2138 183.847 61.9967C183.847 55.6464 178.481 50.5457 172.033 50.9889C166.587 51.3655 162.186 55.766 161.81 61.2123C161.366 67.6601 166.463 73.0266 172.817 73.0266C176.048 73.0266 178.951 71.6396 180.971 69.4238C181.388 68.9674 181.282 68.2495 180.741 67.9526L177.453 66.1445L177.444 66.149ZM172.809 56.4573C174.936 56.4573 176.788 57.6671 177.714 59.4308H167.903C168.829 57.6671 170.681 56.4573 172.809 56.4573Z" fill="#1A3755"/>
<path fill-rule="evenodd" clip-rule="evenodd" d="M213.167 73.0574H209.489V73.053C208.971 73.053 208.55 72.632 208.55 72.1135V56.5191H202.789L202.789 52.841C202.789 51.804 203.631 50.962 204.668 50.962L208.55 50.962V47.2352C208.55 46.1982 209.392 45.3563 210.429 45.3563H214.107V50.962L218.91 50.962C219.429 50.962 219.85 51.383 219.85 51.9015H219.854V55.5796C219.854 56.0981 219.433 56.5191 218.915 56.5191H214.107V72.118C214.107 72.6364 213.686 73.0574 213.167 73.0574Z" fill="#1A3755"/>
<path d="M199.78 56.1244L200.836 53.5927C201.066 53.0497 200.804 52.437 200.264 52.2168C199.029 51.7142 196.635 50.962 193.261 50.962C188.16 50.962 185.063 53.3212 185.063 57.1077C185.063 63.6716 195.269 63.5249 195.269 66.2803C195.269 69.0358 189.158 67.6819 186.415 66.9224C185.752 66.7426 185.103 67.2453 185.103 67.9387V71.2115C185.103 71.6481 185.373 72.037 185.774 72.1948C186.746 72.5654 188.925 73.1194 193.261 73.1194C199.772 73.1194 201.459 69.2082 201.459 66.306C201.459 59.3348 191.294 60.1677 191.294 57.0673C191.294 54.6421 196.398 56.0437 198.512 56.7298C199.029 56.8949 199.576 56.638 199.791 56.1354L199.783 56.128L199.78 56.1244Z" fill="#1A3755"/>
<path d="M160.601 25.0817C164.664 14.5025 156.229 1.30376 154.1 0.642919C152.912 0.274407 153.052 4.97079 149.763 10.5303C150.7 12.7319 151.412 14.865 151.952 16.9434C150.876 15.4815 149.742 14.0018 148.537 12.499C147.008 14.7766 145.014 17.1469 142.727 19.5246C143.223 23.2802 143.293 26.903 143.302 30.5068C141.943 28.0654 140.565 25.6197 139.105 23.1468C135.401 26.7422 131.588 30.3089 129.056 33.7036C120.507 46.3863 123.789 47.5579 126.62 55.1191C124.724 52.7989 123 50.5331 121.41 48.3076C118.889 57.2897 121.739 65.762 126.535 68.3369C127.952 70.8018 129.492 72.5415 130.304 73.2516C132.672 75.6433 135.021 77.634 138.797 79.6966C138.796 79.6938 132.813 71.2592 132.813 71.2592C132.309 70.6376 131.646 69.5661 130.938 68.1848C137.118 66.6428 134.983 61.6064 143.558 55.735C142.026 54.4274 139.879 54.7346 138.948 55.4677C138.948 55.4677 138.868 51.9418 145.345 47.6492C151.821 43.3566 156.023 39.6371 159.875 27.3171C157.91 27.7667 155.913 28.21 153.896 28.6437C156.213 27.4816 158.464 26.2998 160.601 25.0817Z" fill="#006FFD"/>
<path d="M150.507 19.1782C152.705 26.0226 150.478 34.8284 145.147 39.5013C140.403 43.8266 135.412 48.258 132.798 54.516C131.053 58.5897 130.391 63.2398 130.173 68.0103C129.166 63.4175 129.136 58.3237 130.662 53.559C132.871 46.3339 138.223 41.3092 143.44 37.0225C148.441 32.9202 150.742 26.2242 150.507 19.1782Z" fill="white"/>
<path d="M137.875 79.1422C138.774 72.8807 142.439 58.9912 149.268 57.0463C152.762 56.3423 154.782 59.1436 154.484 62.2659C154.444 63.5125 154.226 65.0425 154.416 66.0353C154.383 66.0185 154.363 66.0646 154.513 66.0856C154.645 66.0938 154.759 66.1344 154.912 66.0965C156.117 65.6851 156.969 64.4868 157.862 63.2779C162.197 56.4822 164.826 48.4569 166.165 40.4617L166.565 40.4951C166.493 43.2732 166.117 46.0456 165.581 48.7792C164.671 53.6378 159.865 73.1014 152.343 68.4966C150.013 66.6406 151.424 62.8345 150.476 61.0126C148.888 61.4849 147.544 63.6132 146.424 65.1211C143.501 69.4734 141.055 74.4399 138.256 79.267L137.875 79.1422Z" fill="#EC9007"/>
</svg>
