<svg width="124" height="76" viewBox="0 0 124 76" fill="none" xmlns="http://www.w3.org/2000/svg">
<path d="M38.3739 28.3904C39.0141 27.9635 41.0081 27.2589 42.7642 27.8443C44.9592 28.576 45.2338 29.8593 44.9592 30.954C44.6877 32.0365 43.3128 33.1462 41.3921 33.5121C39.4714 33.8779 36.4532 33.5121 35.0813 32.0487C33.7094 30.5853 33.435 28.939 34.5325 27.1097C35.6301 25.2805 38.9228 24 41.941 24C46.0567 24 49.4853 25.2514 50.9956 28.0272C52.9163 31.5571 50.9172 34.6668 48.8006 36.3131C46.6839 37.9594 43.3129 39 38.6484 39C33.9839 39 32.2706 37.6464 28.7707 36.0732C25.2708 34.5 18.0708 32.2 13.2708 37" stroke="#B9C0CC" stroke-linecap="round"/>
<path d="M91.9245 28.7128C89.8454 30.4373 86.8126 30.8603 84.214 30.8213C82.9273 30.802 81.7744 30.6699 80.9429 30.5425C80.5797 30.4868 80.2788 30.4322 80.0559 30.3885C80.0788 30.2377 80.1097 30.0517 80.1507 29.8361C80.2703 29.208 80.475 28.3314 80.815 27.3428C81.497 25.359 82.7103 22.962 84.8341 21.2005C86.9604 19.4369 89.6313 18.6151 91.8015 18.2392C92.8822 18.0521 93.8275 17.9773 94.5015 17.9494C94.7537 17.939 94.9675 17.9352 95.1357 17.9344C95.1543 18.145 95.1748 18.4269 95.1889 18.7648C95.2218 19.5513 95.2203 20.6361 95.0838 21.8308C94.8084 24.2412 93.9957 26.995 91.9245 28.7128Z" fill="#EDEEF2" stroke="#B9C0CC"/>
<path d="M76.8974 50.7938C77.9307 52.1464 78.1303 54.0856 78.0374 55.7709C77.9916 56.601 77.8765 57.3426 77.7725 57.8767C77.7426 58.0303 77.7137 58.1663 77.6878 58.282C77.6299 58.2697 77.567 58.2558 77.4995 58.2401C77.0987 58.147 76.5395 57.9926 75.9119 57.7482C74.65 57.257 73.1482 56.417 72.0798 55.0182C71.0094 53.6169 70.5489 51.8846 70.3621 50.472C70.2693 49.7701 70.2456 49.1583 70.2451 48.7232C70.2449 48.6325 70.2458 48.5496 70.2473 48.4753C70.3555 48.4717 70.4816 48.4692 70.6228 48.4689C71.131 48.468 71.8303 48.4971 72.596 48.6158C74.1482 48.8565 75.8705 49.4494 76.8974 50.7938Z" fill="#EDEEF2" stroke="#B9C0CC"/>
<path d="M39.8254 45.9142C42.3163 43.7885 49.2043 40.7534 56.8292 45.6189" stroke="#B9C0CC" stroke-linecap="round"/>
<path d="M63.0261 47.6874C65.9697 47.1355 71.5336 46.3792 75.0659 52.5606" stroke="#B9C0CC" stroke-linecap="round"/>
<path d="M74.3049 31.8542C77.3405 31.7622 83.1041 30.259 89.0871 23.9612" stroke="#B9C0CC" stroke-linecap="round"/>
</svg>
