<svg width="28" height="24" viewBox="0 0 28 24" fill="none" xmlns="http://www.w3.org/2000/svg">
<path d="M9.6632 23.9782H0.976739C0.442788 23.9782 0 23.5354 0 23.0015V11.0001C0 9.02055 1.60185 7.4187 3.58137 7.4187H9.6632C10.1972 7.4187 10.6399 7.86149 10.6399 8.39544V23.0015C10.6399 23.5354 10.1972 23.9782 9.6632 23.9782ZM1.95348 22.0247H8.68646V9.37218H3.58137C2.68278 9.37218 1.95348 10.1015 1.95348 11.0001V22.0247Z" fill="#303640"/>
<path d="M18.3368 23.9781H9.65032C9.11637 23.9781 8.67358 23.5354 8.67358 23.0014V3.60322C8.67358 1.6237 10.2754 0.0218506 12.255 0.0218506H15.7322C17.7117 0.0218506 19.3136 1.6237 19.3136 3.60322V23.0014C19.3136 23.5354 18.8838 23.9781 18.3368 23.9781ZM10.6401 22.0247H17.3731V3.60322C17.3731 2.70463 16.6438 1.97533 15.7452 1.97533H12.268C11.3694 1.97533 10.6401 2.70463 10.6401 3.60322V22.0247Z" fill="#303640"/>
<path d="M27.0233 23.9781H18.3368C17.8029 23.9781 17.3601 23.5353 17.3601 23.0014V14.3023C17.3601 13.7683 17.8029 13.3256 18.3368 13.3256H24.4187C26.3982 13.3256 28 14.9274 28 16.9069V23.0014C28 23.5353 27.5573 23.9781 27.0233 23.9781ZM19.3136 22.0247H26.0466V16.9069C26.0466 16.0083 25.3173 15.279 24.4187 15.279H19.3136V22.0247Z" fill="#303640"/>
</svg>
