<svg width="379" height="331" viewBox="0 0 379 331" fill="none" xmlns="http://www.w3.org/2000/svg">
<path fill-rule="evenodd" clip-rule="evenodd" d="M143.929 67.7154C143.929 67.7154 136.707 60.2034 130.955 65.8636C130.955 65.8636 133.588 72.7885 143.929 67.7154Z" fill="#00CA9D"/>
<path fill-rule="evenodd" clip-rule="evenodd" d="M131.645 52.6438C131.645 52.6438 137.557 61.2224 130.861 65.7286C130.861 65.7286 124.602 61.7588 131.645 52.6438Z" fill="#00CA9D"/>
<path fill-rule="evenodd" clip-rule="evenodd" d="M139.792 77.0721C139.792 77.0721 130.876 71.6831 126.779 78.6395C126.779 78.6395 131.117 84.6481 139.792 77.0721Z" fill="#00CA9D"/>
<path fill-rule="evenodd" clip-rule="evenodd" d="M124.027 65.6927C124.027 65.6927 131.957 72.448 126.654 78.5327C126.654 78.5327 119.584 76.3183 124.027 65.6927Z" fill="#00CA9D"/>
<path fill-rule="evenodd" clip-rule="evenodd" d="M138.217 87.1798C138.217 87.1798 128.21 84.2847 126.056 92.0629C126.056 92.0629 131.8 96.7418 138.217 87.1798Z" fill="#00CA9D"/>
<path fill-rule="evenodd" clip-rule="evenodd" d="M120.046 80.2676C120.046 80.2676 129.454 84.7413 125.907 91.9902C125.907 91.9902 118.504 91.6834 120.046 80.2676Z" fill="#00CA9D"/>
<path fill-rule="evenodd" clip-rule="evenodd" d="M139.315 97.349C139.315 97.349 128.899 97.1448 128.829 105.212C128.829 105.212 135.588 108.248 139.315 97.349Z" fill="#00CA9D"/>
<path fill-rule="evenodd" clip-rule="evenodd" d="M119.972 95.377C119.972 95.377 130.218 97.2644 128.668 105.184C128.668 105.184 121.436 106.803 119.972 95.377Z" fill="#00CA9D"/>
<path fill-rule="evenodd" clip-rule="evenodd" d="M143.006 106.889C143.006 106.889 132.892 109.387 134.912 117.198C134.912 117.198 142.229 118.381 143.006 106.889Z" fill="#00CA9D"/>
<path fill-rule="evenodd" clip-rule="evenodd" d="M123.812 109.992C123.812 109.992 134.196 109.161 134.748 117.209C134.748 117.209 128.185 120.646 123.812 109.992Z" fill="#00CA9D"/>
<path fill-rule="evenodd" clip-rule="evenodd" d="M149.039 115.148C149.039 115.148 139.918 120.179 143.892 127.203C143.892 127.203 151.263 126.451 149.039 115.148Z" fill="#00CA9D"/>
<path fill-rule="evenodd" clip-rule="evenodd" d="M131.302 123.114C131.302 123.114 141.119 119.623 143.739 127.255C143.739 127.255 138.286 132.274 131.302 123.114Z" fill="#00CA9D"/>
<path fill-rule="evenodd" clip-rule="evenodd" d="M157.006 121.566C157.006 121.566 149.498 128.785 155.151 134.54C155.151 134.54 162.079 131.909 157.006 121.566Z" fill="#00CA9D"/>
<path fill-rule="evenodd" clip-rule="evenodd" d="M141.934 133.849C141.934 133.849 150.514 127.937 155.017 134.631C155.017 134.631 151.053 140.892 141.934 133.849Z" fill="#00CA9D"/>
<path fill-rule="evenodd" clip-rule="evenodd" d="M166.363 125.701C166.363 125.701 160.979 134.62 167.931 138.714C167.931 138.714 173.937 134.38 166.363 125.701Z" fill="#00CA9D"/>
<path fill-rule="evenodd" clip-rule="evenodd" d="M176.469 127.273C176.469 127.273 173.577 137.282 181.353 139.439C181.353 139.439 186.033 133.699 176.469 127.273Z" fill="#00CA9D"/>
<path fill-rule="evenodd" clip-rule="evenodd" d="M169.56 145.448C169.56 145.448 174.032 136.04 181.281 139.585C181.281 139.585 180.975 146.988 169.56 145.448Z" fill="#00CA9D"/>
<path fill-rule="evenodd" clip-rule="evenodd" d="M186.639 126.178C186.639 126.178 186.436 136.595 194.506 136.664C194.506 136.664 197.537 129.908 186.639 126.178Z" fill="#00CA9D"/>
<path fill-rule="evenodd" clip-rule="evenodd" d="M184.669 145.52C184.669 145.52 186.555 135.275 194.474 136.825C194.474 136.825 196.091 144.056 184.669 145.52Z" fill="#00CA9D"/>
<path fill-rule="evenodd" clip-rule="evenodd" d="M147.416 51.1389C147.416 51.1389 137.032 51.9942 137.785 60.0294C137.785 60.0294 144.82 62.3597 147.416 51.1389Z" fill="#00CA9D"/>
<path fill-rule="evenodd" clip-rule="evenodd" d="M249.531 67.7154C249.531 67.7154 256.755 60.2034 262.506 65.8636C262.506 65.8636 259.874 72.7885 249.531 67.7154Z" fill="#00CA9D"/>
<path fill-rule="evenodd" clip-rule="evenodd" d="M261.814 52.6438C261.814 52.6438 255.902 61.2224 262.598 65.7286C262.598 65.7286 268.858 61.7588 261.814 52.6438Z" fill="#00CA9D"/>
<path fill-rule="evenodd" clip-rule="evenodd" d="M253.67 77.0721C253.67 77.0721 262.586 71.6831 266.68 78.6395C266.68 78.6395 262.344 84.6481 253.67 77.0721Z" fill="#00CA9D"/>
<path fill-rule="evenodd" clip-rule="evenodd" d="M269.433 65.6927C269.433 65.6927 261.502 72.448 266.806 78.5327C266.806 78.5327 273.875 76.3183 269.433 65.6927Z" fill="#00CA9D"/>
<path fill-rule="evenodd" clip-rule="evenodd" d="M255.244 87.1798C255.244 87.1798 265.252 84.2847 267.406 92.0629C267.406 92.0629 261.66 96.7418 255.244 87.1798Z" fill="#00CA9D"/>
<path fill-rule="evenodd" clip-rule="evenodd" d="M273.415 80.2676C273.415 80.2676 264.006 84.7413 267.554 91.9902C267.554 91.9902 274.957 91.6834 273.415 80.2676Z" fill="#00CA9D"/>
<path fill-rule="evenodd" clip-rule="evenodd" d="M254.146 97.349C254.146 97.349 264.561 97.1448 264.632 105.212C264.632 105.212 257.873 108.248 254.146 97.349Z" fill="#00CA9D"/>
<path fill-rule="evenodd" clip-rule="evenodd" d="M273.488 95.377C273.488 95.377 263.243 97.2644 264.792 105.184C264.792 105.184 272.024 106.803 273.488 95.377Z" fill="#00CA9D"/>
<path fill-rule="evenodd" clip-rule="evenodd" d="M250.456 106.889C250.456 106.889 260.567 109.387 258.549 117.198C258.549 117.198 251.232 118.381 250.456 106.889Z" fill="#00CA9D"/>
<path fill-rule="evenodd" clip-rule="evenodd" d="M269.649 109.992C269.649 109.992 259.264 109.161 258.713 117.209C258.713 117.209 265.274 120.646 269.649 109.992Z" fill="#00CA9D"/>
<path fill-rule="evenodd" clip-rule="evenodd" d="M244.42 115.148C244.42 115.148 253.543 120.179 249.569 127.203C249.569 127.203 242.197 126.451 244.42 115.148Z" fill="#00CA9D"/>
<path fill-rule="evenodd" clip-rule="evenodd" d="M262.157 123.114C262.157 123.114 252.343 119.623 249.722 127.255C249.722 127.255 255.174 132.274 262.157 123.114Z" fill="#00CA9D"/>
<path fill-rule="evenodd" clip-rule="evenodd" d="M236.455 121.566C236.455 121.566 243.963 128.785 238.307 134.54C238.307 134.54 231.38 131.909 236.455 121.566Z" fill="#00CA9D"/>
<path fill-rule="evenodd" clip-rule="evenodd" d="M251.528 133.849C251.528 133.849 242.947 127.937 238.443 134.631C238.443 134.631 242.409 140.892 251.528 133.849Z" fill="#00CA9D"/>
<path fill-rule="evenodd" clip-rule="evenodd" d="M227.098 125.701C227.098 125.701 232.483 134.62 225.531 138.714C225.531 138.714 219.523 134.38 227.098 125.701Z" fill="#00CA9D"/>
<path fill-rule="evenodd" clip-rule="evenodd" d="M216.991 127.273C216.991 127.273 219.884 137.282 212.108 139.439C212.108 139.439 207.428 133.699 216.991 127.273Z" fill="#00CA9D"/>
<path fill-rule="evenodd" clip-rule="evenodd" d="M223.9 145.448C223.9 145.448 219.428 136.04 212.18 139.585C212.18 139.585 212.486 146.988 223.9 145.448Z" fill="#00CA9D"/>
<path fill-rule="evenodd" clip-rule="evenodd" d="M206.821 126.178C206.821 126.178 207.025 136.595 198.956 136.664C198.956 136.664 195.922 129.908 206.821 126.178Z" fill="#00CA9D"/>
<path fill-rule="evenodd" clip-rule="evenodd" d="M208.792 145.52C208.792 145.52 206.907 135.275 198.988 136.825C198.988 136.825 197.371 144.056 208.792 145.52Z" fill="#00CA9D"/>
<path fill-rule="evenodd" clip-rule="evenodd" d="M246.043 51.1389C246.043 51.1389 256.426 51.9942 255.673 60.0294C255.673 60.0294 248.641 62.3597 246.043 51.1389Z" fill="#00CA9D"/>
<path d="M229.404 27.9129C229.404 27.9129 250.212 16.5529 252.504 28.5823C254.795 40.6106 237.255 53.539 236.17 62.1095C235.083 70.68 244.555 79.987 238.316 85.9407C232.076 91.8955 221.05 83.3199 221.05 83.3199" stroke="#FED448" stroke-width="8"/>
<path d="M165.881 27.9129C165.881 27.9129 145.072 16.5529 142.782 28.5823C140.489 40.6106 158.03 53.539 159.116 62.1095C160.202 70.68 150.73 79.987 156.971 85.9407C163.21 91.8955 174.235 83.3199 174.235 83.3199" stroke="#FED448" stroke-width="8"/>
<path fill-rule="evenodd" clip-rule="evenodd" d="M213.471 154.298L196.533 154.247L179.595 154.344C179.595 154.344 170.829 165.197 164.486 168.245H196.533H228.579C222.237 165.197 213.471 154.298 213.471 154.298Z" fill="#FED448"/>
<path fill-rule="evenodd" clip-rule="evenodd" d="M208.339 132.889C209.785 130.78 210.634 128.24 210.634 125.488C210.634 121.723 209.039 118.03 206.502 115.635C205.633 105.575 205.169 97.3608 204.929 93.2975H197.496H190.065C189.825 97.3608 189.36 105.581 188.49 115.642C185.952 118.037 184.361 121.579 184.361 125.343C184.361 128.096 185.208 130.7 186.653 132.811C185.263 142.942 183.355 151.199 180.739 154.247H197.496H214.253C211.639 151.199 209.73 143.022 208.339 132.889Z" fill="#FED448"/>
<path fill-rule="evenodd" clip-rule="evenodd" d="M210.198 135.436C210.198 136.287 209.507 136.978 208.656 136.978H186.344C185.493 136.978 184.802 136.287 184.802 135.436V134.456C184.802 133.604 185.493 132.915 186.344 132.915H208.656C209.507 132.915 210.198 133.604 210.198 134.456V135.436Z" fill="#3FCBCE"/>
<path fill-rule="evenodd" clip-rule="evenodd" d="M159.407 17.1107C160.092 26.6655 167.028 111.704 196.883 111.704C226.737 111.704 233.673 26.6655 234.358 17.1107H159.407Z" fill="#FBC704"/>
<path fill-rule="evenodd" clip-rule="evenodd" d="M166.518 63.8386C171.948 87.6983 181.33 111.554 197.142 111.554C212.956 111.554 222.337 87.6983 227.767 63.8386H166.518Z" fill="#FED448"/>
<path fill-rule="evenodd" clip-rule="evenodd" d="M228.524 58.7249C229.603 53.4944 230.499 48.3432 231.24 43.5221H162.455C163.196 48.3432 164.092 53.4944 165.172 58.7249H228.524Z" fill="#FED448"/>
<path fill-rule="evenodd" clip-rule="evenodd" d="M235.594 27.8196C235.594 28.7216 234.468 29.3006 233.566 29.3006H160.059C159.158 29.3006 158.391 28.7216 158.391 27.8196V11.2129C158.391 10.3129 159.158 10 160.059 10H233.566C234.468 10 235.594 10.3129 235.594 11.2129V27.8196Z" fill="#FED448"/>
<path d="M20.2393 208.943C20.2393 203.42 24.7164 198.943 30.2393 198.943H136.043V331H20.2393V208.943Z" fill="url(#paint0_linear_99_142438)"/>
<path d="M258.958 198.943H364.761C370.284 198.943 374.761 203.42 374.761 208.943V331H258.958V198.943Z" fill="url(#paint1_linear_99_142438)"/>
<path d="M139.09 186.595C139.09 181.072 143.567 176.595 149.09 176.595H244.894C250.417 176.595 254.894 181.072 254.894 186.595V331H139.09V186.595Z" fill="url(#paint2_linear_99_142438)"/>
<path d="M208.166 132.915H185.818C184.696 132.915 183.787 133.824 183.787 134.946C183.787 136.068 184.696 136.978 185.818 136.978H208.166C209.288 136.978 210.198 136.068 210.198 134.946C210.198 133.824 209.288 132.915 208.166 132.915Z" fill="#FBC704"/>
<path d="M213.245 152.215H180.739C179.617 152.215 178.708 153.125 178.708 154.247C178.708 155.369 179.617 156.279 180.739 156.279H213.245C214.368 156.279 215.277 155.369 215.277 154.247C215.277 153.125 214.368 152.215 213.245 152.215Z" fill="#FBC704"/>
<path d="M230.007 161.358H163.978C160.893 161.358 158.391 163.859 158.391 166.945C158.391 170.03 160.893 172.532 163.978 172.532H230.007C233.092 172.532 235.594 170.03 235.594 166.945C235.594 163.859 233.092 161.358 230.007 161.358Z" fill="#FBC704"/>
<path fill-rule="evenodd" clip-rule="evenodd" d="M379 62L376.523 71.5115L369 74L371.423 62.603L379 62Z" fill="#FFA184"/>
<path fill-rule="evenodd" clip-rule="evenodd" d="M372 6.25193L371.485 14L362 7L364.258 0L372 6.25193Z" fill="#B8E986"/>
<path fill-rule="evenodd" clip-rule="evenodd" d="M10 119.252L9.48478 127L0 120L2.25828 113L10 119.252Z" fill="#B8E986"/>
<path fill-rule="evenodd" clip-rule="evenodd" d="M362.987 44L367 47.9959L361 52L362.987 44Z" fill="#FFA184"/>
<path fill-rule="evenodd" clip-rule="evenodd" d="M330 30.4316L326.772 37L320 29.5863L321.603 22L330 30.4316Z" fill="#60C0BC"/>
<path fill-rule="evenodd" clip-rule="evenodd" d="M302 35L296.318 44L293 37.976L302 35Z" fill="#B8E986"/>
<path fill-rule="evenodd" clip-rule="evenodd" d="M300.521 64L301 69.9412L294 71V65.114L300.521 64Z" fill="#B8E986"/>
<path fill-rule="evenodd" clip-rule="evenodd" d="M338.014 85.4725C338.565 89.482 338.169 93.2282 335.53 95.5571C329.829 100.586 320.162 106.42 308.584 103.299C308.151 103.183 307.752 103.051 307.369 102.91C308.817 101.644 310.005 100.298 310.912 98.9821C316.138 99.7499 324.173 98.6062 330.756 94.7572C334.726 92.4362 336.947 88.9876 338.014 85.4725Z" fill="#60C0BC"/>
<path fill-rule="evenodd" clip-rule="evenodd" d="M337.732 75.3899C338.488 78.0279 338.646 81.8166 337.525 85.5312C336.871 80.8249 334.939 75.7572 333.788 72.136C331.647 65.3851 331.225 59.1993 337.552 54.6959C343.883 50.189 351.4 58.4027 351.4 58.4027C351.4 58.4027 343.675 55.8891 339.881 60.2854C336.162 64.6 336.256 70.233 337.732 75.3899Z" fill="#B3E5E2"/>
<path fill-rule="evenodd" clip-rule="evenodd" d="M307.05 97.9545C308.129 96.5868 308.879 95.248 309.095 94.4192C309.452 93.0403 307.658 89.6226 305.209 92.4082C303.985 93.8006 304.559 95.3002 305.437 96.4543C305.887 97.0497 306.438 97.5443 307.05 97.9545ZM303.669 101.216C300.073 97.797 301.917 92.4123 304.059 90.6978C307.553 87.901 311.016 88.7534 312.626 92.4454C313.253 93.885 312.531 96.4652 310.624 99.2012C309.7 100.528 308.494 101.89 307.03 103.174C303.758 106.049 299.186 108.541 293.508 109.393L292.841 103.166C292.841 103.166 297.765 103.723 301.478 102.391C302.231 102.118 302.966 101.709 303.669 101.216Z" fill="#B3E5E2"/>
<path fill-rule="evenodd" clip-rule="evenodd" d="M41.987 89L46 92.9959L40 97L41.987 89Z" fill="#B8E986"/>
<path fill-rule="evenodd" clip-rule="evenodd" d="M85 61L83.3944 67.7546L79 68L80.5981 62.368L85 61Z" fill="#60C0BC"/>
<path fill-rule="evenodd" clip-rule="evenodd" d="M57 9.11305L54.7528 16L49 14.5234L50.7574 8L57 9.11305Z" fill="#B8E986"/>
<path fill-rule="evenodd" clip-rule="evenodd" d="M59.5421 78L61 84H53L55.887 80.213L59.5421 78Z" fill="#FFA184"/>
<path fill-rule="evenodd" clip-rule="evenodd" d="M114 1.11915L111.751 8L106 6.52466L107.752 0L114 1.11915Z" fill="#60C0BC"/>
<path fill-rule="evenodd" clip-rule="evenodd" d="M40.8872 31L46 36H40L40.8872 31Z" fill="#60C0BC"/>
<path fill-rule="evenodd" clip-rule="evenodd" d="M8.88716 75L14 80H8L8.88716 75Z" fill="#FFA184"/>
<path fill-rule="evenodd" clip-rule="evenodd" d="M63.906 38.239C64.6844 38.5375 65.2015 37.8568 67.0836 37.399C67.946 37.1903 69.0956 36.9242 70.4494 37.214C70.9195 37.3124 72.1163 37.5844 73.1586 38.6098C73.3361 38.7838 74.1985 39.6618 74.5615 41.1276C75.0089 42.9349 74.2072 43.6734 73.908 45.9764C73.7919 46.8513 73.5188 49.7248 74.936 52.503C75.3949 53.4008 76.115 54.8116 77.7383 55.6718C79.5387 56.6222 81.3423 56.3122 81.7577 56.2312C83.6397 55.8572 85.074 54.6235 87.6444 52.4074C88.1877 51.9409 88.5563 51.5934 89.2356 51.1965C90.0544 50.7154 91.6344 49.7888 93.2522 50.2636C94.5386 50.6431 95.2325 51.7266 95.3082 51.848C96.3857 53.5834 95.1861 55.0781 94.8405 59.1193C94.6487 61.3817 94.5069 63.325 95.4968 65.3672C96.3449 67.1204 97.6401 68.1427 98.3923 68.7218C100.568 70.3991 102.818 70.8861 104 71.0541L103.254 74C101.712 73.8664 97.6864 73.29 95.3197 70.1734C93.3453 67.5778 92.5289 63.227 93.4872 59.6494C93.8474 58.2967 94.3963 57.3001 93.9231 56.0806C93.3132 54.5045 91.3035 53.3632 89.5641 53.5605C88.8119 53.6443 88.4691 53.9368 86.9469 54.8638C85.3153 55.8572 83.5525 56.8364 82.7595 57.2131C82.2221 57.4681 78.2959 59.2755 74.9998 57.7346C71.5151 56.1035 70.6991 51.6511 70.6381 51.2981C69.7317 45.9013 73.9631 41.6142 72.0347 39.5546C71.5527 39.0387 70.885 38.8735 70.8148 38.8593C69.3053 38.5055 68.4366 39.9167 65.8432 40.858C64.5627 41.324 63.3956 41.7498 62.2685 41.2924C60.6016 40.6176 60.1106 38.4509 60 37.9003L62.5998 36C62.9073 37.567 63.4621 38.0683 63.906 38.239Z" fill="#F18939"/>
<path d="M203.003 24.5455V58H194.934V32.0923H194.738L187.256 36.6662V29.6747L195.506 24.5455H203.003Z" fill="white"/>
<path d="M68.7996 140V134.185L81.002 123.501C81.9168 122.674 82.6955 121.917 83.338 121.231C83.9805 120.534 84.4706 119.837 84.8082 119.14C85.1457 118.432 85.3145 117.664 85.3145 116.837C85.3145 115.911 85.1131 115.121 84.7101 114.468C84.3072 113.804 83.7518 113.292 83.0439 112.933C82.3361 112.573 81.5248 112.393 80.61 112.393C79.6843 112.393 78.873 112.584 78.176 112.965C77.4791 113.335 76.9346 113.875 76.5425 114.582C76.1614 115.29 75.9708 116.151 75.9708 117.163H68.3096C68.3096 114.887 68.8214 112.922 69.8451 111.266C70.8688 109.611 72.3063 108.337 74.1576 107.444C76.0198 106.54 78.1815 106.088 80.6427 106.088C83.1801 106.088 85.3853 106.513 87.2584 107.362C89.1315 108.212 90.5799 109.399 91.6036 110.923C92.6382 112.437 93.1555 114.196 93.1555 116.2C93.1555 117.474 92.8995 118.737 92.3877 119.989C91.8759 121.242 90.9556 122.625 89.627 124.138C88.3093 125.652 86.4362 127.465 84.0077 129.578L80.0056 133.27V133.482H93.5638V140H68.7996Z" fill="#EC9007"/>
<path d="M314.351 160.457C311.803 160.457 309.543 160.022 307.572 159.151C305.612 158.268 304.065 157.054 302.933 155.508C301.8 153.961 301.223 152.181 301.201 150.166H309.336C309.369 150.896 309.603 151.544 310.038 152.11C310.474 152.665 311.068 153.101 311.819 153.417C312.57 153.733 313.425 153.891 314.384 153.891C315.342 153.891 316.186 153.722 316.916 153.384C317.656 153.036 318.233 152.562 318.647 151.963C319.061 151.353 319.262 150.656 319.252 149.872C319.262 149.088 319.039 148.391 318.582 147.781C318.124 147.171 317.476 146.698 316.638 146.36C315.81 146.022 314.83 145.854 313.698 145.854H310.447V140.104H313.698C314.689 140.104 315.56 139.94 316.311 139.614C317.073 139.287 317.667 138.83 318.092 138.241C318.516 137.643 318.723 136.956 318.712 136.183C318.723 135.432 318.544 134.773 318.173 134.207C317.814 133.629 317.308 133.183 316.654 132.867C316.012 132.551 315.266 132.393 314.416 132.393C313.523 132.393 312.712 132.551 311.982 132.867C311.264 133.183 310.692 133.629 310.267 134.207C309.842 134.784 309.619 135.454 309.597 136.216H301.871C301.893 134.223 302.448 132.47 303.537 130.956C304.626 129.431 306.107 128.239 307.98 127.379C309.864 126.518 312.01 126.088 314.416 126.088C316.812 126.088 318.919 126.507 320.738 127.346C322.557 128.184 323.972 129.328 324.985 130.776C325.998 132.214 326.504 133.842 326.504 135.661C326.515 137.545 325.9 139.096 324.658 140.316C323.428 141.536 321.843 142.287 319.905 142.57V142.832C322.497 143.137 324.452 143.975 325.769 145.347C327.098 146.719 327.757 148.435 327.746 150.493C327.746 152.431 327.174 154.152 326.031 155.655C324.898 157.147 323.319 158.323 321.293 159.183C319.279 160.033 316.965 160.457 314.351 160.457Z" fill="#EC9007"/>
<defs>
<linearGradient id="paint0_linear_99_142438" x1="77.6332" y1="198.943" x2="77.6332" y2="331" gradientUnits="userSpaceOnUse">
<stop stop-color="#F8F8F7"/>
<stop offset="1" stop-color="white"/>
</linearGradient>
<linearGradient id="paint1_linear_99_142438" x1="316.352" y1="198.943" x2="316.352" y2="331" gradientUnits="userSpaceOnUse">
<stop stop-color="#F8F8F7"/>
<stop offset="1" stop-color="white"/>
</linearGradient>
<linearGradient id="paint2_linear_99_142438" x1="196.484" y1="198.943" x2="196.484" y2="331" gradientUnits="userSpaceOnUse">
<stop stop-color="#F8F8F7"/>
<stop offset="1" stop-color="white"/>
</linearGradient>
</defs>
</svg>
