<svg width="80" height="80" viewBox="0 0 80 80" fill="none" xmlns="http://www.w3.org/2000/svg">
<g clip-path="url(#clip0_92_29417)">
<rect width="80" height="80" fill="#70D6D4"/>
<mask id="mask0_92_29417" style="mask-type:luminance" maskUnits="userSpaceOnUse" x="-14" y="-12" width="106" height="106">
<path d="M38.7885 93.5771C67.785 93.5771 91.2914 70.0708 91.2914 41.0743C91.2914 12.0777 67.785 -11.4286 38.7885 -11.4286C9.79198 -11.4286 -13.7144 12.0777 -13.7144 41.0743C-13.7144 70.0708 9.79198 93.5771 38.7885 93.5771Z" fill="white"/>
</mask>
<g mask="url(#mask0_92_29417)">
<path d="M6.52392 56.824C6.28408 55.5677 6.05566 54.2771 6.70666 53.1236C7.3234 52.0271 7.15209 51.4561 6.04424 50.7708C3.78286 49.366 3.09759 47.1161 3.22322 44.5577C3.25749 43.8725 3.41738 43.2557 4.2397 42.776C4.70797 44.2151 4.55949 45.7569 5.40466 47.0589C6.20413 48.3038 6.92366 48.4866 7.75741 47.3216C8.63683 46.0996 9.04799 44.9803 8.1343 43.3699C5.71303 39.1327 5.99856 34.5528 7.17493 30.0072C7.65462 28.1456 8.32846 26.341 8.06578 24.3652C7.35767 19.0315 9.41347 14.6116 12.6685 10.6027C16.7687 5.54319 20.7089 0.335165 26.785 -2.66859C32.3471 -5.42108 38.2175 -6.49466 44.3621 -6.17487C47.5143 -6.01497 50.0041 -4.72439 51.0434 -1.49221C51.2147 -0.966842 51.2833 -0.544261 52.0942 -0.749841C55.4862 -1.62927 58.273 -0.475734 60.8884 1.72854C65.0457 5.24624 68.2893 9.42637 70.7563 14.2461C71.0075 14.7258 71.7727 15.3197 70.8362 15.9136C69.8426 15.9478 69.9111 15.0227 69.6027 14.4859C68.4949 12.5786 67.6497 10.4885 65.6053 9.31216V9.35785C65.5254 8.8439 65.1142 8.95811 64.783 8.92384C64.4632 6.0343 61.4366 5.64598 59.9976 3.79576C59.9633 3.56734 59.9519 3.3275 59.6207 3.36176H59.6321C57.7819 0.917641 54.2299 -0.441471 51.6373 1.36306C51.5345 1.79707 51.3632 2.17396 50.8835 2.31102C49.6843 2.07117 49.947 0.963326 49.6272 0.209532C49.5929 -0.0988379 49.6957 -0.464313 49.2617 -0.578524C49.1133 -0.864052 48.9648 -1.13816 48.8277 -1.42369L48.862 -1.40084C48.6678 -3.20538 47.7199 -4.00486 45.8582 -4.30181C39.7594 -5.26118 33.9574 -4.2447 28.4068 -1.83485C19.6125 1.9798 14.6672 9.54058 10.2586 17.5011C9.20789 19.4084 9.41347 21.7041 9.48199 23.8741C10.3157 22.5721 11.515 21.4756 11.298 19.7853C12.6 19.7625 12.6685 18.5062 13.2624 17.7866C14.2218 16.6217 14.8271 15.1483 16.3118 14.2461C16.5288 15.4225 15.8664 16.0735 15.5009 16.8158C14.8956 18.0493 13.7992 19.0315 13.6507 20.4934C8.71678 25.8499 6.20413 35.2952 8.54546 40.2976C8.62541 37.134 8.32846 34.1188 9.63047 31.3321C10.3614 31.4805 10.6926 31.9831 10.4528 32.6341C8.71678 37.4652 10.8297 42.4905 9.67615 47.3445H9.68757C9.40205 47.3902 9.28784 47.5957 9.25357 47.8698C8.48836 48.4066 8.0772 49.3089 6.98077 49.6858C8.36273 50.4739 9.25357 50.1769 9.96168 49.149C10.3728 48.5437 10.6584 47.5615 11.1952 47.3902C13.468 46.6935 12.1545 45.5856 11.6748 44.5349C11.6292 43.8039 11.6292 43.073 11.5264 42.3534C10.7726 37.0655 11.6063 32.0402 13.9362 27.2662C14.2332 26.6494 14.5187 25.9527 15.6837 25.9185C14.6101 29.2077 13.4908 32.3029 12.9883 35.5807C12.4857 38.7901 12.9769 43.3928 14.4159 45.4943C14.2446 42.2963 15.4895 39.7837 16.2319 37.1454C16.3689 36.6429 16.4375 36.1061 16.4717 35.5807C16.9057 29.8702 18.9844 24.9134 23.1873 20.9274C26.2939 17.9808 29.96 15.8336 33.5805 13.6179C36.1846 12.0304 39.234 11.3451 41.6553 9.43779C42.352 9.43779 43.0486 9.43779 43.7453 9.44921C43.574 9.67764 43.3913 9.91748 43.22 10.1459C42.9573 10.2144 42.6946 10.283 42.4319 10.3515C42.135 10.2144 42.0779 10.3743 42.0779 10.6142C39.1198 12.2588 36.116 13.8235 33.2036 15.5595C30.2113 17.3412 27.1619 19.0772 24.7406 21.6584C24.6721 21.784 24.5921 21.9096 24.5236 22.0353C24.6949 22.0124 24.8662 21.9896 25.0376 21.9668C27.9499 21.6926 30.7024 22.1381 33.2151 23.7256C33.7747 24.0797 34.8711 24.3538 34.3914 25.2218C34.0031 25.9185 33.2151 25.256 32.6326 25.0048C29.8915 23.8284 27.1733 22.5607 24.0896 23.7256C23.2102 23.6 22.3764 23.6 21.8739 24.5137C20.8117 26.4438 19.5668 28.2941 19.1899 30.5326C17.3283 34.8726 17.808 39.4182 18.2991 43.8839C18.5618 46.2937 18.5846 48.7493 19.5554 51.1134C21.2914 55.3507 24.5122 58.0917 28.1784 60.5016C30.9651 62.329 33.9118 63.7224 37.2353 64.1906C39.3825 64.933 41.5182 64.6931 43.6425 64.1107C52.7109 63.2769 64.5546 56.4014 63.1726 42.7989C62.7272 38.4474 62.6016 39.1555 59.6093 40.252C58.9811 40.2063 58.3073 40.8002 57.7134 40.1378C58.5357 38.4703 60.0775 38.5731 61.5166 38.7558C62.83 38.9157 62.2133 38.3104 62.0191 37.8193V33.9247C60.6257 34.2216 60.7285 36.0833 59.1867 35.7749C59.6664 34.0617 58.9468 33.228 57.0852 32.9881C57.3022 34.2901 57.2222 35.4551 56.8682 36.5972C55.3492 38.6416 53.3048 38.2761 51.2947 37.7165C49.8328 37.3053 49.3759 36.1175 49.5701 34.45C49.1018 34.7698 48.8734 34.8955 48.6907 35.0554C48.3024 35.3866 47.9255 36.049 47.4001 35.6835C46.8062 35.2724 47.1717 34.6328 47.4686 34.096C48.2681 32.6683 49.296 31.5948 50.9406 31.1036C52.7452 30.5669 54.5611 30.4526 56.4114 30.4983C57.8504 30.5897 58.5471 31.9945 59.792 32.4171C60.1689 32.5427 60.3973 33.2394 60.9569 32.7483C61.4252 32.3371 61.7793 31.8574 61.5394 31.195C60.9684 29.6532 60.3859 28.1113 59.7806 26.5809C59.7006 26.3753 59.4265 26.0669 59.2552 26.0898C57.7362 26.1926 56.3428 25.119 54.7896 25.6215C52.8708 25.3246 50.9749 25.6215 49.0904 25.9756C48.4508 26.0898 47.6628 26.4895 47.5143 25.5187C47.4001 24.7878 48.1425 24.685 48.7478 24.5365C50.2211 24.1596 51.7858 24.3995 53.2249 23.817C55.0637 23.7713 56.8454 24.2852 58.7755 24.6279C57.108 20.8818 54.3784 18.2777 51.1234 16.3361C48.5765 14.8171 46.5207 13.0012 45.2872 10.3401C44.9902 9.7119 44.7732 9.30074 44.0423 9.42637C44.1108 8.69542 44.4991 8.0901 45.2072 8.02158C46.0067 7.95305 45.9153 8.80963 46.1895 9.28932C46.5549 9.95174 46.612 10.8654 47.56 11.1053C48.0968 12.9098 49.6729 13.7436 51.0548 14.7029C58.4329 19.8538 62.8186 26.6608 63.2869 35.8434C63.4239 38.4246 63.6752 41.1656 65.9937 43.0159C66.0508 43.1872 66.0965 43.3585 66.1536 43.5412C66.1992 43.507 66.302 43.4385 66.302 43.4385C66.2107 43.29 66.1193 43.1415 66.0165 43.0044C66.0279 41.3027 64.6917 39.9436 64.8401 38.219C65.2284 38.219 65.6168 38.219 66.0051 38.219C66.816 40.469 67.6269 42.7075 68.4378 44.9575C68.255 45.1288 68.0723 45.3001 67.8896 45.4714C66.2792 45.6998 65.297 44.5463 64.0407 43.427C64.0407 44.2151 64.0292 44.6719 64.0407 45.1288C64.2234 50.017 62.9214 54.3228 59.6435 58.1032C58.3644 59.5765 57.759 61.6437 56.8453 63.4368C57.5649 63.768 57.7819 63.334 58.056 63.1056C62.0077 59.8392 64.5774 55.7276 66.0279 50.8051C66.4734 49.2861 66.8388 47.413 68.8375 46.8534C68.6662 48.2239 68.4835 49.583 68.3121 50.9535C67.8667 51.102 67.3985 51.2505 67.9695 51.8101L67.9467 52.9637C67.3642 53.0436 67.2957 53.4776 67.17 53.9573C66.2335 57.5549 66.0965 61.0955 67.604 64.5904C67.5241 64.6703 67.4441 64.7502 67.3642 64.8302C66.7817 64.7388 66.5533 63.6538 65.8452 64.1449C65.434 64.4305 66.0508 64.9101 66.0736 65.3327C64.2462 65.0815 63.561 63.7452 64.1777 61.5181C64.4746 60.4331 65.1028 59.3937 64.6231 58.0689C63.4696 59.7592 62.4531 61.3924 60.9798 62.6259C59.5065 63.848 59.1638 65.15 60.3745 66.7375C60.5686 66.9888 60.877 67.2857 60.5458 67.5941C60.1803 67.9367 59.8263 67.6626 59.495 67.4342C58.7641 66.9203 58.6499 65.938 57.8961 65.2528C57.9418 66.6005 57.1651 67.5484 56.7768 68.6334C55.7603 71.5344 56.3428 73.4303 58.8212 75.3947C58.8783 75.429 58.9354 75.4518 58.9925 75.4861C58.9354 75.4518 58.8783 75.4176 58.8212 75.3947C58.49 73.3732 59.7349 71.7171 60.146 69.8669C60.2717 69.3187 60.9684 68.5306 61.4138 68.5192C62.1105 68.5078 62.6244 69.2616 62.8072 70.004C63.1955 71.5801 63.8579 73.1333 63.2754 74.8237C63.1498 75.1777 62.9899 75.8173 63.6181 76C64.0521 76.1257 64.3262 75.7145 64.5546 75.4061C65.1485 74.6295 65.6624 73.7958 66.302 73.0648C67.9124 71.226 68.038 69.2387 66.5761 67.1944C66.1764 66.6347 65.9137 66.0523 66.0508 65.3441C67.25 65.4355 67.5812 66.9317 68.7918 67.0116L68.7461 66.9888C69.7169 70.1867 68.5977 72.7907 66.6104 75.2577C65.868 76.1828 66.165 76.5483 68.2893 78.1815C67.0444 78.6155 66.0165 78.5926 65.4454 77.5647C64.6917 76.1942 63.9493 76.7196 63.0699 77.165C62.7729 77.3135 62.4988 77.4962 62.2361 77.7018C61.3453 78.3756 60.8656 78.9467 59.5065 77.7703C58.2159 76.651 56.7197 75.6688 55.3378 74.127C55.1779 76.4569 54.7896 78.4213 55.9431 80.4429C57.405 82.9898 57.8847 85.925 58.8555 88.6775C59.0496 89.2371 59.3808 89.8424 58.8555 90.3564C58.2616 90.9274 57.7705 90.1622 57.2222 90.1165C56.971 88.4376 56.3885 86.8615 55.7032 85.3197C54.3099 81.4022 52.9393 77.4962 51.5345 73.5788C50.7807 71.4773 49.9813 69.3872 49.1932 67.2972C48.211 73.3846 47.4001 79.3578 48.4051 85.3654C48.5879 86.6445 48.7592 87.9351 48.9762 89.2143C49.1361 90.1965 49.0219 90.9389 47.7656 90.8475C47.3201 88.8945 46.8861 86.9415 46.4407 84.977C46.4407 81.7449 46.0067 78.5241 46.3151 75.212C45.9953 76.4911 45.2415 76.8338 43.9738 76.0914C44.4649 79.2665 44.9103 82.1446 45.3557 85.0113C44.5791 85.2626 44.3621 84.6116 44.008 84.1776C44.008 82.1789 43.2885 80.3401 42.8088 78.4327C42.4091 80.2259 42.272 81.9961 42.4662 83.7664C42.2606 84.5545 42.4547 85.4567 41.6781 86.1534C40.833 85.0341 41.4954 83.7207 41.1299 82.59C41.2213 80.5685 41.7809 78.5926 41.621 76.5483L41.7466 76.4912L41.6439 76.5711C39.8736 76.948 39.1312 76.3884 39.3368 74.6409C39.4853 73.3503 39.8165 72.0712 40.1363 70.4494C38.9713 71.4544 37.7607 72.0483 37.9663 73.5559C38.3546 76.4226 38.8228 79.2893 39.2568 82.156C39.3368 83.4009 39.5081 84.6458 39.4624 85.8907C39.371 88.095 40.5703 90.265 39.6452 92.4921C39.4167 92.5378 39.2112 92.6178 39.234 92.9147C38.9942 92.8919 38.7543 92.8804 38.5145 92.8576C38.366 91.9553 38.2404 91.0531 38.0805 90.1622C37.4637 86.5874 37.7036 82.9212 36.8698 79.3693C36.63 76.1828 36.3559 72.9963 35.0196 70.0268C34.9511 68.7476 34.6541 67.537 33.8432 66.3835C33.5349 66.9774 33.2265 67.4799 32.9981 68.0281C30.4055 74.4011 22.4107 76.731 16.0491 73.9671C13.9362 73.042 13.9134 73.0077 13.468 75.3719C12.3944 75.4176 11.8576 76.5026 10.8868 76.731C9.44773 77.0508 9.59621 77.5762 10.4985 78.5127C14.7129 82.8756 19.761 85.194 25.8827 85.0456C27.9157 84.9999 28.4981 85.7879 27.9614 87.741C27.8243 88.2435 27.5159 88.7003 27.2989 89.1686C25.9512 89.6369 25.0033 89.5455 25.3459 87.741C25.5629 86.6331 24.752 86.9529 24.2495 86.9186C17.2712 86.3362 11.7434 83.241 7.68888 77.5076C6.95793 76.4683 6.03282 76.0229 4.97066 77.2792C4.59376 77.7246 4.04554 78.0558 3.50875 78.3071C2.16106 78.9467 1.3159 78.3871 1.30448 76.9137C1.29306 75.5318 2.00116 74.3782 2.49227 73.1219C1.65853 72.6993 0.961843 73.3161 0.20805 73.3618C-0.557165 73.4074 -1.48227 73.7272 -1.88201 72.7222C-2.23607 71.8428 -1.9277 71.0433 -1.31096 70.3352C-0.397269 69.2958 1.01895 69.4557 2.13822 68.8047C1.38443 67.9824 0.356524 68.0053 -0.591428 67.7883C-1.59649 67.5598 -2.65865 67.1373 -2.70433 65.9952C-2.75002 64.7503 -1.51654 64.8188 -0.659954 64.5447C0.744843 64.0878 2.1268 64.5447 3.48591 64.6931C5.00492 64.8645 5.07344 64.1678 4.91355 63.0142C4.75365 61.9064 3.86281 61.1869 3.55444 60.159C3.29175 59.3024 3.08617 58.4801 3.70291 57.7034C4.38818 56.8468 5.23334 57.1438 6.05566 57.4636C6.26124 57.7605 6.50108 58.2516 6.8894 57.8976C7.23204 57.5778 6.78661 57.2466 6.53535 56.9725L6.52392 56.824ZM44.0423 70.8491C43.9738 70.792 43.9052 70.7349 43.8367 70.6892C43.8824 70.7692 43.9281 70.8491 43.9738 70.9291C43.8824 72.174 44.442 73.179 45.1044 74.1727C45.1273 72.9506 45.2529 71.6943 44.0423 70.8605V70.8491ZM15.2154 53.3063C15.2154 53.0436 15.2839 52.7467 15.1811 52.5297C14.9527 52.0271 15.0898 51.1934 14.4273 51.0678C13.8334 50.9535 13.7306 51.7416 13.3994 52.1071C12.2687 53.352 11.652 54.8481 11.298 56.4814C11.3436 57.0981 10.5099 57.7948 11.1837 58.2745C11.6634 58.6171 12.2802 58.0118 12.7484 57.7263C13.5708 57.2123 14.3588 56.6298 15.124 56.0245C16.209 55.1679 16.3803 54.2542 15.204 53.3063H15.2154ZM55.6004 66.8746C54.9266 66.8403 54.2984 67.0002 53.6589 67.1829C52.9508 67.3771 52.1284 67.457 51.7401 66.6233C51.3746 65.8467 52.2426 65.6868 52.6081 65.2756C53.7045 64.065 55.1664 63.1513 55.7489 61.4267C53.9901 62.5688 52.197 63.4368 50.1412 63.7452C49.4216 63.848 49.0447 64.3048 49.5929 65.0129C51.8543 67.9482 52.551 71.5458 53.6817 74.8351C55.6461 72.4938 54.8467 69.5243 55.6119 66.886C55.669 66.8289 55.7147 66.7718 55.7718 66.7033C55.7147 66.7604 55.6576 66.8061 55.6004 66.8632V66.8746ZM10.4414 67.1944C9.25357 68.5078 9.17362 70.1639 9.03657 71.7971C9.00231 72.174 9.05941 72.6651 8.53404 72.7108C7.94014 72.7564 7.72314 72.2768 7.74599 71.7971C7.79167 70.8263 7.92872 69.8555 8.02009 68.8847C8.60257 67.1601 10.2815 65.7553 8.71678 63.551C7.01503 61.1526 6.16987 59.725 4.73081 58.8455C5.34755 60.5701 6.4554 61.8493 6.54677 63.5967C6.63814 65.504 5.89577 66.1094 4.14833 66.0751C2.73212 66.0408 1.3159 65.9837 -0.3059 65.6297C0.722 66.6347 1.93264 66.589 2.88059 67.1601C3.69149 67.6626 4.33107 68.1081 3.95418 69.1816C2.69785 70.3694 0.607789 70.0839 -0.671375 71.7057C1.44153 71.9341 3.01764 70.5864 4.86787 70.7235C6.32977 72.1054 4.13691 72.3567 4.07981 73.2704C3.17754 74.2869 2.7778 75.5089 2.5608 77.0165C4.36534 76.3313 5.30187 74.9265 6.47824 73.8186C6.77519 73.5331 7.11782 73.2247 7.51756 73.4646C7.9173 73.7158 7.83735 74.1384 7.58609 74.5153C6.82087 75.6574 7.60893 75.6917 8.43125 75.7031C10.9553 75.7488 12.2802 74.5039 13.1482 71.2717C12.7256 68.3936 13.8677 65.7896 14.8613 62.8886C12.6 63.8937 11.515 65.5497 10.4414 67.2058V67.1944ZM22.0681 60.8899C22.0681 60.8899 22.1709 60.9584 22.228 60.9927C22.1709 60.9584 22.1137 60.9356 22.0566 60.9013C19.464 54.3114 17.0656 47.6643 16.2547 40.3548C14.7814 47.1846 15.9692 53.3063 19.7039 58.9369C20.2749 59.8049 20.8803 60.73 22.0681 60.9013V60.8899ZM27.4817 65.1271C25.837 65.1043 25.1974 64.2135 24.4779 63.4939C23.8041 62.8201 23.2901 62.9115 23.0503 63.7909C22.5592 65.5611 21.7597 67.3999 23.7927 68.8276C24.318 69.1931 24.3409 69.8326 24.5579 70.3809C24.8891 71.1917 25.3002 72.4252 26.4309 71.9912C27.7444 71.4887 28.9321 70.6093 30.0743 69.7641C30.6453 69.3415 30.2227 68.4735 29.7316 68.6563C26.568 69.8555 28.1898 67.1487 28.1669 66.4977C28.007 61.9407 26.8535 60.1704 22.5249 58.6742C23.5985 61.2097 25.6886 62.8658 27.4931 65.1271H27.4817ZM19.9323 71.1118C19.8295 71.4202 19.681 71.8884 20.1036 71.9227C20.9716 72.0027 21.8054 71.7171 22.445 71.089C23.0389 70.5065 22.9818 69.8555 22.3422 69.3758C20.3549 67.8682 20.6062 65.9495 21.36 64.0079C21.7711 62.9571 21.6683 62.2719 20.6861 61.678C19.7953 61.1412 19.2699 59.5765 18.2763 59.8506C17.3283 60.1133 17.9222 61.6437 17.6024 62.5802C16.8258 64.8188 17.0542 66.8974 19.0757 68.485C19.9437 69.1588 20.3092 70.0154 19.9209 71.1118H19.9323ZM9.15078 57.9547C9.26499 57.3951 9.31068 57.0753 9.39062 56.7555C10.0074 54.2428 11.2979 52.1071 13.1025 50.2911C14.0162 49.3889 13.7878 48.4523 12.9883 47.9269C12.0289 47.2874 12.1203 48.5665 11.7776 48.9891C10.9896 49.9599 10.35 51.0678 9.52768 52.0043C7.7003 54.0715 7.55183 55.225 9.13936 57.9547H9.15078ZM37.5779 71.0319C38.3203 70.1638 38.9485 69.4101 39.5995 68.6677C39.805 68.4278 40.1134 68.2794 39.9535 67.8568C39.4853 66.5548 36.847 65.0129 35.2594 65.1614C35.979 67.0002 36.6985 68.8276 37.5779 71.0319ZM15.3068 65.287C14.987 66.4177 14.7129 67.5598 14.3474 68.6677C13.8677 70.1182 14.8271 71.1575 15.7636 71.5458C16.4375 71.8199 17.6138 71.0775 18.4704 70.5979C18.9844 70.3123 18.7788 69.8098 18.2306 69.5585C16.3803 68.7248 15.7979 67.1144 15.3068 65.2756V65.287ZM17.0199 56.3215C16.1291 57.041 15.3639 57.6692 14.5987 58.2631C13.8106 58.8798 12.9426 59.3138 11.9033 59.3595C11.5378 59.3709 11.3094 59.6222 11.4007 60.0333C11.4921 60.4331 11.8233 60.4788 12.166 60.513C13.5593 60.6501 14.6786 59.8163 15.8778 59.3595C17.2598 58.8227 18.0021 57.9204 17.0199 56.3329V56.3215ZM46.7491 70.5407C46.9204 68.8047 47.0803 67.0802 47.2516 65.3441C46.6006 66.4406 45.1844 66.7946 44.7047 67.754C43.9281 69.2844 46.0067 69.4786 46.7491 70.5407ZM44.8646 65.4698H39.5766C41.7923 67.9482 42.7174 67.9025 44.8646 65.4698ZM61.5965 70.2324C60.8313 72.1397 59.6207 74.047 61.391 76.217C62.3503 74.127 62.3275 72.1968 61.5965 70.2324ZM29.8458 67.5598C31.9016 66.0066 32.1757 64.0307 30.5768 63.2084C30.3027 63.0713 29.9372 62.98 29.6517 63.0371C29.2405 63.1284 29.2405 63.5625 29.3776 63.848C29.9029 64.9787 29.4575 66.2236 29.8458 67.5598ZM6.86656 58.0118C8.38557 60.5244 9.89315 62.4318 10.7269 64.8188C11.6863 63.1285 9.63047 59.2567 6.86656 58.0118ZM41.7124 70.0382C41.0499 71.6714 40.3989 73.2932 40.5931 75.4975C42.2149 73.613 42.055 71.8313 41.7124 70.0382ZM16.3118 61.4724C16.3918 61.1754 16.2661 61.027 16.0606 61.0498C15.9007 61.0612 15.7065 61.1754 15.6266 61.3125C15.4667 61.5638 15.7065 61.6437 15.8892 61.6437C16.0491 61.6437 16.209 61.5295 16.3232 61.4724H16.3118Z" fill="#0F0E0E"/>
<path d="M36.8472 79.2436C37.6809 82.7956 37.4411 86.4618 38.0578 90.0366C38.2177 90.9388 38.3433 91.8411 38.4918 92.7319C34.3688 92.652 30.4628 91.9211 27.2648 89.0315C27.4933 88.5518 27.7902 88.1064 27.9273 87.6039C28.4755 85.6394 27.893 84.8514 25.8486 84.9085C19.7269 85.057 14.6788 82.7499 10.4644 78.3756C9.57354 77.4505 9.41364 76.9251 10.8527 76.5939C11.8235 76.3769 12.3603 75.2919 13.4339 75.2348C15.6381 75.8858 17.7853 76.5711 20.1723 76.514C24.1469 76.4112 27.8359 75.3262 31.5135 74.0242C32.4272 74.3325 32.6099 75.2691 33.1353 75.9087C34.2089 77.1992 35.134 78.6383 36.8243 79.2436H36.8472Z" fill="#5A5A6F"/>
<path d="M77.0381 40.5261C77.4264 43.37 76.9468 46.2595 77.6434 49.1148C78.1003 51.0221 76.627 52.4383 75.9074 54.0373C75.6105 54.6997 74.5255 55.2365 75.0965 56.0474C75.8275 57.0867 76.9125 57.7491 78.2944 57.7834C78.9112 57.7948 79.8363 57.0639 80.0647 57.8062C80.3617 58.777 79.2538 59.1768 78.5229 59.5765C76.3643 60.7529 74.0686 60.6158 71.5788 60.1019C74.6968 62.2491 77.2094 64.579 75.6333 68.6906C74.811 70.8377 73.4405 72.5281 70.7223 73.4189C71.5331 71.3288 72.6867 69.5814 71.2476 67.754C70.608 66.9431 69.7629 66.6234 68.735 66.8518L68.7807 66.8746C68.8378 65.801 68.0383 65.2985 67.353 64.7274C67.433 64.6475 67.5129 64.5676 67.5929 64.4876C70.3568 65.2528 72.5268 66.7604 73.4519 69.6956C74.3884 68.9076 74.3884 68.1081 74.3884 67.3086C74.4798 63.9394 73.806 62.8201 71.339 62.2833C71.2248 63.2655 71.91 64.0079 72.0699 64.8873C71.1791 64.9787 70.688 64.5561 70.2197 63.7909C69.4773 62.5917 69.6601 61.2897 69.4888 60.0105C69.5116 58.6743 69.6601 57.3722 69.9913 56.0702C71.7159 49.366 72.2869 42.639 70.2654 35.8891C70.1055 35.3638 69.6372 34.5643 70.3796 34.3701C71.1334 34.176 71.3847 35.0554 71.5446 35.695C72.0243 37.5795 72.4811 39.4754 73.0179 41.6682C73.7146 37.4767 72.6182 33.7534 72.1499 29.9159C73.8859 30.1672 72.9722 32.1659 74.2285 32.577C74.7882 38.5388 75.4049 44.5007 76.0216 50.5082C76.7183 47.196 75.7361 43.8268 76.3985 40.5261C76.6041 40.5261 76.8097 40.5261 77.0153 40.5375L77.0381 40.5261ZM71.8187 53.7746C70.8479 56.7784 72.6524 59.6108 75.0737 59.2567C75.3935 59.211 75.759 59.2225 75.8732 58.8342C75.9645 58.5486 75.8732 58.2631 75.6105 58.1603C73.6461 57.4179 73.1664 55.3621 71.8073 53.786L71.8187 53.7746Z" fill="#0F0E0E"/>
<path d="M76.4099 40.5146C75.7475 43.8039 76.7297 47.1731 76.033 50.4967C75.4277 44.5006 74.811 38.5388 74.2399 32.5655C74.4455 28.6595 72.4011 25.7928 69.7057 23.3715C69.2832 22.9946 68.4837 22.2751 68.141 22.2979C67.2502 22.3665 66.4164 22.9604 66.3479 24.685C65.3429 22.138 64.886 22.8119 64.6804 24.3766C64.0409 24.0454 64.1436 23.1545 63.3213 23.1088C63.2414 23.6228 63.1729 24.1367 63.0358 24.9933C62.6132 23.8284 62.3049 22.9832 62.0079 22.138L61.9736 22.1723C62.2477 21.2358 62.5218 20.2992 62.796 19.3627L62.7617 19.3856C63.2756 19.3056 63.8581 20.3107 63.881 19.9109C64.018 17.3983 65.1487 20.3221 65.4457 19.6939C65.7426 18.2206 66.7477 17.0442 66.1538 15.5138C67.3644 15.8679 67.9469 17.0442 69.4773 17.2384C68.8948 16.0849 68.3695 15.2511 68.0383 14.3488C67.3872 12.59 65.8911 11.2423 65.5941 9.31213C67.6499 10.4885 68.4951 12.5786 69.5915 14.4859C69.8999 15.0113 69.8428 15.9478 70.825 15.9135L70.7907 15.9592C71.6131 19.4883 73.0407 22.8119 74.3656 26.1583C75.7247 30.8524 75.6561 35.752 76.3985 40.5375L76.4099 40.5146ZM69.3174 17.4097C69.3174 17.4097 69.2146 17.5125 69.1804 17.5468C69.2717 17.5924 69.3517 17.6495 69.443 17.6724C69.4773 17.6724 69.5344 17.5924 69.5687 17.5468C69.4773 17.5011 69.3974 17.4554 69.306 17.4097H69.3174Z" fill="#E8E9EA"/>
<path d="M76.4099 40.5147C75.6675 35.7292 75.7361 30.8296 74.377 26.1355C74.6168 26.1355 74.8681 26.1355 75.1079 26.1469C76.2957 27.8715 76.25 29.893 76.4784 31.8575C76.8211 34.7356 77.0152 37.6251 77.0152 40.5261C76.8097 40.5261 76.6041 40.5261 76.3985 40.5147H76.4099Z" fill="#232533"/>
<path d="M75.1192 26.147C74.8794 26.147 74.6281 26.1469 74.3883 26.1355C73.0634 22.7777 71.6244 19.4656 70.8135 15.9365C71.396 15.3768 71.613 15.8908 71.7957 16.302C73.2005 19.4884 74.5482 22.6864 75.1307 26.147H75.1192Z" fill="#0F0E0E"/>
<path d="M6.52412 56.824C6.77538 57.0867 7.20939 57.4293 6.87818 57.7491C6.48986 58.1146 6.25001 57.6235 6.04443 57.3151C6.20433 57.1552 6.36422 56.9839 6.52412 56.824Z" fill="#E8E9EA"/>
<path d="M42.4202 10.3058C42.6829 10.2373 42.9456 10.1687 43.2083 10.1002C43.2882 10.9225 43.6766 11.6078 44.2476 12.1789C45.6867 13.6293 47.2514 14.9885 48.5534 16.5531C50.3808 18.746 52.4822 20.8018 53.2132 23.7256C51.7741 24.3081 50.2094 24.0682 48.7361 24.4451C48.1308 24.605 47.3884 24.7078 47.5026 25.4274C47.6511 26.3981 48.4392 26.0098 49.0787 25.8842C50.9632 25.5301 52.8477 25.2332 54.7779 25.5301C54.8578 27.3118 56.2855 28.6481 56.3997 30.4184C54.5495 30.3727 52.7335 30.4869 50.929 31.0237C49.2729 31.5148 48.245 32.5998 47.4569 34.016C47.16 34.5528 46.7831 35.1924 47.3884 35.6036C47.9138 35.969 48.3021 35.3066 48.679 34.9754C48.8732 34.8155 49.0902 34.6899 49.5584 34.3701C49.3643 36.0376 49.8325 37.2368 51.283 37.6365C53.2931 38.1962 55.3375 38.5616 56.8565 36.5173C57.4961 36.3688 58.1357 36.2317 58.7753 36.0833C58.9352 36.6086 59.0836 37.134 59.2435 37.6594C58.5583 37.6594 57.8844 37.8078 57.3933 38.2647C56.6281 38.9614 56.3197 39.6809 57.7017 40.0578C58.2956 40.7316 58.958 40.1263 59.5976 40.172C59.689 42.4791 59.4834 44.7747 59.2321 47.0704C58.7296 51.6388 57.3019 55.6705 53.316 58.4115C50.2323 60.5359 47.1486 62.6488 43.6309 64.0307C41.5065 64.6132 39.3708 64.853 37.2236 64.1107C36.881 63.5625 36.2757 63.4597 35.7389 63.2084C32.678 61.815 29.4344 60.5815 27.1159 58.0461C21.9879 52.4611 19.3267 45.8826 19.658 38.2076C20.7772 37.9449 21.828 38.2418 22.8444 38.6416C23.4954 38.8928 24.1122 39.1898 24.1465 38.0705C24.3292 37.7964 24.1465 37.7736 23.9409 37.7622C24.0665 36.403 23.0843 36.2546 22.0792 36.0147C19.7379 35.4437 19.5209 34.5642 21.1084 32.4856C21.6224 32.6798 21.8622 33.3764 22.5361 33.2965C23.4498 33.2737 23.7353 34.3244 24.5462 34.4729C26.5449 37.4538 28.8405 37.351 32.3011 34.096C32.8037 34.5186 32.7808 35.4779 33.7059 35.5693C33.8087 32.0973 32.0384 29.6874 29.1603 29.322C26.6477 29.0022 24.135 28.8879 21.6795 29.7674C21.9193 27.506 23.5868 25.8157 24.0779 23.6457C27.1616 22.4807 29.8913 23.7484 32.6209 24.9248C33.2034 25.1761 33.9915 25.8499 34.3798 25.1418C34.8595 24.2738 33.7745 23.9997 33.2034 23.6457C30.7022 22.0581 27.9383 21.6127 25.0259 21.8868C24.9231 21.784 24.8317 21.6812 24.7289 21.5784C27.1502 18.9858 30.1882 17.2498 33.192 15.4796C36.1044 13.755 39.1081 12.1789 42.0662 10.5342C42.1804 10.4429 42.306 10.3515 42.4202 10.2715V10.3058ZM36.0016 48.8292C35.2135 48.281 33.8316 48.3495 34.0257 46.7848C34.0714 46.4422 33.5575 46.0996 33.1349 46.1681C32.4039 46.2937 32.0841 46.9333 31.7643 47.5044C31.5473 47.8698 31.5359 48.4866 31.9357 48.5323C33.3405 48.6807 34.5054 50.0284 36.0587 49.3546C38.5485 49.3089 40.9812 50.3368 43.5052 49.7543C43.8022 49.6858 44.2248 49.8571 44.3618 49.5031C44.5446 49.0234 44.1562 48.7835 43.7908 48.6122C43.0484 48.2582 42.3631 48.6693 41.655 48.7835C41.0269 48.8863 40.3644 49.4688 39.7591 48.9663C38.5028 47.9384 37.2693 48.4066 36.0016 48.8521V48.8292ZM44.7501 50.0056C46.3263 50.531 47.4455 49.4231 48.7704 49.4802C49.2386 49.5031 49.2957 48.9663 49.2386 48.5551C49.1587 47.9384 48.9417 47.4016 48.3021 47.1503C47.7996 46.9562 47.0572 47.2417 47.1143 47.4929C47.5369 49.446 45.4697 48.9434 44.7501 50.0056ZM40.2045 52.4611C39.6792 52.5182 38.9025 52.3469 38.8683 53.1692C38.834 53.9002 39.5193 54.0601 40.1246 54.0943C40.7413 54.14 41.4038 54.0829 41.4609 53.3177C41.518 52.4954 40.8327 52.4725 40.2045 52.4497V52.4611Z" fill="#F8DFCB"/>
<path d="M65.6051 9.3007C65.8906 11.2309 67.3868 12.5786 68.0492 14.3374C68.3804 15.2397 68.9058 16.0734 69.4883 17.227C67.9579 17.0328 67.3754 15.8678 66.1648 15.5024C66.7587 17.0328 65.7536 18.2092 65.4566 19.6825C65.1483 20.3107 64.029 17.3869 63.8919 19.8995C63.8691 20.2992 63.2866 19.2942 62.7727 19.3741C62.7384 19.2713 62.7156 19.1571 62.6813 19.0543C62.6356 19.0886 62.5899 19.1343 62.5443 19.1685C62.6242 19.2257 62.7156 19.2828 62.7955 19.3399C62.5214 20.2764 62.2473 21.2129 61.9732 22.1495C61.9047 22.0581 62.0075 21.6583 61.6991 21.9896C61.8019 22.0352 61.9047 22.0809 62.0075 22.1152C62.3158 22.9604 62.6242 23.8055 63.0354 24.9705C63.161 24.1139 63.2409 23.5999 63.3209 23.086C64.1432 23.1317 64.0404 24.0225 64.68 24.3537C64.8856 22.8005 65.3424 22.1152 66.3475 24.6621C66.4274 22.9489 67.2498 22.3436 68.1406 22.2751C68.4832 22.2522 69.2827 22.9718 69.7053 23.3487C72.4007 25.7814 74.4565 28.6366 74.2395 32.5427C72.9832 32.1201 73.8968 30.1328 72.1608 29.8815C72.6291 33.7076 73.7255 37.4423 73.0288 41.6339C72.492 39.441 72.0352 37.5451 71.5555 35.6606C71.3956 35.021 71.1444 34.1416 70.3906 34.3358C69.6482 34.5299 70.1165 35.3294 70.2764 35.8548C72.2979 42.6161 71.7154 49.3317 70.0023 56.0359C69.671 57.3379 69.5226 58.6399 69.4997 59.9762C68.5175 59.8506 68.5974 59.0168 68.3919 58.343C67.8208 56.5384 68.0949 54.6654 67.935 52.8266C67.935 52.4382 67.9579 52.0499 67.9579 51.673C68.3462 51.5017 68.3804 51.1819 68.3005 50.8165C68.4718 49.4459 68.6546 48.0868 68.8259 46.7163C68.8144 46.545 68.803 46.3622 68.7916 46.1795C69.1913 46.1452 69.5911 46.111 69.9908 46.0653C70.1279 46.2137 70.2078 46.5906 70.5048 46.2137C70.3335 46.1681 70.1621 46.1224 69.9794 46.0767C67.8437 40.1263 65.6165 34.1987 65.7879 27.6887C64.7942 30.0414 65.3653 32.497 65.194 34.884C64.463 35.8776 64.4287 36.9512 64.8285 38.0819C64.68 39.8065 66.0277 41.177 66.0049 42.8674L65.982 42.8902C63.6635 41.04 63.4123 38.2989 63.2752 35.7177C62.807 26.5352 58.4212 19.7168 51.0432 14.5773C49.6612 13.6179 48.0851 12.7841 47.5483 10.9796C47.5826 10.1801 47.6169 9.36923 47.6397 8.56975C48.0166 8.56975 48.3935 8.5926 48.759 8.60402C48.896 8.82102 48.9874 9.16365 49.1816 9.22076C52.2881 10.2601 54.6066 12.3616 56.7994 14.68C57.3362 15.2511 58.0215 15.6737 58.6382 16.1648C59.3121 16.6902 59.7118 16.3818 59.9974 15.7194C60.1344 14.8285 59.5862 14.1661 59.1065 13.5722C57.2106 11.2537 55.1776 9.07228 52.448 7.70175C52.9391 7.11927 53.4987 7.42764 54.0698 7.54185C55.7944 7.87307 57.5304 8.14717 59.2664 8.4327C60.1687 8.4327 60.4656 9.66618 61.5735 9.55197C61.4478 7.79312 60.3057 6.83374 59.0151 6.04569C56.5139 4.51526 53.7614 3.9442 50.849 4.1041L50.9061 2.24246C51.3858 2.1054 51.5572 1.72851 51.6599 1.2945C52.9163 1.24882 54.0812 1.56861 55.269 2.01403C56.6852 2.56225 58.1928 2.88204 59.6547 3.30462H59.6433C59.392 3.76146 59.8032 3.65868 60.0202 3.7272C61.4593 5.58884 64.4744 5.96574 64.8056 8.85528C64.9655 9.23218 65.114 9.62049 65.6508 9.28928V9.2436L65.6051 9.3007Z" fill="#494B52"/>
<path d="M13.6507 20.4591C13.7992 18.9972 14.8956 18.015 15.501 16.7815C15.8664 16.0392 16.5289 15.3882 16.3119 14.2118C14.8385 15.1255 14.2218 16.5874 13.2624 17.7523C12.6799 18.4719 12.6 19.7282 11.298 19.751C10.567 18.3805 11.1038 17.0899 11.8805 16.0734C14.4502 12.7042 16.6202 8.91239 20.8232 7.1307C21.5085 6.84517 22.0681 7.02791 21.8511 7.50759C21.4742 8.35275 22.2851 9.15223 21.7026 9.88318L21.7255 9.79181C21.3942 9.72329 21.28 9.90603 21.28 10.1916C21.0745 11.1738 19.327 11.4479 19.9895 12.9897C21.3029 12.0646 22.9589 12.076 24.0439 10.9225C25.9855 10.1116 27.8929 9.20934 29.8687 8.50123C34.0717 7.00506 38.3774 6.07995 43.0715 6.20558C42.3177 7.45049 40.8787 7.31343 40.3076 8.34133C40.9586 8.90097 41.5525 7.85023 42.2149 8.3756C42.0436 8.70681 41.8609 9.03802 41.6781 9.38065C39.2569 11.288 36.2074 11.9618 33.6034 13.5608C29.9715 15.7765 26.3167 17.9236 23.2102 20.8703C19.0072 24.8563 16.9286 29.813 16.4946 35.5236C16.4489 36.049 16.3918 36.5857 16.2547 37.0883C15.5124 39.738 14.2675 42.2506 14.4388 45.4371C12.9997 43.3356 12.5086 38.7329 13.0111 35.5236C13.5251 32.2571 14.6329 29.1506 15.7065 25.8613C14.553 25.8956 14.2675 26.5809 13.9591 27.209C11.6292 31.9945 10.784 37.0198 11.5492 42.2963C11.652 43.0158 11.652 43.7468 11.6977 44.4777C10.9896 45.38 11.001 46.7962 9.69903 47.2759C10.8526 42.4219 8.72823 37.3966 10.4757 32.5655C10.7155 31.9145 10.3843 31.412 9.65334 31.2635C9.55055 27.8829 12.6914 26.5694 14.2903 24.3195C15.2154 23.0175 17.8423 21.0073 18.6874 19.1343C17.0885 20.048 15.6837 20.8475 14.3132 21.6241C13.9363 21.2015 14.8385 20.3107 13.685 20.4363L13.6507 20.4591Z" fill="#494B52"/>
<path d="M21.6912 9.88321C22.2851 9.15226 21.4628 8.35278 21.8397 7.50762C22.0567 7.02793 21.497 6.83377 20.8118 7.13072C16.6088 8.91241 14.4388 12.7042 11.869 16.0735C11.0924 17.0899 10.5556 18.3805 11.2866 19.751C11.5036 21.4414 10.3158 22.5492 9.47059 23.8398C9.40207 21.6698 9.18507 19.3742 10.2472 17.4668C14.6558 9.50631 19.6011 1.95695 28.3954 -1.86912C33.9575 -4.27897 39.7594 -5.30687 45.8468 -4.33608C47.6971 -4.03913 48.645 -3.22823 48.8506 -1.43512C46.2694 -3.18255 43.4712 -3.86781 40.3761 -3.28534C39.0627 -3.18255 37.7607 -3.06834 36.4473 -2.96555C33.8775 -2.98839 31.5019 -2.20033 29.172 -1.21812C27.8015 -0.635638 26.6708 0.175261 27.5388 1.87701C27.8357 2.44806 27.2418 2.83638 27.436 3.20186C28.0185 3.56733 28.4525 2.80212 28.9664 3.21328C28.2469 4.02418 28.2469 4.44676 29.0235 4.58381C29.5946 4.6866 30.1999 4.58381 30.7824 4.58381C28.818 5.52034 26.9106 6.55966 25.0718 7.72462C23.9411 8.44415 23.096 9.6091 21.6912 9.88321Z" fill="#E8E9EA"/>
<path d="M66.0392 65.1957C65.8907 65.9038 66.1648 66.4862 66.5645 67.0459C68.015 69.0903 67.9008 71.0775 66.2904 72.9163C65.6509 73.6473 65.1369 74.4924 64.543 75.2577C64.3032 75.566 64.0405 75.9772 63.6065 75.8516C62.9783 75.6688 63.1382 75.0292 63.2638 74.6752C63.8463 72.9849 63.1839 71.4316 62.7956 69.8555C62.6128 69.1131 62.0989 68.3479 61.4022 68.3707C60.9568 68.3707 60.2487 69.1702 60.1345 69.7184C59.7233 71.5686 58.4784 73.2247 58.8096 75.2462C56.3312 73.2932 55.7373 71.3859 56.7652 68.4849C57.1535 67.3999 57.9302 66.452 57.8845 65.1043C58.6383 65.7896 58.7411 66.7718 59.4835 67.2857C59.8147 67.5141 60.1687 67.7997 60.5342 67.4456C60.8654 67.1372 60.557 66.8403 60.3629 66.589C59.1637 65.0015 59.4949 63.6995 60.9682 62.4774C62.4415 61.2554 63.458 59.6107 64.6115 57.9204C65.0912 59.2567 64.4631 60.2846 64.1661 61.3696C63.5608 63.5967 64.2346 64.933 66.062 65.1842L66.0506 65.1728L66.0392 65.1957Z" fill="#232533"/>
<path d="M43.6313 64.065C47.1376 62.6831 50.2328 60.5702 53.3165 58.4459C57.291 55.7048 58.7186 51.6731 59.2326 47.1047C59.4839 44.809 59.6894 42.5134 59.5981 40.2063C62.5904 39.1099 62.7274 38.4018 63.1615 42.7532C64.5434 56.3558 52.6997 63.2313 43.6313 64.065Z" fill="#F0C6AC"/>
<path d="M41.6552 9.39212C41.8379 9.04948 42.0207 8.70685 42.192 8.38706C41.5296 7.86169 40.9357 8.91243 40.2847 8.35279C40.8557 7.32489 42.2948 7.46195 43.0486 6.21705C38.3545 6.09141 34.0487 7.01652 29.8458 8.51269C27.8699 9.2208 25.9626 10.1116 24.021 10.934C24.0553 10.5114 24.2266 10.1802 24.5806 9.94033C30.6338 5.82873 36.8697 2.53945 44.5333 5.21199C45.2186 5.45183 46.1437 5.86299 46.4064 4.59525C48.4964 4.84651 47.9482 3.36177 47.9596 2.2425C49.2388 2.15113 48.8505 0.71207 49.6043 0.19812C49.9241 0.963335 49.6614 2.05976 50.8606 2.29961C50.8378 2.92777 50.8263 3.54451 50.8035 4.17267C50.5522 4.24119 50.2781 4.27546 50.0383 4.37825C49.4101 4.66377 48.2794 4.64093 48.4964 5.58888C48.7591 6.7881 49.6957 5.80589 50.3124 5.79447C53.5903 5.73736 56.8453 5.65741 59.2323 8.48985C57.4963 8.1929 55.7603 7.93021 54.0357 7.599C53.4532 7.48479 52.905 7.17642 52.4139 7.7589C50.9977 7.10789 49.5129 6.76526 47.9711 7.01652C46.7262 7.2221 46.4292 7.79316 47.617 8.61548C47.5828 9.41496 47.5485 10.2259 47.5256 11.0253C46.5777 10.7969 46.5206 9.8718 46.1551 9.20938C45.881 8.71827 45.9724 7.86169 45.1729 7.94163C44.4648 8.01016 44.0765 8.60406 44.0079 9.34643C43.9394 9.47206 43.8366 9.49491 43.7224 9.42638C43.0257 9.42638 42.329 9.42638 41.6324 9.41496L41.6552 9.39212Z" fill="#232533"/>
<path d="M55.6917 85.1713C53.259 85.1941 50.8263 85.2055 48.3936 85.2284C47.3885 79.2208 48.188 73.2476 49.1816 67.1602C51.8085 69.136 50.8605 68.2452 52.6194 72.8936C54.3782 77.5305 54.2983 81.2652 55.6917 85.1827V85.1713Z" fill="#3C3C54"/>
<path d="M19.6581 38.2419C19.3155 45.9169 21.988 52.4954 27.1161 58.0804C29.4346 60.6044 32.6667 61.8379 35.739 63.2427C36.2758 63.494 36.8811 63.5853 37.2238 64.145C33.9002 63.6653 30.9421 62.2833 28.1668 60.4559C24.5006 58.0461 21.2913 55.3164 19.5439 51.0678C18.5731 48.7036 18.5502 46.2481 18.2876 43.8382C17.7964 39.3726 17.3168 34.8384 19.1784 30.4869C19.4297 30.4984 19.6809 30.5212 19.9322 30.5326L21.1086 32.5085C19.5096 34.5871 19.738 35.4665 22.0794 36.0376C23.073 36.2774 24.0552 36.4259 23.941 37.7964C22.7189 37.0769 21.4169 36.6429 20.0007 36.9399C19.2469 37.0998 18.4246 37.4538 19.6581 38.2305V38.2419Z" fill="#F8F4EE"/>
<path d="M68.7919 46.2138C68.7919 46.3965 68.8147 46.5678 68.8261 46.7506C66.8275 47.2988 66.462 49.1833 66.0166 50.7023C64.5661 55.6362 61.9963 59.7364 58.0446 63.0028C57.7591 63.2312 57.5535 63.6652 56.834 63.334C57.7477 61.5409 58.353 59.4737 59.6322 58.0004C62.91 54.22 64.212 49.9142 64.0293 45.026C64.0179 44.5691 64.0293 44.1123 64.0293 43.3242C65.2856 44.4435 66.2678 45.597 67.8782 45.3686C68.1752 45.5285 68.4835 45.677 68.7805 45.8369C68.7691 45.9625 68.7805 46.0881 68.7805 46.2138H68.7919Z" fill="#232533"/>
<path d="M27.4817 65.1158C25.6772 62.8544 23.5985 61.1983 22.5135 58.6628C26.8421 60.159 27.9842 61.9293 28.1556 66.4863C28.1784 67.1259 26.5566 69.8441 29.7203 68.6449C30.2114 68.4622 30.6339 69.3302 30.0629 69.7527C28.9208 70.5979 27.733 71.4773 26.4196 71.9799C25.2889 72.4139 24.8777 71.1804 24.5465 70.3695C24.3295 69.8213 24.3067 69.1817 23.7813 68.8162C21.7597 67.3886 22.5478 65.5498 23.0389 63.7795C23.2902 62.9001 23.7927 62.8087 24.4665 63.4825C25.1861 64.2021 25.8257 65.0929 27.4703 65.1158H27.4817Z" fill="#232533"/>
<path d="M31.5248 74.0355C27.8472 75.3375 24.1581 76.434 20.1836 76.5253C17.7966 76.5824 15.6494 75.8972 13.4451 75.2462C13.1482 71.2488 17.1913 74.8236 20.4234 74.401C20.4234 74.401 25.9056 67.2057 33.5235 65.7095C34.1059 65.5953 33.512 66.8516 33.8204 66.2692C34.6427 67.4227 34.9283 68.6333 34.9968 69.9125C33.8432 71.283 32.6897 72.665 31.5362 74.0355H31.5248Z" fill="#8F8FA8"/>
<path d="M43.7341 9.40359C43.8597 9.47212 43.9511 9.44928 44.0196 9.32365C44.7505 9.20943 44.9675 9.60917 45.2645 10.2373C46.498 12.9099 48.5538 14.7258 51.1007 16.2334C54.3557 18.175 57.0853 20.779 58.7528 24.5251C56.8227 24.1711 55.0524 23.6686 53.2022 23.7142C52.4826 20.7904 50.3811 18.7346 48.5423 16.5418C47.2403 14.9771 45.6756 13.6294 44.2366 12.1675C43.6655 11.5964 43.2772 10.9112 43.1973 10.0889C43.3686 9.86044 43.5513 9.62059 43.7226 9.39217L43.7341 9.40359Z" fill="#F0C6AC"/>
<path d="M13.6507 20.4592C14.8043 20.345 13.902 21.2359 14.2789 21.647C15.6494 20.859 17.0542 20.0595 18.6532 19.1572C17.7966 21.0303 15.1812 23.0404 14.2561 24.3424C12.6457 26.5924 9.50488 27.9058 9.61909 31.2864C8.3285 34.0846 8.61403 37.0884 8.53408 40.252C6.19275 35.261 8.7054 25.8043 13.6393 20.4478L13.6507 20.4592Z" fill="#E8E9EA"/>
<path d="M3.96564 69.1702C4.34254 68.0966 3.70296 67.6512 2.89206 67.1487C1.9441 66.5662 0.733467 66.6119 -0.294434 65.6182C1.32736 65.9723 2.74358 66.0294 4.1598 66.0637C5.90723 66.0979 6.6496 65.4812 6.55824 63.5853C6.47829 61.8379 5.35902 60.5587 4.74228 58.8341C6.18134 59.7135 7.0265 61.1412 8.72825 63.5396C10.2929 65.7439 8.61404 67.1601 8.03156 68.8733C7.23208 69.2844 7.34629 70.0496 7.26635 70.7692C7.09503 72.3453 5.81586 73.3161 4.09127 73.2704C4.14838 72.3567 6.34123 72.1054 4.87933 70.7235C4.57096 70.221 3.91996 69.9012 3.97706 69.1816L3.96564 69.1702Z" fill="#F8DFCB"/>
<path d="M19.9325 71.1004C20.3208 70.004 19.9553 69.1474 19.0873 68.4736C17.0544 66.886 16.8374 64.8074 17.614 62.5689C17.9452 61.6209 17.3399 60.1019 18.2879 59.8392C19.2701 59.5537 19.8069 61.1298 20.6977 61.6666C21.6799 62.2605 21.7827 62.9572 21.3716 63.9965C20.6063 65.9381 20.3551 67.8568 22.3538 69.3644C22.9819 69.8441 23.039 70.4951 22.4566 71.0776C21.817 71.7172 20.9832 71.9913 20.1152 71.9113C19.6926 71.8771 19.8411 71.4088 19.9439 71.1004H19.9325Z" fill="#232533"/>
<path d="M22.0682 60.8785C20.8804 60.7072 20.2865 59.7821 19.704 58.9141C15.9693 53.2835 14.7815 47.1617 16.2548 40.3319C17.0657 47.6528 19.4642 54.2999 22.0568 60.8785H22.0682Z" fill="#232533"/>
<path d="M4.07985 73.2591C5.80444 73.3048 7.08361 72.334 7.25492 70.7579C7.33487 70.0383 7.22066 69.2845 8.02014 68.862C7.92877 69.8328 7.79172 70.8035 7.74603 71.7743C7.72319 72.254 7.94019 72.7337 8.53409 72.688C9.05946 72.6423 9.00235 72.1512 9.03662 71.7743C9.17367 70.1411 9.2422 68.4851 10.4414 67.1716C10.4528 67.697 10.4757 68.211 10.4871 68.7363C10.5328 71.3403 10.6698 71.466 13.1596 71.2375C12.2916 74.4697 10.9668 75.7146 8.44272 75.6689C7.60898 75.6575 6.83234 75.6233 7.59755 74.4811C7.84882 74.1157 7.92877 73.6817 7.52903 73.4304C7.12929 73.1791 6.79808 73.4989 6.48971 73.7845C5.32475 74.8923 4.3768 76.2971 2.57227 76.9824C2.78927 75.4748 3.17758 74.2527 4.09127 73.2362L4.07985 73.2591Z" fill="#F0C6AC"/>
<path d="M67.9237 52.8494C68.0836 54.6882 67.8095 56.5613 68.3806 58.3658C68.5862 59.0397 68.5062 59.8734 69.4884 59.9991C69.6597 61.2668 69.4884 62.5688 70.2194 63.768C70.6876 64.5332 71.1788 64.9558 72.0696 64.8645C73.463 65.0815 73.4401 66.6461 74.3881 67.2857C74.3881 68.0852 74.3881 68.8847 73.4516 69.6727C72.515 66.7375 70.3564 65.2299 67.5925 64.4647C66.0849 60.9813 66.222 57.4293 67.1585 53.8316C67.2841 53.352 67.3527 52.9294 67.9352 52.838L67.9237 52.8494Z" fill="#232533"/>
<path d="M55.6117 66.8746C54.8464 69.5014 55.6345 72.4823 53.6815 74.8237C52.5508 71.5344 51.8541 67.9367 49.5927 65.0015C49.0559 64.3048 49.4328 63.8366 50.1409 63.7338C52.1853 63.4254 53.9899 62.5574 55.7487 61.4153C55.1662 63.1284 53.7043 64.0421 52.6079 65.2642C52.2424 65.6754 51.3744 65.8353 51.7399 66.6119C52.1282 67.4342 52.9505 67.3657 53.6586 67.1715C54.3097 66.9888 54.9264 66.8289 55.6002 66.8632L55.6231 66.886L55.6117 66.8746Z" fill="#232533"/>
<path d="M56.4001 30.4298C56.2859 28.6596 54.8697 27.3233 54.7783 25.5416C56.3316 25.0505 57.725 26.1241 59.244 26.0099C59.4039 25.9984 59.678 26.2954 59.7693 26.501C60.3747 28.0314 60.9571 29.5733 61.5282 31.1151C61.768 31.7775 61.414 32.2458 60.9457 32.6684C60.3861 33.1709 60.1577 32.4628 59.7808 32.3372C58.5244 31.926 57.8392 30.5212 56.4001 30.4184V30.4298Z" fill="#F0C6AC"/>
<path d="M31.5249 74.0356C32.6784 72.6651 33.832 71.2831 34.9855 69.9126C36.3218 72.8821 36.5959 76.0686 36.8357 79.2551C35.1454 78.6497 34.2203 77.2221 33.1467 75.9201C32.6213 75.2805 32.4272 74.344 31.5249 74.0356Z" fill="#3C3C54"/>
<path d="M41.107 82.4644C40.4789 82.3274 39.8621 82.1789 39.234 82.0418C38.8 79.1751 38.3431 76.3084 37.9434 73.4417C37.7378 71.9342 38.9484 71.3403 40.1134 70.3352C39.7936 71.957 39.4624 73.2248 39.3139 74.5268C39.1198 76.2742 39.8621 76.8452 41.621 76.4569L41.5981 76.4341C41.758 78.4785 41.1984 80.4543 41.107 82.4759V82.4644Z" fill="#C88362"/>
<path d="M13.1479 71.2603C10.6581 71.4887 10.5211 71.3517 10.4754 68.7591C10.4754 68.2337 10.4525 67.7197 10.4297 67.1944C11.5033 65.5383 12.5883 63.8937 14.8497 62.8772C13.8674 65.7782 12.7253 68.3936 13.1365 71.2603H13.1479Z" fill="#F8DFCB"/>
<path d="M49.6271 0.186741C48.8733 0.700691 49.2616 2.13975 47.9824 2.23112C46.2122 -0.167314 44.0993 -2.08606 41.0384 -2.6457C40.6729 -2.71422 40.4445 -2.89696 40.376 -3.27386C43.4597 -3.85633 46.2693 -3.15964 48.8504 -1.42364L48.8162 -1.44648C48.6106 -0.989634 48.9075 -0.784054 49.2502 -0.601316C49.6842 -0.487105 49.5814 -0.121629 49.6157 0.186741H49.6271Z" fill="#494B52"/>
<path d="M68.792 46.2138C68.7692 46.0882 68.7692 45.9625 68.792 45.8369C68.8149 45.46 68.7692 45.106 68.4266 44.8547C67.6157 42.6047 66.8048 40.3662 65.9939 38.1162C65.7883 37.0427 65.8111 35.9005 65.2058 34.9183C65.3771 32.5313 64.8061 30.0758 65.7997 27.723C65.6284 34.2331 67.8555 40.1606 69.9913 46.111C69.5915 46.1339 69.1918 46.1681 68.792 46.2138Z" fill="#232533"/>
<path d="M9.15098 57.9433C7.56345 55.2137 7.71192 54.0602 9.5393 51.9929C10.373 51.0564 11.0012 49.9486 11.7893 48.9778C12.1319 48.5552 12.0405 47.276 12.9999 47.9156C13.7994 48.441 14.0164 49.3775 13.1141 50.2798C11.2981 52.0843 10.0076 54.2315 9.40224 56.7441C9.3223 57.0639 9.27661 57.3837 9.1624 57.9433H9.15098Z" fill="#232533"/>
<path d="M46.4294 84.84C46.0639 84.8514 45.7098 84.8628 45.3444 84.8743C44.8989 81.9961 44.4535 79.1295 43.9624 75.9544C45.2301 76.6968 45.9839 76.3541 46.3037 75.075C45.9839 78.3757 46.4179 81.6078 46.4294 84.84Z" fill="#C88362"/>
<path d="M37.5778 71.0205C36.7098 68.8163 35.9902 66.9889 35.2593 65.1501C36.8468 65.0016 39.4737 66.5435 39.9534 67.8455C40.1018 68.2681 39.8049 68.4165 39.5993 68.6564C38.9483 69.3987 38.3201 70.1411 37.5778 71.0205Z" fill="#C88362"/>
<path d="M15.3068 65.2756C15.7979 67.1144 16.3804 68.7362 18.2306 69.5586C18.7789 69.8098 18.9844 70.3123 18.4705 70.5979C17.6139 71.0661 16.4261 71.8199 15.7637 71.5458C14.8271 71.1575 13.8678 70.1182 14.3475 68.6677C14.7129 67.5599 14.9985 66.4177 15.3068 65.287V65.2756Z" fill="#232533"/>
<path d="M19.9325 30.5325C19.6812 30.5211 19.43 30.4983 19.1787 30.4869C19.5556 28.2483 20.8005 26.3981 21.8627 24.4679C22.3652 23.5542 23.1989 23.5542 24.0784 23.6799C23.5987 25.8385 21.9312 27.5402 21.6799 29.7902C21.3373 30.6125 20.001 29.0706 19.9325 30.5325Z" fill="#E8E9EA"/>
<path d="M15.2156 53.2949C16.392 54.2315 16.2207 55.1566 15.1357 56.0131C14.3704 56.6185 13.5824 57.2009 12.7601 57.7149C12.2804 58.0118 11.6751 58.6057 11.1954 58.2631C10.5101 57.7834 11.3553 57.0867 11.3096 56.47C13.1027 56.0132 13.7651 54.1629 15.227 53.2949H15.2156Z" fill="#232533"/>
<path d="M17.0197 56.3101C18.0019 57.8977 17.2595 58.8114 15.8776 59.3367C14.667 59.805 13.5591 60.6273 12.1657 60.4903C11.8345 60.456 11.4919 60.4103 11.4005 60.0106C11.3091 59.6108 11.5376 59.3596 11.903 59.3367C12.9424 59.291 13.8104 58.857 14.5984 58.2403C15.3751 57.635 16.1289 57.0182 17.0197 56.2987V56.3101Z" fill="#464950"/>
<path d="M15.2153 53.2949C13.7534 54.1629 13.091 56.0131 11.2979 56.47C11.6519 54.8482 12.2686 53.352 13.3993 52.0957C13.7305 51.7302 13.8333 50.9422 14.4272 51.0564C15.0897 51.182 14.9412 52.0043 15.181 52.5183C15.2838 52.7353 15.2039 53.0322 15.2153 53.2949Z" fill="#464950"/>
<path d="M59.632 3.36173C58.1701 2.93915 56.6625 2.61936 55.2463 2.07115C54.0699 1.6143 52.905 1.29451 51.6372 1.35162C54.2298 -0.441498 57.7818 0.906193 59.632 3.36173Z" fill="#E8E9EA"/>
<path d="M9.66462 47.2988C10.9666 46.8191 10.9552 45.4029 11.6633 44.5006C12.143 45.5399 13.4564 46.6478 11.1836 47.3559C10.6468 47.5272 10.3613 48.5094 9.95015 49.1147C9.24204 50.1426 8.35119 50.4282 6.96924 49.6515C8.05424 49.2746 8.47682 48.3724 9.24204 47.8356C9.39051 47.6528 9.52757 47.4815 9.67604 47.3102H9.66462V47.2988Z" fill="#232533"/>
<path d="M59.244 37.6822C59.0841 37.1568 58.9356 36.6315 58.7871 36.1061C58.9242 35.9805 59.0498 35.8434 59.1869 35.7178C60.7287 36.0261 60.6259 34.1645 62.0193 33.8676C62.0193 35.1239 62.0193 36.4487 62.0193 37.7622C61.0942 37.7393 60.1805 37.7165 59.2554 37.6936L59.244 37.6822Z" fill="#F0C6AC"/>
<path d="M46.7492 70.5294C45.9954 69.4672 43.9282 69.273 44.7049 67.7426C45.1845 66.7832 46.6008 66.4292 47.2518 65.3328C47.0804 67.0688 46.9206 68.7934 46.7492 70.5294Z" fill="#C88362"/>
<path d="M44.8759 65.4585C42.7287 67.8912 41.8036 67.9369 39.5879 65.4585H44.8759Z" fill="#EEAF87"/>
<path d="M61.5963 70.2209C62.3159 72.1854 62.3501 74.127 61.3907 76.2056C59.6319 74.0356 60.8311 72.1283 61.5963 70.2209Z" fill="#E8E9EA"/>
<path d="M29.8456 67.5485C29.4573 66.2122 29.9027 64.9787 29.3774 63.8366C29.2403 63.5397 29.2403 63.1171 29.6515 63.0257C29.937 62.9572 30.3025 63.06 30.5766 63.197C32.1756 64.0193 31.9014 65.9952 29.8456 67.5485Z" fill="#232533"/>
<path d="M6.8667 58.0004C9.63061 59.2453 11.6864 63.1284 10.727 64.8074C9.89329 62.4203 8.38571 60.513 6.8667 58.0004Z" fill="#E8E9EA"/>
<path d="M43.985 84.052C43.471 83.9149 42.9571 83.7779 42.4431 83.6523C42.249 81.8706 42.386 80.1117 42.7858 78.3186C43.2655 80.2259 43.985 82.0533 43.985 84.0634V84.052Z" fill="#C88362"/>
<path d="M59.2439 37.6823C60.169 37.7051 61.0827 37.7279 62.0078 37.7508C62.202 38.2533 62.8301 38.8586 61.5053 38.6987C60.0662 38.5274 58.5244 38.4246 57.702 40.0807C56.3201 39.7038 56.6285 38.9728 57.3937 38.2876C57.8848 37.8421 58.5586 37.6937 59.2439 37.6823Z" fill="#F8F4EE"/>
<path d="M3.96559 69.1702C3.9199 69.8897 4.55948 70.1981 4.86785 70.712C3.02905 70.575 1.44152 71.9341 -0.671387 71.6942C0.607778 70.0724 2.69784 70.358 3.95416 69.1702H3.96559Z" fill="#DB9B7C"/>
<path d="M59.1754 35.7064C59.0384 35.8321 58.9127 35.9691 58.7757 36.0947C58.1361 36.2432 57.4965 36.3803 56.8569 36.5288C57.1996 35.3866 57.2909 34.2217 57.0739 32.9197C58.9356 33.1481 59.6551 33.9933 59.1754 35.7064Z" fill="white"/>
<path d="M41.7009 70.0154C42.055 71.8085 42.2035 73.5788 40.5817 75.4747C40.3875 73.2704 41.0271 71.6486 41.7009 70.0154Z" fill="#C88362"/>
<path d="M67.3526 64.716C68.0378 65.2985 68.8373 65.7896 68.7802 66.8632C67.581 66.7833 67.2384 65.2871 66.0391 65.1957L66.0506 65.2071C66.0277 64.7846 65.411 64.3049 65.8221 64.0194C66.5302 63.5282 66.7587 64.6133 67.3411 64.7046L67.3526 64.716Z" fill="#0F0E0E"/>
<path d="M65.1829 34.9183C65.7882 35.9006 65.7653 37.0312 65.9709 38.1162C65.5826 38.1162 65.1943 38.1162 64.806 38.1162C64.4177 36.997 64.4405 35.912 65.1714 34.9183H65.1829Z" fill="#0A0A0B"/>
<path d="M44.0425 70.8376C45.2531 71.6714 45.1275 72.9277 45.1046 74.1498C44.4422 73.1676 43.8712 72.1511 43.9739 70.9062L44.0425 70.8376Z" fill="#C88362"/>
<path d="M16.3001 61.4495C16.1745 61.4952 16.026 61.6094 15.8661 61.6208C15.6834 61.6208 15.455 61.5409 15.6035 61.2896C15.6834 61.1526 15.889 61.0498 16.0375 61.0269C16.243 61.0041 16.3687 61.1526 16.2887 61.4495H16.3001Z" fill="#232533"/>
<path d="M68.3009 50.8394C68.3809 51.2048 68.3352 51.5132 67.9583 51.6959C67.3873 51.1363 67.8555 50.9878 68.3009 50.8394Z" fill="#232533"/>
<path d="M68.4147 44.8547C68.7459 45.106 68.7916 45.4601 68.7802 45.837C68.4832 45.6771 68.1749 45.5286 67.8779 45.3687C68.0607 45.1974 68.2434 45.0261 68.4147 44.8547Z" fill="#0A0A0B"/>
<path d="M65.6166 9.34648C65.0913 9.68911 64.9314 9.28937 64.7715 8.91248C65.1141 8.94674 65.5253 8.83253 65.6166 9.34648Z" fill="#E8E9EA"/>
<path d="M65.9936 42.9017C66.0849 43.0502 66.1877 43.1872 66.2791 43.3357C66.2791 43.3357 66.1877 43.4042 66.1306 43.4385C66.0735 43.2672 66.0278 43.0958 65.9707 42.9131L65.9936 42.8903V42.9017Z" fill="#494B52"/>
<path d="M22.0566 60.8785C22.0566 60.8785 22.1709 60.9356 22.228 60.9699C22.1709 60.9356 22.1252 60.9013 22.0681 60.8671L22.0566 60.8785Z" fill="#232533"/>
<path d="M41.621 76.4569L41.7238 76.377L41.5981 76.4341L41.621 76.4569Z" fill="#C88362"/>
<path d="M58.8096 75.2578C58.8096 75.2578 58.9238 75.3263 58.9809 75.3492C58.9238 75.3149 58.8667 75.2921 58.8096 75.2578Z" fill="#232533"/>
<path d="M43.9622 70.9176C43.9166 70.8376 43.8709 70.7577 43.8252 70.6777C43.8937 70.7348 43.9622 70.7919 44.0308 70.8376L43.9622 70.9061V70.9176Z" fill="#5A5A6F"/>
<path d="M55.6006 66.8633C55.6577 66.8062 55.7148 66.7605 55.7719 66.7034C55.7148 66.7605 55.6691 66.8176 55.6234 66.8861L55.6006 66.8633Z" fill="#232533"/>
<path d="M9.68742 47.2874C9.53894 47.4587 9.40189 47.6414 9.25342 47.8127C9.28768 47.55 9.40189 47.3445 9.68742 47.2874Z" fill="#494B52"/>
<path d="M42.4205 10.3059C42.3062 10.3972 42.1806 10.4886 42.0664 10.5685C42.0664 10.3287 42.1235 10.1574 42.4205 10.3059Z" fill="#F0C6AC"/>
<path d="M59.9977 3.77298C59.7807 3.70445 59.3695 3.80724 59.6208 3.33898C59.952 3.30472 59.9634 3.54456 59.9977 3.77298Z" fill="#E8E9EA"/>
<path d="M25.0262 21.9212C24.8548 21.944 24.6835 21.9668 24.5122 21.9897C24.5807 21.8641 24.6607 21.7384 24.7292 21.6128C24.832 21.7156 24.9234 21.8184 25.0262 21.9212Z" fill="#F8DFCB"/>
<path d="M71.807 53.7861C73.1661 55.3622 73.6343 57.418 75.6102 58.1604C75.8729 58.2632 75.9528 58.5487 75.8729 58.8342C75.7473 59.234 75.3932 59.2111 75.0734 59.2568C72.6521 59.6108 70.8476 56.7898 71.8184 53.7747L71.807 53.7861Z" fill="#232533"/>
<path d="M74.3884 67.2971C73.4404 66.6576 73.4633 65.0929 72.0699 64.8759C71.91 63.9964 71.2247 63.2541 71.3389 62.2719C73.8059 62.8086 74.4797 63.9279 74.3884 67.2971Z" fill="#464950"/>
<path d="M69.3288 17.4098C69.4087 17.4555 69.5001 17.5012 69.5915 17.5468C69.5458 17.5925 69.4887 17.6839 69.4658 17.6725C69.3744 17.6496 69.2831 17.5925 69.2031 17.5468C69.2488 17.5012 69.2945 17.4555 69.3402 17.4098H69.3288Z" fill="#494B52"/>
<path d="M19.9323 30.5326C20.0008 29.0707 21.3371 30.6239 21.6797 29.7902C24.1353 28.9222 26.6479 29.0364 29.1606 29.3448C32.0387 29.7103 33.809 32.1201 33.7062 35.5921C32.7811 35.5008 32.8039 34.5414 32.3014 34.1188C28.8522 37.3738 26.5451 37.488 24.5464 34.4957C24.3523 33.4678 24.7063 32.4856 25.1061 30.9209C24.0325 32.0516 21.8967 30.9666 22.5249 33.3193C21.8511 33.3993 21.6112 32.7026 21.0973 32.5084C20.709 31.846 20.3092 31.1836 19.9209 30.5326H19.9323Z" fill="#0A0A0B"/>
<path d="M36.002 48.8293C37.2697 48.3839 38.5032 47.927 39.7595 48.9435C40.3762 49.446 41.0272 48.8636 41.6554 48.7608C42.3635 48.6466 43.0488 48.2354 43.7912 48.5895C44.1566 48.7608 44.5449 49.012 44.3622 49.4803C44.2252 49.8458 43.8026 49.663 43.5056 49.7316C40.9816 50.314 38.5489 49.2861 36.0591 49.3318C36.0362 49.1605 36.0248 48.9892 36.002 48.8179V48.8293Z" fill="#232533"/>
<path d="M44.7505 50.0056C45.47 48.9435 47.5372 49.446 47.1147 47.493C47.0576 47.2303 47.7999 46.9562 48.3025 47.1504C48.942 47.4016 49.159 47.9384 49.239 48.5552C49.2961 48.9663 49.239 49.5031 48.7707 49.4803C47.4573 49.4232 46.338 50.5424 44.7505 50.0056Z" fill="#0F0E0E"/>
<path d="M36.002 48.8292C36.0249 49.0005 36.0363 49.1718 36.0591 49.3431C34.5059 50.017 33.3409 48.6693 31.9361 48.5208C31.5364 48.4751 31.5478 47.8584 31.7648 47.4929C32.096 46.9219 32.4158 46.2709 33.1353 46.1566C33.5579 46.0881 34.0719 46.4308 34.0262 46.7734C33.832 48.3381 35.214 48.281 36.002 48.8178V48.8292Z" fill="#232533"/>
<path d="M19.6583 38.2418C18.4249 37.4652 19.2472 37.1111 20.001 36.9512C21.4172 36.6429 22.7192 37.0883 23.9413 37.8078C23.9413 37.9449 24.0212 38.0477 24.1468 38.1048C24.124 39.224 23.5072 38.9271 22.8448 38.6758C21.8169 38.2875 20.7776 37.9791 19.6583 38.2418Z" fill="#232533"/>
<path d="M22.5363 33.3308C21.9081 30.9781 24.0325 32.0745 25.1175 30.9324C24.7177 32.4971 24.3523 33.4679 24.5578 34.5072C23.7469 34.3587 23.45 33.308 22.5477 33.3308H22.5363Z" fill="white"/>
<path d="M40.2047 52.4612C40.8443 52.4726 41.5295 52.4954 41.461 53.3292C41.4039 54.0944 40.7301 54.1515 40.1247 54.1058C39.5194 54.0601 38.8342 53.9117 38.8684 53.1807C38.9027 52.3584 39.6793 52.5183 40.2047 52.4726V52.4612Z" fill="#0F0E0E"/>
<path d="M24.1465 38.1048C24.0209 38.0477 23.9523 37.9449 23.9409 37.7964C24.1465 37.7964 24.3292 37.8307 24.1465 38.1048Z" fill="#F8F4EE"/>
<path d="M59.2553 8.47844C56.8683 5.63459 53.6018 5.71453 50.3354 5.78306C49.7187 5.79448 48.7936 6.7767 48.5194 5.57748C48.3024 4.62953 49.4331 4.64095 50.0613 4.36684C50.3011 4.26405 50.5752 4.22979 50.8265 4.16126C53.7389 3.98995 56.4914 4.57242 58.9926 6.09143C60.2832 6.87949 61.4367 7.83886 61.5509 9.59771C60.4431 9.71192 60.1461 8.48987 59.2439 8.47844H59.2553Z" fill="#0A0A0B"/>
<path d="M47.6398 8.6041C46.452 7.78178 46.7376 7.21073 47.9939 7.00515C49.5357 6.75388 51.0205 7.09652 52.4367 7.74752C55.1663 9.11805 57.2107 11.2995 59.0952 13.618C59.5749 14.2119 60.1231 14.8743 59.9861 15.7651C58.5356 14.9428 57.7247 13.4467 56.4455 12.4416C54.1499 10.6371 52.1055 8.30715 48.7591 8.63837C48.3822 8.63837 48.0053 8.61552 47.6398 8.6041Z" fill="#0A0A0B"/>
<path d="M48.7707 8.62695C52.1285 8.29573 54.1729 10.6256 56.4571 12.4302C57.7248 13.4352 58.5472 14.9314 59.9977 15.7537C59.7121 16.4047 59.3124 16.7245 58.6385 16.1991C58.0218 15.708 57.3365 15.2855 56.7997 14.7144C54.6183 12.3959 52.2998 10.283 49.1819 9.25511C48.9991 9.198 48.8963 8.84395 48.7593 8.63837L48.7707 8.62695Z" fill="#232533"/>
<path d="M62.8069 19.34C62.727 19.2829 62.6356 19.2258 62.5557 19.1687C62.6013 19.1344 62.647 19.0887 62.6927 19.0544C62.727 19.1572 62.7498 19.2714 62.7841 19.3742L62.8184 19.3514L62.8069 19.34Z" fill="#E8E9EA"/>
<path d="M69.9795 46.111C70.1508 46.1567 70.3221 46.2024 70.5049 46.2481C70.2079 46.625 70.1394 46.2481 69.9909 46.0996L69.9795 46.111Z" fill="#232533"/>
<path d="M62.0193 22.1267C61.9165 22.081 61.8137 22.0354 61.7109 22.0011C62.0193 21.6813 61.9165 22.0696 61.985 22.161L62.0193 22.1267Z" fill="#E8E9EA"/>
<path d="M46.4293 4.58388C46.1552 5.85162 45.2301 5.44046 44.5562 5.20062C36.8927 2.5395 30.6453 5.81736 24.6036 9.92896C24.2495 10.1688 24.0782 10.5114 24.0439 10.9226C22.9589 12.0761 21.3029 12.0533 19.9894 12.9898C19.327 11.448 21.0744 11.1739 21.28 10.1916C21.4856 10.1231 21.8739 10.2488 21.7254 9.79191L21.7026 9.88328C23.1074 9.60917 23.9526 8.44422 25.0832 7.72469C26.922 6.54831 28.8294 5.52041 30.7938 4.58388C34.5285 2.96208 38.4688 2.79077 42.4433 2.99635H42.4205C42.5347 3.08771 42.6603 3.20192 42.7745 3.31614C43.5854 3.52172 44.3621 3.89861 45.2301 3.7844C45.4014 4.10419 45.6984 4.1613 46.0296 4.17272C46.1552 4.30977 46.2923 4.44683 46.4179 4.57246L46.4293 4.58388Z" fill="#0A0A0B"/>
<path d="M21.714 9.79189C21.851 10.2487 21.4741 10.1231 21.2686 10.1916C21.2686 9.89468 21.3942 9.72336 21.714 9.79189Z" fill="#E8E9EA"/>
<path d="M42.4432 2.98489C38.4572 2.77931 34.5283 2.96205 30.7936 4.57243C30.2112 4.57243 29.6058 4.67522 29.0348 4.57243C28.2696 4.43538 28.2696 4.00137 28.9777 3.2019C28.4637 2.79074 28.0297 3.54453 27.4473 3.19047C27.2531 2.825 27.847 2.4481 27.55 1.86563C26.682 0.16388 27.8127 -0.647019 29.1833 -1.2295C31.5132 -2.21171 33.8888 -2.98835 36.4585 -2.97693C36.2986 -1.90334 36.9725 -1.86908 37.7948 -1.78913C40.5358 -1.52645 43.0828 -0.772652 45.2756 1.59152C42.2833 0.940515 39.6336 0.152458 36.9268 -0.155912C34.14 -0.475703 31.4218 0.141038 29.0462 1.77426C30.0056 1.86563 30.8964 1.71715 31.7873 1.53441C35.5106 0.769199 39.1425 0.609303 42.4546 2.96205L42.4432 2.98489Z" fill="#494B52"/>
<path d="M42.4435 2.98484C39.1428 0.632095 35.4995 0.803411 31.7762 1.55721C30.8854 1.73994 29.9831 1.88842 29.0352 1.79705C31.4107 0.163829 34.129 -0.45291 36.9157 -0.133119C39.6225 0.175251 42.2722 0.963307 45.2646 1.61431C43.0831 -0.761281 40.5248 -1.51507 37.7837 -1.76634C36.9614 -1.84629 36.299 -1.88055 36.4475 -2.95413C37.7609 -3.05692 39.0629 -3.17114 40.3763 -3.27393C40.4334 -2.89703 40.6733 -2.71429 41.0387 -2.64576C44.0996 -2.08613 46.2125 -0.167383 47.9828 2.23105C47.9714 3.35032 48.5196 4.84649 46.4295 4.5838C46.3039 4.44675 46.1668 4.30969 46.0412 4.18406C45.7785 4.04701 45.5044 3.90996 45.2417 3.7729C44.5907 3.04195 43.7455 2.92774 42.8319 2.98484C42.6948 2.98484 42.5578 2.98484 42.4321 2.97342H42.455L42.4435 2.98484Z" fill="#0A0A0B"/>
<path d="M42.8201 2.98488C43.7338 2.92777 44.579 3.0534 45.23 3.78435C44.3619 3.89856 43.5853 3.52167 42.7744 3.31609C42.7973 3.2133 42.8087 3.09909 42.8201 2.98488Z" fill="#232533"/>
<path d="M45.2188 3.77295C45.4814 3.91 45.7555 4.03563 46.0182 4.17269C45.6984 4.16127 45.3901 4.09274 45.2188 3.77295Z" fill="#232533"/>
<path d="M42.8201 2.98493C42.8087 3.09914 42.7973 3.20193 42.7745 3.31614C42.6603 3.20193 42.5346 3.08772 42.4204 2.97351C42.5575 2.97351 42.6945 2.97351 42.8201 2.98493Z" fill="#494B52"/>
<path d="M30.4171 34.5642C31.0353 34.5642 31.5364 34.0631 31.5364 33.445C31.5364 32.8268 31.0353 32.3257 30.4171 32.3257C29.799 32.3257 29.2979 32.8268 29.2979 33.445C29.2979 34.0631 29.799 34.5642 30.4171 34.5642Z" fill="white"/>
<path d="M55.1779 35.1124C55.796 35.1124 56.2971 34.6113 56.2971 33.9932C56.2971 33.375 55.796 32.8739 55.1779 32.8739C54.5597 32.8739 54.0586 33.375 54.0586 33.9932C54.0586 34.6113 54.5597 35.1124 55.1779 35.1124Z" fill="white"/>
</g>
</g>
<defs>
<clipPath id="clip0_92_29417">
<rect width="80" height="80" fill="white"/>
</clipPath>
</defs>
</svg>
