<svg width="38" height="37" viewBox="0 0 38 37" fill="none" xmlns="http://www.w3.org/2000/svg">
<g clip-path="url(#clip0_41_24253)">
<rect x="1.33325" y="1" width="35" height="35" rx="17.5" fill="#D4D9E1"/>
<g clip-path="url(#clip1_41_24253)">
<rect width="35" height="35" transform="translate(1.33325 1)" fill="#8ECBFB"/>
<mask id="mask0_41_24253" style="mask-type:luminance" maskUnits="userSpaceOnUse" x="-8" y="-7" width="53" height="53">
<path d="M18.3304 45.093C32.6883 45.093 44.3276 33.4316 44.3276 19.0465C44.3276 4.66141 32.6883 -7 18.3304 -7C3.97258 -7 -7.66675 4.66141 -7.66675 19.0465C-7.66675 33.4316 3.97258 45.093 18.3304 45.093Z" fill="white"/>
</mask>
<g mask="url(#mask0_41_24253)">
<path d="M16.781 -6.72805C17.4936 -6.60906 18.2853 -6.69405 19.0374 -6.40509C19.4729 -6.23511 19.9423 -6.2691 20.3834 -6.33143C22.9226 -6.71672 24.8171 -5.51553 26.4628 -3.81007C27.9049 -2.31992 28.9172 -0.489807 30.1161 1.19299C30.4101 1.6066 30.7381 2.00322 31.0379 2.41117C31.2641 2.7228 31.6882 3.06843 31.9144 3.01177C33.0625 2.73413 32.9041 3.66335 32.808 4.09964C32.5818 5.11951 33.1699 6.0034 33.1077 6.97229C33.0964 7.15926 33.1529 7.29525 33.3678 7.33491C34.3632 7.52755 34.0804 8.25846 33.9786 8.87039C33.9164 9.22734 33.6958 9.55597 33.6223 9.90726C33.3961 11.0461 33.3169 12.2133 32.9663 13.3408C32.8589 13.6921 32.8532 14.0944 32.6779 14.457C32.3669 15.0916 32.0841 15.7432 32.1463 16.4855C32.1633 16.7008 32.1293 16.9671 32.0162 17.1484C31.298 18.3099 31.2754 19.6811 30.8286 20.9163C30.6986 21.2845 30.7212 21.5905 30.9248 21.9588C31.8522 23.6246 32.8815 25.2451 33.4809 27.0808C33.8033 28.0667 33.7524 29.0469 33.611 30.0215C33.464 31.064 33.5318 31.9479 34.2387 32.8545C35.3981 34.3446 36.4217 35.9424 37.434 37.5402C37.9429 38.3448 38.6159 39.2344 38.6385 40.1012C38.6725 41.3478 38.4067 42.6566 37.434 43.6992C35.8052 45.4386 33.9956 46.9684 32.2085 48.5266C31.6656 49.0025 31.298 49.5124 31.2245 50.2264C31.0944 51.4162 30.6137 52.3284 29.33 52.5947C29.1773 52.6287 28.9907 52.725 28.9002 52.8497C27.6843 54.5495 25.7672 54.9008 23.9575 55.3881C20.3268 56.3683 16.6849 56.0793 13.0938 55.1501C11.8609 54.8271 10.7582 54.0736 9.54794 53.6033C8.81275 53.32 8.48475 52.5721 8.33771 51.8582C7.98143 50.181 6.96914 49.0818 5.58361 48.1583C4.15283 47.2007 2.9313 45.9712 1.755 44.7077C0.918028 43.8068 0.759681 42.7869 1.12162 41.6481C1.9699 38.9567 3.39503 36.5487 5.00677 34.2653C5.61188 33.4097 5.74195 32.6392 5.52705 31.6873C5.21602 30.3048 4.98981 28.9109 4.79187 27.5058C4.65615 26.5822 4.84277 25.8343 5.45919 25.1657C5.61188 25.0014 5.75892 24.8258 5.90596 24.6558C6.35272 24.1345 7.17273 23.7719 7.0879 23.0013C6.96914 21.9248 6.3301 21.0806 5.40829 20.48C4.79187 20.0777 4.18676 19.6811 3.66648 19.1428C3.23668 18.7009 3.03309 18.2816 3.4233 17.7206C3.50248 17.6073 3.59296 17.4657 3.59296 17.341C3.59296 17.0011 3.63255 16.6384 3.51379 16.3325C3.32716 15.8395 2.92564 16.2588 2.62591 16.2248C2.11694 16.1682 1.59666 16.1512 1.30824 15.6356C1.0481 15.171 1.11596 14.7063 1.39872 14.2757C1.6419 13.9074 1.9699 13.7431 2.26398 14.1851C2.51281 14.559 2.81254 14.695 3.19144 14.542C3.55903 14.389 3.6891 14.0094 3.71737 13.6355C3.79089 12.5873 3.37806 11.6411 3.02744 10.6948C2.46757 9.18202 2.20742 7.64087 2.41667 6.02607C2.49584 5.40847 2.75598 4.88721 3.11226 4.41126C3.90965 3.35739 4.74098 2.32618 5.54402 1.27231C6.09824 0.547067 6.27355 -0.359489 6.69204 -1.15839C7.36501 -2.43324 8.38296 -2.95451 9.73456 -2.89218C10.3736 -2.86385 10.6055 -3.05083 10.6903 -3.69675C10.843 -4.87527 11.5499 -5.4872 12.6809 -5.4702C13.0881 -5.46453 13.3709 -5.57785 13.6876 -5.79883C14.5924 -6.43908 15.6273 -6.67705 16.7867 -6.73938L16.781 -6.72805ZM6.62983 1.23265C6.66376 1.19865 6.72597 1.14199 6.72031 1.13066C6.64679 1.02867 6.60721 1.108 6.56196 1.16466C6.51672 1.20999 6.43189 1.24398 6.52803 1.31197C6.53934 1.31764 6.59024 1.26098 6.62417 1.23265H6.62983ZM25.213 5.26116C25.1621 5.19883 25.1055 5.13651 25.0546 5.07418C24.704 4.39993 24.3421 3.73701 24.0027 3.05709C23.2958 1.64627 23.0696 0.0597925 22.3401 -1.35104C22.1026 -1.81565 21.571 -2.12727 21.5936 -2.7222C22.1082 -2.65988 22.2157 -2.18393 22.4306 -1.84398C23.1092 -0.756108 23.4033 0.496073 23.8105 1.69159C24.048 2.38284 24.229 3.10242 24.8171 3.61236C24.7606 4.18462 25.2582 4.43959 25.5353 4.79655C26.6211 6.20738 28.9058 6.45668 30.1443 5.35182C30.3649 5.32915 30.5911 5.30649 30.8117 5.28382C30.806 5.40281 30.8004 5.52179 30.7947 5.64645C30.7381 5.70311 30.6816 5.75977 30.625 5.81643C30.4837 5.81643 30.3536 5.84476 30.2801 5.98641C30.2575 6.01474 30.2348 6.04306 30.2122 6.07139C30.2405 6.04873 30.2688 6.02607 30.297 6.0034C30.4384 6.0034 30.5685 5.96941 30.6364 5.82776L30.806 5.65778C31.5073 5.36881 32.0615 4.94953 32.1802 4.13363C32.2538 3.92966 32.4234 3.72568 32.2481 3.51037C32.1746 3.41972 32.0502 3.48771 31.988 3.60103C31.7109 3.60103 31.4337 3.60669 31.151 3.61236C30.97 3.5557 31.117 3.18175 30.8004 3.2554C30.3027 2.75113 29.969 2.12221 29.5845 1.53861L28.7249 0.167446C28.657 0.0427942 28.5722 -0.0648594 28.4082 0.00313234L28.4195 0.0144649C28.4534 -0.138516 28.4082 -0.212174 28.2442 -0.166846H28.2555C28.346 -0.342492 28.2498 -0.489807 28.1537 -0.625791C27.4016 -1.75332 26.6042 -2.85819 25.6428 -3.8044C25.0377 -4.39933 24.4099 -5.03959 23.4712 -5.11324L23.4825 -5.10191C23.4881 -5.28322 23.3524 -5.27756 23.2336 -5.29456C22.4023 -5.81016 21.4522 -5.62318 20.553 -5.75917C19.733 -5.74783 18.9413 -5.87815 18.1383 -6.04813C16.8489 -6.3201 15.7008 -5.95748 14.7055 -5.10191C14.615 -5.10191 14.5189 -5.10191 14.4284 -5.10191C14.6037 -5.32855 14.779 -5.55519 14.9487 -5.7875C15.0392 -5.82149 15.124 -5.84982 15.2145 -5.88382C15.1919 -5.90082 15.1749 -5.92915 15.1523 -5.93481C15.0392 -5.94614 14.9374 -5.94048 14.9544 -5.78183C14.2248 -5.64585 13.5858 -5.38521 13.3143 -4.60897C12.4378 -4.50699 12.4434 -3.50977 11.81 -3.08482C11.482 -3.90073 12.4208 -4.24068 12.4717 -4.92627C11.4368 -4.82995 11.0296 -4.13303 11.0296 -3.36246C11.0296 -2.35391 10.4641 -2.33692 9.77415 -2.33125C8.31509 -2.42191 7.57425 -1.97996 7.07094 -0.705114C7.04832 -0.648455 7.0257 -0.591795 7.00307 -0.535135C7.04266 -0.574797 7.0879 -0.608793 7.12749 -0.648455C7.80612 -1.24905 8.57523 -1.64567 9.48573 -1.72499C9.93815 -1.22638 10.6846 -1.96863 11.1144 -1.32271C10.8317 -0.892091 10.3736 -1.05641 9.98905 -0.982748C8.88627 -1.29438 8.05495 -0.931754 7.45549 0.0257964C7.42722 0.0484605 7.4046 0.0711246 7.37632 0.0881224C7.39329 0.0881224 7.41591 0.0881224 7.42156 0.0767903C7.43287 0.0597925 7.43853 0.0371284 7.44984 0.0144649C8.29247 -0.121519 9.14076 -0.229173 10.0004 -0.161181C10.9561 -0.0648594 11.3576 0.16178 11.7252 0.830365C11.4311 0.728378 11.1484 0.62639 10.8656 0.524403C9.64408 0.00313234 8.44516 0.0087986 7.27453 0.688716C7.20101 0.71138 7.13315 0.734044 7.05963 0.756708L7.12749 0.847363C7.18404 0.802036 7.24059 0.756708 7.29715 0.717046C8.50737 0.377087 9.68366 0.547067 10.843 0.943685C11.1144 1.108 11.5725 1.057 11.5386 1.56694C9.76283 0.943685 7.9984 0.411083 6.39796 1.97489C6.36403 2.00889 6.28486 2.04855 6.24527 2.03155C5.60623 1.74825 5.41961 2.30352 5.26691 2.66048C4.88236 3.5557 4.34511 4.42826 4.57697 5.48213C4.43559 6.46235 4.56566 7.41423 4.85974 8.34912C5.1425 9.23301 5.40264 10.1226 5.66844 11.0121C5.06332 10.5305 5.01808 9.77694 4.54304 9.09136C4.56566 10.1339 5.06898 10.9328 5.15946 11.8224C5.29519 13.0802 5.39698 14.3324 4.5487 15.4033C4.37338 15.6299 4.04538 15.8339 4.29987 16.0945C4.59394 16.4061 4.68442 15.7772 4.97284 15.8339C5.1425 15.9869 4.7636 16.2475 5.04636 16.3381C5.22167 16.3948 5.35174 16.2078 5.43657 16.0662C5.61188 15.7715 5.70237 15.4486 5.74195 15.103C5.80982 14.5364 5.9003 13.9754 6.01341 13.1822C6.57893 14.2531 6.39231 15.12 6.10955 15.9189C5.82113 16.7291 4.90498 17.1087 4.45256 17.902C4.9276 17.9586 5.14815 17.4827 5.54968 17.5847L5.56664 17.6017C5.41395 17.7546 5.27822 17.9416 5.10291 18.0606C4.24897 18.6329 4.26593 19.1031 5.18208 19.6754C5.22167 19.7037 5.27822 19.7604 5.28953 19.7491C5.38567 19.6867 5.31216 19.6414 5.26126 19.5961C5.01243 19.2505 4.74097 19.0408 5.4196 18.7179C7.2519 17.851 7.9475 16.4741 7.5686 14.576C7.35936 13.5278 6.99176 12.5136 6.69204 11.4824C6.47148 10.7288 6.25093 9.97525 5.99078 9.08003C6.72597 9.44265 6.94652 10.1056 7.55163 10.2755C7.51205 10.6778 7.92488 10.8931 7.95316 11.2728C7.72695 11.2104 7.50074 11.1538 7.27453 11.0914C7.24059 10.9725 7.21232 10.8478 7.17839 10.7288C7.15577 10.7458 7.12183 10.7572 7.11618 10.7742C7.07659 10.9158 7.12183 11.0348 7.2406 11.1198C7.20666 12.287 8.03798 13.2332 7.9475 14.5874C8.30378 14.1737 8.3773 13.8961 8.45647 13.5958C8.62048 12.9612 8.30944 12.389 8.27551 11.7827C8.87496 12.3323 8.89758 13.0972 9.022 13.8394C9.49138 12.6099 8.95413 10.9668 7.75522 9.93559C6.83342 8.65508 6.48279 7.16493 6.25093 5.65211C6.16044 5.05719 5.92858 4.36027 7.12749 4.29228C8.63744 4.20729 10.1078 3.88433 11.4651 4.81921C11.7082 4.98353 11.7931 4.89287 11.8609 4.63224C12.4265 2.50183 13.7159 0.836031 15.2654 -0.654121C15.5255 -0.676785 15.78 -0.693783 15.7913 -0.325494C13.9986 1.00034 12.8619 2.7568 12.3416 4.9212C12.302 4.9552 12.2568 4.97219 12.2059 4.97219C12.0815 5.00619 12.0362 5.09118 12.0702 5.21583C12.008 5.60112 11.7761 5.55013 11.516 5.43681C10.2266 4.34327 8.74489 4.57558 7.24625 4.77955C6.77687 4.84188 6.45452 4.9212 6.57893 5.4708C6.71466 6.06006 7.12749 5.79943 7.45549 5.71444C8.67703 5.40281 9.90422 5.34048 11.1314 5.65778C11.2502 6.07706 11.0805 6.16772 10.7073 6.03173C9.51966 5.56146 8.3773 6.06573 7.21232 6.16772C7.01438 6.18471 6.78818 6.16772 6.75424 6.42835C6.71466 6.72298 6.82211 7.00628 6.98611 7.22159C7.14446 7.43123 7.34804 7.21592 7.51205 7.1366C8.33771 6.75131 9.17469 6.46801 10.1021 6.68332C10.1248 6.79664 10.4641 6.89863 10.1248 7.02328C9.91553 7.09694 9.69497 7.1366 9.48007 7.18759C8.80144 7.1366 8.22461 7.48789 7.60819 7.66353C7.4046 7.72019 7.21232 7.79952 7.29149 8.06015C7.37067 8.32079 7.57991 8.41144 7.82874 8.32645C8.14543 8.2188 8.4282 7.99783 8.79013 8.03749C8.81841 8.17914 8.8071 8.29812 8.67137 8.40011C7.96447 8.93271 8.14543 9.5503 8.52434 10.1736C8.69399 10.4512 8.91455 10.7005 9.11248 10.9668C9.35 11.5844 9.58752 12.202 9.82504 12.8196C9.70628 13.5278 9.5649 14.2531 8.96545 14.7063C7.84005 15.5676 7.94184 16.7121 8.14543 17.8906C8.52999 20.1004 9.49704 22.0608 10.6055 23.9815C12.1041 26.5766 14.3775 28.1404 17.1429 29.0299C19.3598 29.7438 21.39 29.1433 23.4033 28.1007C26.197 26.6559 27.6843 24.3725 28.1989 21.3412C28.3629 20.6046 28.5156 19.8737 28.493 19.0975C28.476 18.5762 28.5948 18.0379 28.8154 17.5393C28.8719 17.409 28.9285 17.2674 29.0981 17.2674C29.2678 17.2674 29.33 17.4147 29.3583 17.5507C29.3922 17.7263 29.2734 17.9473 29.5279 18.0889C30.4215 17.409 30.9135 16.5195 30.9021 15.3693C31.0831 14.2871 30.1217 14.2587 29.4601 13.6241V14.8537C29.3356 15.3126 29.4657 15.8452 29.0416 16.2928C28.5552 15.6299 28.7645 14.7913 28.3629 14.1681C28.346 13.3465 28.148 12.8139 27.1075 13.0235C26.6155 13.1255 26.0556 12.9499 25.5297 12.8706C25.196 12.8196 24.868 12.7402 24.54 12.8932C23.4881 13.3748 22.374 13.6751 21.2486 13.9188C20.7849 14.0208 20.1685 14.4117 19.9819 13.5108C19.9649 13.4202 19.7048 13.3352 19.5521 13.3295C18.9074 13.3068 18.3588 12.9499 17.7367 12.8479C18.0987 12.355 17.6067 12.287 17.3635 12.1737C16.5548 11.7997 15.9893 11.2218 15.944 10.3152C15.8422 8.47377 15.8592 6.62666 16.2324 4.81355C16.4869 3.60103 16.8262 2.40551 17.126 1.19865C17.5275 2.28086 17.29 3.41972 17.42 4.53025C17.6293 6.32636 18.0195 8.03182 18.7886 9.66362C18.913 9.92426 19.1788 10.1566 19.0092 10.7062C18.2061 9.284 17.7537 7.90151 17.3296 6.49634C17.4144 7.94117 17.7198 9.34633 18.2796 10.6722C19.2637 13.0065 19.9762 13.0292 21.9951 12.4003C22.1987 12.338 22.4871 12.2586 22.4985 12.0037C22.5154 11.7204 22.21 11.709 22.0121 11.6241C21.2204 11.2784 20.3381 11.0461 20.0045 10.0886L20.0215 10.0716C20.1346 10.1339 20.242 10.1906 20.3551 10.2529C20.3664 10.2756 20.3721 10.2982 20.3834 10.3152C20.3947 10.3265 20.4117 10.3209 20.4286 10.3265L20.3551 10.2529C19.8179 8.82506 19.422 7.3859 19.2637 5.83909C19.1053 4.28661 19.3598 2.7228 19.0092 1.18732C18.913 0.756708 18.6642 0.30343 18.9413 -0.319828C19.094 0.144782 19.2637 0.473409 19.3032 0.824699C19.4785 2.2242 19.6199 3.62369 19.6878 5.04019C19.7613 6.64932 19.9366 8.26413 20.7566 9.70895C21.3391 10.7345 22.3062 11.2104 23.4089 11.4597C23.4825 11.6014 23.6182 11.6127 23.7596 11.6184C23.8218 11.6637 23.884 11.709 23.9462 11.7544C23.9632 11.7317 23.9745 11.709 23.9914 11.6864C23.9123 11.6637 23.8331 11.6467 23.7596 11.6241C23.6974 11.4767 23.5673 11.4541 23.4316 11.4427C23.2958 11.0461 22.6002 11.0745 22.6568 10.4059C24.9359 12.0943 27.2658 12.0433 29.6863 10.9895C29.9634 10.8705 30.2518 10.7175 30.5855 10.7685C29.8503 11.6411 28.7645 11.6694 27.7861 11.9753C27.1753 12.168 26.5024 12.0263 25.9199 12.3096C27.8653 12.7856 29.5845 12.1963 31.2132 11.2104C31.5129 11.0291 31.4224 10.7175 31.4507 10.4399C31.5921 10.4399 31.7165 10.4002 31.79 10.2699C31.9597 10.2699 32.1293 10.2642 32.299 10.2586C32.2877 10.3549 32.1463 10.4965 32.2764 10.5305C32.463 10.5815 32.4517 10.3889 32.463 10.2586C32.5987 10.2019 32.5704 10.1452 32.463 10.0886C32.4743 9.6013 32.972 9.43699 33.1586 9.05736C33.4696 8.42278 33.3622 8.02616 32.7853 7.88451C32.4121 7.94117 32.1915 7.53322 31.8296 7.56155C31.807 7.54455 31.7844 7.52188 31.7674 7.50489C31.9993 7.21592 32.2311 6.92129 32.4573 6.63233C32.0558 6.66632 31.7391 6.82497 31.496 7.05727C30.8795 7.64654 30.1387 7.9865 29.33 8.11681C28.476 8.2528 27.6051 8.31512 26.8586 7.7032C27.6278 7.78252 28.3912 7.6352 29.1207 7.48789C30.2292 7.26125 31.281 6.8193 31.79 5.65211C31.9427 5.57279 32.0898 5.49347 32.0728 5.28382C32.0728 5.26683 32.0275 5.22716 32.0106 5.23283C31.824 5.30082 31.79 5.46513 31.7731 5.63511C31.3885 5.68044 31.151 5.9864 30.8399 6.16772C29.4714 6.96095 28.0802 7.58421 26.4741 6.86463C26.1122 6.72298 25.8407 6.48501 25.6371 6.16205C25.8746 6.12805 26.0669 6.21304 26.2705 6.34336C27.2262 6.93829 28.2159 6.97795 29.2339 6.50201C29.3752 6.50201 29.5053 6.47368 29.5788 6.3377C29.6523 6.31503 29.7315 6.2867 29.805 6.26404C29.7881 6.24137 29.7598 6.20171 29.7598 6.20171C29.6919 6.24137 29.6297 6.28104 29.5619 6.3207C29.4205 6.32636 29.2961 6.35469 29.2225 6.49634C28.001 6.604 26.836 6.49634 25.8294 5.68044C25.7502 5.61812 25.6145 5.62945 25.507 5.61245C25.4561 5.56712 25.4109 5.5218 25.36 5.4708C25.2978 5.40281 25.2356 5.33482 25.1734 5.26683L25.213 5.26116ZM17.1656 5.12518C17.1882 5.40847 17.0807 5.70877 17.29 5.97507C17.2787 5.69177 17.4596 5.38015 17.1599 5.13084V3.78234C17.0581 4.23562 16.8376 4.70023 17.1599 5.12518H17.1656ZM3.87007 15.0293C3.34978 15.4259 2.73336 15.4203 2.04908 15.4033C2.84081 15.8679 3.51379 15.7092 3.87572 15.035C3.93793 14.984 4.00579 14.9387 4.068 14.8877C4.56001 14.61 4.67311 14.1341 4.72401 13.6241C4.80318 12.8366 4.69008 12.066 4.50911 11.3011C3.92662 9.17068 3.51379 7.01761 3.71172 4.79655C3.75131 4.73422 3.79089 4.6719 3.83048 4.60391C3.83048 4.60391 3.79089 4.57558 3.76827 4.55858C3.74565 4.63224 3.71738 4.70589 3.69475 4.77955C3.28758 4.88721 3.14054 5.23283 3.03875 5.57279C2.7786 6.44535 2.80123 7.34057 2.90868 8.2358C3.11226 9.40866 3.46854 10.5362 3.904 11.6467C4.31683 12.6949 4.46952 13.7601 4.03407 14.848C3.98317 14.9103 3.92662 14.967 3.87572 15.0293H3.87007ZM11.7139 53.4333C11.7365 53.473 11.7252 53.5919 11.81 53.473C11.7761 53.4673 11.7365 53.4616 11.7026 53.456C11.7026 52.98 11.4933 52.5834 11.2106 52.2208C10.6903 50.487 10.17 48.7532 9.85332 46.9684C9.70063 46.0902 8.87496 46.1922 8.36033 46.1808C7.82874 46.1695 7.9984 46.8268 8.02667 47.2234C8.14543 48.8099 8.46778 50.3397 9.04462 51.8355C9.36131 52.6514 9.79111 53.116 10.6733 53.1217C10.99 53.32 11.352 53.3766 11.7139 53.439V53.4333ZM32.1576 12.6439C32.1802 12.7176 32.1972 12.7969 32.2198 12.8706C32.2424 12.8536 32.2651 12.8422 32.2877 12.8252C32.2481 12.7629 32.2029 12.7006 32.1633 12.6383C32.2029 12.389 31.9031 12.1907 32.0615 11.9017C32.135 11.9357 32.2029 11.964 32.2707 12.0037C32.3951 12.0717 32.4856 12.3323 32.6609 12.134C32.7797 11.998 32.8871 11.794 32.791 11.5901C32.7005 11.3974 32.5082 11.4541 32.3499 11.4767C32.1011 11.5164 31.8635 11.5844 31.6147 11.6297C31.4394 11.658 31.2754 11.7147 31.2132 11.8847C31.1453 12.083 31.315 12.1793 31.4451 12.2813C31.66 12.4456 31.824 12.7119 32.1576 12.6439ZM9.8307 24.4292C9.8307 24.4292 9.88725 24.4745 9.90987 24.4972C9.88725 24.4688 9.86463 24.4405 9.84201 24.4122C9.44049 23.5453 9.24255 22.5197 8.13412 22.2478C8.53565 23.109 8.94282 23.9646 9.8307 24.4292ZM20.9489 35.9141L20.9659 35.8971C22.1478 35.5911 22.5098 35.1945 22.6511 34.0217C22.1196 34.2936 21.5993 34.5599 21.0846 34.8206C19.094 35.5458 17.0977 35.7384 15.0788 34.9395C12.9185 33.999 12.1041 32.9168 11.9797 30.4351C10.8147 32.3275 13.1334 35.7951 15.8196 36.1747C15.9214 36.2201 16.0232 36.2654 16.1306 36.305C16.1985 36.3164 16.2607 36.3334 16.3286 36.3447C17.8272 36.5544 19.3089 36.5657 20.751 36.0161C20.8471 36.0274 20.9263 36.0161 20.9602 35.9028L20.9489 35.9141ZM7.75522 18.6669C7.79481 18.6499 7.8966 18.7858 7.87964 18.6215C7.8344 18.6442 7.78915 18.6669 7.74391 18.6895C7.82309 18.4516 7.86267 18.2249 7.59122 17.9246C7.20666 18.7065 5.99079 18.8822 6.32444 20.021C6.5959 20.9389 7.34239 21.3752 8.41123 21.3412C8.07757 20.6443 7.7326 19.97 7.42722 19.2788C7.21232 18.7915 7.27453 18.7009 7.74957 18.6669H7.75522ZM33.5092 35.5118C33.2717 36.0161 32.9776 36.4977 32.8589 37.0586C32.4517 37.5799 32.316 38.2485 31.954 38.7754C31.4507 39.512 31.6656 40.1919 31.8692 40.9398C32.1689 40.5659 31.8692 39.648 32.7627 40.0389C33.2943 40.2712 33.7467 40.6905 34.2331 41.0305C34.4876 41.2118 34.6233 41.3138 34.3123 41.6707C33.9051 42.141 33.464 42.5716 33.0511 43.0362C32.8702 43.2402 32.7401 43.4272 32.8476 43.7161C33.1473 44.532 33.4414 45.3479 33.758 46.2375C35.0418 45.1836 36.2916 44.1411 37.2021 42.8209C37.7224 42.0673 37.9995 41.1098 37.7959 40.1239C37.7393 40.0503 37.6828 39.9766 37.6262 39.9029C37.6319 39.767 37.598 39.6593 37.4453 39.6253C36.7271 37.5799 35.3755 35.9651 33.9334 34.3503C33.775 34.7922 33.6393 35.1605 33.5092 35.5288V35.5118ZM28.4252 50.538C28.2046 50.9459 28.3234 51.4105 28.2046 51.8412C28.0632 52.3568 28.3177 52.2378 28.6457 52.1301C29.8559 51.7392 30.3592 50.9119 30.2461 49.6711C30.6194 48.1583 30.6759 46.6115 30.7042 45.0646C30.7042 44.8663 30.7495 44.5944 30.3875 44.634C29.5958 44.719 28.7475 45.5519 28.7588 46.3452C28.7758 47.756 28.5269 49.1441 28.4195 50.5436L28.4252 50.538ZM17.5558 37.1606C16.764 37.0586 15.9666 36.9566 15.0392 36.8377C15.9157 38.0842 16.5944 39.2854 17.437 40.3845C18.0195 41.1438 17.9799 41.1608 18.5737 40.4242C19.4107 39.3873 20.3721 38.4921 21.588 37.9085C21.6332 38.4185 21.0055 38.4865 20.9263 38.9114C20.734 39.1267 20.4513 39.359 21.0224 39.4327C21.2204 40.0899 21.0224 40.4695 20.2873 40.4469C19.9706 40.4355 19.8744 40.4582 19.9536 40.8775C20.0215 41.2401 19.7217 41.6991 19.1901 41.5461C18.7207 41.4101 18.6133 41.4781 18.7716 41.954C18.9413 42.4866 18.5285 42.7473 18.1552 42.8493C17.7989 42.9456 17.273 43.2402 17.1599 42.4186C17.092 41.9314 16.5491 41.7161 16.0854 41.5347C15.0052 41.1155 13.9251 40.6848 12.9128 40.1126C10.8882 38.9624 9.06724 37.5176 7.21232 36.1237C6.85038 35.8518 6.75424 35.8574 6.41493 36.1351C5.57795 36.8093 5.54402 37.4836 6.17175 38.2938C6.37534 38.5601 6.51107 38.8831 6.68073 39.1777C7.07094 39.8689 7.50639 40.5885 7.35935 41.3931C7.16142 42.4923 7.52336 43.4498 7.80046 44.4584C8.00405 45.2006 8.46778 45.6086 9.12945 45.6596C10.1078 45.7332 10.3849 46.1185 10.4924 47.1271C10.7242 49.3028 11.4933 51.3539 12.3699 53.371C12.7601 54.2605 13.4161 54.5722 14.2192 54.7988C14.4906 54.8781 14.7734 54.9348 15.0505 54.9404C16.0854 54.9688 17.1373 55.49 18.1609 54.8101C18.4719 54.6005 18.8395 54.5495 19.0714 55.0311C19.2014 55.3087 19.5181 55.2067 19.767 55.2181C21.8764 55.3201 23.8557 54.7705 25.8294 54.1132C26.9039 53.7563 27.4468 53.0423 27.5712 51.9601C27.7465 50.47 27.9954 48.9912 28.0915 47.4897C28.1537 46.5208 27.9784 45.5123 28.4195 44.583C29.1264 44.8097 29.7032 44.3337 30.3197 44.1638C30.7664 44.0391 30.3819 43.3875 30.6477 43.0476C31.0435 43.0759 31.0605 43.5122 31.3772 43.8068C31.5525 42.7926 31.9653 41.9257 31.3659 40.9795C30.8117 40.1013 30.7608 39.1947 31.4055 38.2655C31.7787 37.7272 32.152 37.1323 32.1915 36.4297C32.627 36.2937 32.5252 35.8234 32.7345 35.5515C33.1925 34.9565 32.8249 34.8546 32.3216 34.8206C32.2933 34.7526 32.2651 34.6846 32.2311 34.6223C32.2311 34.6223 32.1746 34.6279 32.1633 34.6449C31.7731 35.3702 31.3602 36.0784 31.0096 36.8206C30.3536 38.1975 29.3865 39.138 27.837 39.4667C26.6551 39.716 25.4957 40.1013 24.3251 40.4185C23.8614 40.5432 23.392 40.6679 22.9226 40.7528C22.4871 40.8322 22.046 40.8718 21.6049 40.9228C22.9169 40.0276 24.4382 39.818 25.852 39.3137C28.8323 38.7471 30.2292 37.7272 30.7608 35.6081C29.9521 36.1237 29.2225 36.5714 28.5156 37.0416C27.4581 37.7385 26.2253 38.1238 25.2356 38.9341C23.9914 39.1494 22.9622 40.0616 21.6049 39.9879C22.6794 39.4157 23.7539 38.8434 24.8284 38.2711C26.525 37.5516 28.1594 36.7017 29.6014 35.5741C30.6533 34.7469 31.9653 34.0273 32.1237 32.4465C32.2311 31.3643 32.5309 30.3048 32.4687 29.2056C32.6044 28.265 32.5196 27.3641 32.0332 26.5199C31.5412 25.67 31.0888 24.7974 30.6194 23.9306C30.4384 23.1656 29.8729 22.6217 29.5223 21.8681C29.2395 22.3441 28.7136 22.6897 29.0642 23.262C29.3979 23.8059 28.9681 24.1062 28.6853 24.1289C28.2103 24.1742 28.1424 24.4972 27.9954 24.7748C27.7635 25.2167 27.5825 25.687 27.3789 26.146C27.2658 26.3046 27.1471 26.4632 27.034 26.6276C24.8114 29.8402 23.5956 33.5287 22.1082 37.087C21.5936 36.9056 22.2553 36.4694 21.9047 36.2314C21.4692 36.4354 21.0168 36.645 20.5644 36.8546C19.5577 36.9623 18.5567 37.07 17.5501 37.1833L17.5558 37.1606ZM8.68268 26.3329C9.42352 26.5086 8.92586 27.2395 9.25386 27.6134C9.62711 27.4038 9.57056 26.7465 10.3623 26.7012C8.94848 28.7296 9.67235 30.3614 11.188 31.9366C11.188 31.4153 11.1653 30.979 11.188 30.5428C11.2445 29.6645 11.4933 28.8883 12.2794 28.3557C13.0712 27.8231 13.0655 27.6361 12.172 27.1828C11.1258 26.6446 10.2888 25.8513 9.42918 25.0807C9.17469 24.8484 9.03896 24.3385 8.4904 24.6955C8.38861 24.7578 7.81177 24.5765 8.15109 24.1175C8.28116 23.9362 8.28116 23.8002 8.10585 23.6982C7.92488 23.5963 7.86267 23.7889 7.80612 23.8909C7.54032 24.3612 6.9748 24.5821 6.78252 25.1147C5.71368 26.0496 5.39698 27.1488 5.70237 28.5767C6.08692 30.3671 6.45452 32.1632 6.86735 33.948C6.95783 34.3446 7.16708 34.6846 7.45549 34.9565C9.52531 36.934 11.7818 38.6451 14.4454 39.7556C14.5359 39.7953 14.5924 40.0106 14.7621 39.8123C15.2993 39.189 15.3106 38.6621 14.779 38.0672C13.8063 35.8688 11.9853 34.288 10.6281 32.3672C9.33304 30.5484 8.47909 28.622 8.67703 26.3329H8.68268ZM5.51009 47.1894C5.84375 47.4954 6.1661 47.8126 6.52238 48.0959C6.77686 48.2999 7.03135 48.3736 7.0879 47.892C7.16142 47.2177 7.26322 46.5435 7.3537 45.8692C7.41025 45.4613 7.11618 45.297 6.82211 45.212C6.48845 45.1213 6.56762 45.4896 6.47148 45.6482C6.17741 46.1412 6.13782 46.7814 5.58361 47.1214C5.58361 46.4585 5.72499 45.8126 6.03037 45.2403C6.2792 44.7644 6.30748 44.3961 5.8494 44.0731C5.64581 43.9258 5.49312 43.7218 5.60057 43.4952C5.91161 42.8323 6.17741 42.1183 6.62983 41.5631C7.0879 41.0021 7.1897 40.8775 6.73728 40.3109C6.4941 40.0049 6.26224 39.682 6.06996 39.342C5.53837 38.3845 5.02939 37.4156 4.50345 36.4297C4.09628 36.8093 4.00014 37.3306 3.79089 37.7725C2.98219 39.4837 2.20742 41.2061 1.87377 43.0986C1.81156 43.4442 1.86811 43.6652 2.09432 43.9371C3.11792 45.1496 4.28856 46.1978 5.51574 47.1894H5.51009ZM17.3296 30.4011C17.2956 30.3728 17.2673 30.3388 17.2334 30.3104C17.2334 30.3444 17.2334 30.3784 17.2334 30.4124C17.273 30.4011 17.3069 30.3898 17.3465 30.3784C17.1429 30.6221 17.3861 30.7807 17.4653 30.962C17.5558 31.1773 17.7028 31.4153 17.454 31.5626C17.1995 31.7099 17.0525 31.472 16.928 31.2737C16.6057 30.7411 16.2946 30.2028 15.9553 29.6872C15.5991 29.1433 14.4397 28.6446 14.2079 28.9506C13.8912 29.3699 13.4614 29.6362 13.0825 29.9648C12.7431 30.2594 12.647 30.5314 12.6866 30.9847C12.8958 33.1774 14.1626 33.9367 15.7913 34.4579C17.5558 35.0245 19.3881 34.8376 21.079 34.05C22.0291 33.608 23.0753 33.2228 23.5616 32.1462C23.8501 31.5003 24.1159 30.8487 24.4043 30.2028C24.5004 29.9932 24.6531 29.8062 24.3081 29.6702C23.6974 29.4322 23.0753 29.2056 22.4589 29.5625C20.8528 30.5088 19.1449 30.7581 17.3296 30.3954V30.4011ZM18.2966 11.9923C17.2504 9.9016 16.9846 7.75419 16.5661 5.68611C16.4643 6.92696 16.3512 8.19047 16.3908 9.46531C16.436 10.9158 16.8093 11.4427 18.2966 11.9923ZM32.3216 43.8578C31.5468 44.8607 31.5016 46.5095 32.1689 47.6143C33.2943 46.6511 33.2887 46.6568 32.7853 45.3083C32.6213 44.8663 32.4969 44.4017 32.3216 43.8521V43.8578ZM33.758 41.4837C33.4131 41.2628 33.1812 41.1325 32.9607 40.9795C32.7231 40.8095 32.5422 40.7925 32.5026 41.1381C32.4404 41.6367 32.3838 42.141 32.3103 42.8323C32.8815 42.2996 33.3056 41.9144 33.7637 41.4894L33.758 41.4837ZM5.51009 36.832C5.58926 36.424 5.55533 36.0897 5.82113 35.8801C6.35838 35.4495 6.05865 35.1379 5.67975 34.8376C4.88801 35.3985 4.9785 36.0274 5.51009 36.832ZM32.791 32.9111C32.5309 33.5061 32.2142 34.0047 32.8928 34.4409C33.1134 34.5826 33.1756 34.4806 33.2717 34.322C33.6336 33.7157 33.2887 33.3361 32.7967 32.9055L32.791 32.9111ZM20.9093 13.4145C21.8198 13.4428 22.6398 13.0292 23.4938 12.7233C22.572 12.6779 21.7802 13.1482 20.9093 13.4145ZM29.3752 20.7406C29.986 19.7207 30.0878 19.2731 29.8616 18.8482C29.5166 19.4488 29.3752 20.0834 29.3752 20.7406ZM31.7108 14.576C31.8862 14.2474 32.3216 13.9868 32.0106 13.5675C31.8975 13.4145 31.5864 13.4372 31.4677 13.5675C31.0718 13.9981 31.7674 14.1964 31.7052 14.5817L31.7108 14.576ZM29.5053 12.6666C30.2292 13.3881 30.7438 13.6223 31.0492 13.3692C30.5176 13.1992 30.1726 12.6666 29.5053 12.6666ZM29.0698 14.1907C29.0416 13.6355 29.2282 13.2389 28.9454 12.8932C28.8776 12.8139 28.7023 12.8422 28.657 12.9556C28.493 13.3692 28.6344 13.7205 29.0698 14.1851V14.1907ZM6.90128 44.2827C7.00873 43.7218 6.873 43.3649 6.64679 43.0022C5.99644 43.5688 6.59024 43.8295 6.90128 44.2827ZM31.6373 13.0179C31.5242 12.9499 31.4564 12.8989 31.3828 12.8706C31.3433 12.8592 31.2867 12.8989 31.2415 12.9159C31.2924 12.9782 31.3376 13.0519 31.4055 13.0972C31.4281 13.1142 31.496 13.0689 31.643 13.0179H31.6373ZM4.48083 17.0067C4.52608 16.9784 4.58828 16.9614 4.61656 16.9217C4.67311 16.8368 4.62787 16.7744 4.53173 16.7801C4.49214 16.7801 4.43559 16.8368 4.42994 16.8764C4.41863 16.9104 4.46387 16.9614 4.48649 17.0067H4.48083ZM4.12455 18.2532C4.10759 18.2136 4.09062 18.1683 4.07366 18.1286C4.02841 18.1513 3.96055 18.1569 3.93793 18.1909C3.89269 18.2589 3.904 18.3439 4.01145 18.3439C4.05103 18.3439 4.09062 18.2872 4.13021 18.2532H4.12455ZM23.9632 12.5986C23.9632 12.5986 24.0084 12.5759 24.0367 12.5646C23.9914 12.5646 23.9462 12.5533 23.9066 12.5533C23.9292 12.5703 23.9462 12.5873 23.9688 12.5986H23.9632ZM29.1547 21.1316C29.1547 21.1316 29.1377 21.1712 29.1321 21.1882L29.2169 21.1996C29.2169 21.1996 29.2169 21.1542 29.2056 21.1372C29.1999 21.1259 29.1716 21.1372 29.1547 21.1316ZM10.2775 24.8824C10.2775 24.8824 10.2322 24.8824 10.2266 24.8938C10.2153 24.9108 10.2153 24.9334 10.2153 24.9561C10.2435 24.9561 10.2718 24.9448 10.3001 24.9391C10.2944 24.9221 10.2831 24.8994 10.2775 24.8824Z" fill="#060605"/>
<path d="M30.9416 15.375C30.9586 16.5251 30.4666 17.409 29.5674 18.0946C29.3129 17.953 29.4317 17.732 29.3977 17.5564C29.3695 17.4147 29.3073 17.2731 29.1376 17.2731C28.9679 17.2731 28.9114 17.409 28.8548 17.545C28.6343 18.0436 28.5155 18.5819 28.5325 19.1032C28.5551 19.8794 28.4024 20.6103 28.2384 21.3469C28.1083 21.5622 27.9726 21.7775 27.8425 21.9928C26.6889 23.9079 25.3542 25.6644 23.2731 26.6446C21.6161 27.4265 19.9309 27.8288 18.025 27.5455C16.1079 27.2622 14.5131 26.5993 13.2181 25.1544C11.6459 23.3923 10.3848 21.4149 9.21416 19.3808C8.60339 18.3156 8.76739 17.5224 9.66658 16.5648C10.6676 16.6385 11.5894 16.2079 12.5621 16.1285C12.579 16.3438 12.5112 16.5761 12.7261 16.7405C13.5291 17.2051 14.3378 16.6101 15.1409 16.7405C15.3727 16.3495 15.8704 16.1115 15.8138 15.5506C15.9382 15.409 15.9722 15.29 15.8195 15.1143C15.3162 14.5251 14.728 14.2871 13.9533 14.4684C12.6978 14.7574 11.4367 15.0123 10.1755 15.2786C10.1303 14.4457 10.3848 13.5788 9.86451 12.8083C9.62699 12.1907 9.38947 11.5731 9.15195 10.9555C9.24243 10.7798 9.32726 10.5985 9.41775 10.4229C9.98327 9.37469 10.5431 8.32648 11.4536 7.51625C12.1605 6.88732 12.2227 6.89299 12.5903 7.72022C12.9353 8.49646 13.252 9.2897 13.6705 10.0263C14.1682 10.8988 14.6149 11.8507 15.6046 12.321C16.6847 13.6412 18.1551 14.2871 19.7838 14.4627C20.3663 14.5251 20.7452 15.2786 21.4069 14.8537C21.4351 14.967 21.4974 15.0747 21.6274 15.0407C22.2665 14.882 22.9112 14.7177 23.5446 14.5307C23.6859 14.4911 23.6803 14.3098 23.6577 14.1681C24.6304 13.7375 25.5974 13.5675 26.6549 13.9641C27.1922 14.1624 27.803 14.2361 28.4024 14.1681C28.8039 14.797 28.6003 15.6299 29.081 16.2928C29.5052 15.8452 29.3751 15.3126 29.4995 14.8537C30.0764 14.763 30.3817 15.4203 30.9416 15.3693V15.375ZM21.6161 17.2447C22.0176 17.8906 22.5945 18.0946 23.3183 17.919C23.8895 17.8 24.4664 17.6923 25.0375 17.562C25.2185 17.5224 25.4673 17.528 25.5465 17.3127C25.7614 16.7008 26.0102 16.1172 26.5588 15.7602C25.4447 15.205 24.3589 14.9103 23.1883 15.035C21.8649 15.1766 21.175 15.8792 21.0393 17.2277C21.3277 17.2617 21.3616 16.9388 21.5596 16.8481L21.6161 17.2391V17.2447ZM11.5328 19.9871C12.0305 20.633 12.5677 20.684 13.269 20.1514C13.3764 20.1684 13.4839 20.1854 13.5913 20.208C13.7327 20.3327 13.8458 20.293 13.9363 20.1457C14.2417 19.9134 14.6036 19.8794 14.9712 19.8284C15.7516 19.7264 15.7007 18.8935 16.0457 18.4289C16.2097 18.2079 15.6894 17.6243 15.1918 17.4374C13.9589 16.9614 12.5564 17.3127 11.612 18.2646C11.1143 18.7689 10.9673 19.5281 10.2887 19.9021C10.6506 19.8681 10.9616 20.327 11.3066 19.9417C11.3801 19.9587 11.4536 19.9757 11.5272 19.9927L11.5328 19.9871ZM19.0769 22.6897C19.2579 22.6897 19.4897 22.8144 19.5859 22.5821C19.7216 22.2478 19.3314 22.2251 19.207 22.0438C19.2239 21.2392 18.7093 21.1373 18.0759 21.1769C17.369 21.2222 17.4991 21.7548 17.5104 22.1798C17.5387 23.0977 17.9798 23.2337 19.0713 22.6897H19.0769ZM16.6282 24.5538C16.4698 24.5538 16.3285 24.5255 16.1984 24.5595C16.0118 24.6048 15.6894 24.3499 15.6498 24.7295C15.6159 25.0751 15.9326 25.0128 16.1418 25.0354C16.6734 25.0921 17.2163 25.0921 17.7423 25.1884C20.3041 25.653 22.3456 24.5255 24.291 23.092C24.4381 22.9844 24.6473 22.8144 24.472 22.6047C24.3476 22.4518 24.161 22.5537 24.0196 22.6557C23.8386 22.7861 23.6463 22.9164 23.4654 23.0467C21.9724 24.1232 20.3946 24.9505 18.4661 24.7521C17.8497 24.6898 17.2333 24.6218 16.6282 24.5538ZM20.5755 25.4377C20.2362 25.4207 19.8743 25.5001 19.9195 26.01C19.9535 26.3839 20.208 26.6446 20.5925 26.6163C20.9827 26.5879 21.4012 26.4689 21.4125 25.959C21.4238 25.4321 21.011 25.4434 20.5755 25.4434V25.4377ZM12.5168 21.3242C12.4659 21.1599 12.3585 21.0126 12.1662 21.0693C11.957 21.1316 11.6798 21.1712 11.6346 21.4375C11.595 21.6869 11.8212 21.6699 11.9852 21.6755C12.2227 21.6755 12.4376 21.6302 12.5168 21.3242Z" fill="#F4CCA8"/>
<path d="M32.2086 36.4127C32.169 37.1209 31.7958 37.7102 31.4225 38.2485C30.7778 39.1777 30.8287 40.0899 31.3829 40.9625C31.9824 41.9087 31.5695 42.7699 31.3942 43.7898C31.0775 43.4895 31.0606 43.0589 30.6647 43.0306C30.4046 42.8606 30.3763 42.5603 30.2575 42.311C30.0143 41.7727 29.8786 41.0475 29.4545 40.7642C29.0869 40.5205 28.527 41.1211 28.0294 41.3081C24.7889 42.5263 21.3731 42.9229 18.0083 43.5802C17.7594 43.6255 17.4258 43.2912 17.2674 43.6821C17.16 43.9428 17.1996 44.2487 17.5219 44.4074C17.5163 44.5774 17.5049 44.7473 17.4993 44.9173C17.2335 45.2459 17.2448 45.5689 17.5163 45.8862C17.5163 46.0675 17.5163 46.2488 17.5163 46.4301C17.0469 46.7928 17.0695 47.1441 17.5332 47.4897C17.5332 47.6937 17.5332 47.8976 17.5332 48.0959C16.9394 48.5549 17.2391 48.8778 17.6972 49.1781C17.6972 49.3878 17.6972 49.5974 17.6972 49.8071C17.2222 49.8411 17.3749 50.2037 17.3353 50.4813C17.2731 50.9176 17.6746 50.8213 17.8556 50.9743C17.8556 51.1669 17.8556 51.3539 17.8556 51.5465C17.5558 51.5295 17.3692 51.5465 17.324 51.9715C17.2505 52.6174 17.7481 52.4757 18.0422 52.6231C18.0422 52.8214 18.0422 53.014 18.0422 53.2123C17.7198 53.2463 17.3523 53.167 17.3805 53.7166C17.4088 54.2152 17.7029 54.2605 18.0648 54.2265C18.2854 54.2039 18.489 54.4078 18.7152 54.2719C21.2148 54.4418 23.6239 54.1755 25.8691 52.9517C26.3611 52.6854 26.6778 52.4134 26.7626 51.8355C27.068 49.6824 27.4129 47.535 27.7296 45.3819C27.7918 44.9513 27.7862 44.4867 28.4252 44.5547C27.9785 45.4839 28.1594 46.4925 28.0972 47.4613C28.0011 48.9628 27.7523 50.4417 27.5769 51.9318C27.4469 53.014 26.9096 53.7279 25.8351 54.0849C23.8614 54.7421 21.8764 55.2917 19.7727 55.1897C19.5295 55.1784 19.2128 55.2804 19.0771 55.0028C18.8509 54.5212 18.4833 54.5778 18.1666 54.7818C17.143 55.4617 16.0911 54.9404 15.0562 54.9121C14.7791 54.9064 14.4907 54.8498 14.2249 54.7705C13.4219 54.5438 12.7658 54.2322 12.3756 53.3426C11.4991 51.3312 10.73 49.2745 10.4981 47.0987C10.3906 46.0902 10.1135 45.7049 9.13518 45.6312C8.46786 45.5802 8.00978 45.1723 7.80619 44.43C7.52343 43.4158 7.16715 42.4583 7.36508 41.3648C7.51212 40.5545 7.07101 39.8406 6.68645 39.1494C6.52245 38.8547 6.38673 38.5318 6.17748 38.2655C5.54975 37.4552 5.58368 36.781 6.42066 36.1067C6.76563 35.8291 6.85611 35.8234 7.21805 36.0954C9.07297 37.4892 10.8883 38.9397 12.9185 40.0842C13.9308 40.6565 15.011 41.0871 16.0911 41.5064C16.5492 41.6877 17.0978 41.903 17.1656 42.3903C17.2787 43.2119 17.8103 42.9172 18.1609 42.8209C18.5342 42.7189 18.947 42.4583 18.7774 41.9257C18.6247 41.4497 18.7321 41.3818 19.1959 41.5177C19.7275 41.6707 20.0328 41.2118 19.9593 40.8491C19.8801 40.4299 19.9763 40.4072 20.293 40.4185C21.0338 40.4412 21.2261 40.0616 21.0282 39.4043C21.6276 39.546 22.1875 39.6083 22.2667 38.7527C22.4363 38.6847 22.6116 38.6224 22.7813 38.5544C23.2167 38.4581 23.607 38.2995 23.8162 37.8688C23.8727 37.7329 23.9915 37.6989 24.1216 37.7045C24.2856 37.7895 24.3987 37.6649 24.5344 37.6139C24.6362 37.8179 24.738 38.0218 24.8398 38.2258C23.7653 38.7981 22.6908 39.3703 21.6163 39.9426C22.9736 40.0163 24.0028 39.1097 25.247 38.8887C25.4845 38.9624 25.722 39.036 25.8634 39.2683C24.4496 39.7726 22.9283 39.9823 21.6163 40.8775C22.0574 40.8208 22.4985 40.7868 22.934 40.7075C23.409 40.6168 23.8728 40.4979 24.3365 40.3732C25.5071 40.0559 26.6608 39.6706 27.8484 39.4213C29.3979 39.0927 30.3706 38.1578 31.021 36.7753C31.3716 36.0331 31.7844 35.3248 32.1747 34.5996C32.186 34.5826 32.2369 34.5712 32.2425 34.5769C32.2764 34.6392 32.3047 34.7072 32.333 34.7752C32.4744 35.3248 31.7053 35.8008 32.2029 36.3844L32.2086 36.4127ZM16.3739 44.7417C16.2608 44.821 16.1024 44.872 16.0402 44.9796C14.9827 46.8494 13.6085 48.5039 12.4887 50.334C12.0476 51.0536 12.4548 53.1557 13.207 53.4673C14.2419 53.8922 15.2937 54.3058 16.4587 54.3058C16.9507 54.3058 17.0582 54.1755 17.0129 53.6939C16.8207 51.7052 16.4418 49.7277 16.4757 47.7163C16.4927 46.7248 16.4361 45.7332 16.4135 44.736C16.3852 44.6227 16.3739 44.6624 16.3739 44.7417Z" fill="#827E90"/>
<path d="M20.0555 10.0886C20.3891 11.0404 21.2713 11.2727 22.0631 11.624C22.261 11.709 22.5664 11.7204 22.5494 12.0037C22.5325 12.2586 22.2497 12.338 22.0461 12.4003C20.0272 13.0292 19.3146 13.0065 18.3306 10.6722C17.7707 9.34632 17.4654 7.94115 17.3805 6.49633C17.799 7.90149 18.2571 9.28399 19.0601 10.7062C19.2298 10.1566 18.964 9.92425 18.8396 9.66361C18.0705 8.03181 17.6803 6.32635 17.471 4.53024C17.3409 3.41971 17.5785 2.27518 17.1769 1.19864C17.0978 0.558388 17.4088 -0.161192 16.8093 -0.69946C16.4644 -1.59468 15.7575 -2.05363 15.0336 -1.78733C14.6151 -1.63435 14.2306 -1.37938 13.8403 -1.1584C13.682 -1.06775 13.5406 -0.795782 13.354 -0.965761C13.2465 -1.06208 13.2578 -1.33405 13.2748 -1.52669C13.4162 -3.08484 14.7735 -4.26903 16.5266 -4.39368C16.0742 -3.49279 16.0742 -3.48712 17.0921 -3.4078C17.4767 -3.37947 17.7877 -3.18682 18.1101 -3.02251C19.2807 -2.43325 19.62 -1.26606 20.095 -0.189521C20.6323 1.01733 20.7058 2.3545 21.113 3.59535C21.113 3.99197 21.113 4.38859 21.113 4.7852C20.8415 5.01751 20.9037 5.19316 21.2091 5.31781C21.2431 6.41701 21.605 7.41422 22.114 8.3661C22.0178 9.14234 22.4194 9.66361 23.098 9.84492C24.0933 10.1056 25.1169 10.2472 26.1348 10.4059C26.395 10.4455 26.706 10.4795 26.9209 10.2302C27.9389 10.5362 28.9625 10.4965 29.9012 10.0489C30.7835 9.62395 31.8071 9.35765 32.333 8.38877C32.5536 8.26978 32.7345 8.11113 32.842 7.87316C33.4188 8.01481 33.5263 8.41143 33.2152 9.04602C33.0286 9.42564 32.5309 9.58429 32.5196 10.0772C32.4631 10.1339 32.4009 10.1905 32.3443 10.2472H32.35C32.1803 10.2472 32.0107 10.2472 31.841 10.2529L31.824 10.2359C31.9428 9.95824 32.0615 9.68061 32.186 9.39731C32.2425 9.34065 32.2991 9.28399 32.3556 9.22733C32.3782 9.199 32.4009 9.17067 32.4235 9.14234C32.3952 9.16501 32.3669 9.18767 32.3387 9.21033C32.2821 9.26699 32.2256 9.32365 32.169 9.38031C31.6544 9.55029 31.2811 9.86192 31.1567 10.4172C30.8966 10.4002 30.6534 10.4059 30.6421 10.7571C30.3141 10.7005 30.02 10.8535 29.7429 10.9725C27.3281 12.0263 24.9925 12.0773 22.7134 10.3889C22.6569 11.0574 23.3525 11.0291 23.4882 11.4257L23.4712 11.4427C22.3685 11.1934 21.4014 10.7175 20.8189 9.69194C19.9989 8.24712 19.8236 6.63231 19.7501 5.02318C19.6879 3.61235 19.5408 2.20719 19.3655 0.80769C19.3203 0.4564 19.1506 0.127773 19.0036 -0.336837C18.7265 0.28642 18.9696 0.739698 19.0714 1.17031C19.4221 2.71146 19.1676 4.2696 19.3259 5.82208C19.4843 7.36889 19.8745 8.80805 20.4174 10.2359C20.3043 10.1792 20.1968 10.1169 20.0837 10.0546C20.0724 9.81659 19.9593 9.64661 19.7388 9.54463C19.6822 9.48797 19.6257 9.43131 19.5691 9.37465C19.5748 8.79672 19.3768 8.29245 19.0036 7.63519C18.8509 8.47376 19.2411 8.9157 19.5521 9.38598C19.6087 9.44264 19.6652 9.4993 19.7218 9.55596C19.7161 9.80526 19.7388 10.0376 20.0611 10.0716L20.0555 10.0886ZM18.6869 4.61523C18.6303 3.98064 18.8622 3.30639 18.472 2.70579C18.3872 3.34605 18.2062 3.9863 18.5285 4.61523C18.5116 5.48212 18.4833 6.35468 18.8622 7.39722C18.7943 6.33202 18.7434 5.47645 18.6869 4.62089V4.61523ZM22.2214 9.95258C21.2544 8.6664 20.9377 7.16492 20.6775 5.64643C20.2195 6.70031 21.1639 9.45397 22.2214 9.95258Z" fill="#232533"/>
<path d="M22.7755 38.5828C22.6059 38.6508 22.4306 38.7131 22.2609 38.7811C22.1082 38.6394 22.1082 38.2032 21.701 38.5488C21.4918 38.7244 21.2769 39.0021 20.9263 38.9114C21.0054 38.4865 21.6332 38.4185 21.5879 37.9085C21.9046 37.7159 22.0177 37.3986 22.1195 37.07C23.6069 33.5117 24.8171 29.8232 27.0452 26.6106C27.1584 26.4463 27.2771 26.2876 27.3902 26.129C27.9388 25.959 28.5043 25.823 28.9341 25.398C29.9916 25.3641 30.0482 25.3017 29.7258 24.4632C29.7258 23.7832 30.1726 23.8456 30.6307 23.9136C31.1001 24.7748 31.5581 25.6474 32.0445 26.5029C32.5308 27.3471 32.6213 28.248 32.4799 29.1886C32.3046 28.9393 32.1463 28.673 31.9483 28.4407C31.4677 27.8741 31.3772 27.0299 30.6589 26.6332C30.5967 26.4803 30.5232 26.3273 30.478 26.1686C30.3818 25.8173 30.1783 25.6927 29.8616 25.8853C29.7145 25.9703 29.3922 25.8683 29.4487 26.18C29.5053 26.4916 29.6467 26.7635 30.0482 26.7522C30.2405 26.7466 30.4327 26.7862 30.6307 26.8032C30.6872 27.0185 30.7438 27.2395 30.7947 27.4548C30.0312 27.5058 29.8333 27.8174 30.2292 28.3954C30.3875 28.6333 30.6816 28.6956 30.9643 28.724C30.9643 28.9676 30.9643 29.2113 30.9587 29.4606C30.2801 29.0979 30.2122 29.5512 30.1783 30.0498C30.1387 30.6277 30.6024 30.6051 30.9643 30.7071C30.9643 30.9564 30.9643 31.2 30.9643 31.4493C30.6589 31.5853 30.4327 30.8544 30.15 31.336C30.0482 31.5116 29.805 31.8686 30.2178 32.1122C30.3988 32.2199 30.5119 32.4352 30.6589 32.6052C30.444 32.7242 30.461 32.9338 30.461 33.1378C30.1556 33.0358 30.0651 32.4805 29.6806 32.6562C29.4713 32.7525 29.3469 33.1038 29.2621 33.3644C29.1433 33.7157 29.6184 33.829 29.641 34.1463C29.4544 34.203 29.33 34.3276 29.2678 34.5146C29.0246 34.4863 28.9511 34.0273 28.64 34.2313C28.312 34.4466 28.6231 34.7469 28.6061 35.0075C28.4364 35.0642 28.2668 35.1209 28.0971 35.1775C27.9162 34.8886 27.6617 34.8489 27.3959 35.0189C27.0226 35.2512 27.328 35.5515 27.3506 35.8234C27.1753 35.8518 26.9943 35.8858 26.819 35.9141C26.5702 35.4665 26.2988 35.5458 25.869 35.7385C25.2356 36.0274 25.7389 36.3957 25.6993 36.7187C25.5636 36.8943 25.3769 36.9056 25.179 36.8943C25.0094 36.4864 24.8906 36.2994 24.376 36.6563C23.85 37.019 24.2346 37.3986 24.1328 37.7442C23.9971 37.7442 23.884 37.7725 23.8274 37.9085C23.522 37.8405 23.4372 37.2569 22.8886 37.6592C22.3966 38.0218 22.7473 38.2825 22.7868 38.5998L22.7755 38.5828Z" fill="#EDEDEC"/>
<path d="M17.3409 30.3954C19.1562 30.758 20.8585 30.5087 22.4702 29.5625C23.0866 29.1999 23.7087 29.4322 24.3195 29.6702C24.6645 29.8061 24.5118 29.9931 24.4156 30.2028C24.1272 30.8487 23.8614 31.5059 23.573 32.1462C23.0866 33.2227 22.0404 33.608 21.0903 34.05C19.3994 34.8375 17.5671 35.0245 15.8027 34.4579C14.174 33.9366 12.9015 33.1774 12.698 30.9847C12.6527 30.5314 12.7489 30.2594 13.0938 29.9648C13.4727 29.6362 13.9025 29.3642 14.2192 28.9506C14.4511 28.6446 15.6104 29.1432 15.9667 29.6872C16.306 30.2084 16.617 30.7467 16.9394 31.2736C17.0581 31.4719 17.2108 31.7099 17.4653 31.5626C17.7142 31.4153 17.5671 31.1773 17.4766 30.962C17.3975 30.7807 17.1599 30.6164 17.3579 30.3784L17.3466 30.4011L17.3409 30.3954Z" fill="#E8B091"/>
<path d="M9.85899 12.8082C10.3849 13.5788 10.1248 14.4457 10.17 15.2786C9.89292 15.6639 9.51402 16.0095 9.66671 16.5648C8.76753 17.5223 8.60353 18.3156 9.21429 19.3808C10.3849 21.4205 11.6461 23.3923 13.2182 25.1544C14.5076 26.5992 16.1024 27.2621 18.0252 27.5454C19.931 27.8287 21.6163 27.4264 23.2732 26.6445C25.3544 25.6587 26.689 23.9079 27.8427 21.9928C27.9727 21.7775 28.1085 21.5622 28.2385 21.3469C27.7296 24.3725 26.2422 26.6615 23.4429 28.1064C21.4296 29.1489 19.3937 29.7495 17.1825 29.0356C14.4171 28.1404 12.1437 26.5766 10.6451 23.9872C9.53664 22.0664 8.56394 20.1003 8.18504 17.8963C7.98145 16.7178 7.87965 15.5732 9.00505 14.712C9.60451 14.2531 9.74589 13.5278 9.86465 12.8252L9.85899 12.8082Z" fill="#E8B091"/>
<path d="M21.1015 3.59536C20.6944 2.34884 20.6208 1.01734 20.0836 -0.189518C19.6086 -1.26605 19.2636 -2.43891 18.0986 -3.02251C17.7763 -3.18682 17.4652 -3.37946 17.0807 -3.40779C16.0627 -3.48145 16.0627 -3.49278 16.5151 -4.39367C18.5454 -4.58632 20.0384 -3.77608 21.0111 -1.91764C21.1637 -2.20094 21.0789 -2.44458 21.0563 -2.68821C21.0789 -2.71088 21.1015 -2.73354 21.1242 -2.75621C21.2882 -2.74487 21.4522 -2.73354 21.6105 -2.72221H21.6049C21.5879 -2.12728 22.1138 -1.81565 22.3514 -1.35671C23.0809 0.0541191 23.3071 1.64626 24.014 3.05142C24.3533 3.73134 24.7152 4.39426 25.0659 5.06851C25.0376 5.09684 25.0093 5.13083 24.981 5.15916C24.8283 5.08551 24.67 5.00618 24.5173 4.93252C24.4664 4.84187 24.3646 4.73988 24.2968 4.84187C24.2176 4.96085 24.3872 4.96085 24.4608 5.00052C24.5626 5.3688 24.7548 5.63511 25.1733 5.64644C25.1846 5.98073 25.3769 6.12805 25.6879 6.16204H25.6766C25.8802 6.485 26.1573 6.72297 26.5136 6.86462C26.4797 7.21591 26.7455 7.43122 26.8925 7.70319C27.6334 8.31511 28.5099 8.25279 29.3639 8.1168C30.1782 7.98649 30.919 7.64653 31.5298 7.05727C31.773 6.82496 32.0897 6.66631 32.4912 6.63232C32.2593 6.92128 32.0275 7.21591 31.8013 7.50488C31.5411 7.55021 31.3658 7.66353 31.3488 7.96949C31.6882 7.96949 31.7956 7.78251 31.8635 7.56154C32.2311 7.53321 32.446 7.94116 32.8192 7.8845C32.7118 8.12247 32.5308 8.27545 32.3102 8.4001C31.3375 8.70607 30.5288 9.34632 29.5392 9.64095C27.3619 10.2869 25.1337 9.216 24.4042 7.26691C24.7775 7.14792 25.0319 7.68052 25.507 7.42555C25.1959 7.21591 24.9245 7.02894 24.6417 6.85329C24.1497 6.55299 23.7199 6.2017 23.539 5.61811C23.0469 4.0543 22.5267 2.49615 22.2439 0.875686C22.1308 0.246762 22.1138 -0.461485 21.4126 -1.06208C21.52 -0.37083 21.6105 0.150441 21.684 0.677377C21.9216 2.36584 22.521 3.95798 22.9791 5.58978C22.9112 5.68043 22.7925 5.85608 22.7811 5.85041C22.4136 5.61811 21.7802 5.85041 21.7123 5.08551C21.6671 4.57557 21.4352 4.04863 21.0902 3.61802L21.1015 3.59536ZM30.5797 8.34344C29.4883 8.46243 28.4307 8.79672 27.328 8.88171C28.4986 9.14235 29.6014 8.9837 30.6533 8.42277C30.8003 8.37177 30.9869 8.4001 31.0661 8.21879C31.0831 8.1848 31.0548 8.08847 31.0322 8.08847C30.8059 8.03181 30.6928 8.20179 30.5741 8.34344H30.5797Z" fill="#464950"/>
<path d="M5.57238 17.579C5.17085 17.477 4.94464 17.9529 4.47526 17.8963C4.92768 17.103 5.84383 16.7234 6.13224 15.9132C6.41501 15.1143 6.59597 14.2474 6.03611 13.1765C5.923 13.9698 5.83252 14.5307 5.76465 15.0973C5.72507 15.4429 5.63458 15.7659 5.45927 16.0605C5.37444 16.2021 5.23872 16.3891 5.06906 16.3325C4.7863 16.2418 5.1652 15.9812 4.99554 15.8282C4.70712 15.7715 4.61664 16.4005 4.32257 16.0888C4.07374 15.8225 4.39608 15.6242 4.5714 15.3976C5.41403 14.321 5.31223 13.0745 5.18216 11.8167C5.08602 10.9271 4.58836 10.1226 4.56574 9.08568C5.04078 9.77126 5.08602 10.5248 5.69114 11.0064C5.41968 10.1169 5.15954 9.22733 4.88244 8.34344C4.58271 7.40288 4.45829 6.451 4.59967 5.47645C4.97292 5.6011 4.91071 6.12804 5.3801 6.29802C5.36313 5.47079 5.74769 4.79654 5.78728 4.0203C5.83817 3.04008 7.30854 2.1052 8.236 2.39416C9.2596 2.71146 10.3171 2.95509 11.1315 3.74266C11.3577 3.95797 11.533 3.94664 11.5726 3.58968C11.8949 3.45936 11.9119 3.17607 11.9063 2.89277C11.9063 2.46782 11.9741 2.06553 12.2399 1.71424C12.7319 1.81623 12.681 1.31763 12.8676 1.10232C13.5576 0.320414 14.1401 -0.580477 15.3277 -0.665466C13.7781 0.824686 12.4887 2.49048 11.9232 4.62089C11.8554 4.88153 11.7649 4.97785 11.5273 4.80787C10.1644 3.87298 8.69407 4.20161 7.18978 4.28093C5.99086 4.34892 6.22273 5.04584 6.31321 5.64077C6.55073 7.15358 6.8957 8.6494 7.81751 9.92424C7.74399 10.0376 7.67613 10.1565 7.60261 10.2699C6.99184 10.0999 6.77694 9.43697 6.04176 9.07435C6.3019 9.96957 6.52246 10.7231 6.74301 11.4767C7.04274 12.5079 7.41033 13.5221 7.61958 14.5703C7.99848 16.4684 7.30288 17.8453 5.47058 18.7122C4.79195 19.0351 5.0634 19.2448 5.31223 19.5904C5.28396 19.6187 5.26134 19.6414 5.23306 19.6697C4.31691 19.0918 4.29994 18.6215 5.15389 18.0493C5.3292 17.9303 5.46493 17.7433 5.61762 17.5903C5.81555 17.5676 5.99652 17.5167 6.04176 17.29C6.06438 17.1937 5.99652 17.1314 5.90038 17.1484C5.67417 17.1937 5.61762 17.375 5.595 17.5733L5.57238 17.579Z" fill="#232533"/>
<path d="M14.4285 -5.11893C14.519 -5.11893 14.6151 -5.11893 14.7056 -5.11893C16.3399 -5.37957 17.9687 -5.66286 19.6313 -5.45889C19.965 -5.41923 20.3043 -5.48722 20.5474 -5.77618C21.441 -5.6402 22.3967 -5.82718 23.228 -5.31157C23.3129 -5.24925 23.392 -5.18126 23.4769 -5.11893L23.4656 -5.13026C23.6522 -4.92062 23.8275 -4.69965 24.0254 -4.50701C24.9698 -3.58345 26.1235 -2.85821 26.7739 -1.65702C26.9096 -1.40772 27.362 -1.16408 27.0793 -0.875113C26.7682 -0.557819 26.6664 -1.2434 26.3384 -1.18674H26.361C26.3215 -1.31706 26.2253 -1.36239 26.1009 -1.36805C25.7503 -1.45871 25.6881 -1.80433 25.5071 -2.04231C24.5231 -3.34548 23.3072 -4.32003 21.6955 -4.71098C21.2713 -4.81297 20.8132 -4.90362 20.5079 -4.42202C21.2713 -4.61466 21.916 -4.34836 22.5664 -4.05939C24.4156 -3.23783 25.4958 -1.71934 26.3045 0.04844C26.4459 0.354403 26.5137 0.700028 26.8757 0.841677H26.8813C26.8191 1.1703 26.9831 1.1703 27.2093 1.08531V1.13631C27.2093 1.20997 27.2093 1.27796 27.2093 1.35161C27.0057 1.41394 27.0906 1.47627 27.2093 1.53293C27.2659 1.58959 27.3224 1.64625 27.379 1.70291C27.4412 2.21284 27.7296 2.49048 28.2273 2.55847C28.2555 2.8871 28.4818 2.91542 28.7362 2.90409C28.8889 3.30071 29.3923 3.19872 29.6411 3.55001C27.4695 3.51602 26.7004 1.73124 25.5467 0.224086C25.4675 1.00599 26.1518 1.30062 26.0952 1.86155C26.1857 1.91821 26.2762 1.98054 26.3667 2.0372V2.02587C26.3271 2.19018 26.3497 2.32616 26.5364 2.37716V2.36583C26.4232 2.67179 26.8304 3.02308 26.4176 3.32337C25.8181 2.93242 25.6089 2.09386 24.7945 1.78223C24.9529 3.05141 25.8747 3.74266 26.5081 4.60955C25.6824 4.70587 25.4958 3.72566 24.8058 3.58968C24.2177 3.0854 24.0367 2.36016 23.7992 1.66891C23.3864 0.467723 23.0923 -0.778792 22.4193 -1.86666C22.2101 -2.20662 22.097 -2.67689 21.5824 -2.74489H21.588C21.3731 -3.38514 20.604 -3.22083 20.2477 -3.6911C19.7274 -4.37669 18.93 -4.60333 18.127 -4.7903C16.8998 -5.0736 15.7235 -5.00561 14.5925 -4.42202C14.3267 -4.28603 14.1061 -4.20671 14.0835 -4.63166V-4.62032C14.321 -4.70531 14.4681 -4.86396 14.4285 -5.14159H14.4172L14.4285 -5.11893Z" fill="#464950"/>
<path d="M15.6048 12.3266C14.6151 11.8563 14.1684 10.9101 13.6707 10.0319C13.2522 9.29533 12.9355 8.50209 12.5906 7.72585C12.223 6.89862 12.1608 6.89295 11.4539 7.52187C10.5434 8.33211 9.9835 9.38032 9.41797 10.4285C9.32183 10.6042 9.237 10.7855 9.15218 10.9611C8.95424 10.7005 8.73369 10.4512 8.56403 10.1679C8.18513 9.55029 8.00982 8.92704 8.71107 8.39444C8.84679 8.29245 8.8581 8.17346 8.82983 8.03181C9.06169 7.74851 9.2879 7.46522 9.51977 7.18192C9.73467 7.12526 9.95522 7.09126 10.1645 7.0176C10.5038 6.89295 10.1645 6.79096 10.1418 6.67764C10.3454 6.45667 10.549 6.2357 10.7526 6.02039C11.1259 6.15637 11.2955 6.06572 11.1768 5.64644C11.3012 5.57278 11.4312 5.49912 11.5557 5.43113C11.8158 5.54445 12.0477 5.59544 12.1099 5.21016C12.1551 5.13083 12.2004 5.05151 12.2456 4.96652C12.2965 4.96652 12.3417 4.95519 12.3813 4.91553C12.6641 4.82487 12.9525 4.73988 13.2353 4.64922C13.2749 4.83054 13.2183 5.18749 13.5576 4.84753C13.7103 4.70022 13.8291 4.51324 13.9591 4.34893L14.7791 4.28094C14.9658 4.63789 15.2316 4.09396 15.4352 4.34893C15.2881 5.28381 15.0732 6.2187 15.0054 7.17058C14.8866 8.90437 14.6774 10.6722 15.667 12.27L15.6048 12.3266Z" fill="#E8B091"/>
<path d="M14.7959 38.0558C15.3275 38.6507 15.3162 39.1777 14.7789 39.8009C14.6093 39.9992 14.5527 39.7839 14.4622 39.7443C11.793 38.6394 9.54217 36.9226 7.47235 34.9452C7.18394 34.6732 6.97469 34.3333 6.88421 33.9367C6.47703 32.1519 6.10944 30.3558 5.71923 28.5653C5.41384 27.1431 5.73054 26.0383 6.79938 25.1034C6.99731 25.1034 7.19525 25.1034 7.39318 25.1034C7.04255 25.5453 7.5798 25.7606 7.64201 26.0949C7.60808 26.2139 7.56849 26.3386 7.53456 26.4576C7.2518 26.5086 7.11042 25.9533 6.81634 26.2479C6.658 26.4066 6.45441 26.6502 6.52227 26.9278C6.63538 27.4038 6.986 27.5058 7.42146 27.4321C7.38187 27.6701 7.33663 27.9081 7.29704 28.146C6.94641 28.044 6.66365 27.942 6.74848 28.5426C6.81634 29.0242 7.11607 29.0922 7.46104 29.1829C7.46104 29.3585 7.46104 29.5342 7.46104 29.7098C7.33097 29.7608 7.12173 29.6418 7.09911 29.9195C7.0369 30.5937 7.3649 30.826 7.98698 30.7637C7.98698 30.962 7.98698 31.166 7.98698 31.3643C7.67594 31.3926 7.42146 31.3756 7.49497 31.8856C7.59677 32.6108 7.92477 32.6675 8.48464 32.4295C8.77306 32.6618 8.87485 32.9621 8.80134 33.3247C8.55816 33.0244 8.24147 33.0584 8.01526 33.2737C7.7947 33.4834 8.01526 33.744 8.13402 33.9367C8.48464 34.4976 8.62602 33.7157 8.90879 33.8007C9.20286 33.7383 9.33858 33.8743 9.33858 34.1633C8.7674 34.5882 9.03886 34.8149 9.49693 35.1095C9.87583 35.3475 10.0455 34.8999 10.3396 34.9679C10.3961 35.1435 10.5149 35.2568 10.6845 35.3305C10.6506 35.5685 10.1134 35.6818 10.4583 35.9877C10.7694 36.254 11.0069 36.798 11.5894 36.492C11.8099 36.5373 11.9513 36.679 12.0531 36.8716C11.6685 37.3759 12.2793 37.4326 12.432 37.6875C12.6356 38.0218 12.8957 37.8688 13.1276 37.6875C13.3482 37.7669 13.5744 37.8405 13.7949 37.9198C13.7836 38.1861 13.088 38.1861 13.5008 38.5998C13.6988 38.7924 13.9476 39.1777 14.2191 39.0134C14.4 38.9057 14.9938 38.7357 14.6036 38.2371L14.7846 38.0502L14.7959 38.0558Z" fill="#B9C5C7"/>
<path d="M14.7959 38.0558C14.7337 38.1181 14.6772 38.1805 14.615 38.2428C14.3209 38.2031 14.27 37.5289 13.8063 37.9255C13.5857 37.8462 13.3595 37.7725 13.139 37.6932C13.4217 37.4439 13.5235 37.2399 13.1842 36.8943C12.7714 36.475 12.4377 36.6733 12.0588 36.8716C11.957 36.679 11.8156 36.5317 11.5951 36.492C11.6347 36.2484 12.1945 36.2597 11.974 36.0217C11.6516 35.6704 11.3406 35.1322 10.6902 35.3361C10.5206 35.2681 10.4018 35.1548 10.3453 34.9735C10.1982 34.4692 9.89284 34.1633 9.33862 34.1689C9.33862 33.88 9.2029 33.744 8.90882 33.8063C8.87489 33.6477 8.83531 33.489 8.80138 33.3304C8.86924 32.9678 8.76744 32.6675 8.48468 32.4352C8.2924 32.0895 8.38854 31.6136 7.98702 31.37C7.98702 31.1716 7.98702 30.9677 7.98702 30.7694C7.89088 30.3784 8.04357 29.8628 7.46108 29.7098C7.46108 29.5342 7.46108 29.3585 7.46108 29.1829C7.80605 28.7749 7.61377 28.452 7.30273 28.146C7.34232 27.908 7.38756 27.6701 7.42715 27.4321C7.46108 27.1091 7.50067 26.7805 7.5346 26.4576C7.56853 26.3386 7.60812 26.2139 7.64205 26.0949C7.91916 26.0439 7.90219 25.6983 8.13406 25.602C8.47903 25.721 8.53558 26.0666 8.69393 26.3272C8.49599 28.6163 9.34994 30.5371 10.645 32.3615C12.0079 34.2766 13.8289 35.8574 14.7959 38.0615V38.0558Z" fill="#EDEDEC"/>
<path d="M30.7948 27.4491C30.7382 27.2338 30.6817 27.0129 30.6308 26.7976C30.6308 26.7409 30.6421 26.6842 30.6591 26.6332C31.3716 27.0299 31.4678 27.8741 31.9485 28.4407C32.1464 28.673 32.3047 28.9393 32.48 29.1886C32.5366 30.2878 32.2425 31.3473 32.1351 32.4295C31.9767 34.0103 30.6647 34.7299 29.6128 35.5572C28.1764 36.6903 26.5364 37.5402 24.8398 38.2542C24.738 38.0502 24.6362 37.8462 24.5344 37.6422C24.7324 37.3759 25.2979 37.4269 25.1678 36.883C25.3657 36.8943 25.5524 36.883 25.6881 36.7073C26.2649 36.7243 26.6438 36.4637 26.8078 35.9028C26.9831 35.8744 27.1641 35.8405 27.3394 35.8121C27.724 35.7555 28.1934 35.8008 28.0859 35.1662C28.2556 35.1095 28.4252 35.0529 28.5949 34.9962C28.9851 35.0585 29.2226 34.9226 29.2566 34.5033C29.3188 34.3163 29.4432 34.1917 29.6298 34.135C30.0879 33.9537 30.4046 33.6534 30.4498 33.1321C30.4498 32.9281 30.4328 32.7185 30.6477 32.5995C30.9701 32.2709 30.874 31.8346 30.9531 31.438C30.9531 31.1887 30.9531 30.945 30.9531 30.6957C31.1228 30.2821 31.168 29.8628 30.9475 29.4492C30.9475 29.2056 30.9475 28.962 30.9531 28.7127C31.1511 28.2537 30.8626 27.8628 30.7835 27.4435L30.7948 27.4491Z" fill="#B9C5C7"/>
<path d="M8.68845 26.3273C8.53011 26.061 8.4679 25.721 8.12858 25.602C7.98155 25.2904 8.11727 24.5482 7.38775 25.1034C7.18981 25.1034 6.99188 25.1034 6.79395 25.1034C6.98622 24.5708 7.54609 24.3499 7.81754 23.8796C7.8741 23.7776 7.94196 23.585 8.11727 23.6869C8.29259 23.7889 8.29259 23.9249 8.16252 24.1062C7.82886 24.5652 8.40569 24.7465 8.50183 24.6842C9.05039 24.3329 9.18612 24.8428 9.4406 25.0694C10.3002 25.84 11.1372 26.6389 12.1834 27.1715C13.0713 27.6248 13.0769 27.8118 12.2908 28.3444C11.5048 28.877 11.2503 29.6532 11.1994 30.5314C11.1711 30.9677 11.1994 31.4097 11.1994 31.9253C9.68378 30.3501 8.95991 28.7183 10.3737 26.6899C9.58764 26.7352 9.64419 27.3925 9.26529 27.6021C8.93163 27.2282 9.43495 26.4973 8.69411 26.3216L8.68845 26.3273Z" fill="#827E90"/>
<path d="M11.5499 3.58404C11.5103 3.94099 11.3293 3.95233 11.1088 3.73702C10.3001 2.95511 9.23688 2.71148 8.21328 2.38852C7.28582 2.09955 5.81545 3.03444 5.76456 4.01465C5.72497 4.78522 5.34041 5.46514 5.35738 6.29237C4.89365 6.12239 4.9502 5.59546 4.57695 5.47081C4.34509 4.41694 4.88799 3.54438 5.2669 2.64915C5.41959 2.29219 5.60056 1.73693 6.24525 2.02023C6.27918 2.03723 6.35836 1.99756 6.39795 1.96357C7.99838 0.399758 9.76847 0.93236 11.5386 1.55562V1.54429C11.6799 1.91824 11.7195 2.28653 11.5895 2.68881C11.499 2.96078 11.3237 3.27807 11.5555 3.57837L11.5499 3.58404Z" fill="#464950"/>
<path d="M11.5442 1.5556C11.5781 1.04566 11.1201 1.09665 10.8486 0.932341C10.8543 0.790691 10.8599 0.654708 10.8712 0.518724C11.154 0.620712 11.4424 0.717033 11.7308 0.824687C11.3689 0.156102 10.9617 -0.0762038 10.006 -0.166859C10.006 -0.438826 10.0003 -0.716459 9.99467 -0.988426C10.3792 -1.05642 10.843 -0.892104 11.1201 -1.32838C10.6959 -1.97431 9.94377 -1.23206 9.49135 -1.73067C9.40087 -2.01963 9.66667 -2.13862 9.77977 -2.33693C10.4754 -2.33693 11.0409 -2.35959 11.0352 -3.36814C11.0352 -4.13871 11.4424 -4.83562 12.4773 -4.93195C12.4264 -4.24636 11.4877 -3.9064 11.8157 -3.0905C12.449 -3.51545 12.4434 -4.51266 13.32 -4.61465C13.4726 -4.58632 13.6253 -4.55799 13.7837 -4.52966C14.1004 -3.60044 13.2125 -3.20382 12.9128 -2.54657C12.9128 -2.71655 12.9128 -2.88653 12.9184 -3.05651C12.958 -3.1245 13.0033 -3.18682 13.0428 -3.25482C13.0428 -3.25482 13.0033 -3.28315 12.9806 -3.30014L12.9071 -3.07351C12.2115 -2.64856 12.2681 -1.95164 12.1946 -1.30005C12.5735 -1.65135 12.3925 -2.28593 12.9184 -2.55224C12.8902 -1.48137 13.3256 -0.308509 12.2341 0.52439C12.0192 -0.0818701 12.0645 -0.784451 11.5612 -1.28872C11.7535 -0.676797 11.5442 0.0881104 12.2398 0.518724C12.0475 0.887013 12.2172 1.5046 11.5442 1.54993V1.56126V1.5556Z" fill="#232533"/>
<path d="M21.4014 14.8593C20.7454 15.2843 20.3608 14.5307 19.7783 14.4684C18.1496 14.2927 16.6793 13.6468 15.5991 12.3266L15.6613 12.27C16.2551 12.5079 16.7641 13.0235 17.4936 12.8309C17.5898 13.0859 17.6859 12.9385 17.7764 12.8196V12.8536C18.3928 12.9555 18.9414 13.3125 19.5861 13.3352C19.7388 13.3352 19.9989 13.4258 20.0159 13.5165C20.2025 14.4174 20.8189 14.0264 21.2826 13.9244C22.408 13.6808 23.5221 13.3805 24.574 12.8989C24.902 12.7459 25.23 12.8252 25.5637 12.8762C26.0896 12.9612 26.6438 13.1312 27.1415 13.0292C28.1764 12.8196 28.38 13.3522 28.3969 14.1737C27.7975 14.2361 27.1867 14.1681 26.6495 13.9698C25.5919 13.5731 24.6249 13.7431 23.6522 14.1737C22.8491 14.2247 22.0122 14.1737 21.4014 14.8593Z" fill="#E8B091"/>
<path d="M37.6206 40.3222C37.6545 40.5942 37.6206 40.8492 37.3208 40.9455C37.0268 41.0418 36.8741 40.7812 36.6761 40.6282C35.2963 39.5517 34.1652 38.2088 32.8645 37.0473C32.9833 36.492 33.2773 36.0104 33.5149 35.5005C34.4367 36.3277 35.0474 37.4269 35.9466 38.2655C36.433 38.7188 36.6083 39.546 37.4509 39.597C37.6036 39.631 37.6375 39.7386 37.6319 39.8746C37.6319 40.0219 37.6262 40.1636 37.6206 40.3109V40.3222Z" fill="#BCC8CA"/>
<path d="M17.7764 12.8535V12.8195C17.6802 12.8195 17.5897 12.8195 17.4936 12.8195V12.8252C17.601 12.4626 17.2957 12.4683 17.1034 12.4173C15.9836 12.117 15.6104 11.3294 15.4407 10.2359C15.1297 8.19611 15.5878 6.25268 15.8932 4.27525C15.9893 3.64633 16.453 3.12506 16.4417 2.54147C16.4191 1.43093 16.7471 0.382728 16.7923 -0.705139C17.3975 -0.166871 17.0864 0.552708 17.1599 1.19296C16.8602 2.39415 16.5152 3.59534 16.2664 4.80786C15.8875 6.62097 15.8762 8.46808 15.978 10.3095C16.0289 11.2161 16.5888 11.794 17.3975 12.168C17.6406 12.2813 18.1326 12.3549 17.7707 12.8422L17.7764 12.8535Z" fill="#464950"/>
<path d="M25.8689 39.2967C25.7275 39.0644 25.49 38.985 25.2524 38.9171C26.2421 38.1068 27.475 37.7215 28.5325 37.0246C29.245 36.5543 29.9689 36.1067 30.7776 35.5911C30.246 37.7102 28.8492 38.7301 25.8689 39.2967Z" fill="#B9C5C7"/>
<path d="M26.5251 4.62658C25.8917 3.75968 24.9699 3.0741 24.8115 1.79926C25.6259 2.11088 25.8351 2.94945 26.4346 3.3404C26.8474 3.0401 26.4346 2.68881 26.5477 2.38285C26.8587 2.44518 26.9718 2.73981 27.1698 2.93245C28.1651 3.91267 29.8673 4.20163 31.1624 3.60104C31.4395 3.60104 31.7166 3.59537 31.9993 3.5897C31.824 3.86734 31.4225 3.924 31.3264 4.28095C30.5346 4.52459 29.7259 4.4736 28.9172 4.44527C28.527 4.42827 28.2329 4.04865 27.8031 4.1563C27.1811 4.31495 28.0463 4.88155 27.5487 5.06286C27.198 4.94387 26.7739 5.00053 26.5307 4.62658H26.5251Z" fill="#827E90"/>
<path d="M20.7452 36.0218C19.3031 36.5714 17.8215 36.56 16.3228 36.3504C16.2663 36.2881 16.2097 36.2314 16.1249 36.3107C16.0231 36.2654 15.9213 36.2201 15.8139 36.1804C15.7912 35.6365 15.0165 35.5345 15.073 34.9452C17.0919 35.7441 19.0939 35.5515 21.0789 34.8262C21.0393 35.1832 20.9997 35.5401 20.9601 35.9028L20.9432 35.9198C20.8753 35.9594 20.8074 35.9934 20.7339 36.0331L20.7452 36.0218Z" fill="#DADBDC"/>
<path d="M37.4509 39.6083C36.6083 39.5573 36.433 38.7301 35.9467 38.2768C35.0475 37.4383 34.4367 36.3334 33.5149 35.5118C33.6506 35.1435 33.7807 34.7753 33.939 34.3333C35.3811 35.9481 36.7327 37.5629 37.4509 39.6083Z" fill="#EDEDEC"/>
<path d="M13.235 4.64922C12.9523 4.73987 12.6639 4.82486 12.3811 4.91552C12.9014 2.75111 14.0381 0.994662 15.8308 -0.331177C16.3624 -0.206525 16.0683 0.229755 16.1475 0.524385C16.0174 0.671701 15.8987 0.819016 15.7629 0.960666C14.728 2.05987 13.7044 3.16473 13.235 4.64922Z" fill="#232533"/>
<path d="M18.308 11.9867C16.8206 11.4371 16.4474 10.9101 16.4021 9.45963C16.3626 8.18478 16.4757 6.92127 16.5775 5.68042C16.9959 7.7485 17.2617 9.90157 18.308 11.9867Z" fill="#E8B091"/>
<path d="M15.0788 34.9396C15.0222 35.5345 15.7914 35.6308 15.8196 36.1748C13.1334 35.7951 10.8204 32.3276 11.9797 30.4351C12.1041 32.9168 12.9185 33.9934 15.0788 34.9396Z" fill="#827E90"/>
<path d="M30.625 23.9079C30.1726 23.8399 29.7258 23.7776 29.7201 24.4575C29.1603 24.5141 28.6287 24.5991 28.9284 25.3924C28.4986 25.8173 27.9331 25.9533 27.3845 26.1233C27.5881 25.6643 27.7691 25.1941 28.0009 24.7521C28.148 24.4745 28.2158 24.1572 28.6909 24.1062C28.9736 24.0779 29.4034 23.7776 29.0698 23.2393C28.7192 22.6727 29.2508 22.3271 29.5279 21.8455C29.8785 22.5934 30.444 23.143 30.625 23.9079Z" fill="#827E90"/>
<path d="M11.5499 5.41979C11.4254 5.49344 11.2954 5.5671 11.171 5.63509C9.93811 5.3178 8.71658 5.38013 7.49504 5.69175C7.16704 5.77674 6.75421 6.03738 6.61848 5.44812C6.49406 4.90418 6.81076 4.82486 7.2858 4.75687C8.78444 4.55289 10.2661 4.32059 11.5555 5.41412L11.5499 5.41979Z" fill="#232533"/>
<path d="M3.71726 4.79086C3.51933 7.01759 3.93216 9.165 4.51465 11.2954C3.85299 10.6382 3.77947 9.70893 3.40057 8.92136C3.27615 8.66072 3.32705 8.28677 2.91422 8.23011C2.80677 7.33489 2.78415 6.43966 3.04429 5.5671C3.14608 5.22148 3.29312 4.88152 3.7003 4.77386L3.71726 4.79086Z" fill="#232533"/>
<path d="M7.76085 18.6725C7.28581 18.7009 7.2236 18.7915 7.4385 19.2788C7.74388 19.97 8.08885 20.6386 8.42251 21.3412C7.35367 21.3752 6.60718 20.9389 6.33572 20.021C5.99641 18.8822 7.21794 18.7065 7.6025 17.9246C7.87395 18.2249 7.83436 18.4572 7.75519 18.6895L7.7665 18.6725H7.76085Z" fill="#E8B091"/>
<path d="M26.525 4.62657C26.7625 5.00052 27.1923 4.94386 27.543 5.06285C27.7126 5.39714 28.0293 5.28382 28.2951 5.29515C28.9115 5.32348 29.5336 5.32915 30.15 5.34615C28.9115 6.45668 26.6268 6.20171 25.541 4.79088C25.2639 4.42826 24.7662 4.17329 24.8228 3.60669C25.5127 3.74267 25.6994 4.72289 26.525 4.62657Z" fill="#232533"/>
<path d="M27.2036 1.15336L27.2093 1.10236C27.2093 1.02304 27.2093 0.943714 27.2093 0.870056C27.9162 1.40266 28.7023 1.63496 29.5845 1.53864C29.9747 2.12224 30.3027 2.75116 30.8003 3.25543C30.5798 3.5444 30.3536 3.36309 30.1217 3.26676C29.6806 3.08545 29.2452 2.85315 28.7418 2.92681C28.7362 2.56985 28.493 2.56418 28.2329 2.58685C28.148 2.10524 27.8709 1.81627 27.3846 1.73695V1.73128C27.328 1.67462 27.2715 1.61796 27.2149 1.5613C27.2149 1.49898 27.2149 1.44232 27.2149 1.37999C27.3789 1.30067 27.2658 1.23268 27.2036 1.16469V1.15336Z" fill="#232533"/>
<path d="M30.15 5.34613C29.528 5.32913 28.9115 5.32347 28.2951 5.29514C28.0293 5.28381 27.7126 5.39712 27.543 5.06283C28.0406 4.88152 27.1754 4.31492 27.7975 4.15628C28.2273 4.04862 28.5157 4.42824 28.9115 4.44524C29.7202 4.47357 30.5289 4.52456 31.3207 4.28659C31.3659 4.72854 31.0549 4.98351 30.8174 5.27814C30.5968 5.3008 30.3706 5.32347 30.15 5.34613Z" fill="#464950"/>
<path d="M2.91435 8.23578C3.32718 8.28677 3.27628 8.66639 3.4007 8.92703C3.7796 9.7146 3.85877 10.6438 4.51478 11.3011C4.69009 12.066 4.8032 12.8366 4.72968 13.6241C4.67878 14.1341 4.57133 14.61 4.07367 14.8876L4.03409 14.848C4.46954 13.7601 4.31685 12.6949 3.90401 11.6467C3.46856 10.5418 3.11228 9.4143 2.90869 8.23578H2.91435Z" fill="#464950"/>
<path d="M28.753 2.91543C29.2564 2.84744 29.6918 3.07408 30.1329 3.25539C30.3648 3.35171 30.591 3.53302 30.8115 3.24406C31.1282 3.1704 30.9812 3.54435 31.1622 3.60101C29.8728 4.20161 28.1649 3.91264 27.1696 2.93243C26.9716 2.73979 26.8642 2.44515 26.5475 2.38283V2.39416C26.5758 2.23551 26.5305 2.11086 26.3722 2.04287L26.3778 2.0542C26.3326 1.92388 26.2478 1.86156 26.1064 1.87856C26.1629 1.31762 25.4843 1.01733 25.5578 0.241089C26.7115 1.74824 27.4806 3.53302 29.6522 3.56702C29.4034 3.21573 28.9001 3.31771 28.7474 2.9211L28.753 2.91543Z" fill="#151514"/>
<path d="M10.7469 6.01471C10.5433 6.23568 10.3398 6.45666 10.1362 6.67196C9.2087 6.45666 8.37173 6.73996 7.54606 7.12524C7.38206 7.1989 7.17847 7.41987 7.02012 7.21023C6.85612 6.98926 6.74867 6.70596 6.78826 6.417C6.82219 6.1507 7.0484 6.17336 7.24633 6.15636C8.41132 6.04871 9.55367 5.5501 10.7413 6.02038L10.7469 6.01471Z" fill="#232533"/>
<path d="M16.1477 0.518744C16.0685 0.224113 16.3626 -0.212167 15.831 -0.336819C15.8197 -0.710773 15.5652 -0.693775 15.305 -0.665445C14.1231 -0.580456 13.535 0.314769 12.845 1.10234C12.6584 1.31198 12.7093 1.81625 12.2173 1.71426C12.681 0.150455 13.7725 -0.807095 15.2655 -1.28304C16.0685 -1.53801 16.6001 -0.98274 16.4191 -0.161174C16.3682 0.0654655 16.3909 0.360096 16.142 0.52441L16.1477 0.518744Z" fill="#464950"/>
<path d="M31.4903 10.4286C31.462 10.7005 31.5525 11.0178 31.2528 11.1991C29.6241 12.185 27.9105 12.7743 25.9595 12.2983C26.5476 12.015 27.2149 12.1567 27.8257 11.964C28.8041 11.6581 29.8899 11.6297 30.6251 10.7572C30.8739 10.7572 31.0435 10.6495 31.1397 10.4172C31.2528 10.4172 31.3659 10.4172 31.4733 10.4116L31.4903 10.4286Z" fill="#232533"/>
<path d="M26.8926 7.69754C26.7456 7.43124 26.4798 7.21593 26.5137 6.85897C28.1198 7.57855 29.511 6.95529 30.8796 6.16206C31.1906 5.98075 31.4281 5.67478 31.8127 5.62946L31.8296 5.64645C31.3207 6.81364 30.2688 7.24992 29.1547 7.48223C28.4252 7.63521 27.6617 7.77686 26.8926 7.69754Z" fill="#232533"/>
<path d="M29.59 1.53296C28.7078 1.63494 27.9217 1.39697 27.2148 0.86437C27.1074 0.694391 26.9943 0.756717 26.8812 0.86437L26.8755 0.858704C26.8642 0.598069 26.8472 0.337435 26.8359 0.0767995C27.3166 0.139125 27.4806 0.853038 28.0744 0.688725C28.0971 0.717055 28.114 0.739719 28.1366 0.768049C28.1366 0.751051 28.1366 0.734053 28.1253 0.722721C28.1084 0.711389 28.0857 0.700057 28.0688 0.694391C28.0009 0.547076 27.9444 0.394094 27.8652 0.252445C27.7747 0.0937977 27.5146 -0.025188 27.6673 -0.229163C27.8595 -0.489798 28.0575 -0.178169 28.2554 -0.166837L28.2441 -0.172503C28.3006 -0.110177 28.3629 -0.0535178 28.4194 0.0088079L28.4081 -0.00252378C28.4647 0.144792 28.5891 0.167455 28.7248 0.16179L29.5844 1.53296H29.59Z" fill="#464950"/>
<path d="M7.30269 11.0858C7.5289 11.1481 7.75511 11.2048 7.98132 11.2671H7.97001C7.94739 11.5334 7.95305 11.7771 8.31498 11.7827C8.34891 12.3833 8.65995 12.9499 8.49595 13.5902C8.41678 13.8905 8.34326 14.1681 7.98698 14.5817C8.07181 13.2276 7.24614 12.2813 7.28007 11.1141L7.30835 11.0858H7.30269Z" fill="#232533"/>
<path d="M7.57982 10.2756C7.65334 10.1622 7.7212 10.0433 7.79472 9.92993C8.99363 10.9611 9.53654 12.6043 9.0615 13.8338C8.93708 13.0972 8.91446 12.3323 8.315 11.777C8.33197 11.5164 8.20755 11.3521 7.97003 11.2614H7.98134C7.95307 10.8875 7.54023 10.6665 7.57982 10.2642V10.2756Z" fill="#464950"/>
<path d="M20.9714 35.8971C21.011 35.5401 21.0506 35.1832 21.0902 34.8206C21.6048 34.5599 22.1195 34.2936 22.6567 34.0217C22.5153 35.1889 22.1534 35.5855 20.9714 35.8971Z" fill="#827E90"/>
<path d="M30.9418 15.3749C30.382 15.4259 30.0709 14.7687 29.4998 14.8593C29.4998 14.5364 29.4998 14.2078 29.4998 13.6298C30.1614 14.2644 31.1228 14.2927 30.9418 15.3749Z" fill="#E8B091"/>
<path d="M9.83647 24.4291C8.94859 23.9645 8.54707 23.109 8.13989 22.2477C9.24832 22.5197 9.45191 23.5509 9.84778 24.4121L9.83081 24.4291H9.83647Z" fill="#232533"/>
<path d="M9.51955 7.18195C9.28768 7.46525 9.06147 7.74854 8.82961 8.03184C8.46767 7.99218 8.18491 8.21316 7.86822 8.32081C7.61373 8.4058 7.41014 8.32081 7.33097 8.05451C7.2518 7.79387 7.44407 7.71455 7.64766 7.65789C8.26974 7.48224 8.84092 7.13095 9.51955 7.18195Z" fill="#232533"/>
<path d="M25.5524 5.6068C25.6598 5.62947 25.8012 5.61247 25.8747 5.67479C26.8757 6.48503 28.0463 6.59835 29.2679 6.49069L29.2735 6.49636C28.2556 6.96664 27.2659 6.93264 26.3102 6.33771C26.1066 6.21306 25.9143 6.1224 25.6768 6.1564H25.6881C25.7164 5.95809 25.5919 5.81644 25.5015 5.66346L25.558 5.60114L25.5524 5.6068Z" fill="#232533"/>
<path d="M32.1633 12.6439C31.8296 12.7119 31.6656 12.4513 31.4507 12.2813C31.3206 12.1793 31.151 12.083 31.2188 11.8847C31.281 11.7147 31.4451 11.6581 31.6204 11.6297C31.8692 11.5901 32.1067 11.5221 32.3555 11.4768C32.5139 11.4484 32.7062 11.3974 32.7967 11.5901C32.8928 11.794 32.7853 11.998 32.6666 12.134C32.4913 12.338 32.4008 12.0773 32.2764 12.0037C32.2085 11.964 32.1406 11.9357 32.0671 11.9017C31.9144 12.1907 32.2085 12.389 32.1689 12.6383L32.1633 12.6439Z" fill="#2F303C"/>
<path d="M5.51586 36.8263C4.97861 36.0218 4.89378 35.3872 5.68551 34.8319C6.06442 35.1322 6.36414 35.4438 5.82689 35.8744C5.5611 36.0898 5.60068 36.4184 5.51586 36.8263Z" fill="#827E90"/>
<path d="M32.7967 32.9055C33.2887 33.3361 33.6337 33.7157 33.2717 34.322C33.1813 34.4749 33.1191 34.5826 32.8928 34.4409C32.2199 34.0047 32.5309 33.5004 32.791 32.9111L32.7967 32.9055Z" fill="#DADBDC"/>
<path d="M30.8173 5.27818C31.0491 4.97789 31.3658 4.72292 31.3206 4.28664C31.609 4.23564 31.8974 4.17898 32.1802 4.12799C32.0558 4.93823 31.5015 5.36317 30.8059 5.65214L30.8003 5.64647C30.8059 5.52749 30.8116 5.4085 30.8173 5.28385V5.27818Z" fill="#232533"/>
<path d="M32.2086 36.4127C31.7166 35.8348 32.4801 35.3532 32.3387 34.8036C32.8477 34.8376 33.2153 34.9396 32.7515 35.5345C32.5423 35.8065 32.6441 36.2767 32.2086 36.4127Z" fill="#B9C5C7"/>
<path d="M20.915 13.4088C21.7859 13.1425 22.5777 12.6779 23.4995 12.7176C22.6512 13.0236 21.8312 13.4372 20.915 13.4088Z" fill="#232533"/>
<path d="M29.3809 20.735C29.3809 20.072 29.5222 19.4431 29.8672 18.8425C30.0934 19.2675 29.9916 19.7151 29.3809 20.735Z" fill="#232533"/>
<path d="M31.7164 14.5704C31.773 14.1851 31.083 13.9868 31.4789 13.5561C31.592 13.4315 31.903 13.4088 32.0218 13.5561C32.3328 13.9754 31.8974 14.2361 31.7221 14.5647L31.7164 14.5704Z" fill="#232533"/>
<path d="M29.511 12.6609C30.1783 12.6609 30.5176 13.1936 31.0549 13.3635C30.7495 13.6166 30.2349 13.3824 29.511 12.6609Z" fill="#232533"/>
<path d="M3.88133 15.0293C3.5194 15.7035 2.84642 15.8622 2.05469 15.3976C2.73897 15.4146 3.35539 15.4259 3.87568 15.0236L3.88133 15.0293Z" fill="#464950"/>
<path d="M29.0755 14.1851C28.6401 13.7148 28.4987 13.3692 28.6627 12.9555C28.708 12.8422 28.8833 12.8082 28.9511 12.8932C29.2339 13.2388 29.0473 13.6355 29.0755 14.1907V14.1851Z" fill="#232533"/>
<path d="M32.1802 4.1223C31.8917 4.17329 31.6033 4.22995 31.3206 4.28095C31.4167 3.92966 31.8182 3.86733 31.9935 3.5897C32.0501 3.47071 32.1745 3.40839 32.2537 3.49904C32.429 3.70868 32.2537 3.91832 32.1858 4.1223H32.1802Z" fill="#464950"/>
<path d="M17.1712 5.12518C16.8432 4.70024 17.0638 4.23563 17.1712 3.78235V5.13085V5.12518Z" fill="#232533"/>
<path d="M17.1656 5.13085C17.4653 5.38015 17.2844 5.69178 17.2957 5.97508C17.0864 5.70878 17.1939 5.41415 17.1713 5.12518L17.1656 5.13085Z" fill="#232533"/>
<path d="M31.8127 5.62946C31.8297 5.45948 31.8636 5.29516 32.0503 5.22717C32.0616 5.22717 32.1125 5.2555 32.1125 5.27817C32.1294 5.48214 31.9767 5.56713 31.8297 5.64646L31.8127 5.62946Z" fill="#232533"/>
<path d="M31.643 13.0122C31.4959 13.0632 31.4281 13.1085 31.4055 13.0915C31.3432 13.0462 31.298 12.9725 31.2415 12.9102C31.2924 12.8932 31.3489 12.8479 31.3828 12.8649C31.462 12.8876 31.5299 12.9442 31.6373 13.0122H31.643Z" fill="#232533"/>
<path d="M7.27456 11.1141C7.1558 11.0291 7.1049 10.9158 7.15015 10.7685C7.1558 10.7458 7.18973 10.7345 7.21235 10.7231C7.24628 10.8421 7.27456 10.9668 7.30849 11.0858L7.28022 11.1141H7.27456Z" fill="#232533"/>
<path d="M4.48654 17.0011C4.46392 16.9557 4.42433 16.9048 4.42999 16.8708C4.4413 16.8311 4.4922 16.7801 4.53178 16.7744C4.63358 16.7688 4.67317 16.8254 4.61661 16.9161C4.59399 16.9557 4.53178 16.9727 4.48089 17.0011H4.48654Z" fill="#232533"/>
<path d="M4.1302 18.2476C4.09061 18.2816 4.05103 18.3382 4.01144 18.3382C3.90964 18.3382 3.89833 18.2532 3.93792 18.1853C3.96054 18.1513 4.02841 18.1399 4.07365 18.1229C4.09061 18.1626 4.10758 18.2079 4.1302 18.2476Z" fill="#232533"/>
<path d="M32.5026 10.2472C32.4913 10.3775 32.5026 10.5702 32.316 10.5192C32.1802 10.4852 32.3273 10.3435 32.3386 10.2472H32.3329C32.3895 10.2472 32.4517 10.2472 32.5082 10.2472H32.5026Z" fill="#232533"/>
<path d="M31.8297 10.2586C31.7561 10.3889 31.6317 10.4285 31.4904 10.4285L31.4734 10.4115C31.5469 10.2756 31.6657 10.2416 31.8071 10.2359L31.824 10.2529L31.8297 10.2586Z" fill="#232533"/>
<path d="M29.6184 6.332C29.5449 6.46798 29.4149 6.49631 29.2735 6.49631L29.2678 6.49065C29.3357 6.349 29.4658 6.32067 29.6071 6.315L29.6241 6.332H29.6184Z" fill="#232533"/>
<path d="M23.8162 11.6127C23.6805 11.6127 23.5447 11.5901 23.4656 11.4541L23.4825 11.4371C23.6183 11.4484 23.7483 11.4711 23.8105 11.6184L23.8162 11.6127Z" fill="#232533"/>
<path d="M29.6016 6.31503C29.6638 6.27537 29.7316 6.23004 29.7995 6.19604C29.7995 6.19604 29.8278 6.23571 29.8447 6.25837C29.7712 6.28103 29.692 6.30936 29.6185 6.33203L29.6016 6.31503Z" fill="#232533"/>
<path d="M23.8105 11.6184C23.8897 11.6411 23.9689 11.6581 24.0424 11.6807C24.0254 11.7034 24.0141 11.7261 23.9972 11.7487C23.935 11.7034 23.8728 11.6581 23.8105 11.6127V11.6184Z" fill="#232533"/>
<path d="M23.9687 12.5929C23.9687 12.5929 23.9291 12.5589 23.9065 12.5476C23.9517 12.5476 23.997 12.5589 24.0366 12.5589C24.0139 12.5703 23.9913 12.5816 23.963 12.5929H23.9687Z" fill="#232533"/>
<path d="M30.2801 5.97509C30.3536 5.83344 30.4837 5.81078 30.625 5.80511H30.6307C30.5628 5.95243 30.4384 5.98643 30.2914 5.98643L30.2744 5.96943L30.2801 5.97509Z" fill="#232533"/>
<path d="M32.1634 12.6382C32.203 12.7006 32.2482 12.7629 32.2878 12.8252C32.2652 12.8422 32.2425 12.8536 32.2199 12.8705C32.1973 12.7969 32.1803 12.7176 32.1577 12.6439L32.1634 12.6382Z" fill="#2F303C"/>
<path d="M25.4052 5.46515C25.4561 5.51048 25.5014 5.5558 25.5523 5.6068L25.4957 5.66912C25.3883 5.66346 25.2808 5.65213 25.1677 5.64646C25.1677 5.5898 25.1677 5.53314 25.1677 5.47648C25.2469 5.47648 25.3204 5.47648 25.3996 5.47082L25.4052 5.46515Z" fill="#232533"/>
<path d="M3.70044 4.77957C3.72306 4.70591 3.75134 4.63225 3.77396 4.55859C3.79658 4.57559 3.83617 4.60392 3.83617 4.60392C3.80223 4.67191 3.75699 4.73424 3.7174 4.79656L3.70044 4.77957Z" fill="#232533"/>
<path d="M29.1603 21.1259C29.1603 21.1259 29.2056 21.1259 29.2112 21.1316C29.2225 21.1486 29.2225 21.1712 29.2225 21.1939C29.1942 21.1939 29.166 21.1882 29.1377 21.1826C29.1434 21.1656 29.1547 21.1429 29.1603 21.1259Z" fill="#232533"/>
<path d="M10.2832 24.8768C10.2832 24.8768 10.3001 24.9164 10.3058 24.9334C10.2775 24.9334 10.2492 24.9448 10.2209 24.9504C10.2209 24.9278 10.2209 24.9051 10.2323 24.8881C10.2379 24.8768 10.2662 24.8768 10.2832 24.8768Z" fill="#232533"/>
<path d="M9.85335 24.4122C9.87597 24.4405 9.89859 24.4688 9.92122 24.4972C9.89294 24.4745 9.86466 24.4518 9.84204 24.4292L9.85901 24.4122H9.85335Z" fill="#232533"/>
<path d="M5.28962 19.5961C5.34052 19.6414 5.41404 19.6867 5.3179 19.7491C5.30659 19.7604 5.25004 19.7037 5.21045 19.6754C5.23873 19.6471 5.26135 19.6187 5.28962 19.5961Z" fill="#232533"/>
<path d="M17.3521 30.3727C17.3125 30.3841 17.2786 30.3954 17.239 30.4067C17.239 30.3727 17.239 30.3387 17.239 30.3047C17.2729 30.3331 17.3012 30.3671 17.3352 30.3954L17.3465 30.3727H17.3521Z" fill="#E8B091"/>
<path d="M7.74951 18.6838C7.79475 18.6612 7.84 18.6385 7.88524 18.6158C7.9022 18.7858 7.80041 18.6442 7.76082 18.6668L7.74951 18.6838Z" fill="#E8B091"/>
<path d="M20.7454 36.0218C20.8132 35.9821 20.8811 35.9481 20.9546 35.9084C20.9207 36.0161 20.8415 36.0331 20.7454 36.0218Z" fill="#827E90"/>
<path d="M4.07363 14.882C4.01142 14.933 3.94356 14.9783 3.88135 15.0293C3.93224 14.967 3.9888 14.9103 4.03969 14.848L4.07928 14.8877L4.07363 14.882Z" fill="#464950"/>
<path d="M20.406 10.2472L20.4795 10.3208C20.4795 10.3208 20.4399 10.3208 20.4343 10.3095C20.4173 10.2925 20.4117 10.2699 20.406 10.2472Z" fill="#232533"/>
<path d="M32.5027 10.0773C32.6101 10.1339 32.6384 10.1906 32.5027 10.2472C32.5027 10.1906 32.5027 10.1283 32.5027 10.0716V10.0773Z" fill="#232533"/>
<path d="M30.297 5.9921C30.2687 6.01476 30.2404 6.03742 30.2122 6.06009C30.2348 6.03176 30.2574 6.00343 30.28 5.9751L30.297 5.9921Z" fill="#232533"/>
<path d="M30.625 5.80511C30.6816 5.74845 30.7381 5.69179 30.7947 5.63513L30.8003 5.6408C30.7438 5.69746 30.6872 5.75412 30.6307 5.81078L30.625 5.80511Z" fill="#232533"/>
<path d="M25.4053 5.46514C25.3261 5.46514 25.2526 5.46515 25.1734 5.47081C25.1508 5.42548 25.1395 5.38582 25.1282 5.34049C25.1621 5.31216 25.1904 5.2895 25.2187 5.26117C25.2809 5.32916 25.3431 5.39715 25.4053 5.46514Z" fill="#464950"/>
<path d="M25.0602 5.07416C25.1111 5.13648 25.1676 5.19881 25.2185 5.26113C25.1902 5.28946 25.1563 5.3178 25.128 5.34046C25.0771 5.2838 25.0262 5.22147 24.9753 5.16481C25.0036 5.13648 25.0319 5.10249 25.0602 5.07416Z" fill="#464950"/>
<path d="M12.2455 4.96088C12.2003 5.0402 12.155 5.11952 12.1098 5.20451C12.0759 5.07986 12.1211 5.00054 12.2455 4.96088Z" fill="#232533"/>
<path d="M6.56763 1.16468C6.61287 1.10802 6.65246 1.02869 6.72597 1.13068C6.73163 1.13635 6.66942 1.19867 6.63549 1.23267C6.61287 1.21001 6.59025 1.18734 6.56763 1.16468Z" fill="#2F303C"/>
<path d="M6.63555 1.23266C6.60162 1.26099 6.54506 1.32332 6.53941 1.31199C6.44327 1.244 6.52244 1.20433 6.57334 1.16467C6.59596 1.18734 6.61858 1.21 6.6412 1.23266H6.63555Z" fill="#2F303C"/>
<path d="M13.5915 20.208C13.484 20.191 13.3766 20.174 13.2691 20.1514C13.2748 19.7604 12.9638 19.4884 12.8789 19.1315C13.1108 18.6669 12.6075 18.5366 12.4265 18.3269C12.3021 18.1796 12.0476 18.5649 11.9006 18.7519C11.6178 19.0975 11.3916 19.4828 11.3068 19.9361C10.9674 20.3213 10.6508 19.8624 10.2888 19.8964C10.9618 19.5224 11.1145 18.7632 11.6121 18.2589C12.5566 17.307 13.9591 16.9558 15.1919 17.4317C15.6896 17.6243 16.2099 18.2079 16.0459 18.4232C15.7009 18.8879 15.7518 19.7151 14.9714 19.8227C14.6038 19.8737 14.2418 19.9021 13.9365 20.14C13.8233 20.1627 13.7046 20.1854 13.5915 20.2024V20.208Z" fill="#09090B"/>
<path d="M21.5596 16.8538C21.3617 16.9444 21.3277 17.2617 21.0393 17.2334C21.175 15.8792 21.865 15.1823 23.1883 15.0406C24.3589 14.916 25.4447 15.205 26.5588 15.7659C26.0103 16.1228 25.7614 16.7121 25.5465 17.3184C25.473 17.5337 25.2242 17.528 25.0376 17.5677C24.4664 17.698 23.8952 17.8056 23.3184 17.9246C23.1657 17.528 23.013 17.1371 22.8603 16.7404C23.0356 16.6384 23.3636 16.8764 23.4089 16.5421C23.4371 16.3268 23.177 16.3155 23.0243 16.2135C22.1534 15.6186 21.8989 16.3155 21.5596 16.8594V16.8538Z" fill="#09090B"/>
<path d="M9.6611 16.5648C9.51406 16.0095 9.88731 15.6639 10.1644 15.2786C11.4255 15.0123 12.6867 14.7573 13.9421 14.4684C14.7169 14.287 15.3107 14.5307 15.8084 15.1143C15.9554 15.2899 15.9271 15.4032 15.8027 15.5506C14.7169 15.7149 13.6198 15.8395 12.5566 16.1285C11.5839 16.2078 10.6564 16.6384 9.6611 16.5648ZM14.8583 15.1823C14.0213 14.797 10.9901 15.4429 10.3284 16.0662C11.9232 15.7545 13.3879 15.4656 14.8583 15.1823Z" fill="#09090B"/>
<path d="M16.6283 24.5538C17.2334 24.6162 17.8499 24.6842 18.4663 24.7522C20.3947 24.9505 21.9725 24.1232 23.4655 23.0467C23.6465 22.9164 23.8388 22.7861 24.0197 22.6557C24.1668 22.5538 24.3477 22.4518 24.4722 22.6047C24.6475 22.8144 24.4439 22.9844 24.2912 23.092C22.3458 24.5255 20.3042 25.653 17.7424 25.1884C17.2165 25.0921 16.6736 25.0921 16.142 25.0354C15.9327 25.0128 15.616 25.0751 15.65 24.7295C15.6896 24.3442 16.0119 24.6048 16.1985 24.5595C16.3286 24.5255 16.4756 24.5538 16.6283 24.5538Z" fill="#151514"/>
<path d="M19.0771 22.6897C17.98 23.2336 17.5445 23.0976 17.5162 22.1798C17.5049 21.7548 17.3749 21.2165 18.0818 21.1769C18.7152 21.1372 19.2298 21.2449 19.2128 22.0438C18.8226 22.0664 18.4098 21.3752 18.2288 21.7435C18.0026 22.2024 18.7152 22.3497 19.0375 22.616C19.0601 22.633 19.0658 22.6614 19.0828 22.6897H19.0771Z" fill="#E8B091"/>
<path d="M12.5623 16.1285C13.6255 15.8396 14.7226 15.7149 15.8084 15.5506C15.865 16.1059 15.373 16.3495 15.1354 16.7405C15.1524 16.2532 14.8187 16.1795 14.4625 16.2305C13.863 16.3155 13.2409 16.3552 12.7206 16.7405C12.5114 16.5818 12.5736 16.3438 12.5566 16.1285H12.5623Z" fill="#E8B091"/>
<path d="M12.8789 19.1315C12.9637 19.4884 13.2748 19.7604 13.2691 20.1513C12.5679 20.6839 12.0306 20.633 11.533 19.987C12.0023 19.7321 12.2681 19.1598 12.8789 19.1315Z" fill="#F8F8FA"/>
<path d="M20.57 25.4434C21.0111 25.4434 21.4183 25.4321 21.407 25.959C21.3957 26.4689 20.9772 26.5879 20.587 26.6163C20.2024 26.6446 19.9479 26.3896 19.914 26.01C19.8688 25.5001 20.2307 25.4207 20.57 25.4377V25.4434Z" fill="#ECB395"/>
<path d="M12.7205 16.7405C13.2351 16.3552 13.8572 16.3098 14.4623 16.2305C14.8186 16.1795 15.1522 16.2532 15.1352 16.7405C14.3322 16.6158 13.5235 17.2051 12.7205 16.7405Z" fill="#151514"/>
<path d="M22.8604 16.7348C23.0131 17.1314 23.1658 17.5223 23.3184 17.919C22.5946 18.0946 22.0177 17.8906 21.6162 17.2447C22.0743 17.1767 22.3684 16.7234 22.8604 16.7348Z" fill="#F8F8FA"/>
<path d="M22.8603 16.7348C22.3739 16.7235 22.0742 17.1767 21.6161 17.2447C21.5992 17.1144 21.5822 16.9841 21.5596 16.8538C21.8989 16.3098 22.1534 15.6129 23.0243 16.2079C23.1713 16.3098 23.4371 16.3212 23.4088 16.5365C23.3636 16.8708 23.0356 16.6328 22.8603 16.7348Z" fill="#B9C5C7"/>
<path d="M12.8788 19.1315C12.268 19.1598 11.9965 19.7321 11.5328 19.9871C11.4593 19.9701 11.3858 19.9531 11.3123 19.9361C11.3971 19.4828 11.6233 19.0975 11.9061 18.7519C12.0531 18.5706 12.3076 18.1796 12.432 18.3269C12.613 18.5366 13.1163 18.6669 12.8844 19.1315H12.8788Z" fill="#B9C5C7"/>
<path d="M21.4014 14.8594C22.0121 14.1681 22.8435 14.2248 23.6522 14.1738C23.6748 14.3154 23.6861 14.4967 23.5391 14.5364C22.9057 14.7234 22.2666 14.8877 21.6219 15.0463C21.4919 15.0803 21.4296 14.9727 21.4014 14.8594Z" fill="#151514"/>
<path d="M19.077 22.6897C19.077 22.6897 19.0543 22.6387 19.0317 22.6161C18.715 22.3441 18.0025 22.2024 18.223 21.7435C18.404 21.3809 18.8168 22.0665 19.207 22.0438C19.3315 22.2251 19.7217 22.2478 19.5859 22.5821C19.4898 22.8144 19.2579 22.6897 19.077 22.6897Z" fill="#151514"/>
<path d="M12.5113 21.3299C12.4378 21.6359 12.2172 21.6868 11.9797 21.6812C11.8157 21.6812 11.5895 21.6925 11.6291 21.4432C11.6743 21.1769 11.9514 21.1372 12.1607 21.0749C12.353 21.0183 12.4604 21.1656 12.5113 21.3299Z" fill="#EDEDEC"/>
<path d="M13.5916 20.208C13.7047 20.1854 13.8234 20.1627 13.9365 20.1457C13.846 20.2987 13.7329 20.3327 13.5916 20.208Z" fill="#F8F8FA"/>
<path d="M13.7837 -4.52967C13.8912 -4.558 13.993 -4.58633 14.1004 -4.60899C14.123 -4.18404 14.3436 -4.2577 14.6094 -4.39935C15.7404 -4.98295 16.9167 -5.05094 18.1439 -4.76764C18.9526 -4.58066 19.75 -4.35402 20.2646 -3.66844C20.6209 -3.1925 21.39 -3.35681 21.6049 -2.72222C21.4409 -2.73355 21.2769 -2.74489 21.1186 -2.75622C21.079 -2.77322 21.0394 -2.79588 20.9942 -2.81288C21.0111 -2.77322 21.0337 -2.72789 21.0507 -2.68823C21.0733 -2.45025 21.1582 -2.20662 21.0055 -1.91765C20.0328 -3.77609 18.5454 -4.58633 16.5095 -4.39368C14.7564 -4.26903 13.3992 -3.07918 13.2578 -1.5267C13.2408 -1.33972 13.2295 -1.06776 13.337 -0.965769C13.5236 -0.79579 13.665 -1.06776 13.8233 -1.15841C14.2135 -1.37938 14.5981 -1.63435 15.0166 -1.78734C15.7404 -2.05364 16.453 -1.58903 16.7923 -0.699468C16.7471 0.3884 16.4191 1.43661 16.4417 2.54714C16.453 3.13073 15.9893 3.652 15.8931 4.28093C15.5934 6.25835 15.1297 8.20745 15.4407 10.2415C15.6047 11.3294 15.9836 12.1226 17.1033 12.4229C17.2956 12.4739 17.601 12.4683 17.4936 12.8309C16.7697 13.0235 16.2607 12.5023 15.6613 12.27C14.6716 10.6721 14.8808 8.90436 14.9996 7.17057C15.0675 6.22436 15.2824 5.2838 15.4294 4.34892C15.2258 4.09395 14.96 4.63222 14.7734 4.28093C15.2824 3.44236 16.0571 2.71712 15.9836 1.51593C14.9826 2.29217 14.3606 3.24405 13.9534 4.34325C13.8233 4.51323 13.7045 4.69454 13.5519 4.84186C13.2069 5.17615 13.2691 4.81919 13.2295 4.64355C13.6989 3.15906 14.7225 2.0542 15.7574 0.954998C15.8931 0.813348 16.0119 0.666033 16.142 0.518718C16.3851 0.354404 16.3682 0.0597734 16.4191 -0.166866C16.5944 -0.994098 16.0684 -1.54936 15.2654 -1.28873C13.7724 -0.812788 12.6809 0.150429 12.2172 1.70857C11.9514 2.05986 11.8779 2.46215 11.8836 2.8871C11.8836 3.17606 11.8722 3.45369 11.5499 3.58401C11.318 3.27805 11.4933 2.96642 11.5838 2.69445C11.7139 2.29217 11.6743 1.92388 11.5329 1.54993C12.2059 1.5046 12.0362 0.892672 12.2285 0.518718C13.32 -0.308515 12.8902 -1.48137 12.9128 -2.55224C13.2182 -3.2095 14.1004 -3.60611 13.7837 -4.53533V-4.52967Z" fill="#060605"/>
<path d="M22.9847 5.57282C22.5266 3.94102 21.9272 2.34888 21.6897 0.660415C21.6161 0.139145 21.5257 -0.382125 21.4182 -1.07904C22.1195 -0.478447 22.1421 0.235466 22.2495 0.858724C22.538 2.48486 23.0582 4.03734 23.5446 5.60115C23.7256 6.18474 24.1554 6.53037 24.6474 6.83633C24.9301 7.00631 25.1959 7.19895 25.5126 7.40859C25.0376 7.66356 24.7831 7.13663 24.4098 7.24995C25.1394 9.19904 27.3675 10.2756 29.5448 9.62399C30.5345 9.32936 31.3432 8.6891 32.3159 8.38314C31.7956 9.35202 30.7663 9.61832 29.8841 10.0433C28.9453 10.4909 27.9217 10.5305 26.9038 10.2246C26.6719 10.0263 26.4175 9.86196 26.0894 9.89596C24.3703 8.94407 23.6633 7.26128 22.9791 5.56148L22.9847 5.57282Z" fill="#09090B"/>
<path d="M26.0953 9.90729C26.4233 9.87329 26.6721 10.0376 26.9096 10.2359C26.6891 10.4852 26.3837 10.4512 26.1235 10.4116C25.1056 10.2529 24.082 10.1113 23.0867 9.85063C22.4024 9.66931 22.0065 9.14804 22.1027 8.37181C22.3572 8.45679 22.4703 8.37181 22.442 8.09984C22.4024 7.70322 22.3798 7.31227 22.3458 6.91565C22.5042 7.5899 23.2054 6.808 23.3921 7.3406C23.5504 7.78821 23.7823 8.21882 24.0311 8.62111C24.5005 9.38035 25.1904 9.8223 26.0953 9.90729Z" fill="#464950"/>
<path d="M26.0951 9.90725C25.196 9.82226 24.506 9.38031 24.031 8.62107C23.7822 8.21312 23.5446 7.78817 23.3919 7.34056C23.2053 6.80796 22.5041 7.58986 22.3457 6.91561C22.374 7.31223 22.4023 7.70318 22.4419 8.0998C22.4701 8.37177 22.357 8.45676 22.1025 8.37177C21.5936 7.41422 21.2316 6.417 21.1977 5.32347C21.2599 5.13083 21.2882 4.93818 21.1016 4.79087C21.1016 4.39425 21.1016 3.99763 21.1016 3.60101C21.4465 4.03163 21.6784 4.56423 21.7236 5.0685C21.7915 5.83907 22.4249 5.60677 22.7925 5.83341C22.7981 5.83341 22.9226 5.66343 22.9904 5.57277C23.6747 7.27257 24.3816 8.9497 26.1008 9.90725H26.0951Z" fill="#827E90"/>
<path d="M22.2215 9.95824C21.1639 9.45397 20.2252 6.70597 20.6776 5.6521C20.9377 7.17058 21.2544 8.67207 22.2215 9.95824Z" fill="#060605"/>
<path d="M18.5285 4.61525C18.2062 3.99199 18.3872 3.34607 18.472 2.70581C18.8622 3.3064 18.6303 3.97499 18.6869 4.61525C18.636 4.61525 18.5794 4.61525 18.5285 4.61525Z" fill="#09090B"/>
<path d="M19.5465 9.40301C19.2298 8.93273 18.8452 8.48512 18.9979 7.65222C19.3712 8.30381 19.5691 8.80808 19.5634 9.39168L19.5465 9.40867V9.40301Z" fill="#060605"/>
<path d="M18.5284 4.61522C18.5793 4.61522 18.6359 4.61522 18.6868 4.61522C18.7377 5.47079 18.7942 6.33202 18.8621 7.39155C18.4832 6.34901 18.5115 5.48212 18.5284 4.60956V4.61522Z" fill="#060605"/>
<path d="M31.8126 10.2359C31.6712 10.2359 31.5468 10.2755 31.4789 10.4115C31.3658 10.4115 31.2527 10.4172 31.1453 10.4229C31.2697 9.86759 31.6486 9.56163 32.1576 9.38599L32.1745 9.40298C32.0558 9.68062 31.937 9.95825 31.8126 10.2359Z" fill="#060605"/>
<path d="M21.0959 4.78522C21.2825 4.93253 21.2542 5.12518 21.192 5.31782C20.8866 5.1875 20.8244 5.01752 21.0959 4.78522Z" fill="#464950"/>
<path d="M31.1452 10.4172C31.0491 10.6495 30.8794 10.7628 30.6306 10.7628C30.6419 10.4115 30.8851 10.4002 31.1452 10.4172Z" fill="#060605"/>
<path d="M19.7329 9.55596C19.9535 9.65795 20.0609 9.82793 20.0779 10.0659L20.0609 10.0829C19.7386 10.0489 19.716 9.81659 19.7216 9.56729L19.7386 9.55029L19.7329 9.55596Z" fill="#060605"/>
<path d="M32.5083 10.0773C32.5083 10.1339 32.5083 10.1963 32.5083 10.2529C32.4518 10.2529 32.3896 10.2529 32.333 10.2529C32.3896 10.1963 32.4518 10.1339 32.5083 10.0773Z" fill="#060605"/>
<path d="M19.5634 9.38599C19.6199 9.44265 19.6765 9.49931 19.733 9.55597L19.716 9.57296C19.6595 9.5163 19.6029 9.45964 19.5464 9.40298L19.5634 9.38599Z" fill="#060605"/>
<path d="M32.3443 9.233C32.2878 9.28966 32.2312 9.34632 32.1747 9.40298L32.1577 9.38598C32.2143 9.32932 32.2708 9.27266 32.3274 9.216L32.3443 9.233Z" fill="#060605"/>
<path d="M32.3274 9.216C32.3274 9.216 32.3839 9.17067 32.4122 9.14801C32.3896 9.17634 32.367 9.20467 32.3444 9.233L32.3274 9.216Z" fill="#060605"/>
<path d="M30.9588 29.4549C31.185 29.8685 31.1341 30.2821 30.9645 30.7014C30.6025 30.5994 30.1388 30.6221 30.1784 30.0441C30.2123 29.5512 30.2745 29.0923 30.9588 29.4549Z" fill="#232533"/>
<path d="M30.4555 33.1321C30.4103 33.6533 30.0936 33.9536 29.6355 34.135C29.6129 33.8233 29.1378 33.7043 29.2566 33.3531C29.3414 33.0924 29.4715 32.7411 29.6751 32.6448C30.0596 32.4692 30.1501 33.0244 30.4555 33.1264V33.1321Z" fill="#09090B"/>
<path d="M26.8134 35.9027C26.6493 36.4637 26.2648 36.7243 25.6936 36.7073C25.7332 36.3843 25.2355 36.0217 25.8633 35.7271C26.2931 35.5288 26.5645 35.4495 26.8134 35.9027Z" fill="#151514"/>
<path d="M30.7948 27.4491C30.8796 27.8684 31.1624 28.2593 30.9644 28.7183C30.6817 28.6899 30.3876 28.6276 30.2293 28.3896C29.8334 27.8061 30.0313 27.4944 30.7948 27.4491Z" fill="#151514"/>
<path d="M30.6532 26.6276C30.6363 26.6786 30.625 26.7352 30.625 26.7919C30.4327 26.7749 30.2347 26.7352 30.0425 26.7409C29.6409 26.7522 29.4996 26.4859 29.443 26.1686C29.3865 25.857 29.7145 25.959 29.8558 25.874C30.1725 25.687 30.3761 25.8117 30.4723 26.1573C30.5175 26.3159 30.591 26.4689 30.6532 26.6219V26.6276Z" fill="#151514"/>
<path d="M30.9644 31.4436C30.8853 31.8346 30.9814 32.2765 30.659 32.6052C30.512 32.4352 30.3989 32.2199 30.2179 32.1122C29.8051 31.8686 30.0483 31.506 30.1501 31.336C30.4328 30.8544 30.659 31.5853 30.9644 31.4493V31.4436Z" fill="#151514"/>
<path d="M28.9341 25.3924C28.6288 24.5992 29.166 24.5198 29.7259 24.4575C30.0482 25.2904 29.9917 25.3584 28.9341 25.3924Z" fill="#151514"/>
<path d="M28.0916 35.1662C28.1991 35.7951 27.7297 35.7554 27.3451 35.8121C27.3225 35.5401 27.0171 35.2398 27.3904 35.0075C27.6562 34.8432 27.9106 34.8829 28.0916 35.1662Z" fill="#232533"/>
<path d="M29.2622 34.5032C29.2339 34.9225 28.9907 35.0585 28.6005 34.9962C28.6175 34.7355 28.3064 34.4352 28.6344 34.2199C28.9398 34.016 29.019 34.4749 29.2622 34.5032Z" fill="#232533"/>
<path d="M30.6534 8.42844C29.6015 8.98938 28.4931 9.14802 27.3281 8.88739C28.4309 8.8024 29.4884 8.46811 30.5799 8.34912C30.6138 8.36612 30.6421 8.39445 30.6534 8.42844Z" fill="#151514"/>
<path d="M24.9756 5.16481C25.0265 5.22147 25.0774 5.2838 25.1283 5.34046C25.1396 5.38578 25.1565 5.43111 25.1735 5.47644C25.1735 5.5331 25.1735 5.59542 25.1735 5.65208C24.7494 5.64075 24.5627 5.36879 24.4609 5.00616C24.4779 4.9835 24.4949 4.96084 24.5175 4.93817C24.6702 5.01183 24.8285 5.09115 24.9812 5.16481H24.9756Z" fill="#060605"/>
<path d="M25.1677 5.64642C25.2752 5.65209 25.3826 5.66342 25.4957 5.66909C25.5862 5.82207 25.7106 5.96372 25.6824 6.16203C25.3713 6.12803 25.1734 5.98072 25.1677 5.64642Z" fill="#060605"/>
<path d="M31.8635 7.55587C31.7956 7.77684 31.6882 7.96382 31.3489 7.96382C31.3602 7.65219 31.5412 7.54453 31.8013 7.49921C31.8239 7.52187 31.8409 7.53887 31.8635 7.55587Z" fill="#060605"/>
<path d="M30.5798 8.34342C30.7042 8.20177 30.8117 8.03179 31.0379 8.08845C31.0605 8.08845 31.0832 8.18478 31.0718 8.21877C30.9927 8.39442 30.806 8.37175 30.659 8.42275C30.6477 8.38875 30.6194 8.36042 30.5855 8.34342H30.5798Z" fill="#060605"/>
<path d="M24.4607 5.0005C24.3872 4.96084 24.2175 4.96084 24.2967 4.84185C24.3646 4.73986 24.4664 4.84185 24.5173 4.93251C24.5003 4.95517 24.4833 4.97783 24.4607 5.0005Z" fill="#060605"/>
<path d="M5.57227 17.579C5.59489 17.3807 5.65144 17.1994 5.87765 17.154C5.97379 17.1314 6.04165 17.1994 6.01903 17.2957C5.97379 17.5223 5.78717 17.5733 5.59489 17.596L5.57792 17.579H5.57227Z" fill="#060605"/>
<path d="M27.3901 1.72559C27.8765 1.80491 28.1536 2.09387 28.2384 2.57548C27.7408 2.50749 27.4523 2.22986 27.3901 1.72559Z" fill="#151514"/>
<path d="M28.2385 2.57551C28.4987 2.55284 28.7418 2.55851 28.7475 2.91547C28.493 2.9268 28.2668 2.90413 28.2385 2.57551Z" fill="#151514"/>
<path d="M26.8869 0.864338C27 0.76235 27.1131 0.694358 27.2206 0.864338C27.2206 0.943661 27.2206 1.02299 27.2206 1.09664C26.9944 1.18163 26.8247 1.17597 26.8926 0.858672L26.8869 0.864338Z" fill="#151514"/>
<path d="M26.3723 2.04291C26.5363 2.10523 26.5759 2.23555 26.5476 2.3942C26.361 2.3432 26.3384 2.20722 26.3723 2.04291Z" fill="#827E90"/>
<path d="M27.2036 1.15332C27.2658 1.22131 27.3789 1.2893 27.2149 1.36863C27.2149 1.29497 27.2093 1.22698 27.2036 1.15332Z" fill="#151514"/>
<path d="M27.2149 1.36865C27.2149 1.43098 27.2149 1.48764 27.2149 1.54996C27.0962 1.4933 27.0114 1.43098 27.2149 1.36865Z" fill="#151514"/>
<path d="M26.1121 1.87857C26.2478 1.86724 26.3383 1.92956 26.3835 2.05422C26.293 1.99756 26.2025 1.93523 26.1121 1.87857Z" fill="#827E90"/>
<path d="M13.959 4.34325C14.3662 3.23839 14.9882 2.29217 15.9892 1.51593C16.0684 2.71712 15.288 3.4367 14.779 4.28093C14.5075 4.30359 14.2304 4.32626 13.959 4.34892V4.34325Z" fill="#232533"/>
<path d="M10.6847 35.3418C11.3351 35.1379 11.6518 35.6761 11.9685 36.0274C12.189 36.271 11.6292 36.254 11.5896 36.4977C11.0071 36.8036 10.7639 36.2654 10.4585 35.9934C10.1079 35.6931 10.6452 35.5741 10.6847 35.3362V35.3418Z" fill="#151514"/>
<path d="M7.52911 26.4632C7.49518 26.7862 7.45559 27.1148 7.42166 27.4378C6.9862 27.5171 6.62992 27.4095 6.52247 26.9335C6.46027 26.6615 6.6582 26.4179 6.81655 26.2536C7.11062 25.959 7.252 26.5142 7.53476 26.4632H7.52911Z" fill="#151514"/>
<path d="M7.97569 31.3757C8.37721 31.6193 8.28107 32.0952 8.47335 32.4409C7.91348 32.6788 7.58548 32.6222 7.48368 31.8969C7.41017 31.387 7.659 31.404 7.97569 31.3757Z" fill="#151514"/>
<path d="M9.33877 34.1746C9.88733 34.1746 10.1984 34.4749 10.3454 34.9792C10.0513 34.9112 9.88168 35.3588 9.50277 35.1208C9.0447 34.8262 8.77325 34.5996 9.34443 34.1746H9.33877Z" fill="#151514"/>
<path d="M7.4556 29.7155C8.03809 29.8628 7.8854 30.3784 7.98154 30.7751C7.35947 30.8374 7.03146 30.6051 7.09367 29.9308C7.12195 29.6475 7.32553 29.7722 7.4556 29.7212V29.7155Z" fill="#151514"/>
<path d="M7.29156 28.1517C7.6026 28.4577 7.79488 28.7806 7.44991 29.1886C7.10494 29.0979 6.80521 29.0242 6.73735 28.5483C6.65252 27.9477 6.93528 28.0497 7.28591 28.1517H7.29156Z" fill="#232533"/>
<path d="M8.79573 33.336C8.82966 33.4947 8.86924 33.6533 8.90318 33.812C8.62041 33.7327 8.47903 34.5089 8.12841 33.948C8.00965 33.7553 7.78909 33.4947 8.00965 33.2851C8.23586 33.0697 8.55255 33.0301 8.79573 33.336Z" fill="#151514"/>
<path d="M7.38765 25.1034C8.11718 24.5482 7.98145 25.2904 8.12849 25.602C7.89663 25.6984 7.91359 26.044 7.63648 26.095C7.57428 25.7607 7.03703 25.5397 7.38765 25.1034Z" fill="#151514"/>
<path d="M17.4937 12.8253C17.5898 12.8253 17.6803 12.8253 17.7764 12.8253C17.6859 12.9442 17.5954 13.0916 17.4937 12.8253Z" fill="#060605"/>
<path d="M7.97023 11.2671C8.20775 11.3577 8.33216 11.5221 8.3152 11.7827C7.95326 11.777 7.94761 11.5334 7.97023 11.2671Z" fill="#060605"/>
<path d="M14.8638 15.1823C13.3991 15.4713 11.9344 15.7545 10.334 16.0662C10.99 15.4429 14.0269 14.797 14.8638 15.1823Z" fill="#2F303C"/>
</g>
</g>
</g>
<rect x="0.833252" y="0.5" width="36" height="36" rx="18" stroke="white"/>
<defs>
<clipPath id="clip0_41_24253">
<rect x="1.33325" y="1" width="35" height="35" rx="17.5" fill="white"/>
</clipPath>
<clipPath id="clip1_41_24253">
<rect width="35" height="35" fill="white" transform="translate(1.33325 1)"/>
</clipPath>
</defs>
</svg>
