<svg width="80" height="80" viewBox="0 0 80 80" fill="none" xmlns="http://www.w3.org/2000/svg">
<rect width="80" height="80" fill="#9A8EE1"/>
<mask id="mask0_92_29222" style="mask-type:alpha" maskUnits="userSpaceOnUse" x="0" y="0" width="80" height="80">
<rect width="80" height="80" fill="#D9D9D9"/>
</mask>
<g mask="url(#mask0_92_29222)">
<path d="M68.7077 8.37512C70.0102 10.2623 70.4922 12.4366 70.882 14.6417C70.9743 15.1648 71.0461 15.6981 71.1179 16.2314C70.3384 16.334 70.3281 15.6879 70.1538 15.2161C69.8666 14.0058 69.7435 12.7238 68.7692 11.7905C67.7025 10.4571 66.6564 9.14434 65.1487 8.21102C63.3436 7.10334 61.477 6.39566 59.3129 6.71361C61.9385 6.52899 64.1436 7.57514 66.1436 9.10332C67.0769 9.811 67.9692 10.5905 68.0513 11.9033C67.5282 13.2776 66.6974 12.7648 65.8154 12.1905C67.3333 14.0674 67.159 16.1186 66.8513 18.2417C66.482 20.7442 65.4974 23.1442 65.5795 25.7185C65.5897 26.2005 65.5487 26.6928 65.6923 27.1749C65.7333 27.3287 65.7538 27.4723 65.7538 27.6364C65.7333 28.3338 65.3128 28.6005 64.6769 28.621C62.9539 28.2928 61.5693 27.3595 60.3488 26.1595C59.9796 25.8005 59.5693 25.3903 59.836 24.7749C60.2257 24.5288 60.5847 24.7954 61.118 24.8877C59.4052 21.575 59.7232 18.0981 59.9488 14.652C60.0308 13.3904 59.3539 12.652 58.6975 11.811C58.4411 11.4828 57.9078 11.1238 58.2052 10.7033C58.5539 10.211 59.0873 10.5597 59.5283 10.7546C60.2257 11.0725 60.8206 11.6469 61.6821 11.5648C60.8103 8.39564 56.3591 8.38538 52.7899 10.3956C54.1232 11.0418 55.2924 11.811 56.4104 12.652C57.8668 13.7597 58.2052 14.9699 57.5693 16.8673C57.4257 16.9083 57.2924 16.8981 57.2206 16.734C57.5488 18.6006 57.1181 20.5186 57.7642 22.3852C58.595 24.7954 60.0308 26.6621 62.1642 28.0159C62.5641 28.2723 63.1693 28.4364 63.1077 29.0108C63.0359 29.5954 62.3795 29.5441 61.9488 29.7184C61.6411 29.78 61.3231 29.7697 61.0154 29.7082C57.2514 28.5082 55.1489 25.657 55.0771 21.657C55.0565 20.4878 55.1283 19.3186 54.9848 18.1494C54.8924 17.4212 54.6258 16.7442 54.4822 16.0571C55.2001 18.4263 54.5642 20.8365 54.6258 23.2365C54.6258 23.5647 54.4822 23.9134 54.0309 23.9339C53.4155 23.2878 53.6514 22.4672 53.6207 21.7083C53.5386 19.616 53.395 17.534 52.4822 15.6058C51.7335 14.0263 50.2566 13.4315 48.4823 13.9853C48.0105 14.2622 47.5284 14.0776 47.0464 14.0366C47.3746 14.3545 48.3079 13.9443 48.0618 14.9084C47.0772 15.175 46.0926 15.4212 45.0669 15.534C44.9336 15.4725 44.8413 15.3596 44.8003 15.2161C45.0259 13.2776 43.3746 11.7905 41.3029 11.9546C38.7183 12.1597 37.0568 13.7699 35.4978 15.575C33.9081 17.4212 32.5543 19.5237 30.1748 20.5288C29.9492 20.6211 29.7543 20.7852 29.5287 20.8673C29.262 20.9596 28.9543 21.1237 28.7184 20.8673C28.4723 20.6109 28.5954 20.3032 28.7697 20.057C29.221 19.4211 29.5184 18.6724 30.1338 18.1596C30.4928 17.9032 30.862 17.6468 31.0774 17.2468C31.3338 16.8263 31.5286 16.375 31.6722 15.893C31.7133 15.7699 31.7645 15.6571 31.8261 15.5443C32.3081 14.9597 32.8209 14.4058 33.2414 13.7597C33.3543 13.6058 33.4773 13.452 33.5799 13.2879C34.0107 12.5802 34.1748 11.7802 34.3594 10.9905C34.4414 10.6315 34.6466 10.1289 34.2363 9.94433C33.7132 9.70844 33.5184 10.2315 33.3235 10.611C33.262 10.7341 33.2312 10.8777 33.1902 11.0212C33.0979 11.3494 32.9543 11.6469 32.7286 11.9033C32.2158 12.3443 32.0927 12.9802 31.8774 13.5751C31.7851 13.8212 31.6722 14.0571 31.5594 14.293C31.2107 14.9391 30.8928 15.5955 30.7594 16.334C30.1953 17.6468 29.58 18.9288 28.4313 19.8622C28.2877 19.8724 28.1543 19.8416 28.0415 19.7493C27.5902 18.7032 27.4261 17.5955 27.4056 16.6417C27.4159 16.7442 27.2825 16.9391 27.1184 17.1237C26.6774 17.5237 26.8826 17.9955 26.9441 18.4673C27.0672 19.4109 27.5184 20.3237 27.2005 21.298C26.9031 21.8314 26.421 22.3852 25.8467 22.0673C25.1492 21.6878 25.6108 20.8262 25.4774 20.2416C25.3954 20.6827 25.7031 21.3083 25.0057 21.5955C24.0928 20.3442 24.6159 18.816 24.2467 17.4622C24.1441 17.1032 24.298 16.7032 24.2467 16.2622C23.8364 16.8776 23.4057 17.4212 23.0057 17.9853C22.38 19.3186 22.5134 20.8468 21.9698 22.2108C21.6108 23.1134 21.4467 24.1083 20.8006 24.8877C20.5852 25.1441 20.3185 25.4929 19.9596 25.3082C19.5801 25.1134 19.7237 24.6929 19.857 24.3852C20.6057 22.7237 21.0467 20.9698 21.4775 19.2365C21.2621 19.6673 21.2211 20.2827 20.5749 20.4263C19.5596 18.8981 20.5031 17.5955 20.9852 16.3853C20.5237 17.0519 20.2262 17.975 19.7237 18.7955C19.6621 18.9186 19.6006 19.0314 19.5391 19.1545C19.2416 19.8416 19.098 20.5596 19.0878 21.3083C19.0468 21.8724 18.9237 22.416 18.6365 22.9083C18.5545 23.0211 18.4519 23.0826 18.3186 23.1134C17.334 23.4826 17.375 24.539 16.9135 25.257C16.4519 26.098 16.0006 26.939 15.375 27.6672C15.0878 28.0056 14.8622 28.539 14.2366 28.2928C13.6417 27.0928 13.9699 25.9031 14.3289 24.7441C15.1083 22.2314 16.3186 19.8827 17.1083 17.5032C17.3852 17.3083 17.0365 17.2365 17.2006 17.3391C17.2519 17.3699 17.2211 17.4007 17.1391 17.4622C16.3801 18.1186 15.9186 17.975 15.8058 16.9596C15.775 16.6622 15.7237 16.3853 15.6212 16.1084C15.5801 15.1238 16.1853 14.334 16.4006 13.4315C16.7083 12.734 16.4006 11.9135 16.8417 11.2366C17.057 11.0007 17.3442 10.9597 17.6416 10.9597C18.0109 10.9494 18.3904 10.9597 18.7596 10.8879C18.9545 10.8571 18.7596 10.6828 18.7186 10.7443C18.4929 11.0007 18.1442 10.9392 17.8365 10.9494C16.975 10.8571 16.0827 11.3187 15.2519 10.7648C15.1289 10.6315 15.1083 10.4777 15.1801 10.3136C16.0109 9.72895 16.9647 10.0366 17.8673 9.96485C18.6263 9.90331 19.4365 10.0982 20.1032 9.54434C20.5134 9.25716 20.9749 9.14434 21.457 9.07255C22.698 8.89819 23.5698 8.17 24.2775 7.19565C24.8826 6.36489 25.6108 6.11874 26.5441 6.58028C27.9595 7.02129 29.4056 6.77515 30.6261 6.74438C31.0363 6.66233 30.7697 6.37515 30.8517 6.55976C30.8517 6.58028 30.8312 6.58028 30.7799 6.61104C29.9492 6.99053 29.0671 6.76489 28.2056 6.82643C27.2518 6.77515 26.2774 6.7854 25.7133 5.78029C25.98 5.19568 26.5646 5.04184 27.0672 5.12389C29.7235 5.56491 31.8569 4.69312 33.6004 2.71366C33.6825 2.62135 33.6209 2.5393 33.3748 2.43674C33.3338 2.29315 33.3543 2.14956 33.4466 2.02649C37.785 0.221385 41.9798 0.354716 46.1336 3.30852C46.0515 1.50342 44.5336 0.426509 45.0875 -1.12219C47.1592 -1.95295 48.831 -0.773475 50.5028 0.0880525C52.2566 0.980349 53.2309 2.63161 54.0822 4.33415C54.4514 4.6521 54.6566 4.49825 54.7694 4.088C54.8719 3.72903 54.8514 3.33929 55.0771 3.0316C55.6001 2.8675 56.0719 3.15468 56.5745 3.16494C57.2719 3.78031 57.6411 2.62135 58.2565 2.84699C60.6154 3.01109 62.677 4.12903 64.8513 4.85722C66.1538 5.34952 66.9025 6.43669 67.6923 7.49308C67.9589 7.85205 68.0307 8.45718 68.6974 8.35461L68.7077 8.37512Z" fill="#252537"/>
<path d="M79.3026 85.051C78.4103 87.2253 76.4923 87.6971 74.4718 87.974C71.9283 88.3227 69.3335 88.3125 66.913 89.3996C65.4668 90.056 63.8361 89.8201 62.2976 89.974C57.3028 90.4765 52.267 90.6406 47.344 89.3894C45.7953 88.9996 44.1748 88.7125 42.7287 88.1073C41.5492 87.615 40.6364 86.4356 39.939 85.2561C41.4877 80.7023 41.3543 75.728 43.4158 71.287C44.2466 69.5025 45.2722 67.9127 46.7491 66.7025C52.2978 62.159 56.5952 56.6718 59.5797 50.1489C59.6413 50.0155 59.7131 49.8822 59.7746 49.7591C60.6669 48.0771 61.0772 48.1284 62.4207 49.4412C67.3643 54.2411 70.6257 60.1692 73.6616 66.1999C75.8154 70.4768 77.5077 74.9998 78.1949 79.81C78.3077 81.0408 78.3282 82.3023 79.0154 83.3997C79.3436 83.933 79.1487 84.5176 79.2923 85.0612L79.3026 85.051Z" fill="#C7D6D6"/>
<path d="M77.8464 79.7178C76.4823 72.5589 73.4977 66.0667 69.7952 59.8514C67.5081 56.0053 64.9132 52.4156 61.744 49.2464C61.5081 49.0105 61.2415 48.7951 60.8722 48.4567C59.2005 52.0976 57.2313 55.4412 55.0262 58.6822C53.457 60.9898 51.4365 62.7847 49.4878 64.7026C48.2057 65.9641 46.7904 67.0821 45.5904 68.4564C43.7135 70.6 42.9648 73.2256 42.2776 75.8409C41.7443 77.8614 41.6725 80.005 41.2725 82.0665C41.0469 83.1844 40.0007 84.0152 39.9597 85.2459C39.6623 80.846 40.4828 76.5794 41.5597 72.3538C41.8468 71.2153 41.9802 70.723 40.3905 70.8051C37.0161 70.9794 34.1649 69.6666 31.7342 67.2359C28.0009 63.4924 25.4265 59.0309 23.3548 54.2515C22.7394 52.8258 22.4317 51.2771 21.9804 49.7797C21.8676 49.4105 21.8779 48.8669 21.4471 48.8054C18.9548 48.4567 18.6677 46.2105 17.7241 44.5388C17.4369 44.0259 17.201 43.4824 16.9754 42.949C16.3327 41.4243 15.2557 40.9149 13.7447 41.4209C12.0421 41.9952 11.2319 41.7285 10.0626 40.2106C10.4626 39.9542 10.8626 39.6978 11.3344 39.3901C11.1703 38.8978 10.4421 39.1952 10.3498 38.5286C12.5139 38.785 13.2729 37.2363 14.0011 35.6363C14.4728 35.1235 13.8575 34.0979 14.8523 33.8209C15.0677 33.9338 15.1498 34.1286 15.201 34.344C15.2318 34.5594 15.2113 34.7645 15.16 34.9697C15.0677 35.2876 14.9754 35.6055 14.9241 35.9337C14.8934 36.0671 14.8626 36.1901 14.8113 36.3132C14.8934 36.4671 14.3805 36.6312 14.8318 36.7748C14.9754 36.6619 15.1292 36.5799 15.2831 36.5184C16.2164 36.303 17.0472 36.8876 17.9497 36.8568C18.442 37.0004 18.5856 36.6927 18.6574 36.2927C18.6984 35.7184 18.6984 35.1543 18.5446 34.6004C18.0625 33.4107 17.96 34.8979 17.6318 34.7338C16.9549 34.8671 16.319 36.2927 15.5908 34.8056C15.6113 34.4979 15.7651 34.262 15.96 34.0363C18.1856 31.7697 18.3395 31.4005 17.8984 29.3184C17.201 29.3184 17.0164 29.9646 16.6472 30.3646C16.2574 30.9082 15.7036 31.2876 15.2113 31.7287C15.0677 31.862 14.9139 31.9851 14.7498 32.0979C14.2882 32.4774 13.6523 32.4056 13.16 32.7133C10.8216 33.2979 8.50369 33.985 6.13449 34.4363C4.79092 34.6927 4.08324 34.2107 3.08838 32.9594C5.39604 33.7799 7.40627 33.3902 9.3242 32.3748C9.8165 32.2107 9.96008 31.6158 10.4524 31.4312C10.7396 31.3492 11.0267 31.2671 11.2319 31.021C11.437 30.7748 11.6421 30.5287 11.9395 30.3851C12.7293 30.0672 13.4267 29.6466 13.7652 28.8056C13.8985 28.5697 14.0626 28.3544 14.36 28.3133C15.3754 27.4005 15.9395 26.1595 16.6779 25.0518C17.1087 24.9595 17.16 25.2877 17.242 25.5749C17.3036 26.0364 17.0677 26.4159 16.8831 26.8159C16.3292 27.6672 15.6933 28.4569 15.0267 29.2364C14.5754 29.8723 14.0011 30.3851 13.2934 30.9184C14.0011 30.4466 14.4934 29.9031 14.9857 29.3492C15.601 28.5697 16.2677 27.8313 16.801 26.9903C17.3959 26.0262 17.9497 25.0313 18.4215 23.9954C18.4728 23.8724 18.5446 23.7493 18.6061 23.6365C19.4471 22.6621 19.6112 21.298 20.5035 20.3545C21.2112 19.6775 21.1702 18.6622 21.5702 17.8006C22.1958 18.9801 22.1548 19.1442 20.042 25.0621C21.1292 24.0775 22.1753 21.0929 22.2881 18.8981C22.3086 18.5904 21.7958 17.7494 22.842 18.0058C23.0368 18.1596 23.1394 18.375 23.1907 18.6109C23.283 19.2263 23.2625 19.8314 23.1497 20.4468C22.7292 22.1083 22.5138 23.8313 21.6625 25.3595C20.924 26.7441 19.3856 27.7492 19.6933 29.5543C20.801 28.4056 20.801 26.6826 21.6522 25.3595C21.9907 25.0723 21.8471 24.2313 22.6574 24.498C22.9548 24.898 22.9138 25.3493 22.8317 25.8005C22.5958 26.4672 22.4625 27.1749 22.124 27.8108C22.1035 27.8928 22.0727 27.9851 22.042 28.0672C21.9907 28.1903 21.9497 28.3236 21.8676 28.4364C21.9907 28.3749 21.9702 28.221 22.042 28.1185C22.1445 27.6467 22.4522 27.2672 22.5651 26.8159C23.1189 25.5236 23.6214 24.2006 24.1137 22.8775C24.2984 22.3852 24.3907 21.8314 24.924 21.5442C25.4881 20.9391 24.9855 20.1288 25.4265 19.216C26.0112 20.1391 25.6214 21.0827 25.8573 21.8826C26.3496 21.8211 26.6676 21.5339 26.965 21.2365C26.9958 20.2929 27.6522 19.9647 28.4214 19.7391L30.4931 16.2417C30.8008 15.5648 31.0983 14.8776 31.3752 14.1904C31.3854 13.9545 31.4265 13.7289 31.6624 13.5956C31.888 13.452 31.7649 12.9699 32.1444 13.0315C32.5341 13.093 32.5342 13.4828 32.5752 13.8007C32.647 14.5597 32.0008 15.093 31.9598 15.8109V15.7904C31.7136 16.2417 31.4162 16.6827 31.2213 17.175C30.9957 17.5853 30.7701 17.9955 30.4214 18.3135C29.8778 19.0827 29.3239 19.8622 28.565 20.9391C30.688 19.9852 32.3598 19.0314 33.529 17.4314C34.7085 15.8109 35.9597 14.2212 37.529 13.0315C40.0007 11.1546 43.7135 10.6007 45.2314 13.9853C45.4365 14.4468 45.734 14.9186 44.9237 15.0827C44.5237 15.2776 44.2878 14.9904 44.0314 14.775C40.9238 12.0366 38.6264 13.093 36.8623 15.4007C35.5905 17.0622 34.5854 18.9288 32.9957 20.3442C32.5547 20.7339 32.6059 21.298 32.5649 21.8416C32.2675 25.4108 30.5957 28.3236 28.165 30.8569C27.7342 31.3082 27.1496 31.6159 26.5342 31.8107C26.2983 31.8825 26.0522 31.944 25.8163 31.9338C25.3855 31.9235 24.7394 32.3748 24.6266 31.6158C24.5548 31.1338 24.924 30.6928 25.5086 30.6312C25.765 30.6107 25.9804 30.5389 26.1445 30.3338C27.8573 28.8364 29.088 26.98 30.0624 24.939C30.2983 24.457 30.5239 23.9749 30.6675 23.4519C31.1188 21.8108 30.9855 21.6878 29.3034 22.098C28.9855 22.1903 28.647 22.2211 28.3291 22.3339C27.7547 22.7749 28.0111 23.4108 27.9393 23.9647C27.8675 24.5698 28.0829 25.257 27.406 25.698C26.4829 25.0416 27.1804 23.9134 26.6265 23.1031C25.324 23.4519 25.2419 24.5903 24.9855 25.5954C24.2061 28.1697 22.924 30.4056 20.6266 32.0364C21.8061 32.4363 22.9035 32.0056 24.0214 31.8723C25.1496 31.9543 25.6624 33.0517 26.606 33.4415C27.1393 33.903 27.3342 34.4671 27.1496 35.144C26.7496 36.1594 26.0009 36.3337 25.0163 36.0773C23.5189 35.6773 21.9599 35.585 20.3497 35.2876C20.3087 36.1286 20.7805 36.385 21.3958 36.3953C23.3855 36.4363 25.3753 36.6004 27.3137 35.944C29.8162 35.4722 32.3085 34.9799 34.8521 34.7748C37.0367 34.5799 39.1802 34.1389 41.3135 33.6261C43.6622 33.2363 45.9801 32.6517 48.3083 32.1594C48.8314 32.0364 49.3852 32.0466 49.898 31.8517C51.3134 31.6056 52.6365 30.9287 54.0928 30.8671C54.6775 30.9184 55.221 30.7543 55.7441 30.5287C56.1749 30.4671 56.5954 30.58 57.0261 30.5697C57.5697 30.6005 58.1338 30.5287 58.6364 30.8466C58.8107 30.8671 58.7184 31.2671 59.0159 31.1133C59.3646 30.1389 60.2158 29.821 61.0569 29.4928C61.344 29.4928 61.6312 29.4928 61.9184 29.4928C62.9748 29.3287 64.0107 28.8569 65.0978 29.3595C66.8824 30.3338 67.5593 32.0466 68.1132 33.862C68.2568 34.5799 68.1132 35.3286 68.2978 36.0466C68.3286 36.1901 68.3388 36.3337 68.3286 36.4773C68.1132 37.3799 67.3542 38.0568 67.2722 39.0106C67.2824 39.2363 67.2106 39.4209 66.9952 39.5132C66.1747 40.2619 65.7645 41.3285 64.944 42.1285C64.2978 42.7542 64.626 43.9131 64.7491 44.8054C64.8619 45.5952 65.026 46.4259 65.5183 47.1233C65.5901 47.1233 65.6517 47.1439 65.7235 47.1644C66.2876 47.6362 66.5645 48.2515 66.626 48.9797C67.9901 50.5182 69.6311 50.4669 71.3747 49.8105C71.8157 49.6464 72.308 49.2977 72.5336 50.0771C70.8516 51.431 68.9747 52.2515 66.544 52.2207C72.1131 59.9539 76.39 68.1282 78.9848 77.1435C79.8156 81.4819 79.8464 82.3947 79.1182 83.6972C78.1336 82.5178 78.3695 80.9998 77.8566 79.7383L77.8464 79.7178Z" fill="#010100"/>
<path d="M67.8362 11.8315C67.1387 9.88281 65.3952 9.05205 63.8055 8.03668C62.1337 6.97003 60.1337 7.38028 58.3696 6.70337C60.1235 5.95466 61.8568 6.15978 63.5183 6.89824C65.7747 7.91361 67.6823 9.38025 68.9746 11.5546C69.7951 12.6007 69.8772 13.9648 70.4515 15.1135C70.5643 15.5443 70.6054 16.0263 71.1079 16.2314C71.4566 16.5699 71.7746 16.9289 72.1438 17.2366C74.031 18.8468 75.8566 19.3596 78.154 17.1955C78.3489 16.9699 78.5642 16.9802 78.7386 17.2058C78.8822 17.3801 78.8104 17.5545 78.6463 17.6878C77.3232 19.5852 75.8976 21.3493 73.4669 21.8827C71.4361 22.1391 70.6669 23.3493 71.0566 25.657C71.5387 27.5749 71.5284 29.5954 72.5233 31.421C73.2002 32.662 73.8566 33.7081 75.3643 33.5235C75.7438 34.1799 74.2258 34.0056 75.0156 34.7748C75.1592 34.9184 74.8925 35.1543 74.3284 35.0415C73.1387 34.8158 72.2361 34.0671 71.3336 33.3287C70.5746 33.1953 69.8669 32.9697 69.4669 32.2312C68.4926 31.1133 68.0721 29.7492 67.7439 28.3441C67.8157 27.0518 67.1182 25.78 67.6516 24.4775C67.7952 24.139 67.8054 23.5955 68.2669 23.6262C68.7182 23.657 68.7285 24.1698 68.7798 24.5595C68.8618 25.2262 68.7182 25.9134 68.9644 26.5698C69.2721 27.5441 69.4464 28.5492 69.7849 29.5133C69.1798 27.3698 68.6669 25.2159 69.1695 22.9596C69.3849 21.9955 68.8926 21.3083 68.3182 20.5904C67.7952 19.9442 67.4054 19.134 68.8003 18.9596C69.2003 18.9186 69.6413 19.5647 69.9592 19.0314C70.2669 18.5289 70.1746 17.8725 69.8874 17.3596C69.2515 16.2212 68.6157 15.0827 67.908 13.9853C67.3336 13.2982 67.7131 12.5597 67.8157 11.8418L67.8362 11.8315Z" fill="#030202"/>
<path d="M14.3495 28.3235C14.247 28.5081 14.1342 28.703 14.0316 28.8876C13.7342 29.144 13.6624 29.8312 13.0162 29.3799C12.8213 27.0107 13.888 24.9492 14.4624 22.9082C14.1752 23.2364 14.3188 24.0979 13.5085 24.2415C12.8111 23.5133 13.3854 22.8672 13.7239 22.2928C14.1854 21.5031 14.77 20.7852 15.2726 20.0365C14.77 19.9749 14.6777 20.4877 14.3495 20.6621C12.729 22.4672 10.9547 24.0672 8.55474 24.7441C6.35989 25.3697 4.20608 25.4415 2.24713 23.9851C2.08303 23.8621 1.88816 23.8313 1.69329 23.8518C1.27278 23.6672 1.2215 23.2569 1.13945 22.8877C0.954837 22.098 1.20099 21.7493 2.03175 22.098C2.07277 22.1185 2.12405 22.1185 2.16508 22.1493C3.31378 22.7749 4.39069 23.7697 5.82657 22.7133C6.01118 22.58 6.39066 22.7133 6.67784 22.7133C10.288 22.539 12.5649 20.2929 14.6059 17.657C14.9854 17.175 15.1085 16.4673 15.7957 16.2416C16.0726 16.1493 16.4008 15.9852 16.2264 16.5493C16.1136 16.9186 15.8777 17.3903 16.37 17.5544C16.8008 17.7083 16.9957 17.2057 17.2213 16.898C17.3341 16.7442 17.4367 16.5904 17.6521 16.4775C17.3033 18.2519 16.6162 19.9031 15.929 21.5646C15.0264 23.7185 14.0008 25.862 14.3495 28.3133V28.3235Z" fill="#4A4C54"/>
<path d="M12.2779 54.2309C12.7394 54.077 13.2727 53.5745 13.683 54.1078C14.1138 54.6719 13.4984 55.0514 13.1497 55.3796C11.2523 57.1334 10.0523 59.1744 10.0728 61.8513C10.0728 62.5897 10.1651 63.7897 9.18049 63.8102C8.10358 63.8308 8.06255 62.6615 8.04204 61.8C8.03178 60.9385 8.09332 60.077 8.22665 59.2257C8.42152 57.9847 7.94973 57.5026 6.72924 57.7078C6.44206 57.759 6.16514 57.8001 5.87796 57.8411C5.35489 57.9231 4.77029 57.9949 4.54465 57.3898C4.28824 56.7232 4.74977 56.3232 5.27284 56.0052C5.6113 55.8001 5.94976 55.5744 6.29847 55.3693C6.76 54.8668 6.69847 54.1488 7.00615 53.5847C7.14974 52.5078 7.27282 51.4207 7.43692 50.3437C7.51897 49.8002 7.83691 49.3079 8.42152 49.2976C9.17023 49.2976 9.09844 49.9643 9.09844 50.4463C9.09844 51.3181 9.09843 52.1796 9.6933 52.8976C10.36 53.7181 11.0574 54.477 12.2779 54.2104V54.2309Z" fill="#060605"/>
<path d="M13.1599 29.4825C13.4471 29.2877 13.7445 29.0825 14.0317 28.8877C13.765 29.9748 12.9753 30.4466 11.9599 30.6517C11.765 30.5184 11.7445 30.2723 11.6317 30.0774C11.4471 30.4569 11.365 30.8569 11.3855 31.2671C11.2009 31.7081 10.8932 31.7697 10.5035 31.5338C10.4009 31.4415 10.3189 31.3184 10.2779 31.1851C10.4009 29.7594 10.6163 28.3543 11.1189 27.0005C10.7804 27.8005 10.6163 28.6415 10.4625 29.503C10.3189 30.303 10.2163 30.3338 9.46762 30.0979C9.52916 29.2979 9.34455 28.4877 9.58044 27.6979C9.85736 27.0928 10.1343 26.4877 10.4112 25.8826C10.8215 25.6877 10.5856 25.1646 10.883 24.9082C10.9548 24.7441 11.1702 24.4877 11.0676 24.4467C10.8522 24.3441 10.7291 24.6518 10.5343 24.7544C9.77531 25.4723 8.71891 25.2877 7.84713 25.6672C6.04203 26.3954 2.9754 25.4928 1.67285 23.8621C1.8267 23.698 1.45747 23.0108 2.11387 23.3698C6.09331 25.5851 10.1343 24.8672 13.1086 21.3698C13.4573 20.9493 13.7958 20.5596 14.3188 20.3647C14.6676 20.1288 14.9445 19.7596 15.3137 19.5647C15.8265 19.298 16.0316 19.4724 15.7547 20.0262C14.9547 21.3903 13.5189 22.4057 13.4265 24.1698C13.8881 25.4518 13.0676 26.5902 13.0266 27.821C13.0163 28.3748 12.6163 28.9492 13.1291 29.462L13.1599 29.4825Z" fill="#060708"/>
<path d="M42.831 -2.53756C43.3644 -2.34269 43.1695 -1.59398 43.7131 -1.40937C44.1336 -0.640147 43.8669 -0.301691 43.0362 -0.393997C42.5541 -0.455535 42.1234 -0.722198 41.6721 -0.906811C40.5849 -1.35809 39.4875 -1.39911 38.4106 -0.896554C36.9234 -0.199128 35.2619 0.170098 34.0824 1.43162C33.8568 1.74956 33.4978 1.8829 33.1901 2.09828C32.5748 2.4675 32.0004 2.90852 31.2927 3.06237C30.903 3.15467 30.3492 3.54441 30.1953 2.73417C31.2107 1.86238 31.3235 0.416249 32.2568 -0.506816C33.2824 -0.917067 33.8465 -1.92218 34.7696 -2.48628C35.6517 -3.0196 36.5132 -3.57344 37.5388 -3.79908C38.5337 -3.87087 39.5388 -3.89139 40.5336 -3.73754C40.9131 -3.70677 41.2208 -3.49139 41.5593 -3.35806C42.0823 -3.23499 42.1439 -2.39397 42.8413 -2.54781L42.831 -2.53756Z" fill="#4B4D54"/>
<path d="M33.1389 1.85204C33.344 1.65717 33.5491 1.47255 33.7543 1.27769C36.8927 -0.660751 42.5747 -0.52742 44.2772 1.3905C43.508 -1.59407 43.908 -4.76326 43.99 -7.90168C44.2464 -8.69142 44.1746 -9.60423 44.8721 -10.2299C45.6208 -10.1478 45.2721 -9.65551 45.231 -9.27602C44.5131 -6.88631 44.7593 -4.45557 44.9234 -2.02484C45.1798 -1.75817 45.2516 -1.44023 45.1798 -1.09152C45.2618 0.170007 45.9387 1.20589 46.4413 2.31357C46.6156 2.6828 47.0156 3.03151 46.6054 3.5033C46.1131 4.05714 45.7951 3.5033 45.4977 3.29817C42.1336 1.03153 38.544 0.71359 34.7389 1.93409C34.3286 2.06742 33.8773 2.07767 33.4466 2.14947C33.1697 2.23152 33.0876 2.1187 33.1389 1.85204Z" fill="#060708"/>
<path d="M25.7751 5.68799C26.452 6.28285 27.2828 6.44695 28.1443 6.54951C27.6828 7.4213 26.9854 6.86746 26.3802 6.84695C25.8879 6.81618 25.3238 6.32388 24.9444 6.99054C23.9598 8.72385 22.3803 9.48281 20.5034 9.7905C17.9086 10.3546 15.365 10.2418 12.924 9.11358C12.483 8.38539 11.4266 8.8059 10.9856 8.06744C10.524 7.39053 10.0523 6.72387 9.59072 6.04696C9.51893 5.86234 9.45739 5.66748 9.50867 5.46235C10.0215 5.00082 10.2881 5.73927 10.7087 5.7085C10.8728 5.80081 11.0163 5.92388 11.1189 6.08798C11.2112 6.24183 11.2625 6.42644 11.4369 6.51875C14.9342 9.45204 20.7906 9.4623 24.2777 6.53926C24.688 6.21106 24.6264 5.39055 25.4264 5.4726C25.57 5.50337 25.6828 5.57517 25.7751 5.68799Z" fill="#060706"/>
<path d="M43.9902 -7.90161C43.9902 -6.08625 44.0414 -4.28115 44.0107 -2.46578C43.9902 -1.07093 44.2261 0.252129 44.985 1.82134C41.1492 -0.168379 37.4569 0.036747 33.7544 1.27776C36.0621 -1.20426 39.7235 -2.06579 42.8004 -0.814524C43.5081 -0.527348 43.8158 -0.578629 43.7132 -1.40939C43.6414 -3.58372 43.3132 -5.75805 43.9902 -7.90161Z" fill="#252436"/>
<path d="M33.1393 1.85214C33.2418 1.9547 33.3444 2.04701 33.447 2.14957C33.447 2.24188 33.4367 2.33419 33.4264 2.42649C33.2213 3.0111 32.6777 3.15469 32.1752 3.30853C29.7752 4.03673 27.3752 4.52903 25.0163 3.16495C24.6163 2.97008 24.2676 2.71367 23.9496 2.41624C23.6112 2.08804 23.3035 1.71881 22.9958 1.3701C22.8522 1.97522 23.1907 2.43675 23.4266 2.92905C23.683 3.43161 24.1343 3.8316 24.1855 4.42647C24.1035 4.7239 24.0214 5.04184 23.5907 4.83672C22.4933 3.94442 21.9497 2.78546 21.9189 1.38035C21.7548 0.282932 21.5599 -0.824747 21.8369 -1.93242C21.9497 -2.37344 22.001 -3.05036 22.6368 -2.90677C23.1394 -2.79395 22.7497 -2.25037 22.7292 -1.90166C22.7189 -1.69653 22.7189 -1.52217 22.9138 -1.40935C24.0727 0.970102 25.8778 2.39572 28.5957 2.52906C29.1291 2.54957 29.6624 2.67264 30.1855 2.74444C31.4265 3.32905 32.0829 1.94445 33.129 1.8624L33.1393 1.85214Z" fill="#0D0D0D"/>
<path d="M45.18 -1.09145C44.8826 -1.34785 44.8621 -1.67605 44.9236 -2.02477C46.1134 -3.55295 47.6415 -2.68117 49.0466 -2.59912C48.5133 -2.24015 48.6979 -2.09656 49.2005 -1.94272C50.8825 -1.44016 52.2876 -0.496582 53.3645 0.908529C53.5286 1.46237 53.7543 1.99569 53.9902 2.51876C54.1748 3.17517 54.5645 3.83157 53.9902 4.48797C53.7748 4.54951 53.5697 4.71361 53.4158 4.35464C51.9697 0.836735 48.9749 -1.12221 45.1698 -1.08119L45.18 -1.09145Z" fill="#4B4D56"/>
<path d="M15.7956 16.252C14.2161 19.4212 11.8777 21.7391 8.45207 22.8467C7.84695 23.0416 7.24183 23.216 6.67773 22.7237C10.011 21.7904 12.6059 19.8827 14.3392 16.8673C15.0879 15.5648 15.2212 13.9956 16.0315 12.7033C16.5545 11.6982 16.1545 11.2161 15.1084 11.0931C14.8622 11.0623 14.452 11.1136 14.7084 10.652C14.8212 10.4572 15.0366 10.5392 15.2007 10.652C16.175 10.652 17.1494 10.6725 18.1237 10.6725C18.3186 11.0007 18.0007 11.0828 17.8366 11.2366C17.5494 11.2366 17.252 11.2366 16.9648 11.2366C16.5443 11.9854 17.0468 12.8469 16.6673 13.5956C16.3699 14.4776 16.0725 15.3597 15.7853 16.2417L15.7956 16.252Z" fill="#101010"/>
<path d="M58.1338 3.02128C57.8158 3.2982 57.4979 3.56486 57.1697 3.84178C56.9953 3.98537 56.8005 4.23152 56.5748 4.05717C56.2671 3.82127 56.6158 3.55461 56.6261 3.28794C56.4928 2.97 56.8107 2.87769 56.9235 2.67257C59.4568 0.713619 60.3696 0.693107 63.1183 2.36488C65.5593 3.84178 67.3952 5.85201 68.708 8.3648C68.4824 9.12377 68.267 8.693 68.0003 8.37506C67.0157 7.2161 66.226 5.88278 64.8619 5.09305C64.0927 4.99049 63.6106 4.40588 63.0568 3.97512C61.5696 2.82641 60.0107 2.15975 58.144 3.01102L58.1338 3.02128Z" fill="#0B0B0B"/>
<path d="M69.8773 32.1389C70.0414 32.9389 71.1696 32.5492 71.3542 33.3286C70.6567 33.7081 71.2413 34.0979 71.4054 34.3953C72.2157 35.8107 73.4977 36.4876 75.1182 36.6107C73.5593 39.1234 70.308 39.6157 67.9388 37.7286C67.7132 38.1491 67.4978 38.5696 67.2824 38.9901C67.1491 37.944 67.7029 37.1132 68.1337 36.2414C68.3491 36.1696 68.5337 36.2414 68.6465 36.4158C69.5388 37.667 70.708 37.7491 72.267 37.1542C71.0465 36.2107 70.2157 35.0825 69.8465 33.6466C69.7132 33.1235 69.426 32.6415 69.867 32.1492L69.8773 32.1389Z" fill="#0F0F11"/>
<path d="M54.0005 4.48796C54.1749 3.77002 53.6826 3.14439 53.7031 2.44696C53.4774 1.97518 53.4159 1.43159 53.1185 0.990573C51.6518 -0.650431 49.6929 -1.49145 47.5288 -2.14785C48.1134 -2.68117 48.6467 -2.34272 49.057 -2.58887C51.9698 -2.18887 53.98 -0.691457 54.8826 2.15979C55.1082 2.4162 55.0569 2.76491 55.1595 3.06234C55.1287 3.66746 55.3543 4.30335 54.9441 4.85719C54.78 5.08283 54.5749 5.37 54.2569 5.24693C53.939 5.12385 54.0518 4.76488 54.0005 4.48796Z" fill="#090909"/>
<path d="M65.5182 47.1028C63.8567 45.5439 63.7952 42.6208 65.4259 41.1542C66.0003 40.6414 66.1541 39.7388 67.0054 39.4927C66.4003 41.0003 65.4362 42.4157 65.7746 44.1798C65.0977 44.2618 65.2721 43.7183 65.1798 43.3901C65.1798 43.6977 65.2208 44.0157 65.3336 44.3234C65.3336 44.8259 65.2003 45.3285 65.3644 45.8311C65.4362 46.0772 65.3029 46.3336 65.4362 46.5695C65.4567 46.7439 65.4875 46.9182 65.508 47.1028H65.5182Z" fill="#151514"/>
<path d="M15.2109 10.652C15.2109 10.652 15.1186 10.652 15.0674 10.6827C14.9238 10.734 14.852 10.9289 15.0058 10.9186C16.4417 10.8981 16.8007 11.4725 16.0314 12.7032C16.3186 11.6571 15.693 11.4109 14.8417 11.2058C13.0674 10.775 11.3956 10.1802 10.9648 8.06738C11.4777 8.60071 12.3802 7.88277 12.8315 8.63148C12.7597 9.39044 13.4981 9.29814 13.8571 9.59557C14.2571 9.92377 14.852 9.94428 15.1802 10.4161C15.1802 10.4981 15.2007 10.5904 15.2109 10.6725V10.652Z" fill="#151619"/>
<path d="M77.8464 79.7176C78.5541 80.7843 78.4515 82.1484 79.1797 83.5022C79.5797 81.174 78.8823 79.1535 78.9746 77.1125C79.6207 78.1997 79.4874 79.4817 79.8669 80.6305C79.6617 81.6971 79.8361 82.8048 79.6105 83.8714C79.5079 84.2612 79.4053 84.6612 79.2925 85.0509C78.4925 83.3586 77.713 81.6561 77.8361 79.7176H77.8464Z" fill="#9CA8A8"/>
<path d="M65.1489 44.549C64.9643 43.8003 64.5951 43.0516 65.2515 42.2823C65.7028 42.8977 65.1284 43.6977 65.7746 44.1798C66.1848 45.3387 66.9643 46.1079 68.1233 46.5182C68.2976 46.7028 68.5746 46.6618 68.7592 46.8259C68.9028 46.949 69.0771 47.072 69.0053 47.2977C68.9027 47.6156 68.6258 47.5848 68.4207 47.4618C68.031 47.2259 67.5694 47.3387 67.1694 47.1438C66.472 47.1951 66.2669 46.4874 65.7746 46.2208C65.5079 46.0259 65.3438 45.7592 65.2002 45.4618C65.1695 45.1541 64.9131 44.8669 65.1284 44.549H65.1489Z" fill="#010100"/>
<path d="M71.0667 25.657C70.318 24.5185 70.8923 23.339 71.2513 22.3237C71.559 21.4416 72.6872 21.8519 73.4872 21.8724C73.1692 22.2519 72.6461 22.0057 72.2667 22.2826C73.0461 23.1442 73.1077 23.7698 71.7128 23.9442C70.4513 24.098 71.4974 25.1544 71.0769 25.6467L71.0667 25.657Z" fill="#323141"/>
<path d="M22.9133 -1.41971C22.3184 -1.70689 22.6569 -2.26073 22.5031 -2.712C21.5902 -1.45048 22.1441 0.026422 21.9184 1.38025C21.3544 0.190523 21.2928 -1.01972 21.7031 -2.27098C21.8774 -2.79405 22.0108 -3.40943 22.7287 -3.21456C23.4671 -3.01969 23.0672 -2.44534 22.9851 -2.00432C22.9543 -1.80945 22.9338 -1.62484 22.9031 -1.42997L22.9133 -1.41971Z" fill="#181818"/>
<path d="M14.8725 33.9132C14.1956 34.2927 14.6571 35.2465 13.9904 35.626C13.9904 34.8465 13.9904 34.067 14.0109 33.2978C14.0417 32.6004 13.5904 32.6722 13.1494 32.7132C13.4981 32.1696 14.1443 32.1389 14.6366 31.8414C15.0776 32.3235 15.1596 32.9183 15.1289 33.544C15.0879 33.6978 15.0058 33.8209 14.8725 33.9132Z" fill="#434243"/>
<path d="M11.1087 25.0723C10.8933 25.3595 10.8728 25.8108 10.4112 25.8928C9.60099 25.2877 8.70869 25.8005 7.85742 25.6774C8.73946 25.2774 9.61125 24.8774 10.4933 24.4774C11.1087 24.2518 11.3138 24.4569 11.1087 25.0723Z" fill="#54545A"/>
<path d="M10.4727 31.3081C10.4419 31.3901 10.4522 31.4722 10.5137 31.544C10.2163 31.9747 9.91884 32.3953 9.31372 32.3953C9.59064 31.3901 9.09834 30.3953 9.25219 29.3902C9.33424 28.8261 9.17014 28.2107 9.59064 27.7081C9.59064 28.6004 9.6009 29.4825 9.61115 30.3748C9.95987 30.6312 10.2368 30.9594 10.4727 31.3081Z" fill="#9E9D9E"/>
<path d="M11.4264 6.50849C11.3033 6.42644 11.1905 6.34439 11.0674 6.25208C10.6777 5.82132 10.9751 5.26748 10.811 4.78543C10.8213 3.9957 11.3751 3.54443 11.97 3.05212C11.9597 4.2316 11.1085 5.28799 11.4264 6.49823V6.50849Z" fill="#606060"/>
<path d="M67.1797 47.1438C67.7028 47.0002 68.1951 47.2054 68.7181 47.3182C68.8309 46.7951 68.1643 46.8874 68.1233 46.5284C68.7694 46.672 69.4156 46.8054 70.4207 47.031C69.1284 47.7489 68.1745 47.7695 67.1797 47.1541V47.1438Z" fill="#151514"/>
<path d="M23.6006 4.83669C23.8878 4.73413 24.0006 4.51874 24.0211 4.23157C24.8826 4.31362 25.3749 4.78541 25.539 5.63668C24.8826 5.59565 24.8621 6.45718 24.2878 6.52897C24.7595 5.68796 23.816 5.41104 23.6108 4.83669H23.6006Z" fill="#181818"/>
<path d="M78.6564 17.6775C78.6769 17.3391 78.5435 17.1339 78.1641 17.1852C78.523 16.4981 79.0769 15.9955 79.8256 15.3904C79.8256 16.5186 79.282 17.1237 78.6461 17.6775H78.6564Z" fill="#A2A2A2"/>
<path d="M8.15486 3.89307C7.61128 3.30846 7.95999 2.66232 7.82666 1.75977C8.65742 2.37514 8.69844 2.99052 8.71896 3.61615C8.5446 3.73923 8.34973 3.81102 8.15486 3.88281V3.89307Z" fill="#C5C5C5"/>
<path d="M55.1594 3.05209C54.9235 2.79568 54.7902 2.50851 54.8825 2.14954C55.3748 3.05209 56.2568 2.45722 56.9235 2.67261C56.8209 2.87773 56.7286 3.08286 56.6261 3.28798C56.0927 3.4726 55.5594 3.69823 55.1594 3.05209Z" fill="#4B4B53"/>
<path d="M72.5335 50.0565C72.2668 49.4719 71.7437 49.9437 71.3745 49.7899C71.9899 49.195 72.7899 49.154 73.6309 48.9386C73.5078 49.6873 73.0771 49.9335 72.5335 50.0565Z" fill="#969596"/>
<path d="M66.6257 48.9489C66.3283 48.3438 66.0308 47.7387 65.7231 47.1335C66.4206 47.431 66.8103 48.2207 67.6924 48.1284C67.4872 48.8771 66.5642 48.0874 66.6257 48.9386V48.9489Z" fill="#E4E3E3"/>
<path d="M12.2779 54.2309C10.9754 54.6719 10.0421 54.3642 9.69336 52.9181C10.6882 53.0822 11.0985 54.4155 12.2779 54.2309Z" fill="#BFB339"/>
<path d="M8.15497 3.89309C8.21651 3.53412 8.38061 3.40079 8.71907 3.62643C8.89342 3.92386 9.06778 4.23155 9.24214 4.52898C9.09855 4.70334 8.93445 4.84692 8.6883 4.83667C8.31907 4.63154 8.08318 4.35462 8.16523 3.89309H8.15497Z" fill="#6E6E6D"/>
<path d="M10.7904 5.91353C10.2263 6.00584 10.0109 5.47251 9.63143 5.24687C9.34425 5.18534 9.18015 5.052 9.36476 4.73406C9.87758 4.66227 10.1237 5.82123 10.7801 5.04175C11.016 5.32892 11.0058 5.6161 10.7904 5.91353Z" fill="#606060"/>
<path d="M9.35465 4.73409C9.44695 4.90845 9.529 5.07255 9.62131 5.24691C9.61105 5.51357 9.59054 5.76998 9.58028 6.03664C9.25208 5.65716 8.69824 5.44177 8.68799 4.8264C8.80081 4.60076 8.99568 4.50845 9.24183 4.51871C9.29311 4.58025 9.32388 4.65204 9.35465 4.73409Z" fill="#232323"/>
<path d="M7.00596 53.6052C7.08801 54.3232 7.47775 55.1744 6.29828 55.3898C6.26751 54.6821 6.48289 54.0873 7.00596 53.6052Z" fill="#F0E140"/>
<path d="M65.4461 45.3797C65.5589 45.6566 65.6717 45.9438 65.7948 46.2207C65.682 46.3335 65.5589 46.4566 65.4461 46.5694C65.3435 46.3745 65.2307 46.1797 65.1282 45.9746C65.0871 45.6874 64.8923 45.3284 65.4461 45.3797Z" fill="#B8B8B9"/>
<path d="M10.7907 5.91359V5.04181C10.7497 4.9495 10.76 4.86745 10.8215 4.7854C11.242 5.21616 11.0061 5.75975 11.0779 6.25205C10.9856 6.13923 10.883 6.02641 10.7907 5.91359Z" fill="#232323"/>
<path d="M26.9545 35.0414C27.0263 34.4466 26.9237 33.9338 26.3596 33.6056C26.2468 33.5132 26.1135 33.4415 26.0211 33.3389C25.7032 32.9594 25.016 32.7543 25.2212 32.1081C25.4058 31.5338 26.0622 31.7902 26.4827 31.5851C30.0621 29.0825 32.0211 25.6877 32.0724 21.2775C32.0724 20.8467 32.0929 20.5185 32.4518 20.2621C34.1339 19.0622 35.0569 17.2468 36.2261 15.6366C37.621 13.7289 39.1389 12.4571 41.8466 12.8879C43.4363 13.1443 43.9184 14.3238 44.9132 15.0725C44.9132 15.1545 44.9132 15.2366 44.9132 15.3186C45.0568 15.5135 45.1286 15.7186 45.0876 15.9545C44.7183 16.775 43.9594 16.6417 43.3132 16.6109C42.1132 16.5494 41.1492 17.0006 40.2056 17.6776C37.4877 19.657 35.4467 22.0467 34.6364 25.4518C34.1133 27.6261 32.6775 29.462 31.6929 31.462C31.1595 32.5492 29.9801 33.0415 28.8929 33.4722C28.0929 33.7902 27.4057 34.0979 27.416 35.1132C27.416 35.3081 27.1801 35.4004 26.975 35.4107C26.8314 35.2978 26.8211 35.1748 26.9545 35.0414Z" fill="#EFBB97"/>
<path d="M69.8772 32.1389C70.1028 34.303 71.0567 36.0261 73.0054 37.1748C70.4618 38.3132 69.467 38.3132 68.1336 36.2414C67.7234 35.503 68.2465 34.6415 67.8362 33.8928C67.2106 32.3543 66.749 30.7133 65.1901 29.78C65.108 29.2467 64.6055 28.8774 64.585 28.3133C65.2414 28.3646 65.5491 28.0774 65.4875 27.421C65.6414 27.1544 66.0619 27.8518 66.0003 27.3698C65.6414 24.6724 66.4208 22.1288 66.9952 19.5647C67.3952 17.7801 67.5901 16.0058 67.2106 14.1904C67.6721 16.5186 67.1798 18.7647 66.667 21.0006C66.267 22.7134 65.8055 24.416 65.8875 26.2006C65.908 26.6416 65.8567 27.0826 65.4978 27.421C64.8003 25.5954 65.3132 23.8211 65.6721 22.0262C66.0516 20.1288 66.6055 18.2724 66.6875 16.3135C66.7388 14.8366 66.4824 13.5238 65.4055 12.4366C65.1798 12.211 65.0978 11.852 64.9029 11.452C65.6619 11.2879 66.0926 11.6571 66.4619 12.0879C67.108 12.8469 67.4977 12.5289 67.8567 11.8418C68.2157 12.4879 67.7336 13.2571 68.1644 13.893C68.3695 14.5802 68.6157 15.2571 68.5439 15.9956C68.4311 17.1032 68.6772 18.1596 69.0259 19.1955C67.9388 19.1955 67.8977 19.7904 68.5747 20.3032C69.9285 21.3186 69.6926 22.5698 69.467 23.9339C69.1593 25.739 69.6721 27.4826 69.9695 29.2364C70.031 29.6056 70.308 29.9441 70.0516 30.4877C69.3439 29.2979 69.0977 28.0467 68.7182 26.8364C68.349 25.6877 68.8311 24.457 68.3798 23.1955C67.2311 25.0416 67.8977 26.8262 68.1336 28.6005C68.6362 29.821 68.8721 31.1748 69.8772 32.1389Z" fill="#242335"/>
<path d="M57.4977 16.8467C57.3028 15.4211 57.8772 13.7801 56.0824 12.8365C54.749 12.1391 53.7132 10.8571 52.0927 10.8468C52.0004 10.3853 52.2465 10.2007 52.4721 10.0263C54.7388 8.23146 58.8003 8.1289 61.1079 9.80067C61.231 9.88272 61.3643 9.95452 61.4566 10.0571C61.9387 10.6007 62.6669 11.3289 62.2977 11.9135C61.8977 12.5288 61.0772 11.9135 60.4413 11.6776C59.7336 11.4109 59.2105 10.7545 58.2772 10.6622C58.4003 10.8981 58.431 11.0314 58.5131 11.1135C59.6823 12.2929 60.6874 13.3801 60.2464 15.3903C59.8772 17.0621 60.0926 18.898 60.2259 20.6518C60.349 22.3441 60.9438 23.9441 62.0412 25.7594C61.0669 25.3287 60.472 25.062 59.8669 24.7954C58.8515 24.7543 58.6464 24.0364 58.5336 23.2261C58.6362 22.2415 58.6874 21.2569 58.4413 20.2826C58.431 20.1185 58.4208 19.9646 58.4208 19.8005C58.2875 18.1288 58.2772 16.457 58.308 14.7955C57.9695 16.7339 58.4003 18.6211 58.4208 20.5287C58.4105 20.8672 58.3387 21.1646 57.9798 21.298C57.0054 19.9031 57.0977 18.3852 57.4875 16.8467H57.4977Z" fill="#4C4F57"/>
<path d="M61.0773 29.4723C60.585 29.8825 60.4004 30.6312 59.5799 30.6723C58.8107 30.703 60.0107 31.4312 59.3132 31.544C59.0671 31.5338 58.8517 31.4722 58.7184 31.2466C58.1953 30.7235 57.5286 31.062 56.9338 30.9389C57.2927 29.8415 58.3389 30.2107 59.2312 29.8825C57.3645 29.1338 56.2876 27.7492 55.3748 26.1595C55.9492 27.1441 56.6876 28.0467 56.8927 29.2056C56.8825 29.5133 56.7902 29.7697 56.462 29.8928C56.2363 29.9236 56.0415 29.8415 55.8774 29.6774C55.5799 29.3492 55.4364 28.9287 55.221 28.5492C55.0569 28.2723 54.9851 27.821 54.5543 27.8928C54.1441 27.9544 54.1646 28.3954 54.0518 28.7031C53.6723 29.7697 52.8723 30.4774 51.9492 31.0723C51.0364 31.1235 51.2723 30.5184 51.3338 30.0159C51.3646 29.8723 51.4159 29.7287 51.4774 29.5954C52.8723 27.9441 53.0979 25.7595 54.0005 23.8826C54.4518 23.4416 54.3287 22.8672 54.2774 22.3544C54.0415 19.9955 54.9543 17.6263 54.0723 15.2673C55.1184 16.6109 55.4979 18.1186 55.4569 19.7288C55.3953 22.1903 55.5287 24.5288 57.0774 26.6723C58.1235 28.1287 59.5491 28.7646 61.0465 29.4415L61.0773 29.4723Z" fill="#090A0D"/>
<path d="M51.672 29.78C51.6207 29.8518 51.6104 29.9235 51.6207 30.0056C51.313 30.4876 51.231 31.062 51.0258 31.5851C50.7797 31.9338 50.4925 32.1081 50.0823 31.8312C49.7028 31.0312 50.0412 30.2723 50.3181 29.5646C51.7438 25.8826 50.9233 22.3749 49.5694 18.898C48.8618 17.0929 47.6823 15.9545 45.5695 16.2109C45.3233 16.2417 45.0874 16.1494 44.9028 15.9648C44.9028 15.7494 44.9131 15.5442 44.9233 15.3289C46.0105 15.2673 46.9541 14.334 48.1233 14.8263C49.631 14.8878 50.3694 16.0263 51.1489 17.0519C51.8874 18.0263 52.3797 19.1339 52.6155 20.3442C52.9027 22.3954 53.2104 24.4467 52.5745 26.498C52.3079 27.6056 52.154 28.7441 51.672 29.8005V29.78Z" fill="#EAB795"/>
<path d="M25.5288 5.63667C25.0263 5.16488 24.5237 4.70335 24.0109 4.23156C23.5494 3.95464 23.4161 3.44183 23.1494 3.01106C22.9135 2.77517 23.0058 2.48799 23.0161 2.21107C23.252 1.9239 23.4981 2.05723 23.7443 2.19056C24.1237 2.37517 24.3494 2.86748 24.8827 2.73414C27.7955 4.2931 30.616 3.51362 33.4262 2.4162C33.5698 2.4162 33.7236 2.4162 33.8569 2.44697C34.0005 2.47774 34.0723 2.52902 33.9698 2.72389C32.8006 4.74437 29.7647 5.92385 28.175 5.6059C27.334 5.4418 26.5647 5.54436 25.7647 5.66744C25.6827 5.64693 25.6006 5.62641 25.5186 5.61616L25.5288 5.63667Z" fill="#4B4D56"/>
<path d="M51.6722 29.7799C51.6516 28.662 51.8978 27.5851 52.226 26.5287C52.3901 26.6517 52.4824 26.8158 52.5029 27.021C52.6055 26.9287 52.5542 26.8056 52.5747 26.6928C53.0773 24.4672 52.8003 22.2415 52.5747 20.0159C52.9439 18.8672 52.4824 17.8519 52.0619 16.8365C51.7234 16.2519 51.4978 15.5442 50.6363 15.5237C49.8465 15.0622 48.944 14.7442 48.4312 13.9032C48.4312 13.7186 48.3799 13.4109 48.4414 13.3801C49.6311 12.8776 51.9901 13.7699 52.626 14.9698C53.7439 17.0826 53.9901 19.38 54.0106 21.7185C54.0106 22.4467 54.0106 23.1749 54.0208 23.9031C53.7849 26.0774 53.1901 28.1184 51.6722 29.7799Z" fill="#4B4B53"/>
<path d="M58.7388 23.2775C58.8618 23.9749 59.3439 24.4057 59.8772 24.7954C60.8515 26.7646 62.6669 27.6056 64.5848 28.3133C65.1182 28.662 65.4874 29.0825 65.19 29.78C64.1438 29.2364 63.0259 29.5954 61.9387 29.4825C62.2669 29.3287 62.5951 29.1646 63.0054 28.9697C57.7029 26.2723 56.4208 21.7288 57.0362 16.3032C57.3952 16.2827 57.2208 16.7853 57.4977 16.8673C57.5798 18.3545 57.4772 19.8622 58.1234 21.2673C58.308 21.3493 58.4208 21.5032 58.5234 21.6673C58.5849 21.7801 58.6362 21.8929 58.667 22.016C58.6157 22.4467 58.9952 22.857 58.7285 23.298L58.7388 23.2775Z" fill="#09090B"/>
<path d="M24.9237 21.5544C24.3494 23.4518 23.6622 25.298 22.8212 27.0826C22.0725 26.8569 22.4622 26.3544 22.5238 25.9236C22.5135 25.4723 22.5032 25.0211 22.493 24.5595C22.3699 24.3544 22.3904 24.1493 22.452 23.9339C23.0058 23.6877 22.9545 24.0775 22.975 24.4159C23.0161 23.257 23.0571 22.098 23.2314 20.9391C23.3443 20.1698 23.6827 19.2878 22.8827 18.6314C22.8725 18.4263 22.852 18.2211 22.8417 18.0263C22.9853 16.7853 24.0314 16.1801 24.6981 15.2468C24.2571 17.4109 25.0878 19.4724 24.934 21.5647L24.9237 21.5544Z" fill="#4B4D56"/>
<path d="M27.857 10.97C27.6211 11.7392 27.2519 12.2828 26.3493 12.5187C25.5083 12.734 24.8622 13.1443 25.2006 11.6982C24.4827 11.9443 24.5135 12.734 23.8776 12.8161C23.5186 12.293 24.1545 11.9443 24.1135 11.4623C23.7955 11.0828 23.5801 11.7905 23.293 11.5956C23.9289 8.94947 26.0211 9.52382 27.8468 9.49305C28.0826 9.98535 28.0621 10.4777 27.8673 10.97H27.857Z" fill="#464851"/>
<path d="M39.3235 7.17507C37.5799 8.31352 37.5594 6.16996 36.3081 5.75971C38.5542 5.13407 40.4209 4.12896 42.5337 4.50844C43.6824 4.71357 44.8208 5.09305 44.8618 6.60072C44.2054 6.75457 43.7747 6.25201 43.2619 6.01611C41.3029 5.12382 39.9491 5.51356 39.3235 7.17507Z" fill="#50525A"/>
<path d="M39.3238 7.17511C38.4007 7.15459 38.7084 6.72383 39.0366 6.29307C39.8776 5.18539 41.375 4.84693 42.9955 5.50333C43.6519 5.77 44.2365 6.23153 44.8622 6.60075C44.9955 6.92895 45.1186 7.25716 45.2724 7.63664C43.293 7.10331 41.3545 6.45717 39.3238 7.17511Z" fill="#F5F5F6"/>
<path d="M48.4312 13.8929C49.303 14.2416 50.0517 14.7852 50.7697 15.3801C51.662 15.6467 51.8363 16.498 52.2363 17.1544C52.4312 17.8723 52.9132 18.5082 52.8107 19.298C52.6466 19.5851 52.862 20.1595 52.2158 20.0774C51.4671 17.8416 50.3081 15.9237 48.1133 14.8057C47.5287 14.0673 46.6159 14.7647 45.9082 14.2724C46.5954 13.0314 47.5902 13.975 48.421 13.8827L48.4312 13.8929Z" fill="#100E0D"/>
<path d="M58.1338 3.02128C59.9902 1.74951 61.3748 1.99566 63.6722 4.0264C64.0722 4.37511 64.4619 4.74434 64.8517 5.11357C64.7286 5.1751 64.5645 5.30844 64.4927 5.27767C62.503 4.15973 60.2774 3.67769 58.1235 3.03154L58.1338 3.02128Z" fill="#4A4B53"/>
<path d="M20.5034 20.375C20.1752 21.6775 19.7034 22.9083 18.7085 23.8723C18.5444 23.7082 18.5034 23.5031 18.5239 23.2877C18.8624 21.8519 19.6726 20.5083 19.3649 18.9391C19.8367 17.6058 20.6572 16.4776 21.488 15.3083C21.129 17.0006 20.247 18.5904 20.5034 20.375Z" fill="#41434D"/>
<path d="M15.1906 10.3956C14.1854 10.2827 13.3444 9.83146 12.6367 9.13403C12.3291 8.82634 12.4214 8.64173 12.8521 8.62122C15.2624 9.95453 17.888 9.80069 20.5033 9.79043C19.6008 10.734 18.4213 10.293 17.3546 10.375C16.6367 10.4366 15.9085 10.3956 15.1906 10.4058V10.3956Z" fill="#41434A"/>
<path d="M32.8726 10.9904C32.9546 10.7135 32.9956 10.416 33.1187 10.1699C33.3956 9.6058 33.8674 9.12376 34.4828 9.35965C35.0879 9.58529 34.9546 10.2725 34.8007 10.7853C34.5033 11.7494 34.4931 12.8263 33.7546 13.6263C33.3854 13.3904 33.4059 12.9596 33.2623 12.6109C33.2213 12.4878 33.1905 12.3647 33.1597 12.2417C33.0161 11.8314 33.2623 11.3391 32.8623 10.9904H32.8726Z" fill="#4B4D56"/>
<path d="M46.2261 5.51355C48.585 5.94431 49.2209 6.7443 48.8209 8.92889C48.0825 7.59557 46.7594 6.9084 46.2261 5.51355Z" fill="#494A53"/>
<path d="M28.4211 19.7493C28.175 20.4775 27.0981 20.4057 26.9647 21.2467C27.0058 20.1596 26.6673 19.1442 26.4519 18.0981C26.3494 17.6058 26.1135 16.9904 26.9545 16.8365C27.857 17.6058 27.3442 18.9391 28.134 19.7596C28.2263 19.7596 28.3288 19.7596 28.4211 19.7493Z" fill="#0D0D10"/>
<path d="M31.9493 15.8108C31.1493 15.0314 32.5236 14.5903 32.2467 13.8827C32.4723 13.6878 32.38 13.3904 32.4723 13.1545C32.6467 12.7237 32.3288 11.6365 33.4364 12.416C33.6518 12.9083 33.6416 13.4109 33.4364 13.9032C33.0877 14.6519 32.6775 15.3596 31.939 15.8006L31.9493 15.8108Z" fill="#DBDADC"/>
<path d="M28.1341 19.7596C27.6725 20.0365 27.5597 19.7698 27.4777 19.3801C27.3136 18.5288 27.1289 17.6878 26.9546 16.8468C27.0879 16.6519 27.1802 16.334 27.3546 16.293C27.7238 16.2109 27.611 16.6212 27.652 16.7853C27.8777 17.7699 28.2264 18.7339 28.1341 19.7698V19.7596Z" fill="#3D3E47"/>
<path d="M19.3651 18.9288C20.2266 18.9596 19.9394 19.6058 19.8369 19.9852C19.5189 21.1032 19.1087 22.1903 18.7394 23.2878C18.4523 23.339 18.3189 23.2262 18.3805 22.9185C18.5138 22.3749 18.6574 21.8416 18.7907 21.298C19.0164 20.5083 19.1087 19.6775 19.3753 18.8981V18.9186L19.3651 18.9288Z" fill="#ACACAE"/>
<path d="M26.3701 6.84687C26.9547 6.74431 27.6214 7.08276 28.1342 6.54944C29.1085 6.54944 30.0726 6.54944 31.047 6.54944C29.5085 7.25712 27.9598 7.39045 26.3701 6.84687Z" fill="#0E0F16"/>
<path d="M16.9957 25.6774C16.9649 25.4312 16.9136 25.2056 16.6777 25.062C16.7803 24.1184 17.4982 23.503 17.9085 22.7236C18.0213 22.5184 18.0931 22.8877 18.1546 23.0107C18.4726 23.4415 18.2469 23.8312 18.0931 24.2312C17.7136 24.6928 17.8162 25.5338 16.9957 25.6671V25.6774Z" fill="#18191E"/>
<path d="M70.4618 15.1032C69.6208 14.0674 69.4156 12.7648 68.9849 11.5443C70.2156 12.4264 70.2259 13.811 70.4618 15.1032Z" fill="#252430"/>
<path d="M28.144 10.9597C28.5338 10.8059 28.3287 10.0264 28.9748 10.1495C29.0671 10.17 29.221 10.3649 29.2004 10.4366C29.0261 11.0007 29.0466 11.6982 28.3081 11.9238C28.0517 11.6264 28.1851 11.2777 28.144 10.9495V10.9597Z" fill="#383946"/>
<path d="M33.4366 12.4161C32.4315 12.0469 33.0776 13.2263 32.575 13.3187C32.2058 12.8366 32.175 12.3443 32.5238 11.8418C32.6366 11.5546 32.7494 11.2674 32.8725 10.9802C33.8058 11.1648 33.2725 11.9238 33.4468 12.4161H33.4366Z" fill="#8D8E92"/>
<path d="M32.5236 11.8417L32.5749 13.3186C32.4621 13.5032 32.3595 13.6878 32.2467 13.8827L32.0929 13.257C31.9493 13.3699 31.7954 13.4724 31.6519 13.5852C31.7749 12.9186 31.6519 12.1391 32.5134 11.8314L32.5236 11.8417Z" fill="#15161B"/>
<path d="M17.7955 24.1697C17.9186 23.78 18.0314 23.4005 18.1545 23.0108C18.2263 22.98 18.2981 22.9492 18.3698 22.9287C18.4929 23.0518 18.616 23.1749 18.7288 23.2979C18.7288 23.4825 18.7186 23.6774 18.7083 23.862C18.575 24.1184 18.4211 24.3543 18.2673 24.5902C18.1647 24.7646 18.0109 24.8569 17.816 24.6825C17.6519 24.5287 17.7237 24.3441 17.7852 24.1697H17.7955Z" fill="#838488"/>
<path d="M31.3747 14.1904C31.3747 15.0007 31.026 15.6673 30.4927 16.2417C30.4927 15.4314 30.8414 14.7648 31.3747 14.1904Z" fill="#15161B"/>
<path d="M19.3649 18.9083C19.3342 19.7493 19.1906 20.5596 18.7803 21.3083C18.688 20.4365 18.8214 19.6263 19.3649 18.9083Z" fill="#41434D"/>
<path d="M31.0161 17.1032C31.252 16.6109 31.2622 15.9545 31.9597 15.7904C32.1443 16.4673 31.611 16.8776 31.3546 17.3801C31.0674 17.4929 30.9648 17.3904 31.0161 17.1032Z" fill="#939497"/>
<path d="M16.6879 13.616C16.811 12.8365 16.3803 11.9853 16.9854 11.2571C16.852 12.0366 17.252 12.8878 16.6879 13.616Z" fill="#151619"/>
<path d="M17.8472 11.2468C17.9395 11.0622 18.0318 10.8674 18.1343 10.6827C18.4215 10.6827 18.7087 10.6827 19.1395 10.6827C18.76 11.2366 18.319 11.2571 17.8574 11.2468H17.8472Z" fill="#151619"/>
<path d="M31.0158 17.1031C31.1286 17.1955 31.2414 17.2878 31.3542 17.3801C31.2004 17.8416 30.8824 18.1493 30.4106 18.3031C30.544 17.8724 30.6568 17.4211 31.0158 17.1031Z" fill="#44454B"/>
<path d="M27.8569 10.9699C27.8569 10.4776 27.8467 9.98534 27.8364 9.49304C28.339 9.89304 28.0723 10.4571 28.1339 10.9597C28.0415 10.9597 27.9492 10.9597 27.8467 10.9699H27.8569Z" fill="#383946"/>
<path d="M33.4468 13.9134C33.4468 13.4211 33.4468 12.9186 33.4468 12.4263C33.8775 12.7442 33.6622 13.2263 33.7647 13.6263C33.6622 13.7186 33.5596 13.8211 33.457 13.9134H33.4468Z" fill="#8D8E92"/>
<path d="M66.0617 75.8716C66.0617 73.0512 66.1335 70.6717 66.8719 68.3538C67.2309 67.2359 66.6771 66.4359 65.795 65.8615C64.9643 65.3282 64.1848 65.3179 63.2309 65.9025C61.0669 67.2359 59.1284 68.7025 58.2361 71.2255C57.949 72.046 57.19 71.8717 56.5951 71.7178C55.7234 71.482 54.8823 71.4512 54.0003 71.6461C52.7593 71.923 51.9285 72.5076 51.5798 73.8409C51.1901 75.3383 50.1952 76.5178 49.0055 77.5126C48.7799 77.6973 48.585 77.9742 48.2568 77.8408C47.9594 77.7178 47.8363 77.4408 47.8773 77.1229C48.1029 75.3383 48.3696 73.564 48.5645 71.7794C48.8209 69.3076 49.8568 67.3384 51.6414 65.5436C53.9695 63.1949 56.0516 60.5898 58.1849 58.0565C59.2925 56.7437 60.9335 56.6616 62.3387 56.0668C62.9233 55.8206 63.2822 56.3745 63.6104 56.8155C66.1335 60.1693 68.2873 63.7692 70.4411 67.3692C70.6668 67.7384 70.8719 68.1794 70.9026 68.5999C71.118 72.4666 72.9539 75.9024 73.7949 79.6049C74.0103 80.5485 74.1026 81.5331 74.3898 82.4562C74.6154 83.1844 74.2564 83.3997 73.7539 83.6869C70.8821 85.3279 69.2514 84.7638 67.4258 81.6152C66.3078 79.6767 65.7745 77.6562 66.0617 75.8614V75.8716Z" fill="#E5E9EA"/>
<path d="M54.9646 72.6511C55.7954 72.569 56.7082 72.7331 57.5492 73.1639C58.3902 73.5946 58.821 73.3382 58.9748 72.4459C59.4158 69.9024 61.0568 68.1896 62.985 66.7127C63.8055 66.087 64.8516 65.7999 65.7234 66.3947C66.5337 66.9486 66.1337 67.9127 65.9388 68.7127C65.1183 72.087 64.2055 75.4305 62.8824 78.651C62.7594 78.9484 62.7081 79.3279 62.7594 79.6458C63.2004 82.2612 62.0619 84.1791 60.103 85.7483C59.1492 86.5073 58.2363 87.3278 57.2825 88.0868C55.3748 89.6149 52.9646 89.3483 51.0159 87.9021C48.9749 86.3945 48.0006 84.5791 48.1544 82.0868C48.1852 81.574 48.2262 80.9894 48.6467 80.7638C49.7647 80.1689 50.0826 79.2253 50.2364 78.0766C50.3288 77.3792 50.7903 76.7536 51.5082 76.5895C52.4005 76.3946 52.339 75.8305 52.3287 75.1639C52.3185 72.8459 52.5441 72.6408 54.9543 72.6613L54.9646 72.6511Z" fill="#030202"/>
<path d="M37.2516 68.5896C34.7081 67.4512 32.544 65.7691 30.8517 63.6051C28.1235 60.1179 25.3851 56.6 24.2979 52.1488C23.9903 51.3181 24.6261 51.2463 25.139 51.1642C26.062 51.0206 26.9646 50.8155 27.8671 50.5899C30.9645 49.7899 32.3389 48.0668 32.4517 44.8566C32.4619 44.5181 32.4517 44.1694 32.5543 43.8412C32.8107 43.031 33.2414 42.9489 33.7953 43.5848C34.0209 43.8412 34.1645 44.1592 34.3183 44.4669C35.0568 45.8822 36.0722 47.0309 37.3542 47.995C38.0106 48.4873 38.6875 48.7848 39.508 48.7848C41.4567 48.7848 43.4259 48.9591 45.231 47.954C45.7438 47.6668 46.3592 47.6771 46.9438 47.5848C49.1592 47.2258 50.9643 46.1079 52.4104 44.4258C53.1489 43.5643 53.3437 42.5079 53.3232 41.4002C53.2924 40.0669 53.5694 38.7746 53.8976 37.4926C54.0514 36.908 54.277 36.2721 54.954 36.2311C55.7129 36.1798 55.795 36.9182 55.9796 37.4516C56.3078 38.3644 56.3078 39.3798 56.8411 40.231C57.2616 41.031 57.7437 41.0515 58.5847 40.6823C59.5898 40.2413 59.5283 39.6259 59.2719 38.8259C59.1795 38.2516 58.9231 37.708 59.0462 37.1029C59.6616 35.308 60.8308 33.9747 62.4821 33.0927C64.0308 32.2619 65.0872 32.7337 65.6615 34.3952C66.5641 37.0106 64.5333 41.1541 61.9795 41.4002C61.2103 41.472 60.4821 41.831 59.8052 42.231C59.0872 42.6515 58.6257 43.2259 58.6052 44.1079C58.5437 46.8873 57.1898 49.0207 55.2206 50.836C54.8822 51.154 54.5335 51.3796 54.0514 51.3078C53.5694 51.236 53.354 51.554 53.1796 51.9232C51.3848 53.8719 50.2566 56.1795 49.5899 58.7231C49.3028 61.6666 47.8156 63.9538 45.5284 65.6871C43.108 67.5332 40.4926 68.9691 37.2619 68.5896H37.2516Z" fill="#F5D2B3"/>
<path d="M44.9028 15.9545C48.2771 15.4314 49.6514 17.1134 50.8822 21.2569C52.0001 25.0107 50.9847 28.3338 50.1745 31.8107C50.0924 31.9235 49.9899 31.985 49.8668 32.0158C49.4976 32.4773 48.8412 32.0363 48.4617 32.4671C46.1438 33.1029 43.8156 33.6773 41.4259 33.9337C41.2413 34.026 40.9849 34.0978 40.8823 33.9337C40.5746 33.4619 41.0567 33.3286 41.3233 33.226C42.749 32.6824 44.0925 31.985 45.4464 31.2978C45.7951 31.1235 46.1438 30.9286 46.4925 30.7645C47.7232 30.1697 48.0002 29.1953 47.6617 27.9543C47.3848 27.6056 47.1386 27.8928 46.9438 28.0363C46.0925 28.6517 45.2002 28.7235 44.2566 28.2722C42.8823 27.5338 41.7746 28.4979 40.5644 28.8568C39.8772 28.9697 39.3028 30.1697 38.4823 29.0825C38.2157 29.2876 37.9182 29.4517 37.6413 29.6363C36.1644 30.6312 35.4055 32.0978 35.7234 33.3286C35.8772 33.4619 36.0619 33.5029 36.2362 33.5747C36.6362 33.7491 37.0977 33.9234 36.9439 34.467C36.8208 34.9183 36.3901 34.8875 35.9901 34.9183C35.6311 34.9388 35.2208 34.7542 34.9132 35.0927C32.3696 35.4824 29.8363 35.8721 27.2927 36.2619C27.0774 36.3952 26.7902 36.4362 26.6876 36.2003C26.544 35.8721 26.7492 35.585 27.0363 35.3798C26.9748 33.9234 27.8774 33.3696 29.0979 32.9388C30.8004 32.3337 31.4568 30.8158 32.3901 29.3389C34.2055 26.4774 34.3901 22.9082 36.667 20.3134C38.0618 18.7236 39.7234 17.4724 41.5079 16.3852C41.8772 16.1596 42.4618 16.2929 42.9336 16.2314C43.59 16.1493 44.3079 16.4878 44.8925 15.9442L44.9028 15.9545Z" fill="#F5D2B3"/>
<path d="M56.6872 40.6413C55.7436 39.708 55.959 38.3644 55.518 37.2567C55.3949 36.9491 55.4667 36.4568 55.0565 36.4465C54.636 36.4465 54.4103 36.8362 54.3283 37.2465C54.1231 38.2926 53.6719 39.3695 53.7642 40.3952C54.1334 44.3131 51.8668 46.4874 48.6566 47.4617C45.9797 48.2822 43.3028 49.3284 40.3079 49.2566C37.99 49.2053 36.6157 48.0463 35.2311 46.59C34.349 45.6669 33.9593 44.4156 33.2414 43.4208C32.8516 43.5233 32.8414 43.7797 32.8516 44.0156C33.2516 49.6976 29.3953 50.9386 25.5594 51.5027C25.0569 51.5745 24.421 51.3386 24.2876 52.1386C23.7748 51.6053 23.7953 50.8155 23.2928 50.2412C22.5646 49.4309 23.0774 48.9386 23.9287 49.0002C24.7697 49.0617 25.5594 48.9489 26.3594 48.8258C27.4055 47.954 28.8927 47.913 29.8876 46.8566C30.6055 46.0874 31.0773 45.3695 30.9952 44.2925C30.8927 42.9797 30.9952 41.6567 30.944 40.3336C30.9234 39.6259 30.8619 38.908 31.8465 38.8157C32.7286 38.7336 33.5183 38.8054 33.8465 39.8311C34.2978 41.2259 34.7696 42.6105 35.3644 43.9541C36.0413 45.5028 37.067 46.3335 38.7798 46.5182C40.2464 46.672 41.6925 46.8259 43.1387 46.5182C44.5951 46.3541 46.0617 46.3643 47.4771 45.8618C49.1591 45.2566 50.154 44.1592 50.3899 42.3644C50.677 40.1388 51.1591 37.9337 51.2206 35.667C51.2206 35.3183 51.2309 34.8773 51.5591 34.7542C53.118 34.1491 54.4616 32.8671 56.3282 33.2055C56.8205 34.3132 56.7898 35.5747 57.3949 36.6516C57.6718 38.0772 57.7026 39.4516 56.677 40.6413H56.6872Z" fill="#EFBB97"/>
<path d="M37.252 68.5897C42.0519 68.1487 45.7544 65.8718 48.3903 61.8616C49.0364 60.8872 48.5339 59.5334 49.3339 58.5796C49.8979 59.0001 50.0005 58.477 50.1236 58.1488C50.8723 56.1796 51.7338 54.2719 53.0877 52.6309C53.4466 52.2002 53.3235 51.954 52.8312 51.8002C53.0364 51.1027 53.2312 50.4053 54.1953 50.9591C54.3902 51.072 54.544 51.0822 54.7081 50.8976C56.4312 49.0207 58.1235 47.113 58.2466 44.3746C58.3286 42.5695 58.7901 41.8413 60.6158 41.5439C62.8721 41.1644 64.308 40.0157 65.1183 37.8824C65.5285 36.8157 65.5798 35.7593 65.3644 34.7235C64.9952 32.9286 64.1131 32.5799 62.4824 33.4722C60.9645 34.3029 60.0414 35.667 59.2619 37.1439C58.4004 36.8773 59.1389 36.4363 59.1389 36.067C59.2414 34.9183 59.7337 33.8517 59.8568 32.703C60.3286 30.9902 61.7337 30.785 63.1901 30.6107C64.667 30.4363 65.2721 31.4312 65.8465 32.4773C67.9182 36.1798 66.2977 40.2926 61.9798 41.6259C61.1901 41.8721 60.2055 41.9234 60.6978 43.4003C60.9029 44.0156 60.1029 44.99 59.7337 45.7797C58.2568 48.9284 56.862 52.1078 55.4774 55.2873C54.3492 57.8616 52.3287 59.8719 50.38 61.8718C48.78 63.5231 47.0672 65.0513 45.4672 66.6923C43.457 68.7435 39.7545 69.6256 37.2314 68.5794L37.252 68.5897Z" fill="#EEBB97"/>
<path d="M43.2109 46.8669C41.3648 47.2874 39.5187 47.1233 37.6931 46.7541C36.6572 46.549 35.8879 45.9439 35.3649 44.9285C34.5546 43.349 33.9085 41.7183 33.4777 40.0157C33.2213 38.9799 32.5444 39.0516 31.8265 39.0516C30.8214 39.0516 31.3136 39.7901 31.3239 40.2209C31.3547 41.7798 31.447 43.3388 31.4983 44.908C31.5393 46.0772 29.3855 48.3131 27.9393 48.59C27.4163 48.6925 26.8829 48.7541 26.3599 48.8361C25.9906 48.3438 25.2522 48.8361 24.8932 48.3028C25.0266 48.1387 25.2009 48.0156 25.406 47.9438C27.2009 47.4003 28.9239 46.7746 29.888 44.9695C30.4008 43.3695 30.1239 41.9029 29.1803 40.5491C28.7188 39.9029 28.0624 40.1388 27.4573 40.1491C26.5445 40.1696 25.6214 40.1901 24.7086 40.1491C23.1189 39.7593 21.5394 40.3542 19.96 40.1593C19.3856 40.0875 18.6471 40.3337 18.4113 39.4824H21.5804C21.5804 39.3798 21.5804 39.2773 21.5907 39.1747C20.4523 39.1747 19.3138 39.1645 18.1754 39.1747C17.6933 39.1747 17.3446 39.0824 17.2113 38.5388C17.1087 38.1081 17.2728 38.026 17.6318 38.0363C18.6471 38.744 19.8061 38.5388 20.9343 38.5799C24.5445 38.5491 28.1445 38.5183 31.6931 37.6978C33.7957 37.4209 35.8777 37.0517 37.9905 36.8465C38.6161 36.785 39.2315 36.6209 39.8161 36.9901C40.1033 37.3696 39.8571 37.4927 39.5289 37.544C38.7494 37.6876 37.9802 38.0978 37.3443 37.8106C38.1854 38.0773 39.1187 37.6568 40.052 37.3491C40.3187 37.2568 40.5546 37.0619 40.852 37.0106C41.4161 36.9081 42.1443 36.5901 42.3494 37.3696C42.5443 38.1081 42.134 38.6927 41.2417 38.7132C40.934 38.6722 41.4981 37.8311 40.6469 38.1696C39.5289 38.6209 38.2982 38.826 37.0879 38.9593C36.1238 39.0619 35.8367 39.5542 36.011 40.4465C36.1956 41.4003 36.2469 42.3849 36.4623 43.3285C36.5238 43.9952 36.8418 44.4977 37.4469 44.7952C39.2007 45.5952 41.0571 45.5644 42.9238 45.5234C43.4161 45.5644 43.9186 45.5234 44.3289 45.8721C44.3494 46.6823 43.7135 46.4772 43.2827 46.508C42.4315 46.5695 41.5699 46.4567 40.6263 46.6105C41.5802 46.59 42.4314 46.2413 43.2212 46.8669H43.2109Z" fill="#060706"/>
<path d="M43.2105 46.8669H40.0208C40.4413 46.0464 41.0156 46.3028 41.4874 46.2413C42.4208 46.1079 43.4156 46.5387 44.2977 45.9336C44.2053 45.79 44.2053 45.6566 44.3079 45.5233C44.8207 44.99 45.5387 45.0105 46.1848 44.8361C47.7848 44.4054 49.0771 43.6977 49.1386 41.7593C49.1591 41.2362 49.3335 40.7131 49.5591 40.2208C49.9591 39.0413 49.8976 37.8824 49.436 36.7337C49.3335 36.3747 49.5078 36.0773 49.7027 35.7799C49.0053 36.1593 48.2258 36.2209 47.5181 36.5286C47.3848 36.5901 47.2515 36.6824 47.1079 36.6824C43.8054 36.8362 42.0515 39.2362 40.1746 41.4618C39.549 42.2003 38.9849 43.0105 38.0721 43.4515C37.6106 43.5028 37.3747 43.2874 37.3131 42.8362C38.1234 41.0413 39.067 39.3695 41.0259 38.5798C41.4669 38.6003 41.7849 38.3952 41.9387 37.9952C42.0208 37.7798 42.1438 37.4926 42.0618 37.3285C41.949 37.0927 41.6515 37.1952 41.4054 37.2465C39.949 37.5644 38.5541 38.2311 36.708 37.9029C37.949 37.6055 39.0362 37.7901 39.8772 37.0927C39.9695 36.4363 40.5541 36.4875 40.9849 36.3439C43.8874 35.4004 46.8822 34.7645 49.7848 33.8414C51.6309 33.4107 53.518 33.1542 55.2616 32.3337C55.6411 32.1594 56.0103 32.1184 56.3488 32.4158C55.6001 32.9901 56.5744 33.0107 56.6462 33.3286C56.5334 33.4824 56.4206 33.4927 56.277 33.3696C54.6565 33.4107 53.436 34.6414 51.877 34.8773C51.6206 34.9183 51.5283 35.1645 51.5386 35.4516C51.6206 37.708 51.0155 39.8926 50.8206 42.1182C50.5642 45.072 48.8002 45.9951 46.6874 46.5387C45.5489 46.8361 44.3797 46.9592 43.2002 46.8874L43.2105 46.8669Z" fill="#050504"/>
<path d="M48.1031 27.6672C48.8621 30.221 47.057 31.0005 45.2622 31.8107C43.9801 32.3851 42.7699 33.1441 41.416 33.544C40.8212 33.7184 41.0878 33.8107 41.4366 33.9235C39.334 34.6517 37.1392 34.9081 34.9341 35.0927C35.1802 34.6722 35.6007 34.7953 35.97 34.7543C36.2982 34.7235 36.7597 34.7543 36.7597 34.3235C36.7597 33.903 36.2982 33.9235 35.9597 33.9133C35.6623 33.9133 35.3751 33.9133 35.2213 33.5851C37.9392 32.621 40.5135 31.2877 43.2929 30.4877C44.6263 30.1082 45.6724 29.2056 46.7596 28.3954C47.1698 28.0877 47.4878 27.5749 48.1134 27.6672H48.1031Z" fill="#EDB996"/>
<path d="M23.9903 32.1081C22.6159 32.744 21.1493 32.4569 19.6006 32.5184C22.0416 30.7748 23.7749 28.539 24.6262 25.6775C25.3646 24.6723 25.4262 23.1339 26.9646 22.6519C27.662 26.3851 26.421 29.4313 24.0005 32.1081H23.9903Z" fill="#EAB795"/>
<path d="M49.8875 34.1593C46.8209 35.0311 43.7542 35.9029 40.6876 36.7747C40.4107 36.8568 40.1543 36.9798 39.8876 37.0721C37.1697 37.3901 34.4518 37.708 31.7236 38.026C31.0262 38.2003 30.3288 38.1901 29.6108 37.8414C30.8108 37.3593 32.0621 37.1337 33.3441 36.9593C34.6569 36.7747 35.9595 36.5388 37.2415 36.1901L48.4003 33.585C49.6208 33.3901 49.8054 33.4619 49.8875 34.1696V34.1593Z" fill="#3B897E"/>
<path d="M67.0465 50.7848C65.5491 51.1643 64.7696 50.5387 64.1645 49.6874C63.6209 48.9182 63.0466 48.1797 62.2363 47.7285C61.2517 47.1849 61.2517 46.3439 61.4158 45.4516C61.5389 44.7952 61.9492 44.2208 62.0004 43.5029C62.0415 42.8772 62.7286 42.7644 63.1286 42.867C63.703 43.0208 63.2414 43.4824 63.1799 43.8208C62.7902 45.9746 64.103 47.5028 65.2414 49.0515C65.6824 49.6566 66.3388 50.1079 67.0568 50.7848H67.0465Z" fill="#222234"/>
<path d="M29.3031 21.8211C29.539 21.5032 29.9287 21.5955 30.2262 21.4621C31.2415 21.0416 31.5185 21.5134 31.3031 22.3955C30.6262 25.1339 29.3441 27.5544 27.3544 29.5851C27.016 29.9338 26.698 30.2928 26.3698 30.6518C25.6006 30.5492 25.9185 30.0056 26.0416 29.6774C26.4621 28.5492 26.6672 27.339 27.2313 26.2621C27.5083 25.8313 27.6621 26.8672 27.9493 26.3236C28.0416 26.1698 28.1544 26.0262 28.2672 25.8929C28.9749 24.6313 29.7031 23.3698 29.3031 21.8211Z" fill="#242433"/>
<path d="M27.5389 26.2415C27.0774 27.6876 26.4107 29.0825 26.3697 30.6414C26.2364 31.5542 24.862 30.5389 24.8518 31.7286C25.3953 31.6363 25.9287 31.4312 26.4723 31.5748C26.0517 31.7696 25.6312 31.9645 25.2005 32.1594C25.3748 32.8363 26.103 33.0209 26.3492 33.5952C25.303 33.5029 25.0569 32.1491 23.98 32.0978C25.4261 29.5132 27.0364 26.9902 26.9543 23.862C26.9543 23.5441 27.0979 23.1851 26.7081 22.8569C25.7851 23.6261 25.7235 25.062 24.6159 25.6774C24.7389 24.4979 24.9954 23.4313 26.1543 22.7544C27.0466 22.2313 27.2722 22.5287 27.2722 23.4005C27.2722 24.0261 27.2722 24.6518 27.5492 25.2877C27.5492 24.5902 27.5492 23.8826 27.5492 23.1851C27.5492 22.6415 27.5184 22.098 28.1543 21.8518C28.2568 21.9749 28.3389 22.1082 28.4107 22.2621C28.6671 23.4826 28.4927 24.662 28.0927 25.821C27.9799 26.0569 27.7953 26.2107 27.5389 26.2517V26.2415Z" fill="#121212"/>
<path d="M37.2416 36.1901C35.5391 37.0311 33.6314 36.949 31.8468 37.4106C31.2109 37.5747 30.5545 37.6772 29.9186 38.0362C30.5237 38.0362 31.1289 38.0362 31.734 38.0362C30.1648 38.5695 28.5238 38.8362 26.893 38.908C24.8623 39.0003 22.8213 39.1849 20.7803 38.908C20.9649 38.1695 21.5598 38.2003 22.1341 38.1695C22.9546 38.1182 23.7956 38.3131 24.6059 38.0567C28.8212 37.4413 33.0263 36.8259 37.2416 36.2106V36.1901Z" fill="#347C73"/>
<path d="M27.0368 35.3901C26.9855 35.7285 26.5855 36.1593 27.2932 36.2721C25.1804 36.9695 22.9855 37.0106 20.7907 36.949C19.5497 36.908 19.8676 35.7593 19.8574 35.1542C19.8574 34.3747 20.5445 34.8772 20.9343 34.9696C22.4932 35.2978 24.124 35.2772 25.6317 35.8516C26.4214 36.1593 26.6368 35.5337 26.9342 35.0516C26.965 35.1644 26.9957 35.2875 27.0163 35.4003L27.0368 35.3901Z" fill="#E3B391"/>
<path d="M25.5596 48.2515C25.3442 48.272 25.1288 48.2822 24.9032 48.3028C24.2775 47.7592 23.5288 48.1694 22.8519 48.0258C22.3596 47.9233 21.7852 48.1899 21.3853 47.6771C22.216 46.9079 23.4263 47.6874 24.2673 46.99C25.6006 45.0618 26.7801 43.0208 28.38 41.2875C28.7287 40.908 28.9339 40.3336 29.5698 40.2926C30.3903 41.5644 30.6569 42.9592 30.5133 44.4464C30.4826 44.7849 30.5133 45.1438 30.1236 45.3079C29.6005 44.2413 29.9287 43.1233 29.7954 42.0669C28.1441 43.8926 26.6262 45.913 25.5596 48.2412V48.2515Z" fill="#2C2B27"/>
<path d="M56.6569 29.1851C56.1133 28.2825 55.8671 27.2159 54.9543 26.5185C54.38 26.0774 54.9543 25.6262 55.1902 24.8159C56.3594 27.2364 57.5799 29.1851 60.2671 29.8825C59.0876 30.6825 57.7851 30.0979 56.9338 30.9389C56.5441 30.8569 56.1543 30.7748 55.7748 30.6825C55.4774 30.1902 55.2928 29.7184 56.0723 29.4825C56.1646 29.5851 56.2671 29.6876 56.3594 29.78C57.0159 29.862 56.821 29.5133 56.6671 29.1748L56.6569 29.1851Z" fill="#212132"/>
<path d="M16.3599 30.3132C16.6574 29.503 17.2317 28.5902 18.0112 28.7338C18.8522 28.8876 18.3702 29.9645 18.4215 30.6312C18.5548 32.3748 17.283 33.267 16.0933 34.1799C15.4164 33.4209 15.9394 32.6312 16.0317 31.8517C16.0933 31.3286 16.3292 30.8363 16.3599 30.303V30.3132Z" fill="#222234"/>
<path d="M49.8875 34.1594C49.6004 33.4312 48.9132 33.7389 48.4004 33.5748C51.108 32.703 54.0003 32.5902 56.6464 31.5133C56.8618 31.3594 57.1285 31.3492 57.2413 31.5851C57.3541 31.821 57.149 32.0056 56.9234 32.0979C56.7387 32.2004 56.5439 32.303 56.3593 32.3953C54.226 33.0517 52.1542 33.9748 49.8875 34.1594Z" fill="#317269"/>
<path d="M18.4111 39.4927C19.7239 39.9234 21.088 39.7696 22.4111 39.6363C23.2931 39.544 24.1136 39.585 24.9547 39.8004C24.3906 41.6773 23.406 43.2875 21.8983 44.5593C21.5496 44.4875 21.4675 44.2208 21.4367 43.9131C21.6316 42.6926 22.4726 41.7491 22.9239 40.426C21.1906 40.5901 19.5291 40.1183 17.8983 40.7337C17.7547 40.7747 17.6419 40.7337 17.5701 40.6004C16.7394 39.3901 17.6522 39.5029 18.4111 39.4927Z" fill="#3F3E3D"/>
<path d="M49.908 31.8517C50.0004 31.8517 50.0824 31.8312 50.1747 31.8107C50.6055 31.8312 50.7491 31.544 50.8209 31.185C51.1798 31.062 51.6208 31.3184 51.908 30.9389C52.5439 30.2107 53.3029 29.585 53.7439 28.6927C54.7695 28.7338 54.8311 29.585 55.0362 30.2825C55.2311 30.9389 54.708 31.0722 54.2362 31.2261C52.7901 31.544 51.3439 31.8517 49.8978 32.1696C49.8055 32.0978 49.7747 32.0363 49.8055 31.9645C49.8363 31.8927 49.867 31.8619 49.8978 31.8619L49.908 31.8517Z" fill="#D1A588"/>
<path d="M21.652 25.3698C21.6418 27.2569 20.7392 28.7441 19.6008 30.3646C19.1598 28.1389 20.1033 26.0672 21.6828 25.3903L21.6623 25.3698H21.652Z" fill="#CB9E81"/>
<path d="M54.2467 31.2158C55.621 30.0671 54.1031 29.4927 53.7544 28.6927C53.7544 28.0876 53.9185 27.3902 54.5134 27.2774C55.2416 27.1338 55.2621 28.0056 55.5595 28.4568C55.7646 28.7748 55.9082 29.144 56.0826 29.4825C55.6313 29.7902 55.8467 30.2722 55.7851 30.6825C55.4467 31.3594 54.8518 31.2876 54.257 31.2158H54.2467Z" fill="#141213"/>
<path d="M17.56 34.4773C17.8266 34.0773 18.0625 33.5234 18.5753 33.5747C18.8933 33.6055 18.6779 34.1593 18.7394 34.4773C19.1189 35.1234 18.6369 35.8927 19.0266 36.5388C18.9343 37.0414 18.7394 37.3901 18.1446 37.1337C16.7565 36.8943 16.4865 36.1354 17.3343 34.8568C17.4164 34.7337 17.4779 34.6004 17.56 34.4875V34.4773Z" fill="#232233"/>
<path d="M13.1801 38.9183C14.6365 37.7798 14.6878 37.7696 16.1647 38.1696C15.4878 39.4106 14.6365 40.4259 13.1289 40.6413C12.493 40.0567 13.2006 39.5029 13.1699 38.9285L13.1801 38.9183Z" fill="#212132"/>
<path d="M22.8827 18.6313C23.693 18.0775 23.6724 18.7339 23.6622 19.2057C23.6109 21.0518 23.6622 22.9082 23.0673 24.8569C22.8725 24.4466 22.7289 24.1492 22.5853 23.8518C21.9904 22.7338 22.9648 21.7287 22.8314 20.6415C22.8519 19.9646 22.8725 19.2877 22.893 18.6211L22.8827 18.6313Z" fill="#BBBBBD"/>
<path d="M17.5598 34.4773C17.6624 35.3798 17.006 35.9542 16.5855 36.6311C17.0368 37.0926 17.7752 36.5491 18.1444 37.1337C17.1393 37.4003 16.2163 36.7132 15.2214 36.8465C15.0573 36.5388 15.1599 36.0568 14.6471 35.985C14.6265 35.6465 14.565 35.2978 14.924 35.0722C15.1701 34.8363 15.3958 34.5593 15.7958 34.7747C16.5547 35.7388 16.9445 34.385 17.5598 34.4875V34.4773Z" fill="#0F1014"/>
<path d="M15.7956 34.7645C15.5084 34.867 15.211 34.9593 14.9238 35.0619C14.9341 34.8568 14.9546 34.6516 14.9649 34.4465C15.211 34.2106 15.211 33.9029 15.211 33.5952C15.129 32.9081 15.211 32.2004 14.9238 31.544C15.4059 31.1337 15.8879 30.7235 16.3597 30.3132C16.9956 30.8876 16.4725 31.4824 16.3802 32.0568C16.2777 32.7645 15.9802 33.4414 16.093 34.1901C15.9905 34.385 15.8982 34.5798 15.7956 34.7645Z" fill="#4D4D55"/>
<path d="M28.1748 22.1698C28.1748 22.0672 28.1748 21.9544 28.1646 21.8518C28.544 21.8518 28.9338 21.8313 29.3133 21.8313C29.9286 21.9031 30.0209 22.3646 29.8773 22.7954C29.5081 23.9851 29.3748 25.2877 28.4004 26.2312C27.8671 25.5748 28.503 24.939 28.4312 24.2825C28.3594 23.5749 28.6363 22.8262 28.1748 22.1698Z" fill="#4E5059"/>
<path d="M24.6159 38.0362C23.9595 38.5285 23.2108 38.2311 22.5031 38.2824C21.857 38.3234 21.2416 38.3439 20.7903 38.8978C19.9801 38.8978 19.1698 38.8978 18.3596 38.908C17.7442 38.9183 17.457 38.6721 17.6314 38.0362C19.9596 38.4157 22.2877 37.8106 24.6159 38.0362Z" fill="#2A625A"/>
<path d="M56.2876 33.3491C56.4107 33.3389 56.5337 33.3286 56.6568 33.3081C57.2927 34.3235 57.6619 35.5235 58.7286 36.2414C58.8517 36.5696 58.6773 36.7542 58.4209 36.8978C58.0209 36.9388 57.6209 36.2004 57.2209 36.8875C56.3491 35.8517 56.3184 34.6004 56.2979 33.3389L56.2876 33.3491Z" fill="#2A282D"/>
<path d="M17.5698 40.6003C17.6826 40.6003 17.7955 40.6209 17.898 40.6209C18.5237 40.7132 18.5749 41.2567 18.6878 41.6978C19.0775 43.1952 19.7236 44.6003 20.2262 46.0567C20.2877 46.1695 20.339 46.2926 20.3903 46.4157C20.5031 46.7233 20.6672 47.0105 20.5852 47.3592C19.8877 47.5131 19.7236 47.1439 19.5288 46.5285C18.9339 44.5285 18.2262 42.5695 17.5596 40.5901L17.5698 40.6003Z" fill="#060706"/>
<path d="M17.7955 24.1697C18.4007 25.0005 18.3084 23.6774 18.7083 23.8723C18.4007 25.103 17.775 26.1594 16.975 27.1338C16.6879 27.1953 16.5648 27.0928 16.6263 26.7953C16.7494 26.4158 16.8622 26.0466 16.9853 25.6671C17.252 25.1646 17.5186 24.662 17.7853 24.1697H17.7955Z" fill="#3E3F44"/>
<path d="M22.8212 20.6519C22.7392 21.7185 22.6571 22.7852 22.5751 23.8621C22.5443 24.098 22.5238 24.3339 22.493 24.5698C22.1648 24.7851 22.2674 25.4518 21.652 25.3697L21.6725 25.3903C20.8623 24.6313 22.011 24.2928 22.0725 23.6877C22.1751 22.6621 22.5546 21.6672 22.8212 20.6519Z" fill="#2F3034"/>
<path d="M15.1906 29.4517C14.606 30.5491 13.5085 31.062 12.5239 31.6978C13.1598 30.7132 13.9701 29.8927 14.8931 29.1748C15.0265 29.2261 15.129 29.3184 15.1906 29.4517Z" fill="#0F1011"/>
<path d="M15.1905 29.4518C15.0879 29.3595 14.9956 29.2672 14.8931 29.1749C15.4777 28.3851 16.052 27.5954 16.6366 26.7954C16.7495 26.9082 16.8623 27.0211 16.9853 27.1339C16.6571 28.1082 15.7546 28.6518 15.2008 29.4518H15.1905Z" fill="#2A2A2E"/>
<path d="M20.5954 47.3694C20.5031 47.072 20.0723 46.9797 20.1544 46.5797C21.6518 46.7438 23.1287 47.0618 24.6364 47.1233C24.4825 47.9951 23.8056 47.7387 23.262 47.7387C22.6364 47.7387 22.0108 47.6976 21.3851 47.6771C21.1185 47.5746 20.8621 47.4618 20.5954 47.3592V47.3694Z" fill="#F9F6EC"/>
<path d="M13.1801 38.9182C13.5801 39.5028 12.9545 40.0567 13.1391 40.631C12.5648 40.631 12.0007 40.631 11.2212 40.631C11.9596 39.9951 12.7289 39.6156 13.1801 38.9182Z" fill="#3A3A42"/>
<path d="M14.9239 31.5441C16.3393 32.0056 15.3137 33.0517 15.4573 33.8107C15.0983 34.0671 15.0778 33.7287 14.9752 33.544C14.8008 32.9902 14.5444 32.4466 14.647 31.8415C14.7393 31.7389 14.8316 31.6466 14.9239 31.5441Z" fill="#E0E0E1"/>
<path d="M59.877 32.7133C59.8565 33.9132 59.7847 35.1132 59.2924 36.2312C59.1693 36.344 59.0668 36.3337 58.9847 36.1799C58.9437 34.9389 59.3642 33.8107 59.877 32.7133Z" fill="#2A282D"/>
<path d="M11.3855 31.2671C10.7086 30.4056 11.406 29.8005 11.7137 28.9697C12.1342 29.6056 11.9086 30.1389 11.9599 30.6415C11.765 30.8466 11.5804 31.0517 11.3855 31.2569V31.2671Z" fill="#212327"/>
<path d="M58.9745 36.1798C59.077 36.2003 59.1796 36.2106 59.2822 36.2311C59.2309 36.5388 58.8514 36.8362 59.2822 37.1439C59.2616 37.749 59.7642 38.2516 59.6104 38.8772C58.5335 38.59 58.3796 37.7593 58.4001 36.826C58.5129 36.6311 58.6155 36.4362 58.7283 36.2413C58.8206 36.2311 58.9027 36.2003 58.9847 36.1696L58.9745 36.1798Z" fill="#605755"/>
<path d="M14.647 35.9748C14.9752 35.8209 15.365 35.4209 15.6419 35.8517C15.888 36.2209 15.2932 36.4671 15.2214 36.8363C15.1188 36.9286 15.006 37.0107 14.9034 37.103C14.1547 37.0312 14.5239 36.5902 14.6265 36.2414C14.6265 36.1491 14.647 36.0671 14.647 35.9748Z" fill="#3A3A42"/>
<path d="M58.3386 34.0671C57.8052 33.7183 57.354 33.4619 57.7335 32.8671C57.8052 32.7543 58.1437 32.6722 58.2565 32.744C58.8616 33.1235 58.3283 33.544 58.3386 34.0568V34.0671Z" fill="#14141D"/>
<path d="M22.5239 25.9236C22.6367 26.3031 22.4008 26.7749 22.8213 27.0825C22.6265 27.4723 22.4316 27.8723 22.2367 28.262C21.9701 28.3543 21.847 28.303 21.9598 27.9954C22.0316 27.2672 22.2059 26.5697 22.5341 25.9133L22.5239 25.9236Z" fill="#2F3034"/>
<path d="M56.9234 32.0978C57.149 31.7594 57.0567 31.5645 56.6567 31.5132C57.0567 31.1235 57.4978 31.185 58.0208 31.4209C57.8465 31.985 57.4157 32.0773 56.9337 32.0978H56.9234Z" fill="#102623"/>
<path d="M67.8257 33.8927C68.4103 34.6106 68.0001 35.4619 68.1232 36.2414C67.518 35.5234 67.9591 34.6722 67.8257 33.8927Z" fill="#0F0F11"/>
<path d="M14.6263 36.2413C14.6468 36.549 14.5443 36.8977 14.9032 37.1029C14.7084 37.3798 14.3596 37.7182 14.1648 37.4208C13.8776 36.99 14.2878 36.5695 14.6263 36.2516V36.2413Z" fill="#1D1E20"/>
<path d="M19.0266 36.5388C18.4728 35.9132 18.8318 35.1645 18.7394 34.4773C19.2933 35.1029 18.9343 35.8516 19.0266 36.5388Z" fill="#0F1014"/>
<path d="M21.9597 28.0056C22.052 28.0979 22.1443 28.18 22.2366 28.2723C22.011 28.6107 21.7854 28.9492 21.4982 29.38C21.3341 28.703 21.6213 28.3441 21.9597 28.0056Z" fill="#161617"/>
<path d="M49.908 31.8517C49.908 31.9542 49.908 32.0568 49.908 32.1594C49.467 32.4363 48.9645 32.4876 48.4619 32.4671C48.8004 31.9235 49.4773 32.1901 49.908 31.8517Z" fill="#EAB795"/>
<path d="M58.7181 31.2363C58.9643 31.2466 59.1796 31.2979 59.313 31.5338C59.1181 31.7799 58.872 31.9235 58.6053 31.6876C58.4309 31.5338 58.554 31.3594 58.7181 31.2363Z" fill="#102623"/>
<path d="M14.9649 33.5439C15.129 33.6363 15.2931 33.7286 15.4469 33.8106C15.529 34.2106 15.3751 34.426 14.9546 34.4465C14.9238 34.2721 14.8931 34.0875 14.8726 33.9132C14.9033 33.7901 14.9341 33.667 14.9649 33.5439Z" fill="#7F7F81"/>
<path d="M69.0053 19.1954C68.3591 18.857 68.0412 18.3955 68.1027 17.5852C68.195 16.3545 68.1438 15.1237 68.1438 13.8929C69.0668 15.3801 70.4924 16.6314 70.4719 18.5903C70.4719 19.0108 70.6463 19.5954 70.195 19.8006C69.6822 20.0365 69.354 19.5031 69.0053 19.1954Z" fill="#252537"/>
<path d="M71.1387 17.934C72.0925 18.7134 73.0976 19.2468 74.3591 19.7083C73.3848 20.4775 72.3489 21.0006 71.4463 20.5083C70.513 19.9955 71.2822 18.8468 71.1387 17.934Z" fill="#222234"/>
<path d="M68.1234 28.5903C67.4158 26.7134 67.1491 23.8929 68.7081 22.5596C68.7081 24.0672 68.7081 25.4518 68.7081 26.8364C68.0414 25.9441 68.6773 24.857 68.3081 23.9031C67.3132 25.4416 68.3491 27.0416 68.1337 28.5903H68.1234Z" fill="#111119"/>
<path d="M13.16 29.4825C12.2677 29.2979 12.6267 28.6005 12.6677 28.1184C12.76 26.7749 13.0575 25.4723 13.4575 24.1903C13.7857 23.6775 14.1036 23.1647 14.4318 22.6519C14.2985 25.0108 13.4369 27.1851 13.1703 29.4825H13.16Z" fill="#CED0D0"/>
<path d="M15.7752 20.0468C15.7445 19.6263 15.5599 19.5852 15.2727 19.8519C15.006 20.1083 14.7394 20.3647 14.3394 20.375C14.524 19.9134 14.9035 19.616 15.2829 19.3288C15.4778 19.175 15.7445 19.1237 15.9291 19.3391C16.165 19.616 16.0727 19.8519 15.7855 20.0365L15.7752 20.0468Z" fill="#1A1B1D"/>
<path d="M8.93445 54.3232C9.73444 55.072 10.5037 55.4617 11.7344 55.6053C10.7806 56.1694 10.3396 56.9386 9.39598 56.4463C8.53445 55.995 8.62676 55.3078 8.92419 54.3232H8.93445Z" fill="#C1B529"/>
<path d="M10.4726 31.3081C9.88796 31.2671 9.41617 31.1235 9.61104 30.3748C10.1649 30.1389 10.1546 29.6671 10.2162 29.1646C10.3597 27.9748 10.5956 26.8056 11.6931 25.9441L10.4726 31.3184V31.3081Z" fill="#1B1C1D"/>
<path d="M11.1085 25.0723C11.088 24.6928 10.8829 24.4877 10.4932 24.4775C10.7085 24.0467 11.047 23.8313 11.5598 23.8108C11.7547 24.3646 11.4367 24.7236 11.1085 25.0826V25.0723Z" fill="#1D1F22"/>
<path d="M23.1289 2.14956C23.1392 2.43673 23.1494 2.72391 23.1597 3.02134C22.6263 2.47776 22.6366 1.7393 22.452 1.07265C22.3905 0.867521 22.2058 0.580345 22.5648 0.508551C22.9033 0.447014 23.0263 0.754702 23.1186 1.03162C22.9648 1.4111 23.4571 1.78033 23.1186 2.15981L23.1289 2.14956Z" fill="#181818"/>
<path d="M23.1288 2.14955C23.0365 1.77007 22.4006 1.40084 23.1288 1.02136C23.4365 1.39059 23.7442 1.74956 24.0416 2.11878C24.1134 2.41622 24.0211 2.54955 23.7032 2.4675C23.5083 2.36493 23.3237 2.25212 23.1288 2.14955Z" fill="#8B8B8D"/>
<path d="M23.6929 2.47774C23.8057 2.36492 23.9185 2.24185 24.0313 2.12903C24.3185 2.33415 24.5954 2.54954 24.8826 2.75466C24.3595 3.22645 24.0518 2.72389 23.6929 2.47774Z" fill="#77787B"/>
<path d="M53.1182 0.980347C53.6105 1.34957 53.7335 1.86239 53.7028 2.43674C53.2618 2.047 53.1284 1.53419 53.1182 0.980347Z" fill="#252537"/>
<path d="M65.4465 45.3797C65.1696 45.4823 65.1901 45.7592 65.1286 45.9746C64.8311 45.4925 64.6363 45.0105 65.1491 44.549C65.2516 44.8259 65.3439 45.1028 65.4465 45.3797Z" fill="#696970"/>
<path d="M65.4874 27.4108C65.1592 24.4877 66.1643 21.739 66.6771 18.9288C67.0463 16.9186 67.2309 14.9186 66.3386 12.6417C68.0002 14.1391 68.0309 15.8417 67.7745 17.4314C67.1796 21.1339 65.8566 24.7339 66.4412 28.6723C65.6925 28.3646 65.9181 27.6774 65.4771 27.4108H65.4874Z" fill="#060609"/>
<path d="M58.1542 20.3647C57.8465 18.5801 57.8876 16.7852 57.9081 14.9904C57.9081 14.5699 58.0414 14.1289 58.185 13.7186C58.2568 13.5135 58.4517 13.2571 58.7388 13.4417C59.0978 13.6776 58.8722 13.934 58.7183 14.1801C58.4722 16.1391 58.4927 18.098 58.7081 20.057C58.7593 20.139 58.7799 20.2211 58.7696 20.3134C58.7696 20.857 59.2516 21.5134 58.4004 21.8518L58.4311 21.8211C58.1029 21.3801 58.4722 20.8057 58.1645 20.3544L58.1542 20.3647Z" fill="#DEDEE0"/>
<path d="M58.708 20.0673C58.2465 18.1083 58.226 16.1494 58.7183 14.1904C58.7183 16.1494 58.7183 18.1083 58.708 20.0673Z" fill="#D6D7D8"/>
<path d="M58.3901 21.8621C58.9747 21.4621 58.5439 20.8159 58.7593 20.3236C58.9849 21.3082 59.3336 22.2928 58.7388 23.2774C58.6362 22.8056 58.267 22.3954 58.3901 21.8621Z" fill="#A7A8AB"/>
<path d="M58.1543 20.3646C58.5953 20.7851 58.3697 21.339 58.421 21.8313C58.3184 21.6364 58.2261 21.4415 58.1235 21.2467C58.1338 20.9492 58.144 20.6621 58.1543 20.3646Z" fill="#D6D7D8"/>
<path d="M51.9182 30.9287C51.6721 31.5235 51.3336 31.6979 50.8311 31.1748C51.0977 30.7851 51.3644 30.3851 51.631 29.9954C51.8669 30.262 51.1695 30.8261 51.9285 30.9287H51.9182Z" fill="#322F31"/>
<path d="M56.6568 29.1851C56.9747 29.4312 57.0876 29.8107 56.8517 30.0774C56.6363 30.3235 56.4722 29.9748 56.3491 29.7902C56.585 29.6568 56.6466 29.4415 56.6568 29.1851Z" fill="#141213"/>
<path d="M52.2261 20.0775C52.5953 19.8519 52.5338 19.4621 52.5953 19.1237C53.0158 19.1852 53.0261 19.4313 52.8825 19.7493C53.2312 21.5852 53.1184 23.4313 53.1491 25.2774C53.1594 26.1697 52.9543 26.9902 52.4722 27.8005C52.103 27.3697 52.4004 26.9082 52.2261 26.5184C52.5953 24.3749 52.4209 22.2211 52.2261 20.0775Z" fill="#261F1A"/>
<path d="M52.8723 19.7493C52.78 19.5442 52.6774 19.339 52.5851 19.1236C52.3697 18.457 52.1646 17.7903 51.9492 17.1237C52.1338 16.9596 51.9902 16.6109 52.2877 16.5186C52.6466 17.5647 53.5184 18.5185 52.862 19.739L52.8723 19.7493Z" fill="#756964"/>
<path d="M52.2977 16.5186C52.2567 16.7647 52.2464 17.0211 51.9593 17.1237C51.5593 16.5391 51.1695 15.9545 50.7695 15.3699C51.9695 14.8263 51.8157 16.0981 52.2977 16.5186Z" fill="#949295"/>
<path d="M54.2876 74.1282C55.5491 73.8923 56.708 74.2307 57.8465 74.7128C59.4054 74.9794 60.6875 76.0256 62.2567 76.282C62.4413 76.3128 62.3798 76.6102 62.2464 76.7743C61.2003 78.3025 60.8926 80.0255 60.8208 81.8306C60.8106 82.1896 60.6465 82.6511 60.39 82.8768C58.9849 84.128 57.8055 85.6665 56.0619 86.5178C55.5388 86.8152 55.0978 87.5331 54.4004 87.1742C53.3337 86.6306 52.0722 86.3742 51.2825 85.3793C50.9132 84.9178 51.0671 84.3537 51.3645 83.8716C51.7235 83.2973 52.0312 82.6717 52.4825 82.1691C54.5952 79.8204 55.3234 77.1743 54.2876 74.1282Z" fill="#F5D2B3"/>
<path d="M54.2874 74.1282C55.5489 75.1743 55.1899 76.5589 55.0771 77.9025C54.8617 80.3435 53.0669 81.9229 51.8464 83.8101C51.1387 84.9178 51.2208 85.369 52.4618 85.8716C52.8207 86.0152 53.313 86.0562 53.5182 86.3126C54.3284 87.3075 55.1694 86.9485 56.0515 86.5178C54.5951 88.0152 51.8259 87.728 50.7592 86.0357C50.308 85.328 49.8464 84.6203 49.6823 83.8101C49.4772 82.7947 49.0772 81.6358 50.6977 81.2563C51.3849 81.0922 51.4259 80.4153 51.4054 79.7999C51.3541 78.7332 51.5182 77.8922 52.8515 77.6871C53.8054 77.5435 53.631 76.641 53.7746 75.923C53.8874 75.3282 53.1387 74.4256 54.2874 74.1282Z" fill="#EDBA96"/>
<path d="M62.2461 76.7742C60.7795 76.0871 59.3128 75.3999 57.8462 74.7127C58.8923 74.6512 59.8154 75.0204 60.7077 75.5332C61.0051 75.7076 61.2923 76.2512 61.682 75.8819C62.1436 75.4409 61.4154 75.1743 61.3538 74.7948C61.3026 74.7127 61.2103 74.5999 61.241 74.5384C61.9692 73.0204 61.8256 71.3794 61.959 69.7692C62.6666 68.7026 63.7333 68.0359 65.0871 66.9692C64.3589 70.6 63.5794 73.7589 62.2564 76.7742H62.2461Z" fill="#EECDAF"/>
<path d="M61.9491 69.769C61.8465 70.969 63.0465 72.1382 62.0106 73.3587C61.6619 73.769 61.4158 74.251 61.344 74.7946C59.8465 73.6459 59.7337 73.2664 60.626 71.6665C60.9953 70.9998 61.5081 70.4049 61.9491 69.7793V69.769Z" fill="#EAB895"/>
<path d="M32.5645 58.5899C34.0926 57.7283 35.6311 56.8976 37.2721 56.2617C37.8362 55.8514 38.4413 55.5438 39.1592 55.5643C40.6772 55.6053 41.8977 54.9591 42.9643 53.9438C43.2823 53.6361 43.6105 53.3181 44.0515 53.2156C44.7387 53.0515 45.2515 53.4515 44.9951 54.0566C43.99 56.4053 43.4156 59.0411 41.0567 60.5796C39.0772 61.2873 37.2926 60.9386 35.6721 59.6155C35.6311 59.2258 35.8362 59.0412 36.1952 58.9796C36.5747 58.9796 36.9336 59.1027 37.2926 59.195C37.8259 59.4001 38.39 59.3693 38.9439 59.3591C40.8515 59.4411 41.4156 57.913 42.2156 56.6822C40.2669 57.4001 38.1234 57.4001 36.2362 58.3335C35.9593 58.4668 35.508 58.354 35.4772 58.8565C35.2721 59.1232 34.9849 59.195 34.6773 59.2463C33.9285 59.154 32.985 59.6668 32.5439 58.5796L32.5645 58.5899Z" fill="#100D0C"/>
<path d="M40.9955 60.3129C42.975 58.7437 43.6211 56.3642 44.6672 54.2309C44.8211 53.913 44.9339 53.5643 44.5237 53.3386C44.2057 53.1745 43.9596 53.3899 43.7442 53.5848C43.2108 54.0771 42.7903 54.6412 42.1647 55.0719C40.657 56.1283 38.8622 55.7386 37.2622 56.2411C38.3801 54.3642 40.3083 53.6258 42.1545 52.7745C42.7903 52.4771 43.3647 53.0925 44.0006 52.9694C45.3954 52.8566 45.5595 53.0617 45.2006 54.4565C44.739 54.8463 44.6057 55.3591 44.616 55.9232C44.0006 57.1745 43.5596 58.5283 42.6468 59.6155C42.2468 60.0872 41.8775 60.8359 41.016 60.3026L40.9955 60.3129Z" fill="#EAB795"/>
<path d="M40.9956 60.3129C42.8109 59.9437 43.0571 58.1796 43.9083 56.9694C44.1442 56.6309 44.1237 56.1181 44.6058 55.9437C44.3494 57.8514 43.4366 59.5232 42.134 60.7847C41.1186 61.7693 39.4469 61.7898 38.1136 61.4616C36.0726 60.9591 33.929 60.6001 32.1957 59.2052C32.0213 59.0719 31.6521 59.0514 31.888 58.7437C32.0008 58.6001 32.329 58.6411 32.5547 58.5898C33.2111 59.5745 34.1341 58.5078 34.8726 58.8975C35.1495 59.1334 35.6213 59.1027 35.7238 59.5539C37.3854 60.436 39.1392 60.7539 40.9853 60.3232L40.9956 60.3129Z" fill="#EDB996"/>
<path d="M58.4001 36.8362C58.8411 37.4926 58.9949 38.3234 59.6103 38.8875C59.6616 39.4208 60.3693 39.9746 59.7641 40.4567C59.1282 40.9592 58.3795 41.4105 57.6103 41.6259C57.118 41.7695 57.0257 40.9695 56.6873 40.6516C56.6873 40.0977 56.5949 39.5644 57.1283 39.1029C57.8872 38.4465 56.5129 37.6157 57.2103 36.8978C57.2308 36.5696 57.2514 36.2516 57.2821 35.9132C58.0103 35.8414 57.9795 36.6106 58.4001 36.8362Z" fill="#110F0F"/>
<path d="M52.8411 51.8104C53.2206 51.7386 53.3642 51.0515 53.7847 51.2976C54.236 51.5643 53.8873 52.0156 53.7129 52.3233C53.0463 53.5643 51.9694 54.5489 51.4258 55.8719C50.9027 57.154 50.4514 58.4873 49.6822 59.677C49.1899 59.3693 49.5284 58.8975 49.3335 58.5796C49.8155 55.9642 51.0053 53.7181 52.8411 51.8002V51.8104Z" fill="#14110D"/>
<path d="M45.1902 54.4668C45.262 53.595 45.0877 52.9181 43.9902 52.9797C44.1851 52.8361 44.38 52.6925 44.5646 52.5489C45.0056 52.2104 45.4671 51.8617 45.98 52.3643C46.5235 52.8976 46.2261 53.4412 45.8466 53.9232C45.6723 54.1489 45.4056 54.2925 45.18 54.4771L45.1902 54.4668Z" fill="#EDB996"/>
<path d="M48.1031 27.6672C46.1134 29.7287 43.6108 30.7851 40.9339 31.7184C39.6417 32.1697 38.2468 32.662 37.0366 33.4415C36.4827 33.8004 35.8263 33.6568 35.2007 33.585C34.8827 31.8825 37.0571 28.7749 38.6981 28.6005C39.0776 28.5595 38.8827 28.7133 38.8314 28.8979C38.6468 29.6261 39.0776 29.3184 39.3237 29.1338C39.6724 28.8774 39.9596 28.5287 40.4519 28.5697C41.8057 28.7543 42.9442 27.4928 44.3493 27.9749C45.3236 28.4364 46.1749 28.3441 46.9441 27.5133C47.3031 27.1339 47.8569 26.4774 48.0928 27.6569L48.1031 27.6672Z" fill="#030202"/>
<path d="M44.3593 27.9851C43.0362 28.0261 41.8978 29.2773 40.4619 28.5799C41.7132 28.0876 42.8824 27.0312 44.3593 27.9851Z" fill="#2B251F"/>
<path d="M38.0517 43.2669C39.4876 41.6874 41.0671 40.2208 42.3081 38.4977C43.0465 37.4721 43.867 37.0311 44.9952 36.8259C45.8568 36.6721 46.708 36.4465 47.5593 36.2618C48.1952 36.2926 48.8721 35.4926 49.4567 36.3644C49.508 37.0003 49.1285 37.4721 48.8106 37.9439C47.3132 40.1592 45.8875 42.4259 44.2978 44.5797C43.9286 45.1643 43.6106 45.8002 42.8312 45.9335C40.8312 46.0566 38.8722 45.954 37.0466 45.031C36.3389 43.831 37.621 43.8002 38.0722 43.2771L38.0517 43.2669Z" fill="#F5FBFC"/>
<path d="M24.6266 47.1233C23.0266 47.8002 21.5702 47.3489 20.1446 46.5797C19.8848 45.5951 20.107 45.0002 20.8112 44.7951C21.3446 45.2259 21.5907 44.6515 21.9599 44.4771C22.7087 43.0618 24.0112 41.9438 24.2574 40.2413C24.2881 40.0669 24.6984 39.9439 24.9343 39.79C26.124 39.8413 27.3342 39.9131 28.4829 39.5746C29.2829 39.3387 29.365 39.8105 29.5598 40.2926C27.7855 42.4772 26.1035 44.7233 24.6163 47.113L24.6266 47.1233Z" fill="#F4FAFC"/>
<path d="M41.0366 38.5798C39.611 39.7388 38.5956 41.2259 37.5392 42.6926C37.1084 43.9849 36.9238 44.0977 36.1033 43.5643C35.9085 42.1285 35.2008 40.4977 35.6623 39.308C36.1854 37.9439 38.2161 38.6413 39.4982 38.1285C40.1135 37.8824 40.8007 37.8311 41.4571 37.6875C41.6212 38.1901 41.0981 38.2618 41.0469 38.59L41.0366 38.5798Z" fill="#F7F3E9"/>
<path d="M25.5598 48.2514C25.0368 47.8412 25.3957 47.5027 25.6419 47.1335C26.288 46.1592 26.8931 45.1643 27.5803 44.2105C28.2265 43.3079 28.9444 42.4567 29.7341 41.4618C30.4521 42.7643 30.1649 44.0464 30.1341 45.2976C29.1393 47.1027 27.4265 47.7797 25.5701 48.2412L25.5598 48.2514Z" fill="#F6F2E8"/>
<path d="M36.103 43.5542C37.1594 44.2208 36.9543 42.8054 37.5389 42.6824C37.6004 42.9695 37.6415 43.2875 38.062 43.2567C37.9389 43.9644 36.7287 44.0465 37.0363 45.0105C36.5338 44.6516 36.1133 44.2311 36.103 43.5542Z" fill="#434443"/>
<path d="M42.8208 45.9233C43.4259 45.6054 43.508 44.8567 44.0105 44.4567C44.2772 44.4567 44.5233 44.5285 44.6772 44.7746C44.7592 45.1541 44.4618 45.3695 44.308 45.6464C44.3285 45.7387 44.3285 45.8413 44.308 45.9336C43.8157 45.9336 43.3131 45.9336 42.8208 45.9336V45.9233Z" fill="#505251"/>
<path d="M44.3081 45.6464C44.0107 45.2566 44.5953 45.072 44.5235 44.7336C44.4927 43.9336 45.1696 43.5849 45.5799 43.072C46.6978 41.6669 47.5491 40.0772 48.6875 38.6824C49.0055 38.2926 49.2106 37.7285 49.9286 37.6875C50.0619 38.5901 50.185 39.4618 49.8773 40.3439C49.7542 40.7541 49.5696 41.1541 49.508 41.5746C49.1491 43.9541 48.4106 44.7541 46.0107 45.2669C45.4466 45.39 44.8825 45.513 44.3184 45.6259L44.3081 45.6464Z" fill="#F7F3E9"/>
<path d="M49.8773 40.3542C49.8158 39.5439 50.226 38.7439 49.8261 37.7901C47.9286 40.0773 46.7081 42.7849 44.5236 44.7336C44.3492 44.6413 44.1851 44.549 44.0107 44.4567C45.7748 41.8106 47.5389 39.1645 49.303 36.5183C49.385 36.3953 49.4773 36.3747 49.5902 36.4876C50.6055 37.7081 50.3696 39.0209 49.8773 40.3439V40.3542Z" fill="#131413"/>
<path d="M49.5903 36.4978L49.4467 36.5286H49.3031C48.8724 35.503 48.0929 36.6927 47.5596 36.2619C48.339 35.9645 49.1288 35.6671 49.9185 35.3696C50.0826 35.9132 49.6416 36.1389 49.5903 36.4978Z" fill="#787A79"/>
<path d="M28.1749 22.1698C28.9749 22.139 28.8006 22.7339 28.8416 23.1852C28.9442 24.2313 28.5544 25.2057 28.4006 26.221C28.3185 26.3236 28.2262 26.4364 28.1442 26.539C27.5596 26.5595 27.7339 26.18 27.775 25.8621C27.9083 24.6313 28.0416 23.4006 28.1749 22.1595V22.1698Z" fill="#BABBBD"/>
<path d="M27.7748 25.8621C27.8671 26.1082 27.8569 26.4056 28.144 26.539C28.0722 26.8159 27.9389 27.2261 27.6723 27.1338C27.303 27.0005 27.6312 26.5492 27.5492 26.2415C27.6312 26.1185 27.703 25.9851 27.7851 25.8621H27.7748Z" fill="#8E8F92"/>
<path d="M20.8112 45.0925C19.3651 45.0515 20.5446 46.1592 20.1548 46.5797C19.0882 44.713 18.6882 42.59 17.9087 40.6105C17.9087 40.2003 17.9292 39.9029 18.5241 39.9234C20.1651 39.9746 21.8061 39.9439 23.6625 39.9439C22.924 41.3592 22.2574 42.6105 21.601 43.8515C21.4061 44.313 21.6727 45.0515 20.8112 45.0823V45.0925Z" fill="#F9F6EC"/>
<path d="M20.811 45.0926C21.0777 44.6823 21.3341 44.2721 21.6008 43.8618C21.6828 44.0875 21.5803 44.4362 21.97 44.4772C21.8162 45.1233 21.6315 45.7079 20.811 45.0926Z" fill="#ABAFAF"/>
<path d="M35.4774 58.6308C35.262 58.1693 35.5697 58.118 35.9081 58.0155C37.4876 57.5437 39.026 56.918 40.6978 56.795C41.3952 56.7437 41.9901 56.395 42.6157 56.077C42.4516 57.9642 40.8824 59.5539 39.0773 59.7283C38.5132 59.4001 37.826 59.8206 37.2722 59.4513C36.9748 59.3385 36.585 59.5334 36.3697 59.1744C36.1235 58.918 35.6209 59.0719 35.4979 58.6308H35.4774Z" fill="#F6F6F5"/>
<path d="M35.4777 58.6309C35.8469 58.6924 36.2059 58.7642 36.3495 59.1744C36.0828 59.195 35.8469 59.2667 35.7341 59.5437C35.3854 59.4103 35.0674 59.236 34.8828 58.8873C35.0777 58.8052 35.2828 58.7129 35.4777 58.6309Z" fill="#362B25"/>
<path d="M37.252 59.4513C37.8776 59.3898 38.5032 59.359 39.0571 59.7282C38.4417 59.7282 37.7853 59.9539 37.252 59.4513Z" fill="#362B25"/>
</g>
</svg>
