<svg width="41" height="40" viewBox="0 0 41 40" fill="none" xmlns="http://www.w3.org/2000/svg">
<g clip-path="url(#clip0_43_25121)">
<rect width="41" height="40" rx="20" fill="#D4D9E1"/>
<g clip-path="url(#clip1_43_25121)">
<rect width="41" height="40" fill="#E3F7E8"/>
<mask id="mask0_43_25121" style="mask-type:luminance" maskUnits="userSpaceOnUse" x="-5" y="-3" width="50" height="49">
<path d="M19.8791 45.6457C33.4459 45.6457 44.4439 34.9159 44.4439 21.68C44.4439 8.4441 33.4459 -2.28572 19.8791 -2.28572C6.31227 -2.28572 -4.68579 8.4441 -4.68579 21.68C-4.68579 34.9159 6.31227 45.6457 19.8791 45.6457Z" fill="white"/>
</mask>
<g mask="url(#mask0_43_25121)">
<path d="M8.30472 34.6821C8.11234 34.4527 8.18181 34.1503 8.0696 33.9001C8.00547 33.5873 8.06959 33.2171 7.67416 33.0555C7.61004 32.6176 7.4711 32.2005 7.2627 31.8095C7.25736 31.6635 7.21995 31.528 7.0917 31.4342C6.94921 31.3924 6.88508 31.4741 6.89933 31.6792C6.85658 31.6792 6.81383 31.6635 6.77643 31.6479C6.74971 31.5697 6.72299 31.4915 6.69627 31.4185C6.65352 31.3142 6.60543 31.21 6.56268 31.1057C6.54665 31.0379 6.52527 30.965 6.50924 30.8972C6.97949 30.9128 6.88864 30.6104 6.84055 30.3341C6.7123 29.5886 6.26343 28.9109 6.30084 28.1289C6.3329 27.3886 6.17259 26.6796 6.03366 25.9654C5.87869 25.1573 5.69166 24.3597 5.71838 23.5255C5.73441 23.1137 5.80922 22.6914 5.46188 22.316C5.28554 22.1231 5.4512 21.852 5.59013 21.6383C5.83594 20.6947 6.00159 19.7406 6.13519 18.7762C6.5039 16.1122 7.08636 13.5003 8.21922 11.0291C8.84977 9.97605 9.39482 8.88125 10.1269 7.89072C10.3407 7.74996 10.5384 7.60398 10.2712 7.3381C10.1643 6.9471 10.6773 6.7907 10.6292 6.42056C12.1415 5.00774 13.8835 3.91815 15.7752 3.00582C15.6149 2.92762 15.4759 2.90677 15.337 2.91198C14.4393 2.94847 13.6537 3.31341 12.8575 3.67313C12.4995 3.83474 12.1735 4.13711 11.7247 3.94422C12.4728 3.22999 13.3812 2.76079 14.2843 2.27595C14.7706 2.01529 15.2515 1.85367 15.7645 2.11434C16.0691 2.27074 16.2294 2.03093 16.4538 1.96837C16.7744 1.87974 17.047 1.58258 17.4691 1.69206C17.2554 2.08306 16.9027 2.29681 16.7691 2.66695C17.0683 2.77643 17.4531 2.43757 17.4905 2.58875C17.6668 3.29255 18.1531 2.79207 18.2493 2.71387C18.7837 2.26553 19.4783 2.15605 20.0608 1.83282C20.141 1.7859 20.2104 1.73377 20.1784 1.62429C20.2371 1.60865 20.2959 1.59822 20.3547 1.58258C20.3387 1.55651 20.3226 1.51481 20.3066 1.50959C20.2051 1.49395 20.1249 1.53045 20.0768 1.62429C19.9593 1.63993 19.8364 1.65557 19.7188 1.67121C19.5051 1.6295 19.3127 1.68685 19.1417 1.81197C18.7463 1.83282 18.7676 1.21765 18.3081 1.33234C18.7676 1.15509 19.457 1.12381 19.5906 0.847498C19.8096 0.378298 20.1089 0.399151 20.4669 0.341804C20.4669 0.816218 20.8036 0.852712 21.1669 0.878778C21.7441 0.920485 22.1662 1.19679 22.4174 1.7077C22.6151 2.10913 22.4494 2.35937 21.9845 2.32287C21.7975 2.30723 21.6211 2.20818 21.4395 2.21339C20.9639 2.22382 20.4455 2.06221 20.0287 2.49491C20.2051 2.75037 20.4776 2.69302 20.7074 2.74515C21.4608 2.90677 22.241 2.97454 22.6845 3.77739C22.8716 4.12147 23.3418 4.18925 23.7746 4.06934C24.1434 3.97029 24.5174 3.97029 24.8861 4.0537C26.2167 4.35607 27.5847 4.56982 28.5412 5.68548C28.6427 5.80538 28.803 5.8523 28.9634 5.85752C28.974 5.87837 28.9794 5.90444 28.9901 5.92529C29.0008 5.93572 29.0221 5.93572 29.0382 5.94093C29.0114 5.91486 28.9847 5.8888 28.958 5.86794C29.0168 5.185 28.6908 4.73143 28.1244 4.35607C27.2641 3.77739 26.3984 3.23521 25.3617 2.97975C25.7304 2.90677 26.0724 2.92241 26.4144 2.90677C26.7511 2.89113 27.1251 3.02146 27.4137 2.8025C27.6542 2.62003 27.8519 2.63567 28.0977 2.75558C28.2259 2.81814 28.3916 2.93805 28.5198 2.77643C28.6694 2.59397 28.5359 2.44278 28.4183 2.29681C28.3435 2.20297 28.274 2.10391 28.1992 2.00486C28.5519 1.91102 28.8992 2.14562 29.2679 2.08306C29.2412 1.71813 28.958 1.61907 28.771 1.43661C28.3649 1.04039 27.7236 0.930912 27.4404 0.388724C27.5045 0.315738 27.5687 0.237538 27.6328 0.164551C29.3 0.842285 30.7802 1.73898 31.9558 3.13094C33.1955 4.6011 34.2856 6.14946 35.0284 7.90114C35.9315 10.0386 36.2949 12.3221 36.4766 14.6003C36.6636 16.8837 36.8132 19.1828 36.685 21.4819C36.6689 21.7843 36.685 22.0971 36.6155 22.3942C36.2521 24.0051 35.862 25.6109 35.4933 27.2218C35.3704 27.7587 35.2742 28.3009 35.1674 28.8379C34.9162 28.6554 34.991 28.3896 35.0124 28.1602C35.1299 26.8621 35.2475 25.5587 35.4719 24.271C35.6803 23.0615 35.5735 21.8364 35.5254 20.6165C35.5254 20.5435 35.4185 20.4757 35.3597 20.4079C35.0712 17.7491 34.9643 15.0538 33.9704 12.5097C34.2322 14.3448 34.462 16.1747 34.5475 18.0359C34.6009 19.1828 34.4887 20.3037 34.3765 21.4089C34.1895 23.317 33.8421 25.2146 33.4894 27.1123C33.094 29.2393 32.4421 31.2673 31.3947 33.1754C30.7321 34.3745 29.8825 35.4224 28.7763 36.2565C28.7282 35.9333 28.8939 35.6674 29.0168 35.3859C29.1771 35.0209 29.3855 34.6612 29.4657 34.2806C29.9092 32.2318 30.4756 30.209 30.7054 28.108C30.9298 26.0279 30.7374 23.9687 30.8657 21.7738C30.342 22.5089 30.513 23.244 30.3848 23.9165C30.1443 25.199 29.797 26.4711 29.7168 27.7796C29.6634 27.9256 29.5939 28.0611 29.5565 28.2123C28.9366 30.4958 28.2794 32.7688 26.5961 34.5726C26.222 34.974 25.8961 35.4693 25.1693 35.7143C25.4098 35.1043 25.5968 34.6299 25.7892 34.1555C26.3824 32.7062 26.8473 31.2152 27.3709 29.745C28.3916 26.8673 29.0595 23.9217 29.1343 20.8667C29.1931 18.4477 29.2412 16.0235 28.942 13.615C28.771 12.2543 28.6267 10.8832 28.1244 9.57984C27.8145 8.7822 27.5473 7.96371 27.2641 7.15564C26.6923 6.3997 26.0457 5.73761 25.0625 5.31533C25.0625 5.76889 25.3029 6.02956 25.4312 6.3215C25.8961 7.35896 26.3129 8.40684 26.3236 9.55899C25.9442 9.19927 25.8747 8.70921 25.7518 8.24001C25.6503 7.85422 25.5594 7.46322 25.1106 7.19734C25.5113 10.2836 25.5167 11.441 25.1106 12.1917C24.9235 11.8633 25.0358 11.5244 24.9823 11.2064C24.9449 9.77795 24.4426 8.45897 23.9082 7.16606C23.7052 6.68122 23.4487 6.24852 23.4807 5.70633C23.4914 5.54993 23.4433 5.37789 23.2403 5.38832C23.0693 5.39874 22.9838 5.55514 22.9571 5.71154C22.8769 6.19117 22.9357 6.67601 22.8342 7.16606C22.5296 8.67272 21.7547 9.96563 20.8784 11.1855C20.531 11.6704 20.2906 12.3742 19.5264 12.4889C19.5104 12.1292 19.9165 11.9363 19.9112 11.5818C20.0501 11.2377 20.3494 10.9353 20.2478 10.5182C20.2158 10.5078 20.189 10.4922 20.1623 10.4765C20.2959 10.4609 20.3974 10.4088 20.4455 10.2784C20.6913 9.63197 20.9104 8.97509 21.1616 8.32864C21.4395 7.62484 21.5196 6.84284 21.3647 6.07648C21.3059 5.78974 21.2257 5.40917 20.857 5.39353C20.5097 5.37789 20.7341 5.81581 20.5417 5.967C20.499 6.00349 20.4349 6.01392 20.3814 6.03998C20.0448 6.13382 19.7241 6.25373 19.4944 6.53525C19.2699 6.5926 19.115 6.8689 18.8424 6.75421C18.7302 6.45184 19.1203 6.25894 19.0027 6.01913C18.5325 5.9305 18.5378 6.66558 17.9394 6.48312C17.4851 6.34757 17.2607 6.96274 16.8332 7.07222C16.8012 7.08265 16.7477 7.00966 16.6996 6.97838C16.6462 6.36842 17.1645 6.09733 17.4958 5.72197C17.6989 5.49258 17.95 5.29969 18.1798 5.09116C18.4043 4.89305 18.6287 4.69494 18.9707 4.38735C18.3829 4.50726 18.1371 4.78878 17.8432 5.01296C17.5012 5.27884 17.3195 5.70633 16.8973 5.88358C16.3523 5.44045 15.9355 5.94614 15.492 6.10254C15.1286 6.23288 14.8454 6.56132 14.4232 6.5926C14.4286 6.2433 14.6744 6.0452 14.9416 5.8888C15.3904 5.62292 15.8553 5.37789 16.3149 5.11722C16.5126 5.00774 16.7317 4.90348 16.7317 4.55418C15.7057 4.83049 14.7919 5.16414 14.0545 5.84709C12.5316 6.44141 11.5056 7.57792 10.6346 8.87083C10.3086 9.35567 10.0147 9.86657 9.66735 10.3358C8.75893 11.5661 8.10166 12.9007 7.70623 14.3709C7.50851 15.1112 7.38561 15.8619 7.20926 16.6022C7.01155 17.4363 6.87261 18.2757 6.87796 19.1411C6.87796 19.9335 6.88864 20.726 6.73368 21.5184C6.63215 22.0501 6.6749 22.6236 6.74971 23.1658C6.90467 24.2554 7.07567 25.3398 7.11308 26.445C7.06498 26.69 7.0917 26.9246 7.14514 27.1696C7.32148 28.0038 7.48179 28.8379 7.63676 29.6773C7.94669 31.3247 8.26197 32.9721 8.94061 34.5257C9.07955 34.8437 9.18108 35.1565 9.14367 35.5006C8.80702 35.2816 8.75893 34.7915 8.3154 34.6769L8.30472 34.6821Z" fill="#484A51"/>
<path d="M7.10249 26.4554C7.06508 25.3554 6.89409 24.2658 6.73912 23.1762C6.66431 22.634 6.62156 22.0606 6.72309 21.5288C6.87806 20.7364 6.87271 19.944 6.86737 19.1515C6.86737 18.2861 7.00096 17.4468 7.19868 16.6126C7.37502 15.8723 7.49792 15.1216 7.69564 14.3813C8.09107 12.906 8.743 11.5713 9.65677 10.3462C10.0041 9.87701 10.298 9.3661 10.624 8.88126C11.5003 7.58835 12.521 6.45184 14.0439 5.85752C14.0439 6.21203 13.8035 6.4362 13.547 6.5926C12.1523 7.46323 11.3774 8.83955 10.5011 10.1325C10.4049 10.2732 10.2072 10.4244 10.4263 10.5912C10.5598 10.6903 10.7362 10.6277 10.8484 10.513C11.34 10.0334 11.9973 9.78838 12.5317 9.3661C12.5958 9.30354 12.6599 9.24098 12.7294 9.17842L12.724 9.18363C13.1141 9.13671 13.3813 8.86562 13.6806 8.66751C14.092 8.40163 14.5035 8.15139 14.9951 8.05234C14.9951 8.25045 14.9951 8.44855 15.0004 8.65187C14.6104 9.19406 14.2203 9.73103 13.8302 10.2732C13.4935 10.5339 13.1889 10.8206 12.9698 11.1856C12.382 11.7173 11.7889 12.2386 11.2118 12.7808C11.0461 12.9372 10.7896 13.0519 10.8003 13.4012C11.7141 13.2917 12.5423 12.9685 13.3546 12.6088C13.408 12.7965 13.1462 12.9737 13.3546 13.2448C13.7393 12.8851 14.108 12.5671 14.4394 12.223C14.6905 11.9623 14.9577 11.7955 15.3371 11.8529C15.2783 11.9467 15.2195 12.0353 15.1607 12.1292C15.0485 12.2022 14.8348 12.2439 14.9684 12.4159C15.0378 12.5097 15.1768 12.3846 15.2569 12.3012C15.2997 12.2595 15.3211 12.2074 15.3585 12.1552C16.9348 11.2794 18.2708 10.1272 19.2273 8.62059C19.6601 7.93765 20.2319 7.28598 20.28 6.41535C20.312 6.29023 20.3495 6.16511 20.3815 6.03999C20.435 6.01914 20.4991 6.0035 20.5418 5.967C20.7289 5.81582 20.5098 5.3779 20.8571 5.39354C21.2205 5.40918 21.306 5.78975 21.3648 6.07648C21.5197 6.84284 21.4342 7.62485 21.1617 8.32865C20.9105 8.9751 20.6914 9.63198 20.4456 10.2784C20.3975 10.4088 20.2907 10.4609 20.1624 10.4713C19.9647 10.2732 20.0876 10.0699 20.1624 9.87701C20.435 9.16278 20.5685 8.41206 20.7289 7.67177C20.8731 7.52579 20.9373 7.31204 20.7289 7.25991C20.5579 7.2182 20.467 7.45281 20.4563 7.64049C19.9166 8.79785 19.1632 9.80402 18.2227 10.6746C17.1539 11.6704 15.9783 12.5306 14.7065 13.2657C14.4447 13.4169 14.1027 13.5107 14.0653 13.8809C14.0225 14.3396 13.7393 14.251 13.4668 14.1415C12.6706 13.8287 11.9866 13.9695 11.2759 14.4491C10.5919 14.9131 9.85983 15.3667 8.98346 15.4344C8.25672 15.4605 8.16588 15.5283 8.00023 16.0965C7.47655 17.8638 7.39639 19.6937 7.69029 21.4715C8.31016 25.1938 9.96136 28.4208 13.1889 30.6574C14.6905 31.7 16.3043 32.6124 18.2227 32.7792C18.9013 33.0138 19.5853 32.9877 20.2746 32.8105L20.2907 32.7583C20.3548 32.7375 20.4189 32.7114 20.483 32.6906C20.5899 32.701 20.6647 32.6593 20.7021 32.5602H20.7876L20.8571 32.5133C21.0174 32.5394 21.1457 32.4873 21.2472 32.3673H21.3434L21.4235 32.3309C21.5838 32.3621 21.7228 32.3204 21.8243 32.1901L21.9098 32.2005L21.9846 32.1588C22.6312 32.1327 23.1923 31.8617 23.7427 31.5645C24.1274 31.356 24.5015 31.1318 24.8862 30.9285C25.0305 30.8555 25.1962 30.8294 25.3137 30.9754C25.4259 31.1214 25.3672 31.2725 25.2603 31.3925C24.7152 32.0024 24.09 32.5133 23.2885 32.7688C22.2144 33.1076 21.1563 33.5195 20.0021 33.5195C19.767 33.5195 19.5693 33.5664 19.425 33.7593C18.8906 34.4683 18.3776 35.1878 17.9982 36.074C18.9387 36.2721 19.7884 36.1731 20.6327 35.9072C21.0067 35.7925 21.306 35.6205 21.5518 35.3129C22.2678 34.4058 23.1495 33.6759 24.0793 32.9877C25.2496 32.1223 26.4519 31.2621 26.6176 29.6564C26.6229 29.5991 26.6657 29.5417 26.687 29.4844C28.4237 25.0791 28.8566 20.507 28.5039 15.8359C27.8894 16.0652 27.852 16.0705 27.8359 15.4605C27.8253 14.9861 27.4993 14.7202 27.2642 14.3865C26.4786 14.6524 26.671 14.0216 26.5855 13.6671C26.5481 13.5211 26.5641 13.3595 26.5535 13.2083C26.5374 12.9998 26.4412 12.8642 26.2061 12.859C26.0084 12.859 25.8427 12.8799 25.7626 13.1041C25.645 13.4534 25.5008 13.7922 25.3672 14.1311C25.1427 14.1207 24.8809 14.2093 24.7633 13.9121C24.7259 13.5889 24.6885 13.2657 24.6511 12.9424C24.4855 12.5567 24.1274 12.6714 23.8442 12.6922C23.4007 12.7183 23.6038 12.9998 23.6732 13.2188C23.3793 13.297 23.1121 13.4846 22.7862 13.4325C22.6205 13.3908 22.4709 13.4064 22.3587 13.5524C22.2518 13.5733 22.1396 13.5993 22.0327 13.6202C21.8564 13.5733 21.7067 13.5993 21.5892 13.7453C21.2846 13.7974 20.98 13.8496 20.6754 13.9017C20.622 13.5785 20.7876 13.4012 21.0762 13.3022C21.306 13.224 21.5304 13.1301 21.7655 13.078C22.2999 12.9633 22.0648 12.6922 21.9258 12.4315C22.6472 12.1396 23.406 12.369 24.1435 12.2856C24.5335 12.2439 24.7259 12.1657 24.6832 11.759C24.6618 11.5766 24.6832 11.3941 24.6832 11.2116H24.9931C25.0465 11.5296 24.9343 11.8685 25.1214 12.1969C25.5221 11.4462 25.5168 10.2889 25.1214 7.20256C25.5702 7.46845 25.6611 7.85945 25.7626 8.24523C25.8855 8.71443 25.955 9.20449 26.3344 9.56421C26.6977 10.7528 27.1039 11.9258 27.2107 13.1718C27.2268 13.3334 27.2962 13.4012 27.4191 13.4117C27.6756 13.4325 27.7291 13.7714 28.0016 13.7609C28.1298 12.5462 27.8573 11.3837 27.6115 10.2263C27.4352 9.39217 27.2909 8.55803 26.9542 7.76039C26.842 7.49451 26.8474 7.19735 27.2695 7.16086C27.5581 7.96893 27.8199 8.78221 28.1298 9.58506C28.6375 10.8884 28.7818 12.2595 28.9474 13.6202C29.2467 16.0287 29.1986 18.4529 29.1398 20.8719C29.065 23.9217 28.4024 26.8673 27.3764 29.7503C26.8527 31.2204 26.3878 32.7114 25.7947 34.1607C25.6023 34.6352 25.4153 35.1096 25.1748 35.7195C25.9015 35.4745 26.2275 34.9792 26.6015 34.5778C28.2901 32.774 28.9474 30.501 29.5619 28.2175C29.5993 28.0716 29.6688 27.9308 29.7223 27.7848C29.8986 27.9047 29.9039 28.0872 29.9146 28.2749C29.9467 29.1194 29.6261 29.8858 29.3749 30.6678C28.8726 32.2318 27.8947 33.6342 27.6863 35.2972C27.5848 36.1053 27.0985 36.7726 26.8848 37.5338C26.858 37.5598 26.8367 37.5911 26.81 37.6172C26.8367 37.5911 26.8634 37.5703 26.8955 37.5442C27.681 37.4295 28.2421 36.9499 28.7764 36.4337C28.7764 36.3712 28.7818 36.3086 28.7871 36.2513V36.2617C29.8933 35.4276 30.7429 34.3797 31.4002 33.1806C32.4475 31.2725 33.0995 29.2498 33.4949 27.1175C33.8422 25.2251 34.1949 23.3274 34.3819 21.4141C34.4888 20.3037 34.6064 19.1828 34.5529 18.0411C34.4621 16.1799 34.2377 14.3553 33.9758 12.515C34.9697 15.0591 35.0713 17.7491 35.3652 20.4132C35.0232 20.4601 35.0232 20.7103 35.0125 20.9658C34.9965 21.362 35.0018 21.7634 34.943 22.1544C34.7934 23.1762 34.6277 24.2033 34.4407 25.2199C34.1308 26.8986 33.9544 28.5981 33.3987 30.2299C33.1796 30.8763 32.9124 31.5176 33.1101 32.2631C33.404 33.3579 34.2644 34.1607 35.3865 34.2337H35.3812C35.5736 34.4683 35.7659 34.4788 35.953 34.2337C36.2683 34.2285 36.5835 34.2285 36.8935 34.2337C36.8988 34.2546 36.8988 34.2806 36.9095 34.3015C36.9148 34.3119 36.9416 34.3171 36.9576 34.3223C36.9309 34.2963 36.9042 34.2702 36.8828 34.2441C36.8828 33.9418 36.6102 33.7749 36.498 33.5299C36.5515 33.3892 36.669 33.3422 36.8133 33.3318L36.8774 33.3475C36.8774 33.3475 36.8881 33.41 36.8828 33.41C36.9042 33.4517 36.9362 33.483 36.979 33.5039C37.0484 33.5039 37.0751 33.5351 37.0751 33.6029C37.0965 33.6394 37.1286 33.6655 37.166 33.6863C37.2301 33.6863 37.2675 33.7124 37.2675 33.7802C37.2942 33.8219 37.3263 33.8531 37.3744 33.874H37.4332L37.4492 33.9366C37.5026 33.9783 37.5507 34.02 37.6042 34.0617L37.6416 34.0877C37.7057 34.1347 37.7698 34.1816 37.8393 34.2337C38.1332 34.338 38.4218 34.4475 38.721 34.5361C39.0202 34.6299 39.3248 34.4006 39.6348 34.5309C39.3355 35.12 39.2554 35.1408 38.208 34.9323C38.0851 34.7655 37.9569 34.7707 37.8339 34.9323C37.7538 34.9427 37.6736 34.9584 37.5881 34.9688C37.2461 34.9636 36.8988 34.9219 36.5568 34.9584C36.2415 34.9897 35.8728 34.7759 35.611 35.12C35.7125 35.8081 35.782 36.5015 35.5789 37.1897C35.3759 37.3357 35.3652 37.5077 35.4934 37.7058C35.5095 37.8622 35.4507 37.9978 35.3652 38.1229C35.1995 38.2219 35.1675 38.3679 35.2102 38.5452C35.2102 38.7172 35.1888 38.8788 35.0659 39.0091C34.8949 39.0091 34.7774 39.0508 34.8255 39.2542C34.6972 39.5513 34.569 39.8433 34.4354 40.1404C34.3819 40.1769 34.3713 40.2291 34.4033 40.2864L34.3819 40.3177C34.2751 40.3438 34.227 40.4115 34.2377 40.5158C34.1896 40.5784 34.1361 40.6409 34.088 40.7035C34.0453 40.7035 34.0293 40.7243 34.0399 40.766C34.0293 40.8234 33.9918 40.8599 33.9384 40.8755L33.8636 40.8912L33.8529 40.9641C33.8422 41.0163 33.8102 41.0476 33.7621 41.058L33.6819 41.0736L33.6659 41.1518C33.6605 41.1987 33.6338 41.2248 33.5857 41.2352C33.4308 41.2352 33.3453 41.3186 33.3132 41.4594C32.4155 42.0798 32.3887 42.0902 32.7735 43.1485C33.2918 44.5613 33.5323 46.0367 33.8476 47.4912C33.8743 47.6111 33.8903 47.7311 33.8957 47.8562C33.9331 48.487 33.8208 48.5443 33.1315 48.2368C33.1208 48.0543 33.1315 47.8666 33.1048 47.6893C32.6613 44.9002 31.8383 42.2153 30.7482 39.6035C30.3475 38.6494 29.952 37.6954 29.5139 36.6371C27.7344 38.467 25.3939 39.1186 23.1923 40.203C23.5396 40.5523 23.1709 40.8651 22.9411 41.23C22.2411 42.3144 21.5464 43.3988 20.996 44.5666C19.7242 46.4538 18.5914 48.414 17.6456 50.4733C17.512 50.5984 17.3837 50.7287 17.2341 50.8382C16.9776 51.0311 16.7745 50.9842 16.673 50.6662C16.6997 50.5619 16.7318 50.4628 16.7585 50.3586C17.2074 50.0875 17.2662 49.6079 17.4158 49.1804C17.5868 49.1387 17.6402 48.9875 17.715 48.8571C19.2219 46.2713 20.7235 43.6855 22.2304 41.0945C22.4602 40.9172 22.7167 40.6931 22.4869 40.4167C22.1396 40.0049 21.819 39.5044 21.1296 39.6087C20.8571 39.6504 20.5685 39.6243 20.2907 39.6295C20.2266 39.6243 20.1678 39.6191 20.1036 39.6139C20.093 39.5565 20.0983 39.4992 20.1197 39.4471C20.2159 39.3741 20.3281 39.3115 20.3975 39.2229C20.5418 39.03 20.4296 38.8423 20.2586 38.7798C20.0075 38.6859 19.9861 38.9205 19.938 39.0821C19.5426 39.7442 19.2219 40.4376 18.9334 41.1466C17.7417 44.0869 17.0364 47.1419 16.689 50.2804C16.5661 50.3012 16.4486 50.3273 16.3257 50.3481L16.1333 50.3012C16.0478 49.3263 16.2135 48.3723 16.4165 47.4183C16.6463 46.3547 16.8707 45.2912 17.0952 44.2225C17.4746 43.1225 17.8593 42.0277 18.2387 40.9276C18.4952 40.4272 18.7464 39.9267 19.0028 39.4262C19.254 39.249 19.1632 38.9935 19.1685 38.7589C19.4036 38.7016 19.5319 38.566 19.5158 38.321C19.9166 37.8257 20.2426 37.294 20.5365 36.6423C19.9861 36.6684 19.5212 36.6631 19.0723 36.7205C18.5647 36.7883 17.9555 36.4077 17.5654 36.8352C17.2287 37.2053 17.0738 37.7423 16.86 38.2115C16.7371 38.4878 16.657 38.7798 16.5608 39.0665C15.9409 40.4949 15.3638 41.9443 15.0325 43.4665C14.9791 43.6073 14.9043 43.7429 14.8668 43.8888C14.434 45.6301 14.0012 47.3713 13.5844 49.1178C13.4989 49.4775 13.3706 49.6913 12.9538 49.5297C12.6706 47.3244 12.4141 45.1192 12.5637 42.8879C12.5637 42.8305 12.5317 42.7732 12.5103 42.7106C12.6172 42.1059 12.7187 41.4959 12.8256 40.8912C13.0553 40.4063 13.4027 40.0622 13.9584 39.9215C14.1615 39.8693 14.3378 39.7286 14.5249 39.6243C14.6104 39.5878 14.7065 39.567 14.776 39.5148C14.963 39.3741 15.4066 39.4314 15.2623 39.03C15.1554 38.7276 14.605 38.5973 14.2951 38.7537C14.1187 38.8475 14.06 39.0196 14.0332 39.202C13.2531 39.52 12.863 40.1665 12.5477 40.8807C11.9652 41.8608 11.6072 42.9296 11.2278 43.9931C10.6721 45.5519 10.4102 47.1732 10.0949 48.7894C9.52852 49.024 9.5018 48.6538 9.56058 48.2941C9.70486 47.4235 9.78501 46.5372 10.0308 45.6822C10.5064 44.0348 10.9927 42.3978 11.7889 40.8599C11.8423 40.7556 11.869 40.6357 11.9011 40.5314C11.6874 40.2812 11.479 40.4741 11.2866 40.5002C10.143 40.6774 9.04224 40.5158 7.96282 40.1404C7.57808 40.0049 7.20936 39.8485 6.82996 39.6973C6.61087 39.6087 6.26353 39.5878 6.333 39.2594C6.40781 38.9101 6.72309 39.0404 6.95287 39.0926C7.29486 39.1812 7.63151 39.1655 7.97885 39.1343C8.55063 39.0821 9.06896 38.8944 9.55524 38.5869C10.1591 38.2063 10.1644 38.2167 9.77433 37.565C10.1537 37.5025 10.3888 37.784 10.6721 37.9404C10.7041 38.029 10.7362 38.0447 10.7469 37.9821C10.7469 37.9717 10.6988 37.956 10.6721 37.9404C10.7682 37.4399 10.3461 37.2105 10.1056 36.8821C10.298 36.2252 9.71555 35.5579 10.1056 34.7759C10.4263 35.2868 10.6667 35.7091 10.9446 36.1053C11.2011 36.4755 11.3454 36.9603 12.0026 37.1897C11.4095 35.7925 11.0675 34.4683 10.9553 33.1076C10.8858 32.2631 10.5171 31.4342 10.7736 30.5792C10.9232 30.0839 10.7896 29.7346 10.4743 29.328C9.59264 28.1862 8.66284 27.0602 8.08038 25.7203C8.04832 25.6421 7.9842 25.5796 7.83992 25.6265C7.85061 25.7933 7.83457 25.981 7.87732 26.153C8.27276 27.7275 8.75903 29.2758 9.36286 30.7825C9.44836 30.991 9.63539 31.1943 9.36286 31.4342C9.15981 31.3403 9.09568 31.1579 9.01553 31.0067C8.38497 29.8702 8.0216 28.6346 7.64755 27.4042C7.54602 27.0758 7.6048 26.6379 7.1399 26.4971L7.10249 26.4554ZM14.2309 8.99074C14.2309 8.99074 14.1829 9.00117 14.1668 9.01681C14.1561 9.02723 14.1561 9.04809 14.1508 9.06373C14.1775 9.03766 14.2042 9.01681 14.2256 8.99074C14.3164 8.95946 14.3325 8.93339 14.2684 8.91775C14.263 8.91775 14.2416 8.96467 14.2309 8.99595V8.99074ZM24.9931 36.2461C25.0786 36.2096 25.1481 36.1574 25.1427 36.0584C25.1427 36.0323 25.0786 36.0115 25.0412 35.9854C25.0198 36.0636 24.9931 36.147 24.9717 36.2252C24.945 36.2565 24.9183 36.293 24.8916 36.3243C24.9236 36.2982 24.9557 36.2721 24.9931 36.2409V36.2461ZM25.9763 11.0396C25.955 11.3993 25.9336 11.759 25.9176 12.1187C25.9122 12.3116 25.9603 12.4837 26.2115 12.4837C26.484 12.4837 26.484 12.3012 26.4466 12.1083C26.3825 11.7538 26.3237 11.3993 26.2596 11.0448C26.2809 10.7633 26.2221 10.513 25.9763 10.3097C25.9336 10.5756 25.9069 10.8102 25.9763 11.0448V11.0396ZM15.5508 32.9252C15.5188 32.8365 15.4921 32.8209 15.476 32.8835C15.476 32.8887 15.5241 32.9095 15.5508 32.9252C15.5401 33.4569 15.7379 33.9418 15.818 34.6039C16.2615 34.0565 16.8173 33.874 17.202 33.3527C16.5822 33.2484 16.128 32.8939 15.5455 32.9252H15.5508ZM11.2385 37.6902C11.2011 37.6172 11.1637 37.539 11.1316 37.466C11.1102 37.4868 11.0675 37.5129 11.0675 37.5181C11.1049 37.5911 11.1476 37.6589 11.1904 37.7319C11.2599 38.0916 11.3293 38.4513 11.4041 38.811C11.1477 38.8319 10.9072 38.8162 10.7095 38.6181C10.5866 38.493 10.4263 38.467 10.3034 38.6077C9.86517 39.0926 9.21324 39.2802 8.66284 39.6556C9.14377 39.9006 9.60333 39.9632 10.0789 39.9267C11.153 40.3125 11.9011 40.1509 12.6011 39.4106C12.8683 39.129 12.9538 38.9309 12.5423 38.712C12.0454 38.4461 11.666 38.0395 11.2385 37.685V37.6902ZM13.6538 40.6461C13.3546 40.7556 13.3653 41.0267 13.3386 41.2613C13.1836 42.8462 13.0126 44.4258 13.1141 46.0211C13.1355 46.386 13.1622 46.7509 13.376 47.1472C13.6164 46.3756 13.7767 45.6405 13.8248 44.8898C14.1508 44.6708 14.1187 44.2955 14.1829 43.9931C14.45 42.7992 14.8722 41.6627 15.273 40.5106C15.3478 40.2968 15.5455 40.0987 15.4119 39.8068C14.8348 40.13 14.1829 40.2603 13.6538 40.6461ZM34.7934 34.7759C34.3606 34.7029 34.0239 34.437 33.6766 34.2024C33.543 34.0148 33.4415 33.7697 33.1048 33.8479C33.1048 34.5882 33.1422 35.3233 33.0941 36.048C33.0193 37.2731 32.7681 38.4878 32.0361 39.4836C31.7689 39.8485 31.9025 40.0153 31.9719 40.2864C31.7315 40.7191 32.0948 41.0058 32.1964 41.4021C33.3025 40.8912 33.7941 40.0622 33.8743 38.9674C33.8315 38.6442 33.9064 38.3418 34.0239 38.0447C34.3071 37.8049 34.4193 37.9456 34.4781 38.2324C34.4354 38.4357 34.398 38.6338 34.4995 38.884C34.6972 38.7068 34.8041 38.5139 34.8041 38.2688C34.8575 38.0968 34.9003 37.9248 34.9591 37.7579C35.2957 36.8195 35.2904 35.8811 35.0125 34.9323L34.8041 34.7759H34.7934ZM12.724 31.4498C12.724 31.4498 12.708 31.4029 12.692 31.3872C12.6813 31.3768 12.6599 31.3768 12.6439 31.3716C12.6706 31.3977 12.692 31.4237 12.7187 31.4498C12.7401 31.8043 12.9698 32.0702 13.1088 32.3778C13.766 33.874 13.6912 35.3025 12.5744 36.5641C12.211 36.9759 12.5958 37.1167 12.7347 37.3148C12.9698 37.6589 13.1996 37.3722 13.3118 37.1897C13.7019 36.5849 14.247 36.121 14.76 35.6257C15.0539 35.3442 15.1714 35.047 15.1661 34.6456C15.1394 33.0138 14.6157 31.919 12.7187 31.4394L12.724 31.4498ZM32.2658 32.9147C31.6674 34.0565 31.0315 34.9897 30.1444 35.7299C30.0001 35.8499 29.8665 36.0115 30.0055 36.2044C30.5772 37.0281 30.7803 38.003 31.2131 38.884C31.2666 38.9987 31.3093 39.1238 31.4643 39.103C31.5925 39.0873 31.678 38.9883 31.7315 38.8736C32.5277 37.002 32.8109 35.0887 32.2658 32.9147ZM18.8105 33.5716C17.6616 33.7958 14.3432 36.6266 13.6538 37.8987C14.5088 37.8674 15.2516 38.1542 15.9783 38.6546C16.7158 36.83 17.7417 35.2399 18.8051 33.5716H18.8105ZM25.4206 32.7271C22.7007 34.6769 21.6052 35.9124 20.6647 37.857C21.4342 37.685 22.1503 37.5233 22.8663 37.3669C23.0587 37.3252 23.1976 37.1949 23.3098 37.0437C24.2664 35.7873 24.9984 34.4318 25.4259 32.7271H25.4206ZM11.308 30.5948C11.2278 32.5133 11.5377 34.3588 12.1629 36.2461C13.5416 34.046 12.5637 32.2944 11.308 30.5948ZM8.55597 14.2719C10.2873 12.5932 12.2912 11.2168 13.9477 9.24098C13.3225 9.25141 13.1088 9.60591 12.8149 9.78838C11.308 10.7216 9.91326 11.7903 8.84453 13.2188C8.61475 13.5263 8.48116 13.8339 8.55063 14.2719H8.55597ZM24.5656 38.6859C24.5763 38.4461 24.1114 38.2324 23.8335 38.3835C23.4007 38.6129 23.032 38.9518 22.5724 39.1499C22.3373 39.249 22.4014 39.4366 22.5831 39.5722C22.7594 39.6973 22.9251 39.8381 23.1709 39.6869C23.5396 39.4575 23.919 39.249 24.2877 39.0248C24.4213 38.9466 24.5389 38.8475 24.571 38.6859H24.5656ZM27.0451 35.5371C26.981 35.4954 26.9115 35.4484 26.8474 35.4067C26.4786 36.121 26.1099 36.8404 25.7412 37.5546C26.4893 37.0437 26.8848 36.3503 27.0451 35.5371ZM25.116 37.2314C24.8435 37.4556 24.5229 37.539 24.7099 37.8987C24.7313 37.9404 24.8221 37.9925 24.8595 37.9821C25.1962 37.8726 25.1748 37.612 25.116 37.2366V37.2314ZM22.0381 38.1959C21.8136 38.0655 21.6426 38.2636 21.4449 38.2897C21.3594 38.3001 21.2632 38.3575 21.306 38.4722C21.3541 38.5973 21.4663 38.6442 21.5945 38.5973C21.7976 38.5243 21.9739 38.42 22.0434 38.2011L22.0381 38.1959ZM10.624 14.0164C10.1751 13.9434 9.86517 13.8652 9.59264 14.2666C9.98807 14.3553 10.2285 14.1676 10.624 14.0164ZM7.78648 25.0009C7.78648 24.9436 7.80251 24.881 7.78648 24.8289C7.75442 24.7454 7.69564 24.7454 7.66892 24.8289C7.65289 24.8758 7.65289 24.9436 7.66892 24.9957C7.70098 25.0791 7.74908 25.0739 7.79182 25.0009H7.78648Z" fill="#0F0F0E"/>
<path d="M20.98 44.4988C21.5357 43.3362 22.2304 42.2466 22.9251 41.1622C23.1602 40.8025 23.5289 40.4897 23.1762 40.1352C25.3725 39.0508 27.713 38.3992 29.4978 36.5693C29.936 37.6276 30.3368 38.5816 30.7322 39.5357C31.8223 42.1476 32.6452 44.8324 33.0887 47.6216C33.1155 47.7988 33.1101 47.9865 33.1155 48.169C31.6085 49.0709 29.968 49.6079 28.2313 49.8842C28.071 49.8477 27.9268 49.8633 27.8199 49.9989L27.4405 50.0249C27.2054 49.3159 26.6229 48.8154 26.2649 48.1742C25.4633 46.7405 25.0091 45.1817 24.3679 43.6959C23.8816 42.5698 23.8014 42.5646 22.8503 43.3675C22.2945 43.8315 21.8082 44.4466 20.98 44.4988Z" fill="#5B6E4C"/>
<path d="M36.8025 33.3057C36.6582 33.311 36.5407 33.3579 36.4872 33.5039C35.8887 33.0868 35.6536 32.3986 35.2208 31.7887C35.0765 32.6384 35.1941 33.3266 35.8139 33.8792C35.8941 33.9522 35.8994 34.0982 35.9422 34.2129V34.2181C35.7498 34.2181 35.5574 34.2181 35.3704 34.2181H35.3758C34.7666 33.6185 34.5956 32.9043 34.5849 32.0598C34.5689 30.9337 34.8521 29.891 35.162 28.8327C35.2689 28.2957 35.3651 27.7535 35.488 27.2166C35.8567 25.6056 36.2468 23.9999 36.6101 22.389C36.6743 22.0919 36.6636 21.7791 36.6796 21.4767C36.8025 19.1776 36.6529 16.8785 36.4712 14.5951C36.2842 12.3168 35.9262 10.0334 35.0231 7.89593C34.2803 6.14425 33.1902 4.59068 31.9505 3.12573C30.7749 1.73377 29.2947 0.83186 27.6274 0.159339C26.8847 -0.179528 26.1472 0.00815225 25.4152 0.174979C25.2495 0.211473 25.1266 0.289673 25.148 0.482566C25.18 0.72238 25.351 0.758873 25.5594 0.743233C25.4472 0.967407 25.2174 1.38447 25.6236 1.33234C26.2007 1.25935 26.7083 1.56694 27.2534 1.44182C27.3763 1.94751 27.7984 1.95794 28.2045 1.99965H28.1939C28.2687 2.09349 28.3328 2.19254 28.4129 2.28638C28.5305 2.43235 28.6641 2.58354 28.5145 2.76601C28.3862 2.92762 28.2206 2.80771 28.0923 2.74515C27.8519 2.62525 27.6488 2.60961 27.4083 2.79207C27.1144 3.01103 26.7457 2.8807 26.4091 2.89634C26.0671 2.91198 25.7251 2.89634 25.3564 2.96933C26.393 3.22478 27.2641 3.77218 28.119 4.34565C28.6855 4.72622 29.0114 5.17978 28.9527 5.85752C28.7924 5.84709 28.632 5.80017 28.5305 5.68548C27.5793 4.56982 26.206 4.36129 24.8754 4.0537C24.5067 3.97029 24.1273 3.96508 23.764 4.06934C23.3311 4.18925 22.8609 4.11626 22.6738 3.7774C22.2303 2.97454 21.4501 2.90677 20.6967 2.74515C20.4616 2.69302 20.1944 2.75037 20.018 2.49491C20.4348 2.05699 20.9585 2.21861 21.4288 2.21339C21.6105 2.21339 21.7921 2.31245 21.9738 2.32287C22.4387 2.35937 22.6044 2.11434 22.4067 1.7077C22.1555 1.19679 21.7334 0.920487 21.1562 0.87878C20.7929 0.852713 20.4509 0.81622 20.4562 0.341806C21.0066 0.0550724 21.5891 0.159339 22.1662 0.195833C22.3372 0.362659 22.5456 0.367873 22.7593 0.300099C22.8662 0.336593 22.9731 0.367873 23.08 0.404366C23.1762 0.837073 23.5609 1.10295 23.7212 1.50438C23.8655 1.85889 24.1273 1.83282 24.3838 1.57737C24.6617 1.30106 24.7418 1.00911 24.4319 0.701526C24.122 -0.278581 23.3151 -0.591381 22.396 -0.596595C20.4723 -0.596595 18.5806 -0.304648 16.8118 0.446073C13.9476 1.66078 11.3666 3.31341 9.17039 5.49258L8.78564 5.3049C8.83374 5.01817 9.01542 4.78878 9.22917 4.61674C10.2926 3.76176 11.2544 2.77644 12.4567 2.08827C13.4079 1.5513 14.3324 0.97262 15.2942 0.4565C17.3729 -0.653942 19.644 -1.1075 21.9792 -1.27954C22.8448 -1.3421 23.6838 -1.13357 24.3624 -0.586168C24.667 -0.341141 24.9022 -0.278581 25.2762 -0.398488C26.6442 -0.841622 27.8732 -0.518395 29.1504 0.117633C31.8222 1.44182 33.436 3.63664 34.7612 6.11297C36.4498 9.28268 37.0163 12.7131 37.2086 16.2321C37.2728 17.4259 37.3422 18.625 37.2995 19.8188C37.2247 21.8155 36.8399 23.7705 36.4071 25.7203C36.1773 26.7369 36.0117 27.7796 35.675 28.7597C35.2101 30.1152 35.6216 31.283 36.2521 32.4403C36.4124 32.7375 36.6208 33.0086 36.8025 33.2901V33.3057Z" fill="#141513"/>
<path d="M10.6239 6.42055C10.6666 6.78549 10.159 6.9471 10.2659 7.3381C10.1643 7.54142 9.88646 7.58834 9.82768 7.82816C8.76963 8.49025 8.41695 9.58505 7.98411 10.6381C7.93067 10.7163 7.86655 10.7841 7.83449 10.8675C6.45582 14.3344 5.62221 17.9108 5.57946 21.6435C5.44587 21.8572 5.27487 22.1283 5.45121 22.3212C5.79855 22.6966 5.71839 23.1189 5.70771 23.5307C5.68099 24.3596 5.86802 25.1625 6.02298 25.9706C6.15658 26.69 6.32223 27.399 6.29017 28.1341C6.25811 28.9161 6.70163 29.5938 6.82988 30.3394C6.87797 30.6157 6.96347 30.918 6.49857 30.9024C5.80924 29.0204 5.30693 27.0967 4.96494 25.1312C4.80463 24.2241 4.60157 23.3274 4.39316 22.4307C3.97101 20.606 4.13667 18.771 4.28629 16.9359C4.33438 16.3572 4.45194 15.7837 4.51607 15.205C4.75653 13.0415 5.71305 11.1021 6.48788 9.10542C6.89935 8.05233 7.45509 7.06701 8.17648 6.18074C8.21389 6.38406 8.2513 6.58217 8.2887 6.78549C8.12839 7.28597 7.68487 7.6092 7.46043 8.07318C6.93675 9.14192 6.50391 10.2471 6.14589 11.3784C5.72374 12.7183 5.14128 14.0216 5.0825 15.4553C4.87409 15.8619 5.02372 16.3207 4.87944 16.7378C4.67638 17.3529 4.76722 17.9681 4.93287 18.5833C5.00769 17.9577 5.08784 17.3373 5.16265 16.7117C5.14662 16.279 5.43518 15.8984 5.36037 15.4553C5.42984 15.2207 5.4993 14.9861 5.57412 14.7567C5.64358 14.5221 5.71305 14.2875 5.78786 14.0581C5.85199 13.8652 5.89474 13.8287 6.12451 13.7766C6.43979 13.7088 6.30085 13.4169 6.40773 13.2448C6.53063 13.0415 6.57338 12.786 6.64819 12.5567C7.26271 10.7268 7.97877 8.94381 9.14369 7.36938C9.57652 7.19213 9.45362 6.59781 9.8918 6.42577C10.1376 6.42577 10.3834 6.43098 10.6239 6.43619V6.42055Z" fill="#141513"/>
<path d="M10.6453 37.8935C10.3621 37.7371 10.127 37.4556 9.74758 37.5181L9.71552 37.4921C9.67277 37.4399 9.62468 37.3826 9.58193 37.3304L9.53384 37.3096V37.2575C9.54452 37.2157 9.53384 37.1897 9.49109 37.1845C9.43765 37.1115 9.38421 37.0385 9.33078 36.9655C9.34146 36.7101 9.21856 36.5328 8.98878 36.4181C8.80175 36.1835 8.65213 35.9281 8.58801 35.6309C8.60404 35.584 8.58801 35.5527 8.5506 35.5318C8.43304 35.4328 8.38495 35.3025 8.37426 35.1565C8.32617 35.047 8.27807 34.9427 8.22998 34.8333C8.2567 34.7811 8.28342 34.7342 8.31014 34.6821C8.74832 34.7968 8.80175 35.2868 9.13841 35.5058V35.4953C9.13306 35.6726 9.17581 35.8238 9.37887 35.8811C9.36284 36.3764 9.65674 36.6527 10.0896 36.8352C10.33 37.1584 10.7575 37.393 10.656 37.8935H10.6453Z" fill="#141513"/>
<path d="M7.26265 31.8095C7.47105 32.2005 7.61533 32.6176 7.67411 33.0555L7.62067 33.1128C7.55655 33.1128 7.49243 33.1128 7.4283 33.1128C7.44433 33.0242 7.41761 32.9564 7.32677 32.92C7.24127 32.7218 7.16112 32.5237 7.07562 32.3204C7.08631 32.1849 7.06493 32.065 6.926 31.9972C6.90996 31.9346 6.88859 31.8773 6.87256 31.8147C6.89393 31.7678 6.89928 31.7209 6.89928 31.674C6.88859 31.4689 6.95271 31.3872 7.09165 31.4289C7.07028 31.5906 7.10234 31.7209 7.26265 31.8043V31.8095Z" fill="#141513"/>
<path d="M8.28873 6.77507C8.25133 6.57175 8.21392 6.37364 8.17651 6.17032C8.20323 6.1234 8.23529 6.07127 8.26201 6.02435C8.29942 5.97221 8.33682 5.92529 8.37957 5.87316C8.43301 5.63335 8.60935 5.47695 8.77501 5.31012C8.90325 5.37268 9.0315 5.43524 9.15975 5.4978C9.12769 5.66463 9.01547 5.77932 8.87653 5.87837C8.84447 5.92529 8.80707 5.97221 8.76966 6.01913C8.7376 6.19117 8.63073 6.31629 8.50248 6.43099C8.44904 6.49355 8.3956 6.55611 8.33682 6.62388C8.36889 6.69165 8.35286 6.73857 8.28339 6.77507H8.28873Z" fill="#242634"/>
<path d="M35.6001 35.0783C35.8619 34.7342 36.2307 34.9479 36.5459 34.9167C36.8879 34.8854 37.2353 34.9219 37.5773 34.9271C36.9307 35.1669 36.2467 34.8437 35.6001 35.0731V35.0783Z" fill="#242634"/>
<path d="M7.67429 33.0555C8.06972 33.2223 8.00559 33.5873 8.06972 33.9001C7.72772 34.0669 7.69566 33.8114 7.63688 33.5977C7.63688 33.4361 7.62619 33.2745 7.62085 33.1129L7.67429 33.0555Z" fill="#141513"/>
<path d="M35.4825 37.6589C35.3543 37.4608 35.3596 37.2887 35.568 37.1428C35.6215 37.3252 35.5948 37.4973 35.4825 37.6589Z" fill="#242634"/>
<path d="M8.9834 36.4181C9.21318 36.5328 9.33074 36.7101 9.32539 36.9655C9.12768 36.83 9.03149 36.6423 8.9834 36.4181Z" fill="#242634"/>
<path d="M7.62066 33.1129C7.62066 33.2745 7.63135 33.4361 7.6367 33.5977C7.49242 33.4674 7.41226 33.311 7.42829 33.1181C7.49242 33.1181 7.55654 33.1181 7.62066 33.1181V33.1129Z" fill="#242634"/>
<path d="M37.8179 34.8958C37.9461 34.7342 38.069 34.7342 38.1919 34.8958C38.069 34.8958 37.9408 34.8958 37.8179 34.8958Z" fill="#242634"/>
<path d="M6.9261 32.0024C7.06504 32.0702 7.09176 32.1901 7.07572 32.3256C6.97954 32.237 6.89938 32.1432 6.9261 32.0024Z" fill="#242634"/>
<path d="M35.2049 38.4982C35.1621 38.3262 35.1942 38.1802 35.3599 38.0759C35.3866 38.2428 35.3438 38.3887 35.2049 38.4982Z" fill="#242634"/>
<path d="M34.8146 39.2072C34.7612 39.0039 34.8841 38.957 35.0551 38.9622C34.9749 39.0456 34.8948 39.1238 34.8146 39.2072Z" fill="#484A51"/>
<path d="M9.57657 37.3304C9.61932 37.3826 9.66742 37.4399 9.71017 37.4921C9.61932 37.4712 9.57123 37.4243 9.57657 37.3304Z" fill="#242634"/>
<path d="M9.48576 37.1845C9.52851 37.1949 9.54454 37.221 9.52851 37.2574L9.46973 37.2366L9.48576 37.1792V37.1845Z" fill="#242634"/>
<path d="M8.5453 35.537C8.58805 35.5579 8.60408 35.5944 8.58271 35.6361L8.52393 35.5996L8.5453 35.537Z" fill="#242634"/>
<path d="M8.23003 34.8333C8.27813 34.9427 8.32622 35.047 8.37431 35.1565C8.25141 35.0783 8.18729 34.9792 8.23003 34.8333Z" fill="#242634"/>
<path d="M37.8286 34.1972C37.7644 34.1503 37.7003 34.0982 37.6309 34.0512C37.7377 34.0408 37.8019 34.0982 37.8286 34.1972Z" fill="#141513"/>
<path d="M37.5934 34.0304C37.54 33.9887 37.4919 33.947 37.4385 33.9053C37.5293 33.9053 37.5774 33.947 37.5934 34.0304Z" fill="#141513"/>
<path d="M37.3583 33.8479C37.3102 33.8271 37.2782 33.7958 37.2515 33.7541C37.3209 33.7541 37.3583 33.7854 37.3583 33.8479Z" fill="#141513"/>
<path d="M37.1553 33.6603C37.1179 33.6394 37.0912 33.6081 37.0645 33.5768L37.1339 33.5925L37.15 33.6603H37.1553Z" fill="#141513"/>
<path d="M36.9683 33.4778C36.9255 33.4569 36.8934 33.4256 36.8721 33.3839C36.9415 33.3839 36.9736 33.4152 36.9683 33.4778Z" fill="#141513"/>
<path d="M7.32689 32.9252C7.41773 32.9617 7.44445 33.0294 7.42842 33.1181C7.34292 33.0816 7.29482 33.0242 7.32689 32.9252Z" fill="#242634"/>
<path d="M8.37952 5.87315C8.34212 5.92529 8.30471 5.97221 8.26196 6.02434C8.29937 5.97221 8.33677 5.92529 8.37952 5.87315Z" fill="#141513"/>
<path d="M6.89412 31.6792C6.89412 31.7261 6.89412 31.773 6.8674 31.8199C6.83534 31.7626 6.80327 31.7052 6.76587 31.6427C6.80327 31.6635 6.84602 31.674 6.88877 31.674L6.89412 31.6792Z" fill="#242634"/>
<path d="M20.825 32.5185L20.7556 32.5654H20.6701C20.5632 32.555 20.4937 32.5967 20.451 32.6958C20.3868 32.7166 20.3227 32.7427 20.2586 32.7636C20.125 32.5342 19.8952 32.5811 19.6815 32.5498C18.5059 32.3882 17.3463 32.2214 16.315 31.5645C15.5081 31.0484 14.6317 30.6313 13.8088 30.136C12.7614 29.5 11.8744 28.6815 11.1797 27.6962C9.68881 25.5744 8.8926 23.1658 8.42236 20.6686C8.29411 19.9961 8.14449 19.2245 8.5987 18.552C8.98879 18.5833 9.2346 18.2548 9.58194 18.1818C10.0522 18.1818 10.5224 18.1923 10.9873 18.1975C11.0621 18.479 11.2812 18.5468 11.5484 18.5885C12.4675 18.7345 13.2744 18.4738 14.0118 17.9525C14.776 17.4155 14.776 16.6231 14.0118 16.1069C13.3653 15.669 12.6706 15.4761 11.8904 15.7212C11.5057 15.8411 11.1102 15.9453 10.7255 16.06C10.2926 16.1904 9.98271 16.4354 9.72622 16.8264C9.40025 17.3321 9.12772 17.9055 8.55595 18.2236C8.3048 18.0046 8.33152 17.7074 8.39564 17.452C8.55595 16.7742 8.58267 16.06 8.96207 15.4396C9.84378 15.3719 10.5705 14.9183 11.2545 14.4543C11.9652 13.9747 12.6492 13.8339 13.4454 14.1467C13.7179 14.251 14.0012 14.3396 14.0439 13.8861C14.076 13.5211 14.4233 13.4221 14.6851 13.2709C15.9623 12.5358 17.1325 11.6756 18.2013 10.6799C19.1418 9.80923 19.8952 8.80305 20.4349 7.64569C20.5258 7.65612 20.622 7.66654 20.7128 7.67697C20.5578 8.41727 20.4242 9.16799 20.1464 9.88221C20.0716 10.0751 19.9487 10.2784 20.1464 10.4765C20.1731 10.4974 20.1998 10.5078 20.2319 10.5182C19.6387 10.4505 19.8471 10.9614 19.6975 11.2168C19.1578 11.9623 18.725 12.7808 18.0784 13.4586C17.4478 14.1154 16.6783 14.6472 16.1119 15.4553C16.5875 15.5908 16.8333 15.3406 17.0951 15.1373C17.8112 14.5899 18.5112 14.0268 19.286 13.5576C19.4677 13.6723 19.5265 13.8339 19.4624 14.032C19.3662 14.324 19.2112 14.6003 19.1631 14.8974C19.0189 15.7941 19.2807 16.0548 20.0395 15.987C20.2586 15.9662 20.4777 15.961 20.6968 15.9505C20.9533 16.0496 21.0869 15.9088 21.2258 15.7212C21.8029 14.9339 22.6205 14.5534 23.5877 14.4491C24.1702 14.3865 24.758 14.3553 25.3458 14.3083C25.7145 14.3448 25.7572 14.5899 25.7252 14.8818C25.6023 14.8662 25.4847 14.8557 25.3618 14.8401C25.0465 14.6211 24.7312 14.6264 24.4106 14.8349C22.9678 14.7619 22.1075 15.6586 21.2953 16.6283C21.1403 16.816 20.996 17.0297 21.183 17.2852C21.4021 17.5875 21.6105 17.379 21.8243 17.2747C22.2411 17.2382 22.6365 17.3269 23.0266 17.4624C24.245 18.6041 26.2328 18.3643 27.2535 17.1757C27.4619 17.2539 27.4672 17.4572 27.542 17.6188C26.9809 17.7491 26.842 18.1036 26.858 18.6406C26.8954 19.798 26.8527 20.9606 26.8741 22.1231C26.9061 23.9999 26.5695 25.7985 25.9175 27.5606C25.2656 29.3175 24.1915 30.7043 22.4709 31.5749C22.209 31.7052 21.9739 31.8408 21.9418 32.1588L21.867 32.2005L21.7815 32.1901C21.6212 32.1588 21.4823 32.1901 21.3808 32.3308L21.3006 32.3726H21.2044C21.0441 32.3465 20.9105 32.383 20.8143 32.5185H20.825ZM18.5646 23.5047C17.7898 23.7393 17.0096 24.0208 16.1974 23.6976C15.5615 23.4473 14.9844 23.5203 14.4286 23.8905C14.2897 23.953 14.1454 23.9999 14.0172 24.0781C12.6866 24.881 12.5851 25.7203 13.7072 26.7265C15.4279 28.2592 17.3997 28.7076 19.6441 28.0403C21.1563 27.5919 22.1877 26.5075 23.2617 25.4753C23.4915 25.2511 23.4701 25.0739 23.251 24.8601C22.7755 24.3909 22.1877 24.1094 21.5678 23.8852C20.6166 23.4004 19.6387 23.1085 18.57 23.5047H18.5646ZM17.2074 20.2098C17.2074 20.2098 17.2074 20.2255 17.2074 20.2359C17.4211 20.215 17.6402 20.2098 17.8539 20.1733C18.0997 20.1316 18.3456 20.0847 18.5753 20.0013C19.1311 19.798 19.3074 19.2402 18.928 18.8439C18.5593 18.4582 18.0303 18.3122 17.5547 18.0932C17.4318 18.0359 17.3303 18.1141 17.2448 18.2236C16.9348 18.6354 16.518 18.9743 16.2722 19.4383C16.0424 19.8762 16.16 20.1369 16.6463 20.2098C16.828 20.2359 17.0203 20.2098 17.2074 20.2098ZM10.3247 15.6065C11.1637 15.3719 11.7675 15.0382 12.4515 15.0538C13.1782 15.0695 13.7553 15.4501 14.4393 15.8358C13.8996 14.4387 11.6393 14.2771 10.3301 15.6065H10.3247Z" fill="#F6D6BD"/>
<path d="M8.88192 5.87837C9.01552 5.77932 9.12773 5.66984 9.16514 5.4978C11.3667 3.31341 13.9477 1.666 16.8066 0.451289C18.5753 -0.299432 20.467 -0.596592 22.3907 -0.591379C23.3152 -0.591379 24.1167 -0.273365 24.4267 0.706743C23.9244 0.831863 23.5396 0.446076 23.0801 0.404369C22.9732 0.367876 22.8663 0.336596 22.7594 0.300102C22.5884 0.117635 22.38 0.148915 22.1663 0.190622C21.5892 0.154129 21.0067 0.0498621 20.4563 0.336596C20.0983 0.393942 19.799 0.373089 19.58 0.842289C19.4517 1.1186 18.757 1.14988 18.2975 1.32713C18.757 1.21244 18.7357 1.82761 19.1311 1.80676C19.3395 1.82761 19.5532 1.84846 19.7082 1.666C19.8258 1.65036 19.9487 1.63472 20.0662 1.61908L20.1197 1.63472L20.1731 1.61908C20.2052 1.72856 20.1357 1.78069 20.0555 1.82761C19.4731 2.15605 18.7837 2.26553 18.244 2.70866C18.1479 2.78686 17.6616 3.28735 17.4852 2.58354C17.4478 2.43236 17.0631 2.77122 16.7638 2.66174C16.8974 2.2916 17.2501 2.07264 17.4639 1.68685C17.0417 1.57737 16.7692 1.87453 16.4486 1.96316C16.2241 2.02572 16.0638 2.26032 15.7592 2.10913C15.2462 1.84846 14.76 2.01008 14.279 2.27074C13.376 2.75558 12.4675 3.23 11.7194 3.93901L11.7087 3.95465C11.4789 4.02243 11.308 4.15797 11.2171 4.38215C10.982 4.46556 10.8163 4.62717 10.656 4.79921C10.5385 4.77836 10.485 4.83049 10.4957 4.94519L10.4743 4.96604C10.3621 4.96083 10.3033 5.00775 10.3247 5.12244C10.2713 5.14329 10.2392 5.185 10.2392 5.24235C9.40561 5.90965 8.46512 7.19735 8.3155 7.94807C8.63077 7.7239 8.89261 7.53621 9.15445 7.35375C7.98953 8.92818 7.27348 10.7164 6.65896 12.541C6.5788 12.7704 6.5414 13.0259 6.41849 13.2292C6.31162 13.4012 6.4559 13.6932 6.13528 13.7609C5.9055 13.8079 5.86275 13.8496 5.79863 14.0425C5.71847 14.2718 5.65435 14.5064 5.58488 14.741C5.51541 14.9756 5.4406 15.2102 5.37113 15.4396C5.28029 15.4396 5.18945 15.4396 5.09326 15.4396C5.15204 14.006 5.7345 12.7078 6.15665 11.3628C6.51468 10.2315 6.94217 9.12628 7.4712 8.05755C7.70097 7.59356 8.13915 7.27034 8.29946 6.76986C8.36359 6.73336 8.38496 6.68644 8.3529 6.61867C8.44909 6.58739 8.50252 6.52483 8.51321 6.43099C8.64146 6.32151 8.74833 6.19117 8.7804 6.01913C8.8178 5.97221 8.85521 5.92529 8.88727 5.87837H8.88192Z" fill="#E6E8E8"/>
<path d="M10.0789 36.8352C9.64605 36.6579 9.35215 36.3816 9.36818 35.8811C9.32009 35.7352 9.30406 35.5683 9.12772 35.4953V35.5058C9.16512 35.1617 9.06359 34.8489 8.92466 34.5309C8.24601 32.9773 7.93074 31.3299 7.6208 29.6825C7.46049 28.8483 7.30553 28.009 7.12918 27.1749C7.07575 26.9298 7.04903 26.6952 7.09712 26.4502C7.56202 26.591 7.50858 27.0289 7.60477 27.3573C7.98417 28.5877 8.34754 29.8232 8.97275 30.9597C9.05825 31.1161 9.12237 31.2934 9.32009 31.3872C9.59262 31.1474 9.40559 30.9441 9.32009 30.7356C8.71625 29.2237 8.22998 27.6806 7.83455 26.1061C7.7918 25.9341 7.80783 25.7464 7.79714 25.5796C7.94142 25.5327 8.00555 25.5952 8.03761 25.6734C8.62007 27.0132 9.54452 28.1393 10.4316 29.281C10.7469 29.6877 10.8858 30.037 10.7308 30.5322C10.4743 31.3872 10.8377 32.2214 10.9125 33.0607C11.0301 34.4214 11.3721 35.7456 11.9599 37.1428C11.3026 36.9186 11.1583 36.4337 10.9018 36.0584C10.6239 35.657 10.3835 35.2347 10.0629 34.729C9.66743 35.5058 10.2552 36.1731 10.0629 36.8352H10.0789Z" fill="#242634"/>
<path d="M26.8686 37.5233C27.0824 36.7622 27.5686 36.0949 27.6702 35.2868C27.8786 33.6237 28.8565 32.2214 29.3588 30.6574C29.6099 29.8701 29.9305 29.109 29.8985 28.2644C29.8931 28.0768 29.8878 27.8943 29.7061 27.7744C29.7863 26.4606 30.1336 25.1938 30.3741 23.9113C30.5023 23.2388 30.3313 22.5037 30.855 21.7686C30.7268 23.9634 30.9245 26.0227 30.6947 28.1028C30.4649 30.209 29.8985 32.2266 29.455 34.2754C29.3695 34.656 29.1664 35.0157 29.0061 35.3806C28.8832 35.6622 28.7122 35.928 28.7656 36.2513V36.2408C28.6213 36.293 28.6214 36.3555 28.7549 36.4233C28.2206 36.9394 27.6595 37.4138 26.874 37.5337L26.8633 37.5233H26.8686Z" fill="#242634"/>
<path d="M35.1513 28.8275C34.8414 29.8806 34.5582 30.9232 34.5742 32.0545C34.5849 32.9043 34.7612 33.6133 35.3651 34.2129C34.2429 34.1399 33.3826 33.337 33.0887 32.2422C32.891 31.5019 33.1581 30.8555 33.3772 30.209C33.933 28.5772 34.1093 26.8725 34.4193 25.199C34.6063 24.1824 34.7719 23.1606 34.9216 22.1336C34.9803 21.7426 34.975 21.3411 34.991 20.9449C35.0017 20.6895 34.9964 20.4392 35.3437 20.3923C35.4025 20.4601 35.504 20.5279 35.5094 20.6008C35.5575 21.8208 35.6643 23.0407 35.4559 24.2554C35.2315 25.5431 35.1193 26.8464 34.9964 28.1445C34.975 28.3739 34.9055 28.6398 35.1513 28.8223V28.8275Z" fill="#242634"/>
<path d="M19.2967 13.5576C18.5219 14.0268 17.8165 14.5847 17.1058 15.1373C16.844 15.3406 16.5981 15.5908 16.1226 15.4553C16.6836 14.642 17.4585 14.1155 18.089 13.4586C18.7356 12.7808 19.1685 11.9623 19.7082 11.2168C19.7349 11.3576 19.7456 11.5088 19.9059 11.5818C19.9059 11.9363 19.5051 12.1292 19.5211 12.4889C19.4089 12.5306 19.3181 12.5932 19.286 12.7131C19.286 12.7235 19.3662 12.7808 19.3875 12.7704C19.5104 12.7131 19.5158 12.5984 19.5211 12.4837C20.2853 12.369 20.5257 11.6652 20.8731 11.1803C21.7494 9.96042 22.5243 8.66752 22.8289 7.16086C22.9304 6.67081 22.8716 6.18597 22.9518 5.70634C22.9785 5.55515 23.064 5.39354 23.235 5.38311C23.438 5.37268 23.4861 5.54472 23.4755 5.70112C23.438 6.24331 23.6999 6.67602 23.9029 7.16086C24.4373 8.45377 24.9396 9.77274 24.977 11.2012C24.8755 11.2012 24.7686 11.2012 24.6671 11.2012C24.3465 9.83009 24.1541 8.41727 23.3739 6.98882C23.1174 7.69262 22.9464 8.21395 22.738 8.71443C21.9632 10.5808 20.8357 12.2074 19.2967 13.5576Z" fill="#242634"/>
<path d="M12.537 9.36089C12.008 9.78317 11.3454 10.0282 10.8538 10.5078C10.7362 10.6225 10.5599 10.6903 10.4316 10.586C10.2125 10.4192 10.4103 10.268 10.5064 10.1272C11.3828 8.83434 12.1576 7.46323 13.5523 6.58739C13.8088 6.42578 14.0493 6.2016 14.0493 5.85231C14.7867 5.16415 15.7005 4.8305 16.7265 4.5594C16.7265 4.9087 16.5074 5.01296 16.3097 5.12244C15.8555 5.38311 15.3906 5.62292 14.9363 5.89402C14.6692 6.05563 14.4234 6.24852 14.418 6.60303C14.3966 6.61346 14.3699 6.61867 14.3539 6.6291C14.3432 6.63952 14.3432 6.66038 14.3379 6.67602C14.3646 6.64995 14.3913 6.62388 14.418 6.60303C14.8402 6.57175 15.1234 6.24331 15.4867 6.11298C15.9249 5.95658 16.3417 5.45088 16.8921 5.89402C16.6463 6.13904 16.4005 6.38407 16.1547 6.62388C15.9677 6.59782 15.77 6.58218 15.6096 6.69166C14.9631 7.11915 14.2844 7.51015 13.6913 8.00542C13.3065 8.32343 12.7882 8.59453 12.7294 9.19406L12.7348 9.18885C12.6439 9.22534 12.3767 9.08979 12.537 9.37653V9.36089Z" fill="#242634"/>
<path d="M27.2481 7.15565C26.8259 7.19735 26.8206 7.4893 26.9328 7.75518C27.2641 8.54761 27.4137 9.38696 27.5901 10.2211C27.8359 11.3837 28.1084 12.541 27.9802 13.7557C27.7076 13.7662 27.6542 13.4221 27.3977 13.4064C27.2748 13.396 27.2053 13.3282 27.1893 13.1666C27.0824 11.9206 26.671 10.7476 26.3129 9.559C26.2969 8.40685 25.8855 7.35897 25.4206 6.32151C25.287 6.02957 25.0465 5.7689 25.0518 5.31534C26.0404 5.74283 26.687 6.40493 27.2534 7.15565H27.2481Z" fill="#242634"/>
<path d="M16.6944 6.97839C16.7371 7.00967 16.7959 7.08266 16.828 7.07223C17.2501 6.96275 17.4799 6.34236 17.9341 6.48312C18.5326 6.66559 18.5273 5.93051 18.9975 6.01914C19.1151 6.26416 18.7303 6.45184 18.8372 6.75422C19.1151 6.86891 19.27 6.58739 19.4891 6.53526C19.6174 6.5926 19.7136 6.68123 19.7617 6.81156C19.1418 7.96371 18.196 8.86041 17.2768 9.77274C17.1433 9.73103 17.0738 9.62677 17.015 9.50686C17.4104 8.73529 17.854 7.97935 17.9181 7.07744C17.1593 7.77603 16.7104 8.70922 15.9409 9.38174L15.7058 9.16278C15.7218 9.10543 15.7432 9.04809 15.786 9.00117C16.1654 8.67794 15.7165 8.38599 15.7432 8.07841C15.8073 7.9585 15.8768 7.84381 15.9409 7.7239C16.0531 7.58835 16.1654 7.45281 16.2776 7.32247C16.3631 7.32247 16.4432 7.32247 16.5287 7.31726C16.657 7.23385 16.8974 7.20778 16.6944 6.97318V6.98361V6.97839Z" fill="#E6E8E8"/>
<path d="M10.2338 5.24234C10.2338 5.18499 10.2658 5.1485 10.3193 5.12243C10.4101 5.10679 10.4582 5.05466 10.4689 4.96603L10.4903 4.94518C10.5811 4.93475 10.6346 4.88783 10.6506 4.79921C10.8109 4.62717 10.9819 4.46555 11.2117 4.38214C11.5056 4.38214 11.8262 4.41342 11.7033 3.95465L11.714 3.93901C12.1629 4.12669 12.4888 3.82431 12.8468 3.6627C13.6377 3.30298 14.4286 2.93805 15.3263 2.90155C15.4652 2.89634 15.6042 2.92241 15.7645 2.99539C13.8782 3.90773 12.1308 4.99731 10.6185 6.41013C10.3727 6.41013 10.1269 6.40492 9.8811 6.3997C9.8811 5.97742 10.4155 5.70633 10.2231 5.23191L10.2338 5.24234Z" fill="#242634"/>
<path d="M5.57956 21.6383C5.62231 17.9055 6.45592 14.3292 7.83459 10.8623C7.86665 10.7789 7.93612 10.7111 7.98421 10.6329C8.01628 10.7893 7.9949 10.9718 8.20331 11.0291C7.07045 13.5003 6.48799 16.1122 6.11927 18.7762C5.98568 19.7406 5.82003 20.6947 5.57422 21.6383H5.57956Z" fill="#A6BA96"/>
<path d="M27.2427 1.44182C26.6923 1.56173 26.1847 1.25936 25.6129 1.33234C25.2068 1.38448 25.4366 0.96741 25.5488 0.743237C25.9175 0.37309 26.3877 0.362663 26.8687 0.37309C26.9328 0.461717 26.9969 0.472143 27.0664 0.378303C27.1893 0.378303 27.3068 0.378303 27.4298 0.383516C27.713 0.925704 28.3542 1.02997 28.7603 1.4314C28.9474 1.61386 29.2306 1.71292 29.2573 2.07785C28.8886 2.14041 28.5412 1.90581 28.1886 1.99965H28.1992C28.0069 1.60865 27.6328 1.51481 27.2481 1.44182H27.2427Z" fill="#242634"/>
<path d="M8.20859 11.0292C7.99485 10.9718 8.01622 10.7893 7.9895 10.6329C8.417 9.57985 8.77502 8.48505 9.83307 7.82295C9.92925 7.84381 10.0254 7.86466 10.1216 7.88551C9.38954 8.87605 8.83915 9.97606 8.21394 11.0239L8.20859 11.0292Z" fill="#B7D3D3"/>
<path d="M16.5286 7.31204C16.4431 7.31204 16.3629 7.31204 16.2774 7.31726C15.8499 7.15043 16.0049 6.87933 16.1492 6.61345C16.395 6.36843 16.6408 6.1234 16.8866 5.88359C17.3088 5.70633 17.4904 5.27884 17.8324 5.01296C18.121 4.78879 18.3722 4.50205 18.96 4.38736C18.618 4.69495 18.3935 4.89305 18.1691 5.09116C17.9393 5.29969 17.6882 5.49259 17.4851 5.72197C17.1538 6.09733 16.6301 6.36843 16.6889 6.97839V6.96796C16.395 6.97318 16.5179 7.17128 16.5232 7.31204H16.5286Z" fill="#B7D3D3"/>
<path d="M27.4298 0.383508C27.3069 0.383508 27.1893 0.383509 27.0664 0.378295C27.0023 0.378295 26.9328 0.378295 26.8687 0.373082C26.3877 0.362655 25.9175 0.373082 25.5488 0.743229C25.3457 0.758869 25.1694 0.722375 25.1373 0.482562C25.1106 0.289668 25.2389 0.211468 25.4045 0.174975C26.1419 0.008148 26.8794 -0.179532 27.6168 0.159335C27.5527 0.232322 27.4885 0.310522 27.4244 0.383508H27.4298Z" fill="#B7D3D3"/>
<path d="M19.9006 11.5766C19.7403 11.5036 19.7296 11.3524 19.7029 11.2116C19.8525 10.9562 19.6494 10.4453 20.2372 10.513C20.3388 10.9301 20.0395 11.2325 19.9006 11.5766Z" fill="#0F0F0E"/>
<path d="M19.7562 6.80635C19.7081 6.67602 19.6119 6.58739 19.4836 6.53004C19.7134 6.24852 20.034 6.12861 20.376 6.03477C20.344 6.15989 20.3066 6.28502 20.2745 6.41014C20.018 6.4362 19.9699 6.72294 19.7562 6.80114V6.80635Z" fill="#A6BA96"/>
<path d="M10.1216 7.89072C10.0254 7.86987 9.92919 7.84901 9.83301 7.82816C9.88644 7.58834 10.1697 7.54142 10.2712 7.3381C10.5384 7.59877 10.3353 7.74996 10.1269 7.89072H10.1216Z" fill="#A6BA96"/>
<path d="M19.7082 1.66599C19.5533 1.84846 19.3395 1.8276 19.1311 1.80675C19.3021 1.68163 19.4945 1.62428 19.7082 1.66599Z" fill="#B7D3D3"/>
<path d="M7.2626 31.8095C7.10229 31.7313 7.07023 31.5958 7.09161 31.4342C7.21985 31.528 7.25726 31.6583 7.2626 31.8095Z" fill="#242634"/>
<path d="M20.173 1.61908L20.1196 1.63472L20.0662 1.61908C20.1143 1.52524 20.1944 1.48875 20.2959 1.50439C20.3173 1.50439 20.328 1.55131 20.344 1.57737C20.2853 1.59301 20.2265 1.60344 20.1677 1.61908H20.173Z" fill="#B7D3D3"/>
<path d="M28.9473 5.85752C28.974 5.88358 29.0007 5.90965 29.0274 5.9305C29.0114 5.9305 28.9847 5.9305 28.9793 5.91486C28.9633 5.89922 28.958 5.87316 28.9526 5.84709L28.9473 5.85752Z" fill="#141513"/>
<path d="M25.7305 14.8766C25.7626 14.5846 25.7198 14.3396 25.3511 14.3031C25.3725 14.2458 25.3671 14.1832 25.3511 14.1259C25.4847 13.7818 25.629 13.4429 25.7465 13.0988C25.8213 12.8747 25.9923 12.8486 26.1901 12.8538C26.4252 12.8538 26.5214 12.9946 26.5374 13.2031C26.5481 13.3543 26.5374 13.5159 26.5695 13.6619C26.655 14.0216 26.4572 14.6472 27.2481 14.3813C27.4832 14.715 27.8092 14.9861 27.8199 15.4553C27.8359 16.06 27.8733 16.06 28.4878 15.8306C28.8405 20.5018 28.4023 25.0687 26.671 29.4792C26.6496 29.5365 26.6069 29.5886 26.6015 29.6512C26.4359 31.2569 25.2335 32.1171 24.0633 32.9825C23.1335 33.6707 22.2518 34.4058 21.5357 35.3077C21.2953 35.6153 20.9907 35.7873 20.6166 35.902C19.767 36.1679 18.9227 36.2669 17.9822 36.0688C18.3562 35.1825 18.8692 34.4579 19.4089 33.7541C19.5532 33.5612 19.7563 33.5143 19.9861 33.5143C21.1403 33.5143 22.1983 33.1024 23.2724 32.7636C24.0686 32.5081 24.6992 31.9972 25.2442 31.3872C25.3511 31.2673 25.4099 31.1161 25.2977 30.9702C25.1801 30.8242 25.0145 30.8503 24.8702 30.9233C24.4854 31.1266 24.1114 31.356 23.7266 31.5593C23.1762 31.8564 22.6151 32.1275 21.9686 32.1536C21.9953 31.8304 22.2357 31.7 22.4976 31.5697C24.2182 30.6991 25.2923 29.3123 25.9442 27.5554C26.5962 25.7933 26.9328 23.9895 26.9008 22.1179C26.8794 20.9553 26.9221 19.798 26.8847 18.6354C26.8687 18.1037 27.0076 17.7439 27.5687 17.6136C27.6328 17.6814 27.697 17.7439 27.7504 17.8169C27.868 17.9681 27.9855 18.1245 28.2046 18.0098C28.4451 17.8847 28.3222 17.7022 28.2474 17.5406C28.1458 17.3164 28.0336 17.0975 27.9321 16.8785C27.4939 15.9088 27.0397 14.9548 25.7465 14.8714L25.7305 14.8766Z" fill="#EDBC9F"/>
<path d="M8.96199 15.4396C8.58794 16.06 8.56122 16.7742 8.39556 17.452C8.33678 17.7074 8.31007 18.0046 8.56122 18.2236C8.57725 18.333 8.58794 18.4373 8.60397 18.5468C8.14976 19.2193 8.29938 19.9909 8.42763 20.6634C8.89787 23.1658 9.68873 25.5691 11.185 27.691C11.8796 28.6763 12.772 29.5 13.814 30.1308C14.637 30.6261 15.508 31.0484 16.3202 31.5593C17.3516 32.2162 18.5111 32.3882 19.6867 32.5446C19.9005 32.5759 20.1356 32.5237 20.2639 32.7583L20.2478 32.8105C19.5638 32.7323 18.8798 32.7479 18.1959 32.7792C16.2775 32.6176 14.6637 31.7 13.1621 30.6574C9.93454 28.4208 8.28335 25.1938 7.66348 21.4715C7.36424 19.6885 7.44973 17.8638 7.97341 16.0965C8.13907 15.5283 8.23525 15.4605 8.95665 15.4344L8.96199 15.4396Z" fill="#E6E8E8"/>
<path d="M19.2966 13.5576C20.8356 12.2074 21.9631 10.5808 22.7379 8.71443C22.9463 8.21395 23.1173 7.69262 23.3738 6.98882C24.154 8.42248 24.3464 9.83008 24.667 11.2012C24.667 11.3837 24.651 11.5661 24.667 11.7486C24.7097 12.1552 24.5174 12.2282 24.1273 12.2751C23.3898 12.3586 22.631 12.1292 21.9096 12.4211C21.0974 12.6296 20.3119 12.8851 19.692 13.4846C19.9966 13.8548 20.3119 13.9173 20.6592 13.8913C20.9638 13.8391 21.2684 13.787 21.573 13.7349C21.744 13.7714 21.8936 13.7401 22.0165 13.6098C22.1234 13.5889 22.2356 13.5628 22.3425 13.542C22.5081 13.5733 22.6524 13.542 22.77 13.4221C23.0959 13.469 23.3631 13.2865 23.657 13.2083C24.0204 13.2396 24.2983 12.9894 24.6349 12.932C24.6723 13.2552 24.7097 13.5785 24.7471 13.9017C23.8761 13.9747 23.0104 14.0737 22.1929 14.4282C21.4768 14.741 20.9424 15.1894 20.7073 15.9401C20.4882 15.9505 20.2691 15.9558 20.0501 15.9766C19.2913 16.0444 19.0294 15.7837 19.1737 14.887C19.2218 14.5899 19.3767 14.3136 19.4729 14.0216C19.5371 13.8235 19.4783 13.6619 19.2966 13.5472V13.5576Z" fill="#EDBC9F"/>
<path d="M20.0823 39.5513C20.1464 39.5565 20.2052 39.5618 20.2693 39.567C20.4724 39.7911 20.7342 39.9475 20.9159 40.2082C21.2151 40.6409 21.6693 40.9277 22.2144 41.0319C20.7075 43.6177 19.2059 46.2036 17.699 48.7946C17.6242 48.9249 17.5708 49.0761 17.3998 49.1178C17.2127 48.977 17.2662 48.7998 17.3089 48.6225C17.7631 46.6936 18.1692 44.749 18.7891 42.867C19.1578 41.7461 19.409 40.5731 20.0769 39.5565L20.0823 39.5513Z" fill="#6D8060"/>
<path d="M17.0736 44.1599C16.4324 44.2068 15.8659 44.0504 15.4224 43.5708C15.3155 43.4561 15.1659 43.4196 15.0056 43.4092C15.3369 41.8817 15.914 40.4376 16.5339 39.0091C16.9988 39.0091 17.4584 39.0091 17.9233 39.0039C17.9767 39.1134 18.0248 39.2229 18.0782 39.3324C17.9553 39.421 17.7843 39.4888 17.7202 39.6087C17.5385 39.9423 17.095 40.2082 17.3034 40.6618C17.4958 41.0684 17.9553 40.6148 18.2172 40.8703C17.8378 41.9703 17.453 43.0651 17.0736 44.1651V44.1599Z" fill="#E2F0F0"/>
<path d="M32.2657 32.9147C32.8054 35.0887 32.5222 37.002 31.7313 38.8736C31.6832 38.9935 31.5977 39.0873 31.4641 39.103C31.3092 39.1238 31.2718 38.9935 31.213 38.884C30.7748 38.0082 30.5771 37.0281 30.0053 36.2044C29.8664 36.0063 30.0053 35.8446 30.1442 35.73C31.0313 34.9897 31.6618 34.0513 32.2657 32.9147Z" fill="#242634"/>
<path d="M18.8105 33.5664C17.7417 35.2347 16.7158 36.8247 15.9837 38.6494C15.2569 38.1437 14.5088 37.8622 13.6592 37.8935C14.3485 36.6214 17.6616 33.7906 18.8158 33.5664H18.8105Z" fill="#5B6E4C"/>
<path d="M25.4204 32.7219C24.9929 34.4266 24.2608 35.7821 23.3043 37.0385C23.1921 37.1845 23.0585 37.3148 22.8608 37.3617C22.1447 37.5233 21.4287 37.6797 20.6592 37.8518C21.5997 35.902 22.6951 34.6717 25.415 32.7219H25.4204Z" fill="#5B6E4C"/>
<path d="M12.7239 31.4498C14.6209 31.9294 15.1446 33.0242 15.1713 34.656C15.1767 35.0522 15.0538 35.3546 14.7652 35.6361C14.2522 36.1262 13.7072 36.5901 13.3171 37.2001C13.1995 37.3826 12.9751 37.6693 12.7399 37.3252C12.601 37.1219 12.2163 36.9864 12.5796 36.5745C13.6965 35.3129 13.7713 33.8844 13.114 32.3882C12.9804 32.0806 12.7453 31.8147 12.7239 31.4602V31.4498Z" fill="#242634"/>
<path d="M20.0821 39.5513C19.4088 40.5627 19.163 41.7409 18.7943 42.8618C18.1691 44.749 17.7683 46.6884 17.3141 48.6173C17.2713 48.7998 17.2126 48.977 17.4049 49.1126C17.2553 49.5401 17.1912 50.0197 16.7477 50.2908C16.7263 50.2647 16.6996 50.2335 16.6729 50.2074C17.0202 47.069 17.7256 44.0139 18.9172 41.0736C19.2057 40.3646 19.5264 39.6712 19.9218 39.0091C20.0821 39.0821 20.0768 39.2385 20.1035 39.3741C20.0821 39.4262 20.0768 39.4836 20.0875 39.5409L20.0821 39.5513Z" fill="#A6BA96"/>
<path d="M11.3078 30.5896C12.5636 32.2891 13.5415 34.0356 12.1628 36.2409C11.5376 34.3536 11.2277 32.5081 11.3078 30.5896Z" fill="#E6E8E8"/>
<path d="M34.0186 38.0394C33.901 38.3366 33.8262 38.639 33.8689 38.9622C33.217 39.3793 32.8055 40.1196 31.9719 40.2812C31.9025 40.0101 31.7689 39.8433 32.0361 39.4783C32.7681 38.4826 33.0193 37.2679 33.0941 36.0427C33.1369 35.3181 33.1048 34.583 33.1048 33.8427C33.4414 33.7697 33.543 34.0147 33.6766 34.2024C33.4254 34.3797 33.4842 34.6247 33.5376 34.8645C33.73 35.7195 33.9063 36.5745 33.8636 37.4556C33.8529 37.6589 33.8155 37.8883 34.0239 38.0394H34.0186Z" fill="#242634"/>
<path d="M17.9233 39.0039C17.4584 39.0039 16.9988 39.0039 16.5339 39.0091C16.6301 38.7224 16.7103 38.4252 16.8332 38.1541C17.0469 37.6797 17.2019 37.148 17.5385 36.7778C17.9286 36.3503 18.5378 36.7309 19.0455 36.6631C19.4997 36.6058 19.9592 36.611 20.5096 36.5849C20.2157 37.2314 19.8898 37.7684 19.489 38.2636C19.4249 38.1959 19.3607 38.1281 19.2966 38.0655C19.3233 37.8309 19.302 37.6172 18.976 37.6797C18.7943 37.711 18.6287 37.7996 18.4523 37.8674C18.0996 38.0082 17.3943 37.9769 17.4584 38.2897C17.5653 38.8215 18.2012 38.3053 18.5699 38.493L18.5485 38.5712C18.308 38.6807 18.0729 38.7902 17.9126 39.0091L17.9233 39.0039Z" fill="#B7D3D3"/>
<path d="M8.556 14.2666C8.48653 13.8287 8.62012 13.5159 8.8499 13.2135C9.91863 11.7851 11.3133 10.7216 12.8202 9.78316C13.1088 9.6007 13.3226 9.24619 13.9531 9.23576C12.2966 11.2116 10.2873 12.5932 8.56134 14.2666H8.556Z" fill="#242634"/>
<path d="M34.0185 38.0395C33.8101 37.8831 33.8528 37.6589 33.8581 37.4556C33.9009 36.5745 33.7246 35.7143 33.5322 34.8645C33.4787 34.6247 33.42 34.3849 33.6711 34.2024C34.0238 34.4318 34.3551 34.6977 34.7879 34.7759C34.8574 34.828 34.9269 34.8802 34.9964 34.9323C35.2742 35.8759 35.2849 36.8195 34.9429 37.7579C34.8841 37.9248 34.8414 38.0968 34.7879 38.2688C34.6811 38.2584 34.5742 38.248 34.462 38.2323C34.4032 37.9508 34.291 37.8049 34.0078 38.0447L34.0185 38.0395Z" fill="#484A51"/>
<path d="M13.3544 12.6036C12.5422 12.9685 11.7139 13.2917 10.8001 13.4012C10.7948 13.0519 11.0459 12.9372 11.2116 12.7808C11.7887 12.2386 12.3819 11.7121 12.9697 11.1855C13.5147 11.2116 13.7605 10.8154 14.0437 10.4713C14.359 10.1742 14.669 9.87179 14.9842 9.57984C15.0911 9.48079 15.2087 9.34524 15.3583 9.53292C15.3583 9.68932 15.3583 9.85093 15.3583 10.0073C14.8827 10.586 14.3376 11.1178 13.9369 11.759C13.7392 12.0405 13.5414 12.3221 13.3491 12.6088L13.3544 12.6036Z" fill="#484A51"/>
<path d="M19.7562 6.80634C19.9699 6.72293 20.018 6.44141 20.2745 6.41534C20.2264 7.28597 19.6546 7.94285 19.2218 8.62059C18.2653 10.122 16.9294 11.2742 15.353 12.1552C15.2889 12.1448 15.2247 12.1344 15.1553 12.1239C15.2141 12.0301 15.2728 11.9415 15.3316 11.8476H15.3583C15.4225 11.7538 15.4866 11.66 15.5507 11.5609C15.9835 11.3002 15.8553 10.6538 16.3629 10.4453C16.737 10.3097 17.0576 10.1064 17.2714 9.76752C18.1905 8.85519 19.1363 7.95849 19.7562 6.80634Z" fill="#484A51"/>
<path d="M13.6538 40.6409C14.1829 40.2499 14.8348 40.1196 15.4119 39.8016C15.5508 40.0935 15.3478 40.2916 15.273 40.5054C14.8722 41.6575 14.45 42.794 14.1829 43.9879C14.1134 44.2903 14.1508 44.6656 13.8248 44.8846C13.6004 44.7438 13.6431 44.5196 13.6431 44.3111C13.6431 43.7376 13.6592 43.1642 13.6592 42.5907C13.6592 41.939 13.6592 41.2926 13.6538 40.6409Z" fill="#6D8060"/>
<path d="M11.3987 38.8058C11.3293 38.4461 11.2598 38.0864 11.185 37.7267L11.2384 37.685C11.6659 38.0395 12.0453 38.4461 12.5423 38.712C12.9484 38.9309 12.8683 39.129 12.6011 39.4106C11.8957 40.1457 11.1529 40.3125 10.0789 39.9267C10.501 39.5305 11.1529 39.3949 11.4041 38.811L11.3987 38.8058Z" fill="#242634"/>
<path d="M16.1545 6.61345C16.0103 6.87933 15.8553 7.15043 16.2828 7.31725C16.1706 7.4528 16.0584 7.58835 15.9461 7.71868C15.54 7.58835 15.353 8.04712 15.0003 8.05233C14.5087 8.15139 14.0972 8.39641 13.6858 8.66751C13.3865 8.86561 13.114 9.13671 12.7292 9.18363C12.788 8.58931 13.3064 8.31821 13.6911 7.99499C14.2843 7.50493 14.9629 7.11393 15.6095 6.68123C15.7751 6.57175 15.9675 6.58739 16.1545 6.61345Z" fill="#484A51"/>
<path d="M20.7075 15.9453C20.9426 15.1946 21.477 14.7463 22.193 14.4335C23.0106 14.0789 23.8709 13.9799 24.7473 13.9069C24.8649 14.1989 25.1267 14.1154 25.3511 14.1259C25.3725 14.1832 25.3725 14.2406 25.3511 14.3031C24.7633 14.35 24.1755 14.3813 23.5931 14.4439C22.6312 14.5481 21.8083 14.9287 21.2312 15.7159C21.0922 15.9036 20.964 16.0444 20.7021 15.9453H20.7075Z" fill="#484A51"/>
<path d="M31.9665 40.2864C32.8054 40.1248 33.2169 39.3845 33.8635 38.9674C33.7833 40.0622 33.2917 40.8912 32.1856 41.4021C32.084 41.0059 31.7207 40.7191 31.9611 40.2864H31.9665Z" fill="#E6E8E8"/>
<path d="M11.3988 38.8058C11.1476 39.3897 10.4957 39.5253 10.0735 39.9215C9.59796 39.958 9.1384 39.8954 8.65747 39.6504C9.20787 39.2698 9.85445 39.0821 10.298 38.6025C10.4262 38.4617 10.5812 38.493 10.7041 38.6129C10.9018 38.811 11.1423 38.8267 11.3988 38.8058Z" fill="#484A51"/>
<path d="M22.2144 41.0319C21.6693 40.9276 21.2151 40.6461 20.9159 40.2082C20.7342 39.9423 20.4723 39.7859 20.2693 39.567C20.5525 39.567 20.8357 39.5878 21.1082 39.5461C21.8029 39.4418 22.1235 39.9423 22.4655 40.3542C22.6953 40.6305 22.4442 40.8546 22.209 41.0319H22.2144Z" fill="#5B6E4C"/>
<path d="M18.2173 40.8651C17.9554 40.6096 17.4959 41.0632 17.3035 40.6565C17.0898 40.203 17.5333 39.9371 17.7203 39.6035C17.7844 39.4835 17.9554 39.421 18.0783 39.3271C18.3776 39.3845 18.6929 38.9726 18.9814 39.3584C18.7249 39.8589 18.4738 40.3594 18.2173 40.8599V40.8651Z" fill="#B7D3D3"/>
<path d="M20.6593 13.8965C20.3067 13.9226 19.9914 13.86 19.6921 13.4899C20.312 12.8903 21.0975 12.6349 21.9098 12.4263C22.0434 12.687 22.2838 12.9633 21.7495 13.0728C21.5143 13.1249 21.2899 13.2188 21.0601 13.297C20.7716 13.396 20.6006 13.5785 20.6593 13.8965Z" fill="#242634"/>
<path d="M24.5656 38.6807C24.5336 38.8423 24.416 38.9414 24.2824 39.0196C23.9137 39.2437 23.5343 39.4523 23.1656 39.6817C22.9198 39.8328 22.7541 39.6921 22.5778 39.567C22.3908 39.4314 22.332 39.2437 22.5671 39.1447C23.032 38.9466 23.3954 38.6077 23.8282 38.3783C24.1061 38.2271 24.571 38.4409 24.5603 38.6807H24.5656Z" fill="#5B6E4C"/>
<path d="M35.9369 34.2024C35.8942 34.0877 35.8888 33.9418 35.8087 33.8688C35.1888 33.3162 35.0712 32.628 35.2155 31.7782C35.6484 32.3934 35.8835 33.0816 36.482 33.4934C36.5888 33.7437 36.8614 33.9053 36.8667 34.2076L36.8774 34.1972C36.5621 34.1972 36.2468 34.1972 35.9369 34.1972V34.2024Z" fill="#484A51"/>
<path d="M15.3583 11.8476H15.3315C14.9521 11.7851 14.685 11.9571 14.4338 12.2178C14.0971 12.5671 13.7284 12.8851 13.349 13.2396C13.146 12.9685 13.4078 12.7965 13.349 12.6036C13.5468 12.3168 13.7445 12.0353 13.9422 11.7538C14.1987 12.1031 14.3804 11.8112 14.53 11.6652C14.8185 11.3889 15.0483 11.0552 15.3422 10.7893C15.4972 10.6486 15.5079 10.8467 15.5293 10.9562C15.2781 11.2168 15.1926 11.5088 15.3583 11.8476Z" fill="#5B6E4C"/>
<path d="M15.3637 9.53292C15.2141 9.34524 15.0966 9.48078 14.9897 9.57984C14.6744 9.87178 14.3591 10.1742 14.0492 10.4713C13.9797 10.4035 13.9049 10.341 13.8354 10.2732C14.2255 9.73102 14.6156 9.19405 15.0057 8.65186C15.3851 8.62058 15.4973 8.26086 15.7485 8.07318C15.7218 8.38077 16.1706 8.67271 15.7912 8.99594C15.7325 8.89689 15.6416 8.77698 15.5454 8.92295C15.4225 9.10542 15.0805 9.24618 15.3584 9.54856L15.3691 9.53813L15.3637 9.53292Z" fill="#B7D3D3"/>
<path d="M15.5508 32.9199C16.1279 32.8939 16.5875 33.2432 17.2073 33.3474C16.8226 33.8688 16.2615 34.0512 15.8233 34.5986C15.7432 33.9366 15.5401 33.4517 15.5561 32.9199H15.5508Z" fill="#242634"/>
<path d="M12.7989 40.8338C12.708 40.8338 12.6172 40.8338 12.521 40.8338C12.8309 40.1196 13.221 39.4731 14.0065 39.1551C14.1722 39.2959 14.3325 39.4314 14.4982 39.5722C14.3111 39.6712 14.1348 39.8172 13.9317 39.8693C13.376 40.0101 13.0286 40.349 12.7989 40.839V40.8338Z" fill="#6E8161"/>
<path d="M27.0451 35.5318C26.8848 36.3451 26.4893 37.0385 25.7412 37.5494C26.1099 36.8352 26.4786 36.1157 26.8474 35.4015C26.9115 35.4432 26.9809 35.4901 27.0451 35.5318Z" fill="#484A51"/>
<path d="M14.498 39.5722C14.3323 39.4314 14.172 39.2959 14.0063 39.1551C14.0331 38.9726 14.0918 38.7954 14.2682 38.7068C14.5728 38.5451 15.1232 38.6755 15.2354 38.9831C15.3797 39.3845 14.9361 39.3271 14.7491 39.4679C14.6797 39.52 14.5835 39.5409 14.498 39.5774V39.5722Z" fill="#5B6E4C"/>
<path d="M18.9814 39.3636C18.6928 38.9778 18.3776 39.3897 18.0783 39.3324C18.0249 39.2229 17.9768 39.1134 17.9233 39.0039C18.0837 38.7902 18.3188 38.6755 18.5592 38.566C18.7623 38.5764 18.9867 38.4982 19.147 38.6963C19.147 38.9309 19.2379 39.1864 18.9814 39.3636Z" fill="#242634"/>
<path d="M26.2594 11.0396C26.3235 11.3941 26.3823 11.7486 26.4464 12.1031C26.4785 12.296 26.4785 12.4732 26.2113 12.4785C25.9601 12.4785 25.912 12.3064 25.9174 12.1135C25.9334 11.7538 25.9548 11.3941 25.9762 11.0344C26.0723 11.0344 26.1632 11.0344 26.2594 11.0344V11.0396Z" fill="#A6BA96"/>
<path d="M15.7432 8.07318C15.4921 8.26086 15.3852 8.62058 15.0005 8.65186C15.0005 8.45376 15.0005 8.25565 14.9951 8.05233C15.3531 8.05233 15.5402 7.58834 15.9409 7.71868C15.8768 7.83858 15.8074 7.95328 15.7432 8.07318Z" fill="#242634"/>
<path d="M24.6349 12.9372C24.2982 12.9946 24.015 13.2448 23.657 13.2135C23.5875 12.9946 23.3898 12.7183 23.828 12.687C24.1166 12.6713 24.4692 12.5514 24.6349 12.9372Z" fill="#242634"/>
<path d="M13.8354 10.2732C13.9049 10.341 13.9797 10.4036 14.0492 10.4713C13.766 10.8154 13.5148 11.2116 12.9751 11.1856C13.1942 10.8206 13.4988 10.5339 13.8354 10.2732Z" fill="#A6BA96"/>
<path d="M19.1471 38.6963C18.9868 38.4982 18.7624 38.5764 18.5593 38.566L18.5807 38.4878C18.7464 38.2271 19.067 38.2115 19.3021 38.0603C19.3662 38.1281 19.4303 38.1958 19.4945 38.2584C19.5105 38.5034 19.3876 38.6442 19.1471 38.6963Z" fill="#A6BA96"/>
<path d="M18.1958 32.7844C18.8798 32.7531 19.5638 32.7375 20.2478 32.8157C19.5584 32.993 18.8744 33.0138 18.1958 32.7844Z" fill="#6E8161"/>
<path d="M25.1213 37.2262C25.1747 37.6015 25.2015 37.8622 24.8648 37.9717C24.8274 37.9821 24.7366 37.9352 24.7152 37.8883C24.5282 37.5338 24.8541 37.4451 25.1213 37.221V37.2262Z" fill="#484A51"/>
<path d="M22.0432 38.1907C21.9737 38.4148 21.7974 38.5191 21.5943 38.5869C21.4661 38.6338 21.3539 38.5869 21.3058 38.4617C21.263 38.3523 21.3646 38.2897 21.4447 38.2793C21.6424 38.2532 21.8134 38.0603 22.0379 38.1854L22.0432 38.1907Z" fill="#484A51"/>
<path d="M10.6239 14.0164C10.2338 14.1728 9.9933 14.3553 9.59253 14.2666C9.85971 13.8652 10.1696 13.9382 10.6239 14.0164Z" fill="#242634"/>
<path d="M20.0982 39.3845C20.0715 39.2437 20.0768 39.0926 19.9165 39.0196C19.9699 38.858 19.9913 38.6234 20.2371 38.7172C20.4081 38.7798 20.515 38.9726 20.3761 39.1603C20.3066 39.2542 20.1944 39.3115 20.0982 39.3845Z" fill="#6E8161"/>
<path d="M26.2595 11.0396C26.1634 11.0396 26.0725 11.0396 25.9763 11.0396C25.9069 10.805 25.9282 10.5704 25.9763 10.3045C26.2275 10.5078 26.2809 10.758 26.2595 11.0396Z" fill="#5B6E4C"/>
<path d="M34.4728 38.2271C34.5797 38.2376 34.6865 38.248 34.7987 38.2636C34.7987 38.5139 34.6972 38.7016 34.4942 38.8788C34.3926 38.6338 34.43 38.4305 34.4728 38.2271Z" fill="#242634"/>
<path d="M20.7181 7.67177C20.6272 7.66134 20.531 7.65091 20.4402 7.64049C20.4509 7.45281 20.5417 7.21299 20.7127 7.25991C20.9211 7.31204 20.8623 7.52579 20.7127 7.67177H20.7181Z" fill="#242634"/>
<path d="M15.1607 12.1239C15.2248 12.1344 15.2943 12.1448 15.3584 12.1552C15.3263 12.2021 15.2996 12.2595 15.2569 12.3012C15.1767 12.3846 15.0378 12.5097 14.9683 12.4159C14.8347 12.2439 15.0485 12.1969 15.1607 12.1292V12.1239Z" fill="#141513"/>
<path d="M7.78104 25.0009C7.7383 25.0739 7.6902 25.0791 7.65814 24.9957C7.64211 24.9436 7.63677 24.881 7.65814 24.8289C7.6902 24.7454 7.74898 24.7454 7.7757 24.8289C7.79173 24.881 7.7757 24.9383 7.7757 25.0009H7.78104Z" fill="#242634"/>
<path d="M35.3599 34.2076C35.5522 34.2076 35.7446 34.2076 35.9316 34.2076C35.7393 34.4527 35.5469 34.4422 35.3599 34.2076Z" fill="#242634"/>
<path d="M24.9771 36.2252C24.9984 36.147 25.0251 36.0636 25.0465 35.9854C25.0839 36.0115 25.1481 36.0323 25.1481 36.0584C25.1481 36.1574 25.0839 36.2096 24.9984 36.2461L24.9771 36.2252Z" fill="#484A51"/>
<path d="M20.825 32.5185C20.9211 32.3778 21.0547 32.3465 21.215 32.3726C21.1135 32.4925 20.9853 32.5498 20.825 32.5185Z" fill="#EDBC9F"/>
<path d="M21.3914 32.3308C21.4875 32.1901 21.6265 32.1588 21.7921 32.1901C21.6906 32.3204 21.557 32.3621 21.3914 32.3308Z" fill="#EDBC9F"/>
<path d="M11.1903 37.7266C11.1475 37.6537 11.1048 37.5859 11.0674 37.5129C11.0674 37.5077 11.1101 37.4764 11.1315 37.4608C11.1689 37.5338 11.2063 37.612 11.2437 37.6849L11.1956 37.7266H11.1903Z" fill="#242634"/>
<path d="M22.0112 13.615C21.8882 13.7453 21.7386 13.7766 21.5676 13.7401C21.6852 13.5941 21.8348 13.568 22.0112 13.615Z" fill="#484A51"/>
<path d="M22.77 13.4273C22.6525 13.5472 22.5028 13.5785 22.3425 13.5472C22.4547 13.4012 22.6044 13.3856 22.77 13.4273Z" fill="#242634"/>
<path d="M12.537 9.36088C12.3767 9.07414 12.6439 9.20969 12.7347 9.1732C12.6706 9.23576 12.6065 9.29832 12.537 9.36088Z" fill="#484A51"/>
<path d="M10.6453 37.8935C10.6453 37.8935 10.7201 37.93 10.7201 37.9352C10.704 37.9977 10.6773 37.9821 10.6453 37.8935Z" fill="#141513"/>
<path d="M26.8794 37.5286C26.8527 37.5546 26.826 37.5755 26.7939 37.6015C26.8207 37.5755 26.842 37.5442 26.8688 37.5181L26.8794 37.5286Z" fill="#242634"/>
<path d="M28.7603 36.4233C28.6267 36.3556 28.6267 36.293 28.771 36.2409C28.771 36.3034 28.7656 36.366 28.7603 36.4233Z" fill="#484A51"/>
<path d="M24.9983 36.2461C24.9662 36.2721 24.9341 36.2982 24.8967 36.3295C24.9234 36.2982 24.9502 36.2617 24.9769 36.2304L24.9983 36.2513V36.2461Z" fill="#484A51"/>
<path d="M36.8721 34.2129C36.8988 34.2389 36.9255 34.265 36.9469 34.2911C36.9309 34.2859 36.9041 34.2859 36.8988 34.2702C36.8881 34.2494 36.8881 34.2233 36.8828 34.2024L36.8721 34.2129Z" fill="#484A51"/>
<path d="M15.5506 32.9252C15.5506 32.9252 15.4758 32.8887 15.4758 32.8835C15.4919 32.8209 15.5239 32.8365 15.5506 32.9252Z" fill="#242634"/>
<path d="M20.4563 32.6906C20.4937 32.5915 20.5632 32.5498 20.6754 32.5602C20.638 32.6593 20.5632 32.701 20.4563 32.6906Z" fill="#EDBC9F"/>
<path d="M12.7186 31.4498C12.6919 31.4237 12.6705 31.3977 12.6438 31.3716C12.6598 31.3716 12.6812 31.3716 12.6919 31.3872C12.7079 31.4029 12.7133 31.4289 12.724 31.4498H12.7186Z" fill="#242634"/>
<path d="M14.2308 8.98552L14.156 9.05851C14.156 9.05851 14.1614 9.02201 14.172 9.01159C14.1881 8.99595 14.2148 8.99595 14.2362 8.98552H14.2308Z" fill="#242634"/>
<path d="M14.2309 8.99074C14.2416 8.96467 14.263 8.91254 14.2683 8.91254C14.3325 8.92296 14.3164 8.95424 14.2256 8.98552L14.2309 8.99074Z" fill="#242634"/>
<path d="M23.08 0.404373C23.5449 0.44608 23.9244 0.831867 24.4267 0.706747C24.7419 1.01433 24.6564 1.30628 24.3786 1.58259C24.1274 1.83804 23.8602 1.86411 23.7159 1.5096C23.5556 1.10817 23.1709 0.83708 23.0747 0.409587L23.08 0.404373Z" fill="#484A51"/>
<path d="M27.2427 1.44182C27.6274 1.5148 28.0015 1.60865 28.1938 1.99965C27.7877 1.95794 27.3656 1.94751 27.2427 1.44182Z" fill="#484A51"/>
<path d="M22.1609 0.190612C22.3746 0.143692 22.5884 0.112412 22.754 0.300092C22.5349 0.367865 22.3319 0.362652 22.1609 0.190612Z" fill="#484A51"/>
<path d="M10.2338 5.24234C10.4261 5.71675 9.89176 5.98785 9.89176 6.41013C9.45358 6.58217 9.57648 7.17649 9.14364 7.35374C8.8818 7.54142 8.61996 7.72389 8.30469 7.94806C8.45965 7.19734 9.40014 5.90965 10.2284 5.24234H10.2338Z" fill="#484A51"/>
<path d="M5.15723 16.696C5.08242 17.3216 5.00227 17.942 4.92745 18.5676C4.76714 17.9525 4.6763 17.3373 4.87402 16.7221C4.9702 16.7117 5.06105 16.7065 5.15723 16.696Z" fill="#484A51"/>
<path d="M5.15724 16.6961C5.06105 16.7065 4.97021 16.7117 4.87402 16.7221C5.0183 16.3051 4.87402 15.8463 5.07708 15.4396C5.16793 15.4396 5.25877 15.4396 5.35495 15.4396C5.42977 15.8776 5.14121 16.2633 5.15724 16.6961Z" fill="#A6BA96"/>
<path d="M9.12759 35.5006C9.29858 35.5736 9.31461 35.7404 9.36805 35.8864C9.17034 35.829 9.12224 35.683 9.12759 35.5006Z" fill="#484A51"/>
<path d="M8.88178 5.87837C8.84437 5.92529 8.80696 5.97221 8.7749 6.01913C8.81231 5.97221 8.84971 5.92529 8.88178 5.87837Z" fill="#141513"/>
<path d="M8.50235 6.43098C8.49166 6.53004 8.43288 6.58739 8.34204 6.61867C8.39548 6.55611 8.44892 6.49354 8.50235 6.43098Z" fill="#141513"/>
<path d="M21.5625 23.8852C22.1824 24.1094 22.7702 24.3909 23.2457 24.8601C23.4702 25.0791 23.4916 25.2563 23.2564 25.4753C22.1824 26.5075 21.1564 27.5867 19.6388 28.0403C17.3944 28.7076 15.4226 28.2592 13.7019 26.7265C12.5798 25.7255 12.6813 24.881 14.0119 24.0781C14.1401 23.9999 14.2844 23.953 14.4233 23.8905C14.5943 23.9687 14.8401 23.8331 14.9684 24.0521C14.8562 24.0886 14.7333 24.1198 14.6264 24.1668C14.1294 24.4014 13.9478 24.8601 13.9317 25.3345C13.9104 25.8663 14.3432 26.1165 14.7974 26.299C14.9417 26.3564 15.0913 26.4033 15.2409 26.445C16.4433 26.7943 17.6616 26.5962 18.8746 26.544C19.7456 26.5075 20.5312 26.2521 21.2686 25.8194C21.8671 25.4649 21.9686 24.8966 21.5197 24.3753C21.3808 24.2137 21.2098 24.0781 21.0548 23.9322C21.2205 23.9165 21.3915 23.9009 21.5571 23.8852H21.5625Z" fill="#0F0F0E"/>
<path d="M25.7305 14.8766C27.0237 14.96 27.4779 15.9088 27.9161 16.8837C28.0176 17.1079 28.1299 17.3269 28.2314 17.5458C28.3062 17.7074 28.4291 17.8899 28.1886 18.015C27.9695 18.1297 27.852 17.9681 27.7344 17.8221C27.681 17.7491 27.6115 17.6866 27.5527 17.6188C27.4779 17.4572 27.4672 17.2539 27.2642 17.1757C26.2435 18.3643 24.2557 18.6041 23.0373 17.4624C23.032 16.8264 23.8496 17.3477 23.9671 16.7951C23.2831 16.769 23.1816 16.3676 23.3206 15.8254C23.3847 15.7733 23.4435 15.7211 23.3954 15.6325C23.3954 15.6221 23.3312 15.6221 23.3259 15.6325C23.2885 15.7003 23.2457 15.7785 23.3419 15.8358C22.5938 16.0704 22.1877 16.6439 21.835 17.2695C21.6213 17.3738 21.4129 17.5823 21.1938 17.2799C21.0121 17.0245 21.151 16.8107 21.306 16.6231C22.1182 15.6534 22.9786 14.7567 24.4213 14.8297C24.7366 14.8922 25.0519 14.8818 25.3725 14.8349C25.4954 14.8505 25.613 14.8609 25.7359 14.8766H25.7305Z" fill="#0F0F0E"/>
<path d="M8.60403 18.5468C8.588 18.4373 8.57731 18.3278 8.56128 18.2236C9.13305 17.9055 9.40558 17.3321 9.73154 16.8264C9.9827 16.4354 10.298 16.1904 10.7308 16.06C11.1156 15.9401 11.511 15.8411 11.8957 15.7212C12.6759 15.4761 13.3706 15.669 14.0172 16.1069C14.7867 16.6231 14.7813 17.4155 14.0172 17.9525C13.2797 18.4738 12.4728 18.7293 11.5537 18.5885C11.2866 18.5468 11.0675 18.479 10.9926 18.1975C10.9926 17.7283 11.6339 17.9212 11.7354 17.5041C11.372 17.3373 10.7789 17.3842 11.0835 16.5032C10.4636 17.1965 10.0254 17.6866 9.58192 18.1819C9.23458 18.2548 8.98877 18.5885 8.59868 18.552L8.60403 18.5468Z" fill="#0D0D0D"/>
<path d="M17.2073 20.2098C17.0202 20.2098 16.8279 20.2307 16.6462 20.2098C16.1546 20.1369 16.0423 19.8762 16.2721 19.4383C16.5179 18.9743 16.9347 18.6354 17.2447 18.2236C17.3248 18.1141 17.4317 18.0359 17.5546 18.0932C18.0302 18.3122 18.5592 18.4582 18.9279 18.8439C19.3073 19.2402 19.1363 19.8032 18.5752 20.0013C18.3455 20.0847 18.0997 20.1316 17.8538 20.1733C17.6401 20.2098 17.421 20.2151 17.2073 20.2359C17.2073 20.2255 17.2073 20.2203 17.2073 20.2098Z" fill="#EDBC9F"/>
<path d="M14.9735 24.0521C14.8453 23.8331 14.6048 23.9687 14.4285 23.8905C14.9842 23.5203 15.556 23.4473 16.1972 23.6976C17.0095 24.0156 17.7896 23.7393 18.5645 23.5047C18.8156 23.562 19.1042 23.4525 19.3233 23.6715C18.9652 23.7862 18.6072 23.8905 18.2545 24.0104C17.469 24.2762 16.6675 24.4483 15.8819 24.0677C15.5506 23.9061 15.2781 24.0625 14.9735 24.0521Z" fill="#484A51"/>
<path d="M10.3247 15.6065C11.6392 14.2771 13.8996 14.4387 14.434 15.8358C13.75 15.4553 13.1729 15.0695 12.4461 15.0538C11.7621 15.0382 11.1636 15.3719 10.3193 15.6065H10.3247Z" fill="#484A51"/>
<path d="M23.3151 15.8202C23.1762 16.3624 23.2777 16.7638 23.9617 16.7899C23.8442 17.3425 23.0266 16.8212 23.0319 17.4572C22.6418 17.3216 22.2464 17.233 21.8296 17.2695C22.1823 16.6439 22.5884 16.0652 23.3365 15.8358L23.3151 15.8202Z" fill="#E6E8E8"/>
<path d="M9.58716 18.1714C10.0253 17.6762 10.4689 17.1861 11.0887 16.4927C10.7841 17.379 11.3773 17.3269 11.7407 17.4937C11.6391 17.9108 10.9925 17.7179 10.9979 18.1871C10.5276 18.1871 10.0574 18.1766 9.5925 18.1714H9.58716Z" fill="#E6E8E8"/>
<path d="M19.3181 23.6663C19.1044 23.4473 18.8158 23.5568 18.5593 23.4995C19.6281 23.1032 20.606 23.3952 21.5571 23.88C21.3861 23.8957 21.2205 23.9113 21.0495 23.927C20.483 23.7601 19.9059 23.6454 19.3128 23.6663H19.3181Z" fill="#6E8161"/>
<path d="M25.3672 14.8349C25.0519 14.8818 24.7313 14.8922 24.416 14.8297C24.7313 14.6211 25.0519 14.6159 25.3672 14.8349Z" fill="#EDBC9F"/>
<path d="M11.7087 3.95987C11.8316 4.41343 11.5109 4.38736 11.217 4.38736C11.3079 4.16319 11.4789 4.02764 11.7087 3.95987Z" fill="#484A51"/>
<path d="M10.6507 4.79921C10.6347 4.88783 10.5812 4.93475 10.4904 4.94518C10.485 4.83049 10.5331 4.77835 10.6507 4.79921Z" fill="#484A51"/>
<path d="M10.4689 4.97124C10.4582 5.05987 10.4101 5.11201 10.3193 5.12765C10.2979 5.01295 10.3567 4.96603 10.4689 4.97124Z" fill="#484A51"/>
<path d="M19.5156 12.4837C19.5156 12.5984 19.5049 12.7131 19.382 12.7704C19.3607 12.7808 19.2752 12.7235 19.2805 12.7131C19.3072 12.5932 19.4034 12.5306 19.5156 12.4889V12.4837Z" fill="#484A51"/>
<path d="M14.4178 6.59261C14.4178 6.59261 14.3644 6.64474 14.3376 6.66559C14.3376 6.64995 14.3376 6.6291 14.3537 6.61867C14.3697 6.60303 14.3964 6.59782 14.4178 6.59261Z" fill="#484A51"/>
<path d="M15.5295 10.9562C15.5081 10.8519 15.5027 10.6486 15.3424 10.7893C15.0485 11.0552 14.8187 11.3889 14.5302 11.6652C14.3806 11.8112 14.1935 12.1083 13.9424 11.7538C14.3378 11.1126 14.8829 10.5808 15.3638 10.0021C15.5882 9.81966 15.8394 9.66848 15.9409 9.37653C16.7104 8.70922 17.1593 7.77082 17.9181 7.07224C17.8539 7.97414 17.4104 8.73008 17.015 9.50165C16.7318 9.77274 16.5234 10.0908 16.3631 10.4453C15.8554 10.6538 15.9837 11.3003 15.5508 11.5609C15.5455 11.3576 15.5401 11.1595 15.5295 10.9562Z" fill="#141513"/>
<path d="M16.363 10.4453C16.5233 10.096 16.7318 9.77274 17.015 9.50165C17.0737 9.61634 17.1379 9.72582 17.2715 9.76753C17.0577 10.1064 16.7371 10.3097 16.363 10.4453Z" fill="#A6BA96"/>
<path d="M15.9408 9.37652C15.8446 9.66846 15.5881 9.81965 15.3637 10.0021C15.3637 9.84572 15.3637 9.68932 15.3637 9.5277L15.353 9.53813C15.4706 9.4078 15.5881 9.28268 15.7057 9.15234C15.7859 9.22533 15.8607 9.29832 15.9408 9.3713V9.37652Z" fill="#A6BA96"/>
<path d="M15.7058 9.15756C15.5883 9.28789 15.4707 9.41301 15.3531 9.54335C15.0753 9.24097 15.4173 9.10021 15.5402 8.91775C15.6417 8.77177 15.7272 8.89168 15.786 8.99073C15.7486 9.03765 15.7218 9.095 15.7058 9.15235V9.15756Z" fill="#484A51"/>
<path d="M16.5287 7.31204C16.5287 7.17128 16.4058 6.97317 16.6943 6.96796C16.8974 7.20256 16.6569 7.23384 16.5287 7.31204Z" fill="#484A51"/>
<path d="M26.8687 0.367874C26.9328 0.367874 27.0022 0.367874 27.0664 0.373087C26.9969 0.466927 26.9328 0.456501 26.8687 0.367874Z" fill="#484A51"/>
<path d="M19.3021 38.0603C19.0669 38.2167 18.7463 38.2324 18.5807 38.4878C18.212 38.3001 17.5761 38.8162 17.4692 38.2845C17.4051 37.9717 18.1104 38.003 18.4631 37.8622C18.6341 37.7944 18.8051 37.7058 18.9868 37.6745C19.3127 37.612 19.3341 37.8257 19.3074 38.0603H19.3021Z" fill="#242634"/>
<path d="M15.5294 10.9562C15.5348 11.1595 15.5401 11.3576 15.5508 11.5609C15.4867 11.6547 15.4226 11.7486 15.3584 11.8476C15.1928 11.5088 15.2836 11.2168 15.5294 10.9562Z" fill="#0F0F0E"/>
<path d="M19.3181 23.6663C19.9166 23.6454 20.4884 23.7601 21.0548 23.9269C21.2097 24.0729 21.3807 24.2085 21.5197 24.3701C21.9686 24.8914 21.867 25.4597 21.2685 25.8142C20.5311 26.2469 19.7456 26.5023 18.8746 26.5388C17.6616 26.591 16.4432 26.7891 15.2409 26.4398C15.0912 26.3981 14.9416 26.3512 14.7973 26.2938C14.3431 26.1165 13.9103 25.8611 13.9317 25.3293C13.953 24.8549 14.1294 24.3961 14.6263 24.1615C14.7332 24.1094 14.8561 24.0833 14.9683 24.0469C15.2676 24.0573 15.5455 23.9009 15.8768 24.0625C16.6623 24.4431 17.4638 24.271 18.2494 24.0051C18.602 23.8852 18.9601 23.781 19.3181 23.6663Z" fill="white"/>
<path d="M23.3364 15.8358C23.2402 15.7733 23.283 15.7003 23.3204 15.6325C23.3257 15.6221 23.3845 15.6221 23.3899 15.6325C23.438 15.7212 23.3792 15.7733 23.3151 15.8254L23.3418 15.8411L23.3364 15.8358Z" fill="#E6E8E8"/>
</g>
</g>
</g>
<defs>
<clipPath id="clip0_43_25121">
<rect width="41" height="40" rx="20" fill="white"/>
</clipPath>
<clipPath id="clip1_43_25121">
<rect width="41" height="40" fill="white"/>
</clipPath>
</defs>
</svg>
